G04 #@! TF.GenerationSoftware,KiCad,Pcbnew,(5.0.0-rc2-dev-691-g31b026c)*
G04 #@! TF.CreationDate,2018-06-05T10:47:32+02:00*
G04 #@! TF.ProjectId,DIY_detector,4449595F6465746563746F722E6B6963,V1.1*
G04 #@! TF.SameCoordinates,Original*
G04 #@! TF.FileFunction,Copper,L1,Top,Signal*
G04 #@! TF.FilePolarity,Positive*
%FSLAX46Y46*%
G04 Gerber Fmt 4.6, Leading zero omitted, Abs format (unit mm)*
G04 Created by KiCad (PCBNEW (5.0.0-rc2-dev-691-g31b026c)) date 2018 June 05, Tuesday 10:47:32*
%MOMM*%
%LPD*%
G01*
G04 APERTURE LIST*
%ADD10R,2.400000X1.600000*%
%ADD11O,2.400000X1.600000*%
%ADD12C,1.600000*%
%ADD13C,0.100000*%
%ADD14O,1.600000X1.600000*%
%ADD15C,5.700000*%
%ADD16C,1.700000*%
%ADD17R,1.700000X1.700000*%
%ADD18O,1.700000X1.700000*%
%ADD19C,1.100000*%
%ADD20C,0.800000*%
%ADD21C,0.400000*%
%ADD22C,0.250000*%
G04 APERTURE END LIST*
D10*
X120355000Y-113770000D03*
D11*
X127975000Y-106150000D03*
X120355000Y-111230000D03*
X127975000Y-108690000D03*
X120355000Y-108690000D03*
X127975000Y-111230000D03*
X120355000Y-106150000D03*
X127975000Y-113770000D03*
D12*
X166800000Y-103000000D03*
D13*
G36*
X165668629Y-103000000D02*
X166800000Y-101868629D01*
X167931371Y-103000000D01*
X166800000Y-104131371D01*
X165668629Y-103000000D01*
X165668629Y-103000000D01*
G37*
D12*
X168567767Y-104767767D03*
X113370000Y-111230000D03*
X113370000Y-113730000D03*
X113370000Y-116945000D03*
X115870000Y-116945000D03*
X113370000Y-108690000D03*
X113370000Y-106190000D03*
X123316000Y-117834000D03*
X125816000Y-117834000D03*
X125435000Y-109960000D03*
X122935000Y-109960000D03*
X137500000Y-104880000D03*
X137500000Y-107380000D03*
X143215000Y-102975000D03*
X145715000Y-102975000D03*
X165440000Y-112500000D03*
X165440000Y-115000000D03*
X116545000Y-108690000D03*
D14*
X116545000Y-101070000D03*
D12*
X130896000Y-108690000D03*
D14*
X130896000Y-116310000D03*
D12*
X133690000Y-110000000D03*
D14*
X133690000Y-102380000D03*
D12*
X116545000Y-113770000D03*
D14*
X116545000Y-111230000D03*
D12*
X128000000Y-101750000D03*
D14*
X120380000Y-101750000D03*
D15*
X137500000Y-112500000D03*
X154900000Y-122500000D03*
D16*
X107750000Y-118430000D03*
D17*
X107750000Y-113350000D03*
X107750000Y-111650000D03*
D16*
X107750000Y-106570000D03*
X102750000Y-106570000D03*
D17*
X102750000Y-111650000D03*
X102750000Y-113350000D03*
D16*
X102750000Y-118430000D03*
D17*
X165440000Y-117900000D03*
D18*
X167980000Y-117900000D03*
D12*
X143215000Y-117580000D03*
D14*
X143215000Y-107420000D03*
X147660000Y-117580000D03*
D12*
X147660000Y-107420000D03*
D18*
X167980000Y-109325000D03*
D17*
X165440000Y-109325000D03*
D19*
X105250000Y-105750000D03*
X109500000Y-112500000D03*
X101000000Y-112500000D03*
X105250000Y-119250000D03*
D15*
X154900000Y-102500000D03*
D20*
X121244000Y-121205743D03*
X119378399Y-119567443D03*
X119416499Y-122831343D03*
X117473399Y-121231143D03*
X107800000Y-103900000D03*
X110000000Y-103900000D03*
X108900000Y-103900000D03*
X111000000Y-103200000D03*
X111500000Y-102300000D03*
X112000000Y-101400000D03*
X169100000Y-121300000D03*
X168000000Y-121300000D03*
X166900000Y-121300000D03*
X165800000Y-121300000D03*
X164100000Y-122200000D03*
X163500000Y-123200000D03*
X162900000Y-124200000D03*
X164700000Y-121300000D03*
X112500000Y-100500000D03*
D21*
X131340000Y-116310000D02*
X131445000Y-116310000D01*
D22*
X137436500Y-105515000D02*
X137500000Y-105578500D01*
D21*
X165209000Y-111905000D02*
X165440000Y-111905000D01*
X164719000Y-112395000D02*
X165209000Y-111905000D01*
X165440000Y-114405000D02*
X165440000Y-115536370D01*
G36*
X115406596Y-100255102D02*
X115181404Y-100752781D01*
X115298568Y-100970000D01*
X116445000Y-100970000D01*
X116445000Y-100950000D01*
X116645000Y-100950000D01*
X116645000Y-100970000D01*
X117791432Y-100970000D01*
X117908596Y-100752781D01*
X117683404Y-100255102D01*
X117384645Y-99975000D01*
X152643508Y-99975000D01*
X152590516Y-100049094D01*
X154900000Y-102358579D01*
X157209484Y-100049094D01*
X157156492Y-99975000D01*
X167803250Y-99975000D01*
X174525000Y-106696751D01*
X174525001Y-119303247D01*
X172203250Y-121625000D01*
X165180401Y-121625000D01*
X165167114Y-121620369D01*
X165086413Y-121625000D01*
X165053221Y-121625000D01*
X165039763Y-121627677D01*
X164978458Y-121631195D01*
X164947925Y-121645945D01*
X164914665Y-121652561D01*
X164863603Y-121686680D01*
X164808305Y-121713393D01*
X164785739Y-121738706D01*
X164757545Y-121757545D01*
X164723429Y-121808603D01*
X164714299Y-121818845D01*
X164697473Y-121847450D01*
X164652561Y-121914665D01*
X164649816Y-121928467D01*
X162828326Y-125025000D01*
X157156492Y-125025000D01*
X157209484Y-124950906D01*
X154900000Y-122641421D01*
X152590516Y-124950906D01*
X152643508Y-125025000D01*
X112271674Y-125025000D01*
X111168038Y-123148819D01*
X151442766Y-123148819D01*
X151954225Y-124422457D01*
X151996582Y-124485849D01*
X152449094Y-124809484D01*
X154758579Y-122500000D01*
X155041421Y-122500000D01*
X157350906Y-124809484D01*
X157803418Y-124485849D01*
X158342360Y-123223595D01*
X158357234Y-121851181D01*
X157845775Y-120577543D01*
X157803418Y-120514151D01*
X157350906Y-120190516D01*
X155041421Y-122500000D01*
X154758579Y-122500000D01*
X152449094Y-120190516D01*
X151996582Y-120514151D01*
X151457640Y-121776405D01*
X151442766Y-123148819D01*
X111168038Y-123148819D01*
X110450185Y-121928471D01*
X110447439Y-121914665D01*
X110402514Y-121847430D01*
X110385700Y-121818846D01*
X110376576Y-121808612D01*
X110342455Y-121757545D01*
X110314258Y-121738704D01*
X110291694Y-121713393D01*
X110236399Y-121686681D01*
X110185335Y-121652561D01*
X110152075Y-121645945D01*
X110121542Y-121631195D01*
X110060237Y-121627677D01*
X110046779Y-121625000D01*
X110013587Y-121625000D01*
X109932886Y-121620369D01*
X109919599Y-121625000D01*
X107596751Y-121625000D01*
X106168955Y-120197205D01*
X106142455Y-120157545D01*
X105985335Y-120052561D01*
X105967906Y-120049094D01*
X152590516Y-120049094D01*
X154900000Y-122358579D01*
X157209484Y-120049094D01*
X156885849Y-119596582D01*
X155623595Y-119057640D01*
X154251181Y-119042766D01*
X152977543Y-119554225D01*
X152914151Y-119596582D01*
X152590516Y-120049094D01*
X105967906Y-120049094D01*
X105846779Y-120025000D01*
X105846774Y-120025000D01*
X105823193Y-120020310D01*
X106055371Y-119788132D01*
X106200000Y-119438967D01*
X106200000Y-119437371D01*
X106884050Y-119437371D01*
X106963906Y-119682096D01*
X107502900Y-119887612D01*
X108079513Y-119871218D01*
X108536094Y-119682096D01*
X108615950Y-119437371D01*
X107750000Y-118571421D01*
X106884050Y-119437371D01*
X106200000Y-119437371D01*
X106200000Y-119061033D01*
X106055371Y-118711868D01*
X105788132Y-118444629D01*
X105438967Y-118300000D01*
X105061033Y-118300000D01*
X104711868Y-118444629D01*
X104444629Y-118711868D01*
X104300000Y-119061033D01*
X104300000Y-119438967D01*
X104444629Y-119788132D01*
X104681497Y-120025000D01*
X101696752Y-120025000D01*
X101109123Y-119437371D01*
X101884050Y-119437371D01*
X101963906Y-119682096D01*
X102502900Y-119887612D01*
X103079513Y-119871218D01*
X103536094Y-119682096D01*
X103615950Y-119437371D01*
X102750000Y-118571421D01*
X101884050Y-119437371D01*
X101109123Y-119437371D01*
X100475000Y-118803250D01*
X100475000Y-118182900D01*
X101292388Y-118182900D01*
X101308782Y-118759513D01*
X101497904Y-119216094D01*
X101742629Y-119295950D01*
X102608579Y-118430000D01*
X102891421Y-118430000D01*
X103757371Y-119295950D01*
X104002096Y-119216094D01*
X104207612Y-118677100D01*
X104193562Y-118182900D01*
X106292388Y-118182900D01*
X106308782Y-118759513D01*
X106497904Y-119216094D01*
X106742629Y-119295950D01*
X107608579Y-118430000D01*
X107891421Y-118430000D01*
X108757371Y-119295950D01*
X109002096Y-119216094D01*
X109207612Y-118677100D01*
X109191218Y-118100487D01*
X109002096Y-117643906D01*
X108757371Y-117564050D01*
X107891421Y-118430000D01*
X107608579Y-118430000D01*
X106742629Y-117564050D01*
X106497904Y-117643906D01*
X106292388Y-118182900D01*
X104193562Y-118182900D01*
X104191218Y-118100487D01*
X104002096Y-117643906D01*
X103757371Y-117564050D01*
X102891421Y-118430000D01*
X102608579Y-118430000D01*
X101742629Y-117564050D01*
X101497904Y-117643906D01*
X101292388Y-118182900D01*
X100475000Y-118182900D01*
X100475000Y-117422629D01*
X101884050Y-117422629D01*
X102750000Y-118288579D01*
X103615950Y-117422629D01*
X106884050Y-117422629D01*
X107750000Y-118288579D01*
X108615950Y-117422629D01*
X108536094Y-117177904D01*
X107997100Y-116972388D01*
X107420487Y-116988782D01*
X106963906Y-117177904D01*
X106884050Y-117422629D01*
X103615950Y-117422629D01*
X103536094Y-117177904D01*
X102997100Y-116972388D01*
X102420487Y-116988782D01*
X101963906Y-117177904D01*
X101884050Y-117422629D01*
X100475000Y-117422629D01*
X100475000Y-116706305D01*
X112170000Y-116706305D01*
X112170000Y-117183695D01*
X112352689Y-117624745D01*
X112690255Y-117962311D01*
X113131305Y-118145000D01*
X113608695Y-118145000D01*
X114049745Y-117962311D01*
X114387311Y-117624745D01*
X114570000Y-117183695D01*
X114570000Y-116706305D01*
X114670000Y-116706305D01*
X114670000Y-117183695D01*
X114852689Y-117624745D01*
X115190255Y-117962311D01*
X115631305Y-118145000D01*
X116108695Y-118145000D01*
X116549745Y-117962311D01*
X116887311Y-117624745D01*
X116899505Y-117595305D01*
X122116000Y-117595305D01*
X122116000Y-118072695D01*
X122298689Y-118513745D01*
X122636255Y-118851311D01*
X123077305Y-119034000D01*
X123554695Y-119034000D01*
X123995745Y-118851311D01*
X124333311Y-118513745D01*
X124516000Y-118072695D01*
X124516000Y-117595305D01*
X124616000Y-117595305D01*
X124616000Y-118072695D01*
X124798689Y-118513745D01*
X125136255Y-118851311D01*
X125577305Y-119034000D01*
X126054695Y-119034000D01*
X126495745Y-118851311D01*
X126833311Y-118513745D01*
X127016000Y-118072695D01*
X127016000Y-117595305D01*
X126833311Y-117154255D01*
X126495745Y-116816689D01*
X126054695Y-116634000D01*
X125577305Y-116634000D01*
X125136255Y-116816689D01*
X124798689Y-117154255D01*
X124616000Y-117595305D01*
X124516000Y-117595305D01*
X124333311Y-117154255D01*
X123995745Y-116816689D01*
X123554695Y-116634000D01*
X123077305Y-116634000D01*
X122636255Y-116816689D01*
X122298689Y-117154255D01*
X122116000Y-117595305D01*
X116899505Y-117595305D01*
X117070000Y-117183695D01*
X117070000Y-116706305D01*
X116905845Y-116310000D01*
X129672491Y-116310000D01*
X129765625Y-116778217D01*
X130030848Y-117175152D01*
X130427783Y-117440375D01*
X130777812Y-117510000D01*
X131014188Y-117510000D01*
X131364217Y-117440375D01*
X131512486Y-117341305D01*
X142015000Y-117341305D01*
X142015000Y-117818695D01*
X142197689Y-118259745D01*
X142535255Y-118597311D01*
X142976305Y-118780000D01*
X143453695Y-118780000D01*
X143894745Y-118597311D01*
X144232311Y-118259745D01*
X144382474Y-117897219D01*
X146296404Y-117897219D01*
X146521596Y-118394898D01*
X146920100Y-118768516D01*
X147342782Y-118943588D01*
X147560000Y-118825994D01*
X147560000Y-117680000D01*
X147760000Y-117680000D01*
X147760000Y-118825994D01*
X147977218Y-118943588D01*
X148399900Y-118768516D01*
X148798404Y-118394898D01*
X149023596Y-117897219D01*
X148906432Y-117680000D01*
X147760000Y-117680000D01*
X147560000Y-117680000D01*
X146413568Y-117680000D01*
X146296404Y-117897219D01*
X144382474Y-117897219D01*
X144415000Y-117818695D01*
X144415000Y-117341305D01*
X144382475Y-117262781D01*
X146296404Y-117262781D01*
X146413568Y-117480000D01*
X147560000Y-117480000D01*
X147560000Y-116334006D01*
X147760000Y-116334006D01*
X147760000Y-117480000D01*
X148906432Y-117480000D01*
X149023596Y-117262781D01*
X148927316Y-117050000D01*
X164182164Y-117050000D01*
X164182164Y-118750000D01*
X164213209Y-118906072D01*
X164301616Y-119038384D01*
X164433928Y-119126791D01*
X164590000Y-119157836D01*
X166290000Y-119157836D01*
X166446072Y-119126791D01*
X166578384Y-119038384D01*
X166666791Y-118906072D01*
X166697836Y-118750000D01*
X166697836Y-118516348D01*
X166798859Y-118741087D01*
X167210638Y-119129066D01*
X167654941Y-119313095D01*
X167880000Y-119196148D01*
X167880000Y-118000000D01*
X168080000Y-118000000D01*
X168080000Y-119196148D01*
X168305059Y-119313095D01*
X168749362Y-119129066D01*
X169161141Y-118741087D01*
X169393102Y-118225060D01*
X169276555Y-118000000D01*
X168080000Y-118000000D01*
X167880000Y-118000000D01*
X167860000Y-118000000D01*
X167860000Y-117800000D01*
X167880000Y-117800000D01*
X167880000Y-116603852D01*
X168080000Y-116603852D01*
X168080000Y-117800000D01*
X169276555Y-117800000D01*
X169393102Y-117574940D01*
X169161141Y-117058913D01*
X168749362Y-116670934D01*
X168305059Y-116486905D01*
X168080000Y-116603852D01*
X167880000Y-116603852D01*
X167654941Y-116486905D01*
X167210638Y-116670934D01*
X166798859Y-117058913D01*
X166697836Y-117283652D01*
X166697836Y-117050000D01*
X166666791Y-116893928D01*
X166578384Y-116761616D01*
X166446072Y-116673209D01*
X166290000Y-116642164D01*
X164590000Y-116642164D01*
X164433928Y-116673209D01*
X164301616Y-116761616D01*
X164213209Y-116893928D01*
X164182164Y-117050000D01*
X148927316Y-117050000D01*
X148798404Y-116765102D01*
X148399900Y-116391484D01*
X147977218Y-116216412D01*
X147760000Y-116334006D01*
X147560000Y-116334006D01*
X147342782Y-116216412D01*
X146920100Y-116391484D01*
X146521596Y-116765102D01*
X146296404Y-117262781D01*
X144382475Y-117262781D01*
X144232311Y-116900255D01*
X143894745Y-116562689D01*
X143453695Y-116380000D01*
X142976305Y-116380000D01*
X142535255Y-116562689D01*
X142197689Y-116900255D01*
X142015000Y-117341305D01*
X131512486Y-117341305D01*
X131761152Y-117175152D01*
X132026375Y-116778217D01*
X132119509Y-116310000D01*
X132026375Y-115841783D01*
X131761152Y-115444848D01*
X131364217Y-115179625D01*
X131014188Y-115110000D01*
X130777812Y-115110000D01*
X130427783Y-115179625D01*
X130030848Y-115444848D01*
X129765625Y-115841783D01*
X129672491Y-116310000D01*
X116905845Y-116310000D01*
X116887311Y-116265255D01*
X116549745Y-115927689D01*
X116108695Y-115745000D01*
X115631305Y-115745000D01*
X115190255Y-115927689D01*
X114852689Y-116265255D01*
X114670000Y-116706305D01*
X114570000Y-116706305D01*
X114387311Y-116265255D01*
X114049745Y-115927689D01*
X113608695Y-115745000D01*
X113131305Y-115745000D01*
X112690255Y-115927689D01*
X112352689Y-116265255D01*
X112170000Y-116706305D01*
X100475000Y-116706305D01*
X100475000Y-113310810D01*
X100811033Y-113450000D01*
X101188967Y-113450000D01*
X101492164Y-113324412D01*
X101492164Y-114200000D01*
X101523209Y-114356072D01*
X101611616Y-114488384D01*
X101743928Y-114576791D01*
X101900000Y-114607836D01*
X103600000Y-114607836D01*
X103756072Y-114576791D01*
X103888384Y-114488384D01*
X103976791Y-114356072D01*
X104007836Y-114200000D01*
X104007836Y-110800000D01*
X106492164Y-110800000D01*
X106492164Y-114200000D01*
X106523209Y-114356072D01*
X106611616Y-114488384D01*
X106743928Y-114576791D01*
X106900000Y-114607836D01*
X108600000Y-114607836D01*
X108756072Y-114576791D01*
X108888384Y-114488384D01*
X108976791Y-114356072D01*
X109007836Y-114200000D01*
X109007836Y-113491305D01*
X112170000Y-113491305D01*
X112170000Y-113968695D01*
X112352689Y-114409745D01*
X112690255Y-114747311D01*
X113131305Y-114930000D01*
X113608695Y-114930000D01*
X114049745Y-114747311D01*
X114387311Y-114409745D01*
X114570000Y-113968695D01*
X114570000Y-113531305D01*
X115345000Y-113531305D01*
X115345000Y-114008695D01*
X115527689Y-114449745D01*
X115865255Y-114787311D01*
X116306305Y-114970000D01*
X116783695Y-114970000D01*
X117224745Y-114787311D01*
X117562311Y-114449745D01*
X117745000Y-114008695D01*
X117745000Y-113531305D01*
X117562311Y-113090255D01*
X117442056Y-112970000D01*
X118747164Y-112970000D01*
X118747164Y-114570000D01*
X118778209Y-114726072D01*
X118866616Y-114858384D01*
X118998928Y-114946791D01*
X119155000Y-114977836D01*
X121555000Y-114977836D01*
X121711072Y-114946791D01*
X121843384Y-114858384D01*
X121931791Y-114726072D01*
X121962836Y-114570000D01*
X121962836Y-113770000D01*
X126351491Y-113770000D01*
X126444625Y-114238217D01*
X126709848Y-114635152D01*
X127106783Y-114900375D01*
X127456812Y-114970000D01*
X128493188Y-114970000D01*
X128589180Y-114950906D01*
X135190516Y-114950906D01*
X135514151Y-115403418D01*
X136776405Y-115942360D01*
X138148819Y-115957234D01*
X139422457Y-115445775D01*
X139485849Y-115403418D01*
X139809484Y-114950906D01*
X137500000Y-112641421D01*
X135190516Y-114950906D01*
X128589180Y-114950906D01*
X128843217Y-114900375D01*
X129240152Y-114635152D01*
X129505375Y-114238217D01*
X129598509Y-113770000D01*
X129505375Y-113301783D01*
X129240152Y-112904848D01*
X128843217Y-112639625D01*
X128493188Y-112570000D01*
X127456812Y-112570000D01*
X127106783Y-112639625D01*
X126709848Y-112904848D01*
X126444625Y-113301783D01*
X126351491Y-113770000D01*
X121962836Y-113770000D01*
X121962836Y-112970000D01*
X121931791Y-112813928D01*
X121843384Y-112681616D01*
X121711072Y-112593209D01*
X121555000Y-112562164D01*
X119155000Y-112562164D01*
X118998928Y-112593209D01*
X118866616Y-112681616D01*
X118778209Y-112813928D01*
X118747164Y-112970000D01*
X117442056Y-112970000D01*
X117224745Y-112752689D01*
X116783695Y-112570000D01*
X116306305Y-112570000D01*
X115865255Y-112752689D01*
X115527689Y-113090255D01*
X115345000Y-113531305D01*
X114570000Y-113531305D01*
X114570000Y-113491305D01*
X114387311Y-113050255D01*
X114049745Y-112712689D01*
X113608695Y-112530000D01*
X113131305Y-112530000D01*
X112690255Y-112712689D01*
X112352689Y-113050255D01*
X112170000Y-113491305D01*
X109007836Y-113491305D01*
X109007836Y-113324412D01*
X109311033Y-113450000D01*
X109688967Y-113450000D01*
X110038132Y-113305371D01*
X110305371Y-113038132D01*
X110450000Y-112688967D01*
X110450000Y-112311033D01*
X110305371Y-111961868D01*
X110038132Y-111694629D01*
X109688967Y-111550000D01*
X109311033Y-111550000D01*
X109007836Y-111675588D01*
X109007836Y-110991305D01*
X112170000Y-110991305D01*
X112170000Y-111468695D01*
X112352689Y-111909745D01*
X112690255Y-112247311D01*
X113131305Y-112430000D01*
X113608695Y-112430000D01*
X114049745Y-112247311D01*
X114387311Y-111909745D01*
X114570000Y-111468695D01*
X114570000Y-111230000D01*
X115321491Y-111230000D01*
X115414625Y-111698217D01*
X115679848Y-112095152D01*
X116076783Y-112360375D01*
X116426812Y-112430000D01*
X116663188Y-112430000D01*
X117013217Y-112360375D01*
X117410152Y-112095152D01*
X117675375Y-111698217D01*
X117768509Y-111230000D01*
X117675375Y-110761783D01*
X117410152Y-110364848D01*
X117013217Y-110099625D01*
X116663188Y-110030000D01*
X116426812Y-110030000D01*
X116076783Y-110099625D01*
X115679848Y-110364848D01*
X115414625Y-110761783D01*
X115321491Y-111230000D01*
X114570000Y-111230000D01*
X114570000Y-110991305D01*
X114387311Y-110550255D01*
X114049745Y-110212689D01*
X113608695Y-110030000D01*
X113131305Y-110030000D01*
X112690255Y-110212689D01*
X112352689Y-110550255D01*
X112170000Y-110991305D01*
X109007836Y-110991305D01*
X109007836Y-110800000D01*
X108976791Y-110643928D01*
X108888384Y-110511616D01*
X108756072Y-110423209D01*
X108600000Y-110392164D01*
X106900000Y-110392164D01*
X106743928Y-110423209D01*
X106611616Y-110511616D01*
X106523209Y-110643928D01*
X106492164Y-110800000D01*
X104007836Y-110800000D01*
X103976791Y-110643928D01*
X103888384Y-110511616D01*
X103756072Y-110423209D01*
X103600000Y-110392164D01*
X101900000Y-110392164D01*
X101743928Y-110423209D01*
X101611616Y-110511616D01*
X101523209Y-110643928D01*
X101492164Y-110800000D01*
X101492164Y-111675588D01*
X101188967Y-111550000D01*
X100811033Y-111550000D01*
X100475000Y-111689190D01*
X100475000Y-108451305D01*
X112170000Y-108451305D01*
X112170000Y-108928695D01*
X112352689Y-109369745D01*
X112690255Y-109707311D01*
X113131305Y-109890000D01*
X113608695Y-109890000D01*
X114049745Y-109707311D01*
X114387311Y-109369745D01*
X114570000Y-108928695D01*
X114570000Y-108451305D01*
X115345000Y-108451305D01*
X115345000Y-108928695D01*
X115527689Y-109369745D01*
X115865255Y-109707311D01*
X116306305Y-109890000D01*
X116783695Y-109890000D01*
X117224745Y-109707311D01*
X117562311Y-109369745D01*
X117745000Y-108928695D01*
X117745000Y-108451305D01*
X117562311Y-108010255D01*
X117224745Y-107672689D01*
X116783695Y-107490000D01*
X116306305Y-107490000D01*
X115865255Y-107672689D01*
X115527689Y-108010255D01*
X115345000Y-108451305D01*
X114570000Y-108451305D01*
X114387311Y-108010255D01*
X114049745Y-107672689D01*
X113759649Y-107552527D01*
X114126058Y-107400755D01*
X114199795Y-107161217D01*
X113370000Y-106331421D01*
X112540205Y-107161217D01*
X112613942Y-107400755D01*
X112996848Y-107545694D01*
X112690255Y-107672689D01*
X112352689Y-108010255D01*
X112170000Y-108451305D01*
X100475000Y-108451305D01*
X100475000Y-107577371D01*
X101884050Y-107577371D01*
X101963906Y-107822096D01*
X102502900Y-108027612D01*
X103079513Y-108011218D01*
X103536094Y-107822096D01*
X103615950Y-107577371D01*
X106884050Y-107577371D01*
X106963906Y-107822096D01*
X107502900Y-108027612D01*
X108079513Y-108011218D01*
X108536094Y-107822096D01*
X108615950Y-107577371D01*
X107750000Y-106711421D01*
X106884050Y-107577371D01*
X103615950Y-107577371D01*
X102750000Y-106711421D01*
X101884050Y-107577371D01*
X100475000Y-107577371D01*
X100475000Y-106322900D01*
X101292388Y-106322900D01*
X101308782Y-106899513D01*
X101497904Y-107356094D01*
X101742629Y-107435950D01*
X102608579Y-106570000D01*
X102891421Y-106570000D01*
X103757371Y-107435950D01*
X104002096Y-107356094D01*
X104207612Y-106817100D01*
X104191218Y-106240487D01*
X104002096Y-105783906D01*
X103757371Y-105704050D01*
X102891421Y-106570000D01*
X102608579Y-106570000D01*
X101742629Y-105704050D01*
X101497904Y-105783906D01*
X101292388Y-106322900D01*
X100475000Y-106322900D01*
X100475000Y-106196750D01*
X101109122Y-105562629D01*
X101884050Y-105562629D01*
X102750000Y-106428579D01*
X103615950Y-105562629D01*
X103536094Y-105317904D01*
X102997100Y-105112388D01*
X102420487Y-105128782D01*
X101963906Y-105317904D01*
X101884050Y-105562629D01*
X101109122Y-105562629D01*
X101696752Y-104975000D01*
X104681497Y-104975000D01*
X104444629Y-105211868D01*
X104300000Y-105561033D01*
X104300000Y-105938967D01*
X104444629Y-106288132D01*
X104711868Y-106555371D01*
X105061033Y-106700000D01*
X105438967Y-106700000D01*
X105788132Y-106555371D01*
X106020603Y-106322900D01*
X106292388Y-106322900D01*
X106308782Y-106899513D01*
X106497904Y-107356094D01*
X106742629Y-107435950D01*
X107608579Y-106570000D01*
X107891421Y-106570000D01*
X108757371Y-107435950D01*
X109002096Y-107356094D01*
X109207612Y-106817100D01*
X109191218Y-106240487D01*
X109072895Y-105954829D01*
X111962077Y-105954829D01*
X111979252Y-106511519D01*
X112159245Y-106946058D01*
X112398783Y-107019795D01*
X113228579Y-106190000D01*
X113511421Y-106190000D01*
X114341217Y-107019795D01*
X114580755Y-106946058D01*
X114777923Y-106425171D01*
X114760748Y-105868481D01*
X114580755Y-105433942D01*
X114341217Y-105360205D01*
X113511421Y-106190000D01*
X113228579Y-106190000D01*
X112398783Y-105360205D01*
X112159245Y-105433942D01*
X111962077Y-105954829D01*
X109072895Y-105954829D01*
X109002096Y-105783906D01*
X108757371Y-105704050D01*
X107891421Y-106570000D01*
X107608579Y-106570000D01*
X106742629Y-105704050D01*
X106497904Y-105783906D01*
X106292388Y-106322900D01*
X106020603Y-106322900D01*
X106055371Y-106288132D01*
X106200000Y-105938967D01*
X106200000Y-105562629D01*
X106884050Y-105562629D01*
X107750000Y-106428579D01*
X108615950Y-105562629D01*
X108536094Y-105317904D01*
X108276136Y-105218783D01*
X112540205Y-105218783D01*
X113370000Y-106048579D01*
X114199795Y-105218783D01*
X114126058Y-104979245D01*
X113863869Y-104880000D01*
X118504000Y-104880000D01*
X118504000Y-107337305D01*
X118519224Y-107413842D01*
X118562579Y-107478726D01*
X118627463Y-107522081D01*
X118704000Y-107537305D01*
X119598993Y-107537305D01*
X119486783Y-107559625D01*
X119089848Y-107824848D01*
X118824625Y-108221783D01*
X118731491Y-108690000D01*
X118824625Y-109158217D01*
X119089848Y-109555152D01*
X119486783Y-109820375D01*
X119836812Y-109890000D01*
X120873188Y-109890000D01*
X121223217Y-109820375D01*
X121581537Y-109580953D01*
X121527077Y-109724829D01*
X121544252Y-110281519D01*
X121562931Y-110326614D01*
X121223217Y-110099625D01*
X120873188Y-110030000D01*
X119836812Y-110030000D01*
X119486783Y-110099625D01*
X119089848Y-110364848D01*
X118824625Y-110761783D01*
X118731491Y-111230000D01*
X118824625Y-111698217D01*
X119089848Y-112095152D01*
X119486783Y-112360375D01*
X119836812Y-112430000D01*
X120873188Y-112430000D01*
X121223217Y-112360375D01*
X121620152Y-112095152D01*
X121885375Y-111698217D01*
X121978509Y-111230000D01*
X121919078Y-110931217D01*
X122105205Y-110931217D01*
X122178942Y-111170755D01*
X122699829Y-111367923D01*
X123256519Y-111350748D01*
X123548028Y-111230000D01*
X126351491Y-111230000D01*
X126444625Y-111698217D01*
X126709848Y-112095152D01*
X127106783Y-112360375D01*
X127456812Y-112430000D01*
X128493188Y-112430000D01*
X128843217Y-112360375D01*
X129240152Y-112095152D01*
X129505375Y-111698217D01*
X129598509Y-111230000D01*
X129505375Y-110761783D01*
X129240152Y-110364848D01*
X128843217Y-110099625D01*
X128493188Y-110030000D01*
X127456812Y-110030000D01*
X127106783Y-110099625D01*
X126709848Y-110364848D01*
X126444625Y-110761783D01*
X126351491Y-111230000D01*
X123548028Y-111230000D01*
X123691058Y-111170755D01*
X123764795Y-110931217D01*
X122935000Y-110101421D01*
X122105205Y-110931217D01*
X121919078Y-110931217D01*
X121886196Y-110765911D01*
X121963783Y-110789795D01*
X122793579Y-109960000D01*
X123076421Y-109960000D01*
X123906217Y-110789795D01*
X124145755Y-110716058D01*
X124290694Y-110333152D01*
X124417689Y-110639745D01*
X124755255Y-110977311D01*
X125196305Y-111160000D01*
X125673695Y-111160000D01*
X126114745Y-110977311D01*
X126452311Y-110639745D01*
X126635000Y-110198695D01*
X126635000Y-109721305D01*
X126452311Y-109280255D01*
X126114745Y-108942689D01*
X125673695Y-108760000D01*
X125196305Y-108760000D01*
X124755255Y-108942689D01*
X124417689Y-109280255D01*
X124297527Y-109570351D01*
X124145755Y-109203942D01*
X123906217Y-109130205D01*
X123076421Y-109960000D01*
X122793579Y-109960000D01*
X121963783Y-109130205D01*
X121886196Y-109154089D01*
X121919077Y-108988783D01*
X122105205Y-108988783D01*
X122935000Y-109818579D01*
X123764795Y-108988783D01*
X123691058Y-108749245D01*
X123534542Y-108690000D01*
X126351491Y-108690000D01*
X126444625Y-109158217D01*
X126709848Y-109555152D01*
X127106783Y-109820375D01*
X127456812Y-109890000D01*
X128493188Y-109890000D01*
X128843217Y-109820375D01*
X129240152Y-109555152D01*
X129505375Y-109158217D01*
X129598509Y-108690000D01*
X129551030Y-108451305D01*
X129696000Y-108451305D01*
X129696000Y-108928695D01*
X129878689Y-109369745D01*
X130216255Y-109707311D01*
X130657305Y-109890000D01*
X131134695Y-109890000D01*
X131445392Y-109761305D01*
X132490000Y-109761305D01*
X132490000Y-110238695D01*
X132672689Y-110679745D01*
X133010255Y-111017311D01*
X133451305Y-111200000D01*
X133928695Y-111200000D01*
X134369745Y-111017311D01*
X134390693Y-110996363D01*
X134057640Y-111776405D01*
X134042766Y-113148819D01*
X134554225Y-114422457D01*
X134596582Y-114485849D01*
X135049094Y-114809484D01*
X137358579Y-112500000D01*
X137641421Y-112500000D01*
X139950906Y-114809484D01*
X140018270Y-114761305D01*
X164240000Y-114761305D01*
X164240000Y-115238695D01*
X164422689Y-115679745D01*
X164760255Y-116017311D01*
X165201305Y-116200000D01*
X165678695Y-116200000D01*
X166119745Y-116017311D01*
X166457311Y-115679745D01*
X166640000Y-115238695D01*
X166640000Y-114761305D01*
X166457311Y-114320255D01*
X166119745Y-113982689D01*
X165678695Y-113800000D01*
X165473954Y-113800000D01*
X165440000Y-113793246D01*
X165406045Y-113800000D01*
X165201305Y-113800000D01*
X164760255Y-113982689D01*
X164422689Y-114320255D01*
X164240000Y-114761305D01*
X140018270Y-114761305D01*
X140403418Y-114485849D01*
X140942360Y-113223595D01*
X140951340Y-112395000D01*
X164107247Y-112395000D01*
X164153814Y-112629108D01*
X164261142Y-112789736D01*
X164422689Y-113179745D01*
X164760255Y-113517311D01*
X165201305Y-113700000D01*
X165678695Y-113700000D01*
X166119745Y-113517311D01*
X166457311Y-113179745D01*
X166640000Y-112738695D01*
X166640000Y-112261305D01*
X166457311Y-111820255D01*
X166119745Y-111482689D01*
X165678695Y-111300000D01*
X165242950Y-111300000D01*
X165209000Y-111293247D01*
X165149912Y-111305000D01*
X165149909Y-111305000D01*
X164974892Y-111339813D01*
X164776425Y-111472425D01*
X164773130Y-111477356D01*
X164760255Y-111482689D01*
X164422689Y-111820255D01*
X164406759Y-111858714D01*
X164252953Y-112012520D01*
X164153814Y-112160892D01*
X164107247Y-112395000D01*
X140951340Y-112395000D01*
X140957234Y-111851181D01*
X140445775Y-110577543D01*
X140403418Y-110514151D01*
X139950906Y-110190516D01*
X137641421Y-112500000D01*
X137358579Y-112500000D01*
X135049094Y-110190516D01*
X134851387Y-110331916D01*
X134890000Y-110238695D01*
X134890000Y-110049094D01*
X135190516Y-110049094D01*
X137500000Y-112358579D01*
X139809484Y-110049094D01*
X139485849Y-109596582D01*
X138223595Y-109057640D01*
X136851181Y-109042766D01*
X135577543Y-109554225D01*
X135514151Y-109596582D01*
X135190516Y-110049094D01*
X134890000Y-110049094D01*
X134890000Y-109761305D01*
X134707311Y-109320255D01*
X134369745Y-108982689D01*
X133928695Y-108800000D01*
X133451305Y-108800000D01*
X133010255Y-108982689D01*
X132672689Y-109320255D01*
X132490000Y-109761305D01*
X131445392Y-109761305D01*
X131575745Y-109707311D01*
X131913311Y-109369745D01*
X132096000Y-108928695D01*
X132096000Y-108451305D01*
X131913311Y-108010255D01*
X131575745Y-107672689D01*
X131134695Y-107490000D01*
X130657305Y-107490000D01*
X130216255Y-107672689D01*
X129878689Y-108010255D01*
X129696000Y-108451305D01*
X129551030Y-108451305D01*
X129505375Y-108221783D01*
X129240152Y-107824848D01*
X128843217Y-107559625D01*
X128493188Y-107490000D01*
X127456812Y-107490000D01*
X127106783Y-107559625D01*
X126709848Y-107824848D01*
X126444625Y-108221783D01*
X126351491Y-108690000D01*
X123534542Y-108690000D01*
X123170171Y-108552077D01*
X122613481Y-108569252D01*
X122178942Y-108749245D01*
X122105205Y-108988783D01*
X121919077Y-108988783D01*
X121978509Y-108690000D01*
X121885375Y-108221783D01*
X121620152Y-107824848D01*
X121223217Y-107559625D01*
X121111007Y-107537305D01*
X122006000Y-107537305D01*
X122082537Y-107522081D01*
X122147421Y-107478726D01*
X122190776Y-107413842D01*
X122206000Y-107337305D01*
X122206000Y-106150000D01*
X126351491Y-106150000D01*
X126444625Y-106618217D01*
X126709848Y-107015152D01*
X127106783Y-107280375D01*
X127456812Y-107350000D01*
X128493188Y-107350000D01*
X128843217Y-107280375D01*
X129051350Y-107141305D01*
X136300000Y-107141305D01*
X136300000Y-107618695D01*
X136482689Y-108059745D01*
X136820255Y-108397311D01*
X137261305Y-108580000D01*
X137738695Y-108580000D01*
X138179745Y-108397311D01*
X138517311Y-108059745D01*
X138700000Y-107618695D01*
X138700000Y-107420000D01*
X141991491Y-107420000D01*
X142084625Y-107888217D01*
X142349848Y-108285152D01*
X142746783Y-108550375D01*
X143096812Y-108620000D01*
X143333188Y-108620000D01*
X143683217Y-108550375D01*
X144080152Y-108285152D01*
X144345375Y-107888217D01*
X144438509Y-107420000D01*
X144391030Y-107181305D01*
X146460000Y-107181305D01*
X146460000Y-107658695D01*
X146642689Y-108099745D01*
X146980255Y-108437311D01*
X147421305Y-108620000D01*
X147898695Y-108620000D01*
X148248755Y-108475000D01*
X164182164Y-108475000D01*
X164182164Y-110175000D01*
X164213209Y-110331072D01*
X164301616Y-110463384D01*
X164433928Y-110551791D01*
X164590000Y-110582836D01*
X166290000Y-110582836D01*
X166446072Y-110551791D01*
X166578384Y-110463384D01*
X166666791Y-110331072D01*
X166697836Y-110175000D01*
X166697836Y-109941348D01*
X166798859Y-110166087D01*
X167210638Y-110554066D01*
X167654941Y-110738095D01*
X167880000Y-110621148D01*
X167880000Y-109425000D01*
X168080000Y-109425000D01*
X168080000Y-110621148D01*
X168305059Y-110738095D01*
X168749362Y-110554066D01*
X169161141Y-110166087D01*
X169393102Y-109650060D01*
X169276555Y-109425000D01*
X168080000Y-109425000D01*
X167880000Y-109425000D01*
X167860000Y-109425000D01*
X167860000Y-109225000D01*
X167880000Y-109225000D01*
X167880000Y-108028852D01*
X168080000Y-108028852D01*
X168080000Y-109225000D01*
X169276555Y-109225000D01*
X169393102Y-108999940D01*
X169161141Y-108483913D01*
X168749362Y-108095934D01*
X168305059Y-107911905D01*
X168080000Y-108028852D01*
X167880000Y-108028852D01*
X167654941Y-107911905D01*
X167210638Y-108095934D01*
X166798859Y-108483913D01*
X166697836Y-108708652D01*
X166697836Y-108475000D01*
X166666791Y-108318928D01*
X166578384Y-108186616D01*
X166446072Y-108098209D01*
X166290000Y-108067164D01*
X164590000Y-108067164D01*
X164433928Y-108098209D01*
X164301616Y-108186616D01*
X164213209Y-108318928D01*
X164182164Y-108475000D01*
X148248755Y-108475000D01*
X148339745Y-108437311D01*
X148677311Y-108099745D01*
X148860000Y-107658695D01*
X148860000Y-107181305D01*
X148677311Y-106740255D01*
X148339745Y-106402689D01*
X147898695Y-106220000D01*
X147421305Y-106220000D01*
X146980255Y-106402689D01*
X146642689Y-106740255D01*
X146460000Y-107181305D01*
X144391030Y-107181305D01*
X144345375Y-106951783D01*
X144080152Y-106554848D01*
X143683217Y-106289625D01*
X143333188Y-106220000D01*
X143096812Y-106220000D01*
X142746783Y-106289625D01*
X142349848Y-106554848D01*
X142084625Y-106951783D01*
X141991491Y-107420000D01*
X138700000Y-107420000D01*
X138700000Y-107141305D01*
X138517311Y-106700255D01*
X138179745Y-106362689D01*
X137738695Y-106180000D01*
X137261305Y-106180000D01*
X136820255Y-106362689D01*
X136482689Y-106700255D01*
X136300000Y-107141305D01*
X129051350Y-107141305D01*
X129240152Y-107015152D01*
X129505375Y-106618217D01*
X129598509Y-106150000D01*
X129505375Y-105681783D01*
X129240152Y-105284848D01*
X128843217Y-105019625D01*
X128493188Y-104950000D01*
X127456812Y-104950000D01*
X127106783Y-105019625D01*
X126709848Y-105284848D01*
X126444625Y-105681783D01*
X126351491Y-106150000D01*
X122206000Y-106150000D01*
X122206000Y-104880000D01*
X122190776Y-104803463D01*
X122147421Y-104738579D01*
X122082537Y-104695224D01*
X122006000Y-104680000D01*
X118704000Y-104680000D01*
X118627463Y-104695224D01*
X118562579Y-104738579D01*
X118519224Y-104803463D01*
X118504000Y-104880000D01*
X113863869Y-104880000D01*
X113605171Y-104782077D01*
X113048481Y-104799252D01*
X112613942Y-104979245D01*
X112540205Y-105218783D01*
X108276136Y-105218783D01*
X107997100Y-105112388D01*
X107420487Y-105128782D01*
X106963906Y-105317904D01*
X106884050Y-105562629D01*
X106200000Y-105562629D01*
X106200000Y-105561033D01*
X106055371Y-105211868D01*
X105823193Y-104979690D01*
X105846774Y-104975000D01*
X105846779Y-104975000D01*
X105985335Y-104947439D01*
X106142455Y-104842455D01*
X106168955Y-104802795D01*
X106330445Y-104641305D01*
X136300000Y-104641305D01*
X136300000Y-105118695D01*
X136482689Y-105559745D01*
X136820255Y-105897311D01*
X137261305Y-106080000D01*
X137330151Y-106080000D01*
X137500000Y-106113785D01*
X137669849Y-106080000D01*
X137738695Y-106080000D01*
X138179745Y-105897311D01*
X138517311Y-105559745D01*
X138700000Y-105118695D01*
X138700000Y-104950906D01*
X152590516Y-104950906D01*
X152914151Y-105403418D01*
X154176405Y-105942360D01*
X155548819Y-105957234D01*
X156822457Y-105445775D01*
X156885849Y-105403418D01*
X157110515Y-105089286D01*
X167177020Y-105089286D01*
X167405924Y-105597028D01*
X167811708Y-105978522D01*
X168246248Y-106158514D01*
X168467767Y-106041275D01*
X168467767Y-104867767D01*
X168667767Y-104867767D01*
X168667767Y-106041275D01*
X168889286Y-106158514D01*
X169397028Y-105929610D01*
X169778522Y-105523826D01*
X169958514Y-105089286D01*
X169841275Y-104867767D01*
X168667767Y-104867767D01*
X168467767Y-104867767D01*
X167294259Y-104867767D01*
X167177020Y-105089286D01*
X157110515Y-105089286D01*
X157209484Y-104950906D01*
X154900000Y-102641421D01*
X152590516Y-104950906D01*
X138700000Y-104950906D01*
X138700000Y-104641305D01*
X138517311Y-104200255D01*
X138179745Y-103862689D01*
X137738695Y-103680000D01*
X137261305Y-103680000D01*
X136820255Y-103862689D01*
X136482689Y-104200255D01*
X136300000Y-104641305D01*
X106330445Y-104641305D01*
X107596751Y-103375000D01*
X109919599Y-103375000D01*
X109932886Y-103379631D01*
X110013587Y-103375000D01*
X110046779Y-103375000D01*
X110060237Y-103372323D01*
X110121542Y-103368805D01*
X110152075Y-103354055D01*
X110185335Y-103347439D01*
X110236399Y-103313319D01*
X110291694Y-103286607D01*
X110314258Y-103261296D01*
X110342455Y-103242455D01*
X110376576Y-103191388D01*
X110385700Y-103181154D01*
X110402514Y-103152570D01*
X110447439Y-103085335D01*
X110450185Y-103071529D01*
X111440956Y-101387219D01*
X115181404Y-101387219D01*
X115406596Y-101884898D01*
X115805100Y-102258516D01*
X116227782Y-102433588D01*
X116445000Y-102315994D01*
X116445000Y-101170000D01*
X116645000Y-101170000D01*
X116645000Y-102315994D01*
X116862218Y-102433588D01*
X117284900Y-102258516D01*
X117683404Y-101884898D01*
X117744443Y-101750000D01*
X119156491Y-101750000D01*
X119249625Y-102218217D01*
X119514848Y-102615152D01*
X119911783Y-102880375D01*
X120261812Y-102950000D01*
X120498188Y-102950000D01*
X120848217Y-102880375D01*
X121245152Y-102615152D01*
X121510375Y-102218217D01*
X121603509Y-101750000D01*
X121556030Y-101511305D01*
X126800000Y-101511305D01*
X126800000Y-101988695D01*
X126982689Y-102429745D01*
X127320255Y-102767311D01*
X127761305Y-102950000D01*
X128238695Y-102950000D01*
X128679745Y-102767311D01*
X129017311Y-102429745D01*
X129037916Y-102380000D01*
X132466491Y-102380000D01*
X132559625Y-102848217D01*
X132824848Y-103245152D01*
X133221783Y-103510375D01*
X133571812Y-103580000D01*
X133808188Y-103580000D01*
X134158217Y-103510375D01*
X134555152Y-103245152D01*
X134820375Y-102848217D01*
X134842635Y-102736305D01*
X142015000Y-102736305D01*
X142015000Y-103213695D01*
X142197689Y-103654745D01*
X142535255Y-103992311D01*
X142976305Y-104175000D01*
X143453695Y-104175000D01*
X143894745Y-103992311D01*
X143940839Y-103946217D01*
X144885205Y-103946217D01*
X144958942Y-104185755D01*
X145479829Y-104382923D01*
X146036519Y-104365748D01*
X146471058Y-104185755D01*
X146544795Y-103946217D01*
X145715000Y-103116421D01*
X144885205Y-103946217D01*
X143940839Y-103946217D01*
X144232311Y-103654745D01*
X144352473Y-103364649D01*
X144504245Y-103731058D01*
X144743783Y-103804795D01*
X145573579Y-102975000D01*
X145856421Y-102975000D01*
X146686217Y-103804795D01*
X146925755Y-103731058D01*
X147122923Y-103210171D01*
X147121031Y-103148819D01*
X151442766Y-103148819D01*
X151954225Y-104422457D01*
X151996582Y-104485849D01*
X152449094Y-104809484D01*
X154758579Y-102500000D01*
X155041421Y-102500000D01*
X157350906Y-104809484D01*
X157803418Y-104485849D01*
X158342360Y-103223595D01*
X158344783Y-103000000D01*
X165260793Y-103000000D01*
X165291838Y-103156072D01*
X165380245Y-103288384D01*
X166511616Y-104419755D01*
X166643928Y-104508162D01*
X166800000Y-104539207D01*
X166956072Y-104508162D01*
X167088384Y-104419755D01*
X167258428Y-104249711D01*
X167177020Y-104446248D01*
X167294259Y-104667767D01*
X168326343Y-104667767D01*
X168412202Y-104753626D01*
X168553626Y-104612202D01*
X168467767Y-104526343D01*
X168467767Y-103494259D01*
X168667767Y-103494259D01*
X168667767Y-104667767D01*
X169841275Y-104667767D01*
X169958514Y-104446248D01*
X169729610Y-103938506D01*
X169323826Y-103557012D01*
X168889286Y-103377020D01*
X168667767Y-103494259D01*
X168467767Y-103494259D01*
X168246248Y-103377020D01*
X168036607Y-103471532D01*
X168219755Y-103288384D01*
X168308162Y-103156072D01*
X168339207Y-103000000D01*
X168308162Y-102843928D01*
X168219755Y-102711616D01*
X167088384Y-101580245D01*
X166956072Y-101491838D01*
X166800000Y-101460793D01*
X166643928Y-101491838D01*
X166511616Y-101580245D01*
X165380245Y-102711616D01*
X165291838Y-102843928D01*
X165260793Y-103000000D01*
X158344783Y-103000000D01*
X158357234Y-101851181D01*
X157845775Y-100577543D01*
X157803418Y-100514151D01*
X157350906Y-100190516D01*
X155041421Y-102500000D01*
X154758579Y-102500000D01*
X152449094Y-100190516D01*
X151996582Y-100514151D01*
X151457640Y-101776405D01*
X151442766Y-103148819D01*
X147121031Y-103148819D01*
X147105748Y-102653481D01*
X146925755Y-102218942D01*
X146686217Y-102145205D01*
X145856421Y-102975000D01*
X145573579Y-102975000D01*
X144743783Y-102145205D01*
X144504245Y-102218942D01*
X144359306Y-102601848D01*
X144232311Y-102295255D01*
X143940839Y-102003783D01*
X144885205Y-102003783D01*
X145715000Y-102833579D01*
X146544795Y-102003783D01*
X146471058Y-101764245D01*
X145950171Y-101567077D01*
X145393481Y-101584252D01*
X144958942Y-101764245D01*
X144885205Y-102003783D01*
X143940839Y-102003783D01*
X143894745Y-101957689D01*
X143453695Y-101775000D01*
X142976305Y-101775000D01*
X142535255Y-101957689D01*
X142197689Y-102295255D01*
X142015000Y-102736305D01*
X134842635Y-102736305D01*
X134913509Y-102380000D01*
X134820375Y-101911783D01*
X134555152Y-101514848D01*
X134158217Y-101249625D01*
X133808188Y-101180000D01*
X133571812Y-101180000D01*
X133221783Y-101249625D01*
X132824848Y-101514848D01*
X132559625Y-101911783D01*
X132466491Y-102380000D01*
X129037916Y-102380000D01*
X129200000Y-101988695D01*
X129200000Y-101511305D01*
X129017311Y-101070255D01*
X128679745Y-100732689D01*
X128238695Y-100550000D01*
X127761305Y-100550000D01*
X127320255Y-100732689D01*
X126982689Y-101070255D01*
X126800000Y-101511305D01*
X121556030Y-101511305D01*
X121510375Y-101281783D01*
X121245152Y-100884848D01*
X120848217Y-100619625D01*
X120498188Y-100550000D01*
X120261812Y-100550000D01*
X119911783Y-100619625D01*
X119514848Y-100884848D01*
X119249625Y-101281783D01*
X119156491Y-101750000D01*
X117744443Y-101750000D01*
X117908596Y-101387219D01*
X117791432Y-101170000D01*
X116645000Y-101170000D01*
X116445000Y-101170000D01*
X115298568Y-101170000D01*
X115181404Y-101387219D01*
X111440956Y-101387219D01*
X112271674Y-99975000D01*
X115705355Y-99975000D01*
X115406596Y-100255102D01*
X115406596Y-100255102D01*
G37*
X115406596Y-100255102D02*
X115181404Y-100752781D01*
X115298568Y-100970000D01*
X116445000Y-100970000D01*
X116445000Y-100950000D01*
X116645000Y-100950000D01*
X116645000Y-100970000D01*
X117791432Y-100970000D01*
X117908596Y-100752781D01*
X117683404Y-100255102D01*
X117384645Y-99975000D01*
X152643508Y-99975000D01*
X152590516Y-100049094D01*
X154900000Y-102358579D01*
X157209484Y-100049094D01*
X157156492Y-99975000D01*
X167803250Y-99975000D01*
X174525000Y-106696751D01*
X174525001Y-119303247D01*
X172203250Y-121625000D01*
X165180401Y-121625000D01*
X165167114Y-121620369D01*
X165086413Y-121625000D01*
X165053221Y-121625000D01*
X165039763Y-121627677D01*
X164978458Y-121631195D01*
X164947925Y-121645945D01*
X164914665Y-121652561D01*
X164863603Y-121686680D01*
X164808305Y-121713393D01*
X164785739Y-121738706D01*
X164757545Y-121757545D01*
X164723429Y-121808603D01*
X164714299Y-121818845D01*
X164697473Y-121847450D01*
X164652561Y-121914665D01*
X164649816Y-121928467D01*
X162828326Y-125025000D01*
X157156492Y-125025000D01*
X157209484Y-124950906D01*
X154900000Y-122641421D01*
X152590516Y-124950906D01*
X152643508Y-125025000D01*
X112271674Y-125025000D01*
X111168038Y-123148819D01*
X151442766Y-123148819D01*
X151954225Y-124422457D01*
X151996582Y-124485849D01*
X152449094Y-124809484D01*
X154758579Y-122500000D01*
X155041421Y-122500000D01*
X157350906Y-124809484D01*
X157803418Y-124485849D01*
X158342360Y-123223595D01*
X158357234Y-121851181D01*
X157845775Y-120577543D01*
X157803418Y-120514151D01*
X157350906Y-120190516D01*
X155041421Y-122500000D01*
X154758579Y-122500000D01*
X152449094Y-120190516D01*
X151996582Y-120514151D01*
X151457640Y-121776405D01*
X151442766Y-123148819D01*
X111168038Y-123148819D01*
X110450185Y-121928471D01*
X110447439Y-121914665D01*
X110402514Y-121847430D01*
X110385700Y-121818846D01*
X110376576Y-121808612D01*
X110342455Y-121757545D01*
X110314258Y-121738704D01*
X110291694Y-121713393D01*
X110236399Y-121686681D01*
X110185335Y-121652561D01*
X110152075Y-121645945D01*
X110121542Y-121631195D01*
X110060237Y-121627677D01*
X110046779Y-121625000D01*
X110013587Y-121625000D01*
X109932886Y-121620369D01*
X109919599Y-121625000D01*
X107596751Y-121625000D01*
X106168955Y-120197205D01*
X106142455Y-120157545D01*
X105985335Y-120052561D01*
X105967906Y-120049094D01*
X152590516Y-120049094D01*
X154900000Y-122358579D01*
X157209484Y-120049094D01*
X156885849Y-119596582D01*
X155623595Y-119057640D01*
X154251181Y-119042766D01*
X152977543Y-119554225D01*
X152914151Y-119596582D01*
X152590516Y-120049094D01*
X105967906Y-120049094D01*
X105846779Y-120025000D01*
X105846774Y-120025000D01*
X105823193Y-120020310D01*
X106055371Y-119788132D01*
X106200000Y-119438967D01*
X106200000Y-119437371D01*
X106884050Y-119437371D01*
X106963906Y-119682096D01*
X107502900Y-119887612D01*
X108079513Y-119871218D01*
X108536094Y-119682096D01*
X108615950Y-119437371D01*
X107750000Y-118571421D01*
X106884050Y-119437371D01*
X106200000Y-119437371D01*
X106200000Y-119061033D01*
X106055371Y-118711868D01*
X105788132Y-118444629D01*
X105438967Y-118300000D01*
X105061033Y-118300000D01*
X104711868Y-118444629D01*
X104444629Y-118711868D01*
X104300000Y-119061033D01*
X104300000Y-119438967D01*
X104444629Y-119788132D01*
X104681497Y-120025000D01*
X101696752Y-120025000D01*
X101109123Y-119437371D01*
X101884050Y-119437371D01*
X101963906Y-119682096D01*
X102502900Y-119887612D01*
X103079513Y-119871218D01*
X103536094Y-119682096D01*
X103615950Y-119437371D01*
X102750000Y-118571421D01*
X101884050Y-119437371D01*
X101109123Y-119437371D01*
X100475000Y-118803250D01*
X100475000Y-118182900D01*
X101292388Y-118182900D01*
X101308782Y-118759513D01*
X101497904Y-119216094D01*
X101742629Y-119295950D01*
X102608579Y-118430000D01*
X102891421Y-118430000D01*
X103757371Y-119295950D01*
X104002096Y-119216094D01*
X104207612Y-118677100D01*
X104193562Y-118182900D01*
X106292388Y-118182900D01*
X106308782Y-118759513D01*
X106497904Y-119216094D01*
X106742629Y-119295950D01*
X107608579Y-118430000D01*
X107891421Y-118430000D01*
X108757371Y-119295950D01*
X109002096Y-119216094D01*
X109207612Y-118677100D01*
X109191218Y-118100487D01*
X109002096Y-117643906D01*
X108757371Y-117564050D01*
X107891421Y-118430000D01*
X107608579Y-118430000D01*
X106742629Y-117564050D01*
X106497904Y-117643906D01*
X106292388Y-118182900D01*
X104193562Y-118182900D01*
X104191218Y-118100487D01*
X104002096Y-117643906D01*
X103757371Y-117564050D01*
X102891421Y-118430000D01*
X102608579Y-118430000D01*
X101742629Y-117564050D01*
X101497904Y-117643906D01*
X101292388Y-118182900D01*
X100475000Y-118182900D01*
X100475000Y-117422629D01*
X101884050Y-117422629D01*
X102750000Y-118288579D01*
X103615950Y-117422629D01*
X106884050Y-117422629D01*
X107750000Y-118288579D01*
X108615950Y-117422629D01*
X108536094Y-117177904D01*
X107997100Y-116972388D01*
X107420487Y-116988782D01*
X106963906Y-117177904D01*
X106884050Y-117422629D01*
X103615950Y-117422629D01*
X103536094Y-117177904D01*
X102997100Y-116972388D01*
X102420487Y-116988782D01*
X101963906Y-117177904D01*
X101884050Y-117422629D01*
X100475000Y-117422629D01*
X100475000Y-116706305D01*
X112170000Y-116706305D01*
X112170000Y-117183695D01*
X112352689Y-117624745D01*
X112690255Y-117962311D01*
X113131305Y-118145000D01*
X113608695Y-118145000D01*
X114049745Y-117962311D01*
X114387311Y-117624745D01*
X114570000Y-117183695D01*
X114570000Y-116706305D01*
X114670000Y-116706305D01*
X114670000Y-117183695D01*
X114852689Y-117624745D01*
X115190255Y-117962311D01*
X115631305Y-118145000D01*
X116108695Y-118145000D01*
X116549745Y-117962311D01*
X116887311Y-117624745D01*
X116899505Y-117595305D01*
X122116000Y-117595305D01*
X122116000Y-118072695D01*
X122298689Y-118513745D01*
X122636255Y-118851311D01*
X123077305Y-119034000D01*
X123554695Y-119034000D01*
X123995745Y-118851311D01*
X124333311Y-118513745D01*
X124516000Y-118072695D01*
X124516000Y-117595305D01*
X124616000Y-117595305D01*
X124616000Y-118072695D01*
X124798689Y-118513745D01*
X125136255Y-118851311D01*
X125577305Y-119034000D01*
X126054695Y-119034000D01*
X126495745Y-118851311D01*
X126833311Y-118513745D01*
X127016000Y-118072695D01*
X127016000Y-117595305D01*
X126833311Y-117154255D01*
X126495745Y-116816689D01*
X126054695Y-116634000D01*
X125577305Y-116634000D01*
X125136255Y-116816689D01*
X124798689Y-117154255D01*
X124616000Y-117595305D01*
X124516000Y-117595305D01*
X124333311Y-117154255D01*
X123995745Y-116816689D01*
X123554695Y-116634000D01*
X123077305Y-116634000D01*
X122636255Y-116816689D01*
X122298689Y-117154255D01*
X122116000Y-117595305D01*
X116899505Y-117595305D01*
X117070000Y-117183695D01*
X117070000Y-116706305D01*
X116905845Y-116310000D01*
X129672491Y-116310000D01*
X129765625Y-116778217D01*
X130030848Y-117175152D01*
X130427783Y-117440375D01*
X130777812Y-117510000D01*
X131014188Y-117510000D01*
X131364217Y-117440375D01*
X131512486Y-117341305D01*
X142015000Y-117341305D01*
X142015000Y-117818695D01*
X142197689Y-118259745D01*
X142535255Y-118597311D01*
X142976305Y-118780000D01*
X143453695Y-118780000D01*
X143894745Y-118597311D01*
X144232311Y-118259745D01*
X144382474Y-117897219D01*
X146296404Y-117897219D01*
X146521596Y-118394898D01*
X146920100Y-118768516D01*
X147342782Y-118943588D01*
X147560000Y-118825994D01*
X147560000Y-117680000D01*
X147760000Y-117680000D01*
X147760000Y-118825994D01*
X147977218Y-118943588D01*
X148399900Y-118768516D01*
X148798404Y-118394898D01*
X149023596Y-117897219D01*
X148906432Y-117680000D01*
X147760000Y-117680000D01*
X147560000Y-117680000D01*
X146413568Y-117680000D01*
X146296404Y-117897219D01*
X144382474Y-117897219D01*
X144415000Y-117818695D01*
X144415000Y-117341305D01*
X144382475Y-117262781D01*
X146296404Y-117262781D01*
X146413568Y-117480000D01*
X147560000Y-117480000D01*
X147560000Y-116334006D01*
X147760000Y-116334006D01*
X147760000Y-117480000D01*
X148906432Y-117480000D01*
X149023596Y-117262781D01*
X148927316Y-117050000D01*
X164182164Y-117050000D01*
X164182164Y-118750000D01*
X164213209Y-118906072D01*
X164301616Y-119038384D01*
X164433928Y-119126791D01*
X164590000Y-119157836D01*
X166290000Y-119157836D01*
X166446072Y-119126791D01*
X166578384Y-119038384D01*
X166666791Y-118906072D01*
X166697836Y-118750000D01*
X166697836Y-118516348D01*
X166798859Y-118741087D01*
X167210638Y-119129066D01*
X167654941Y-119313095D01*
X167880000Y-119196148D01*
X167880000Y-118000000D01*
X168080000Y-118000000D01*
X168080000Y-119196148D01*
X168305059Y-119313095D01*
X168749362Y-119129066D01*
X169161141Y-118741087D01*
X169393102Y-118225060D01*
X169276555Y-118000000D01*
X168080000Y-118000000D01*
X167880000Y-118000000D01*
X167860000Y-118000000D01*
X167860000Y-117800000D01*
X167880000Y-117800000D01*
X167880000Y-116603852D01*
X168080000Y-116603852D01*
X168080000Y-117800000D01*
X169276555Y-117800000D01*
X169393102Y-117574940D01*
X169161141Y-117058913D01*
X168749362Y-116670934D01*
X168305059Y-116486905D01*
X168080000Y-116603852D01*
X167880000Y-116603852D01*
X167654941Y-116486905D01*
X167210638Y-116670934D01*
X166798859Y-117058913D01*
X166697836Y-117283652D01*
X166697836Y-117050000D01*
X166666791Y-116893928D01*
X166578384Y-116761616D01*
X166446072Y-116673209D01*
X166290000Y-116642164D01*
X164590000Y-116642164D01*
X164433928Y-116673209D01*
X164301616Y-116761616D01*
X164213209Y-116893928D01*
X164182164Y-117050000D01*
X148927316Y-117050000D01*
X148798404Y-116765102D01*
X148399900Y-116391484D01*
X147977218Y-116216412D01*
X147760000Y-116334006D01*
X147560000Y-116334006D01*
X147342782Y-116216412D01*
X146920100Y-116391484D01*
X146521596Y-116765102D01*
X146296404Y-117262781D01*
X144382475Y-117262781D01*
X144232311Y-116900255D01*
X143894745Y-116562689D01*
X143453695Y-116380000D01*
X142976305Y-116380000D01*
X142535255Y-116562689D01*
X142197689Y-116900255D01*
X142015000Y-117341305D01*
X131512486Y-117341305D01*
X131761152Y-117175152D01*
X132026375Y-116778217D01*
X132119509Y-116310000D01*
X132026375Y-115841783D01*
X131761152Y-115444848D01*
X131364217Y-115179625D01*
X131014188Y-115110000D01*
X130777812Y-115110000D01*
X130427783Y-115179625D01*
X130030848Y-115444848D01*
X129765625Y-115841783D01*
X129672491Y-116310000D01*
X116905845Y-116310000D01*
X116887311Y-116265255D01*
X116549745Y-115927689D01*
X116108695Y-115745000D01*
X115631305Y-115745000D01*
X115190255Y-115927689D01*
X114852689Y-116265255D01*
X114670000Y-116706305D01*
X114570000Y-116706305D01*
X114387311Y-116265255D01*
X114049745Y-115927689D01*
X113608695Y-115745000D01*
X113131305Y-115745000D01*
X112690255Y-115927689D01*
X112352689Y-116265255D01*
X112170000Y-116706305D01*
X100475000Y-116706305D01*
X100475000Y-113310810D01*
X100811033Y-113450000D01*
X101188967Y-113450000D01*
X101492164Y-113324412D01*
X101492164Y-114200000D01*
X101523209Y-114356072D01*
X101611616Y-114488384D01*
X101743928Y-114576791D01*
X101900000Y-114607836D01*
X103600000Y-114607836D01*
X103756072Y-114576791D01*
X103888384Y-114488384D01*
X103976791Y-114356072D01*
X104007836Y-114200000D01*
X104007836Y-110800000D01*
X106492164Y-110800000D01*
X106492164Y-114200000D01*
X106523209Y-114356072D01*
X106611616Y-114488384D01*
X106743928Y-114576791D01*
X106900000Y-114607836D01*
X108600000Y-114607836D01*
X108756072Y-114576791D01*
X108888384Y-114488384D01*
X108976791Y-114356072D01*
X109007836Y-114200000D01*
X109007836Y-113491305D01*
X112170000Y-113491305D01*
X112170000Y-113968695D01*
X112352689Y-114409745D01*
X112690255Y-114747311D01*
X113131305Y-114930000D01*
X113608695Y-114930000D01*
X114049745Y-114747311D01*
X114387311Y-114409745D01*
X114570000Y-113968695D01*
X114570000Y-113531305D01*
X115345000Y-113531305D01*
X115345000Y-114008695D01*
X115527689Y-114449745D01*
X115865255Y-114787311D01*
X116306305Y-114970000D01*
X116783695Y-114970000D01*
X117224745Y-114787311D01*
X117562311Y-114449745D01*
X117745000Y-114008695D01*
X117745000Y-113531305D01*
X117562311Y-113090255D01*
X117442056Y-112970000D01*
X118747164Y-112970000D01*
X118747164Y-114570000D01*
X118778209Y-114726072D01*
X118866616Y-114858384D01*
X118998928Y-114946791D01*
X119155000Y-114977836D01*
X121555000Y-114977836D01*
X121711072Y-114946791D01*
X121843384Y-114858384D01*
X121931791Y-114726072D01*
X121962836Y-114570000D01*
X121962836Y-113770000D01*
X126351491Y-113770000D01*
X126444625Y-114238217D01*
X126709848Y-114635152D01*
X127106783Y-114900375D01*
X127456812Y-114970000D01*
X128493188Y-114970000D01*
X128589180Y-114950906D01*
X135190516Y-114950906D01*
X135514151Y-115403418D01*
X136776405Y-115942360D01*
X138148819Y-115957234D01*
X139422457Y-115445775D01*
X139485849Y-115403418D01*
X139809484Y-114950906D01*
X137500000Y-112641421D01*
X135190516Y-114950906D01*
X128589180Y-114950906D01*
X128843217Y-114900375D01*
X129240152Y-114635152D01*
X129505375Y-114238217D01*
X129598509Y-113770000D01*
X129505375Y-113301783D01*
X129240152Y-112904848D01*
X128843217Y-112639625D01*
X128493188Y-112570000D01*
X127456812Y-112570000D01*
X127106783Y-112639625D01*
X126709848Y-112904848D01*
X126444625Y-113301783D01*
X126351491Y-113770000D01*
X121962836Y-113770000D01*
X121962836Y-112970000D01*
X121931791Y-112813928D01*
X121843384Y-112681616D01*
X121711072Y-112593209D01*
X121555000Y-112562164D01*
X119155000Y-112562164D01*
X118998928Y-112593209D01*
X118866616Y-112681616D01*
X118778209Y-112813928D01*
X118747164Y-112970000D01*
X117442056Y-112970000D01*
X117224745Y-112752689D01*
X116783695Y-112570000D01*
X116306305Y-112570000D01*
X115865255Y-112752689D01*
X115527689Y-113090255D01*
X115345000Y-113531305D01*
X114570000Y-113531305D01*
X114570000Y-113491305D01*
X114387311Y-113050255D01*
X114049745Y-112712689D01*
X113608695Y-112530000D01*
X113131305Y-112530000D01*
X112690255Y-112712689D01*
X112352689Y-113050255D01*
X112170000Y-113491305D01*
X109007836Y-113491305D01*
X109007836Y-113324412D01*
X109311033Y-113450000D01*
X109688967Y-113450000D01*
X110038132Y-113305371D01*
X110305371Y-113038132D01*
X110450000Y-112688967D01*
X110450000Y-112311033D01*
X110305371Y-111961868D01*
X110038132Y-111694629D01*
X109688967Y-111550000D01*
X109311033Y-111550000D01*
X109007836Y-111675588D01*
X109007836Y-110991305D01*
X112170000Y-110991305D01*
X112170000Y-111468695D01*
X112352689Y-111909745D01*
X112690255Y-112247311D01*
X113131305Y-112430000D01*
X113608695Y-112430000D01*
X114049745Y-112247311D01*
X114387311Y-111909745D01*
X114570000Y-111468695D01*
X114570000Y-111230000D01*
X115321491Y-111230000D01*
X115414625Y-111698217D01*
X115679848Y-112095152D01*
X116076783Y-112360375D01*
X116426812Y-112430000D01*
X116663188Y-112430000D01*
X117013217Y-112360375D01*
X117410152Y-112095152D01*
X117675375Y-111698217D01*
X117768509Y-111230000D01*
X117675375Y-110761783D01*
X117410152Y-110364848D01*
X117013217Y-110099625D01*
X116663188Y-110030000D01*
X116426812Y-110030000D01*
X116076783Y-110099625D01*
X115679848Y-110364848D01*
X115414625Y-110761783D01*
X115321491Y-111230000D01*
X114570000Y-111230000D01*
X114570000Y-110991305D01*
X114387311Y-110550255D01*
X114049745Y-110212689D01*
X113608695Y-110030000D01*
X113131305Y-110030000D01*
X112690255Y-110212689D01*
X112352689Y-110550255D01*
X112170000Y-110991305D01*
X109007836Y-110991305D01*
X109007836Y-110800000D01*
X108976791Y-110643928D01*
X108888384Y-110511616D01*
X108756072Y-110423209D01*
X108600000Y-110392164D01*
X106900000Y-110392164D01*
X106743928Y-110423209D01*
X106611616Y-110511616D01*
X106523209Y-110643928D01*
X106492164Y-110800000D01*
X104007836Y-110800000D01*
X103976791Y-110643928D01*
X103888384Y-110511616D01*
X103756072Y-110423209D01*
X103600000Y-110392164D01*
X101900000Y-110392164D01*
X101743928Y-110423209D01*
X101611616Y-110511616D01*
X101523209Y-110643928D01*
X101492164Y-110800000D01*
X101492164Y-111675588D01*
X101188967Y-111550000D01*
X100811033Y-111550000D01*
X100475000Y-111689190D01*
X100475000Y-108451305D01*
X112170000Y-108451305D01*
X112170000Y-108928695D01*
X112352689Y-109369745D01*
X112690255Y-109707311D01*
X113131305Y-109890000D01*
X113608695Y-109890000D01*
X114049745Y-109707311D01*
X114387311Y-109369745D01*
X114570000Y-108928695D01*
X114570000Y-108451305D01*
X115345000Y-108451305D01*
X115345000Y-108928695D01*
X115527689Y-109369745D01*
X115865255Y-109707311D01*
X116306305Y-109890000D01*
X116783695Y-109890000D01*
X117224745Y-109707311D01*
X117562311Y-109369745D01*
X117745000Y-108928695D01*
X117745000Y-108451305D01*
X117562311Y-108010255D01*
X117224745Y-107672689D01*
X116783695Y-107490000D01*
X116306305Y-107490000D01*
X115865255Y-107672689D01*
X115527689Y-108010255D01*
X115345000Y-108451305D01*
X114570000Y-108451305D01*
X114387311Y-108010255D01*
X114049745Y-107672689D01*
X113759649Y-107552527D01*
X114126058Y-107400755D01*
X114199795Y-107161217D01*
X113370000Y-106331421D01*
X112540205Y-107161217D01*
X112613942Y-107400755D01*
X112996848Y-107545694D01*
X112690255Y-107672689D01*
X112352689Y-108010255D01*
X112170000Y-108451305D01*
X100475000Y-108451305D01*
X100475000Y-107577371D01*
X101884050Y-107577371D01*
X101963906Y-107822096D01*
X102502900Y-108027612D01*
X103079513Y-108011218D01*
X103536094Y-107822096D01*
X103615950Y-107577371D01*
X106884050Y-107577371D01*
X106963906Y-107822096D01*
X107502900Y-108027612D01*
X108079513Y-108011218D01*
X108536094Y-107822096D01*
X108615950Y-107577371D01*
X107750000Y-106711421D01*
X106884050Y-107577371D01*
X103615950Y-107577371D01*
X102750000Y-106711421D01*
X101884050Y-107577371D01*
X100475000Y-107577371D01*
X100475000Y-106322900D01*
X101292388Y-106322900D01*
X101308782Y-106899513D01*
X101497904Y-107356094D01*
X101742629Y-107435950D01*
X102608579Y-106570000D01*
X102891421Y-106570000D01*
X103757371Y-107435950D01*
X104002096Y-107356094D01*
X104207612Y-106817100D01*
X104191218Y-106240487D01*
X104002096Y-105783906D01*
X103757371Y-105704050D01*
X102891421Y-106570000D01*
X102608579Y-106570000D01*
X101742629Y-105704050D01*
X101497904Y-105783906D01*
X101292388Y-106322900D01*
X100475000Y-106322900D01*
X100475000Y-106196750D01*
X101109122Y-105562629D01*
X101884050Y-105562629D01*
X102750000Y-106428579D01*
X103615950Y-105562629D01*
X103536094Y-105317904D01*
X102997100Y-105112388D01*
X102420487Y-105128782D01*
X101963906Y-105317904D01*
X101884050Y-105562629D01*
X101109122Y-105562629D01*
X101696752Y-104975000D01*
X104681497Y-104975000D01*
X104444629Y-105211868D01*
X104300000Y-105561033D01*
X104300000Y-105938967D01*
X104444629Y-106288132D01*
X104711868Y-106555371D01*
X105061033Y-106700000D01*
X105438967Y-106700000D01*
X105788132Y-106555371D01*
X106020603Y-106322900D01*
X106292388Y-106322900D01*
X106308782Y-106899513D01*
X106497904Y-107356094D01*
X106742629Y-107435950D01*
X107608579Y-106570000D01*
X107891421Y-106570000D01*
X108757371Y-107435950D01*
X109002096Y-107356094D01*
X109207612Y-106817100D01*
X109191218Y-106240487D01*
X109072895Y-105954829D01*
X111962077Y-105954829D01*
X111979252Y-106511519D01*
X112159245Y-106946058D01*
X112398783Y-107019795D01*
X113228579Y-106190000D01*
X113511421Y-106190000D01*
X114341217Y-107019795D01*
X114580755Y-106946058D01*
X114777923Y-106425171D01*
X114760748Y-105868481D01*
X114580755Y-105433942D01*
X114341217Y-105360205D01*
X113511421Y-106190000D01*
X113228579Y-106190000D01*
X112398783Y-105360205D01*
X112159245Y-105433942D01*
X111962077Y-105954829D01*
X109072895Y-105954829D01*
X109002096Y-105783906D01*
X108757371Y-105704050D01*
X107891421Y-106570000D01*
X107608579Y-106570000D01*
X106742629Y-105704050D01*
X106497904Y-105783906D01*
X106292388Y-106322900D01*
X106020603Y-106322900D01*
X106055371Y-106288132D01*
X106200000Y-105938967D01*
X106200000Y-105562629D01*
X106884050Y-105562629D01*
X107750000Y-106428579D01*
X108615950Y-105562629D01*
X108536094Y-105317904D01*
X108276136Y-105218783D01*
X112540205Y-105218783D01*
X113370000Y-106048579D01*
X114199795Y-105218783D01*
X114126058Y-104979245D01*
X113863869Y-104880000D01*
X118504000Y-104880000D01*
X118504000Y-107337305D01*
X118519224Y-107413842D01*
X118562579Y-107478726D01*
X118627463Y-107522081D01*
X118704000Y-107537305D01*
X119598993Y-107537305D01*
X119486783Y-107559625D01*
X119089848Y-107824848D01*
X118824625Y-108221783D01*
X118731491Y-108690000D01*
X118824625Y-109158217D01*
X119089848Y-109555152D01*
X119486783Y-109820375D01*
X119836812Y-109890000D01*
X120873188Y-109890000D01*
X121223217Y-109820375D01*
X121581537Y-109580953D01*
X121527077Y-109724829D01*
X121544252Y-110281519D01*
X121562931Y-110326614D01*
X121223217Y-110099625D01*
X120873188Y-110030000D01*
X119836812Y-110030000D01*
X119486783Y-110099625D01*
X119089848Y-110364848D01*
X118824625Y-110761783D01*
X118731491Y-111230000D01*
X118824625Y-111698217D01*
X119089848Y-112095152D01*
X119486783Y-112360375D01*
X119836812Y-112430000D01*
X120873188Y-112430000D01*
X121223217Y-112360375D01*
X121620152Y-112095152D01*
X121885375Y-111698217D01*
X121978509Y-111230000D01*
X121919078Y-110931217D01*
X122105205Y-110931217D01*
X122178942Y-111170755D01*
X122699829Y-111367923D01*
X123256519Y-111350748D01*
X123548028Y-111230000D01*
X126351491Y-111230000D01*
X126444625Y-111698217D01*
X126709848Y-112095152D01*
X127106783Y-112360375D01*
X127456812Y-112430000D01*
X128493188Y-112430000D01*
X128843217Y-112360375D01*
X129240152Y-112095152D01*
X129505375Y-111698217D01*
X129598509Y-111230000D01*
X129505375Y-110761783D01*
X129240152Y-110364848D01*
X128843217Y-110099625D01*
X128493188Y-110030000D01*
X127456812Y-110030000D01*
X127106783Y-110099625D01*
X126709848Y-110364848D01*
X126444625Y-110761783D01*
X126351491Y-111230000D01*
X123548028Y-111230000D01*
X123691058Y-111170755D01*
X123764795Y-110931217D01*
X122935000Y-110101421D01*
X122105205Y-110931217D01*
X121919078Y-110931217D01*
X121886196Y-110765911D01*
X121963783Y-110789795D01*
X122793579Y-109960000D01*
X123076421Y-109960000D01*
X123906217Y-110789795D01*
X124145755Y-110716058D01*
X124290694Y-110333152D01*
X124417689Y-110639745D01*
X124755255Y-110977311D01*
X125196305Y-111160000D01*
X125673695Y-111160000D01*
X126114745Y-110977311D01*
X126452311Y-110639745D01*
X126635000Y-110198695D01*
X126635000Y-109721305D01*
X126452311Y-109280255D01*
X126114745Y-108942689D01*
X125673695Y-108760000D01*
X125196305Y-108760000D01*
X124755255Y-108942689D01*
X124417689Y-109280255D01*
X124297527Y-109570351D01*
X124145755Y-109203942D01*
X123906217Y-109130205D01*
X123076421Y-109960000D01*
X122793579Y-109960000D01*
X121963783Y-109130205D01*
X121886196Y-109154089D01*
X121919077Y-108988783D01*
X122105205Y-108988783D01*
X122935000Y-109818579D01*
X123764795Y-108988783D01*
X123691058Y-108749245D01*
X123534542Y-108690000D01*
X126351491Y-108690000D01*
X126444625Y-109158217D01*
X126709848Y-109555152D01*
X127106783Y-109820375D01*
X127456812Y-109890000D01*
X128493188Y-109890000D01*
X128843217Y-109820375D01*
X129240152Y-109555152D01*
X129505375Y-109158217D01*
X129598509Y-108690000D01*
X129551030Y-108451305D01*
X129696000Y-108451305D01*
X129696000Y-108928695D01*
X129878689Y-109369745D01*
X130216255Y-109707311D01*
X130657305Y-109890000D01*
X131134695Y-109890000D01*
X131445392Y-109761305D01*
X132490000Y-109761305D01*
X132490000Y-110238695D01*
X132672689Y-110679745D01*
X133010255Y-111017311D01*
X133451305Y-111200000D01*
X133928695Y-111200000D01*
X134369745Y-111017311D01*
X134390693Y-110996363D01*
X134057640Y-111776405D01*
X134042766Y-113148819D01*
X134554225Y-114422457D01*
X134596582Y-114485849D01*
X135049094Y-114809484D01*
X137358579Y-112500000D01*
X137641421Y-112500000D01*
X139950906Y-114809484D01*
X140018270Y-114761305D01*
X164240000Y-114761305D01*
X164240000Y-115238695D01*
X164422689Y-115679745D01*
X164760255Y-116017311D01*
X165201305Y-116200000D01*
X165678695Y-116200000D01*
X166119745Y-116017311D01*
X166457311Y-115679745D01*
X166640000Y-115238695D01*
X166640000Y-114761305D01*
X166457311Y-114320255D01*
X166119745Y-113982689D01*
X165678695Y-113800000D01*
X165473954Y-113800000D01*
X165440000Y-113793246D01*
X165406045Y-113800000D01*
X165201305Y-113800000D01*
X164760255Y-113982689D01*
X164422689Y-114320255D01*
X164240000Y-114761305D01*
X140018270Y-114761305D01*
X140403418Y-114485849D01*
X140942360Y-113223595D01*
X140951340Y-112395000D01*
X164107247Y-112395000D01*
X164153814Y-112629108D01*
X164261142Y-112789736D01*
X164422689Y-113179745D01*
X164760255Y-113517311D01*
X165201305Y-113700000D01*
X165678695Y-113700000D01*
X166119745Y-113517311D01*
X166457311Y-113179745D01*
X166640000Y-112738695D01*
X166640000Y-112261305D01*
X166457311Y-111820255D01*
X166119745Y-111482689D01*
X165678695Y-111300000D01*
X165242950Y-111300000D01*
X165209000Y-111293247D01*
X165149912Y-111305000D01*
X165149909Y-111305000D01*
X164974892Y-111339813D01*
X164776425Y-111472425D01*
X164773130Y-111477356D01*
X164760255Y-111482689D01*
X164422689Y-111820255D01*
X164406759Y-111858714D01*
X164252953Y-112012520D01*
X164153814Y-112160892D01*
X164107247Y-112395000D01*
X140951340Y-112395000D01*
X140957234Y-111851181D01*
X140445775Y-110577543D01*
X140403418Y-110514151D01*
X139950906Y-110190516D01*
X137641421Y-112500000D01*
X137358579Y-112500000D01*
X135049094Y-110190516D01*
X134851387Y-110331916D01*
X134890000Y-110238695D01*
X134890000Y-110049094D01*
X135190516Y-110049094D01*
X137500000Y-112358579D01*
X139809484Y-110049094D01*
X139485849Y-109596582D01*
X138223595Y-109057640D01*
X136851181Y-109042766D01*
X135577543Y-109554225D01*
X135514151Y-109596582D01*
X135190516Y-110049094D01*
X134890000Y-110049094D01*
X134890000Y-109761305D01*
X134707311Y-109320255D01*
X134369745Y-108982689D01*
X133928695Y-108800000D01*
X133451305Y-108800000D01*
X133010255Y-108982689D01*
X132672689Y-109320255D01*
X132490000Y-109761305D01*
X131445392Y-109761305D01*
X131575745Y-109707311D01*
X131913311Y-109369745D01*
X132096000Y-108928695D01*
X132096000Y-108451305D01*
X131913311Y-108010255D01*
X131575745Y-107672689D01*
X131134695Y-107490000D01*
X130657305Y-107490000D01*
X130216255Y-107672689D01*
X129878689Y-108010255D01*
X129696000Y-108451305D01*
X129551030Y-108451305D01*
X129505375Y-108221783D01*
X129240152Y-107824848D01*
X128843217Y-107559625D01*
X128493188Y-107490000D01*
X127456812Y-107490000D01*
X127106783Y-107559625D01*
X126709848Y-107824848D01*
X126444625Y-108221783D01*
X126351491Y-108690000D01*
X123534542Y-108690000D01*
X123170171Y-108552077D01*
X122613481Y-108569252D01*
X122178942Y-108749245D01*
X122105205Y-108988783D01*
X121919077Y-108988783D01*
X121978509Y-108690000D01*
X121885375Y-108221783D01*
X121620152Y-107824848D01*
X121223217Y-107559625D01*
X121111007Y-107537305D01*
X122006000Y-107537305D01*
X122082537Y-107522081D01*
X122147421Y-107478726D01*
X122190776Y-107413842D01*
X122206000Y-107337305D01*
X122206000Y-106150000D01*
X126351491Y-106150000D01*
X126444625Y-106618217D01*
X126709848Y-107015152D01*
X127106783Y-107280375D01*
X127456812Y-107350000D01*
X128493188Y-107350000D01*
X128843217Y-107280375D01*
X129051350Y-107141305D01*
X136300000Y-107141305D01*
X136300000Y-107618695D01*
X136482689Y-108059745D01*
X136820255Y-108397311D01*
X137261305Y-108580000D01*
X137738695Y-108580000D01*
X138179745Y-108397311D01*
X138517311Y-108059745D01*
X138700000Y-107618695D01*
X138700000Y-107420000D01*
X141991491Y-107420000D01*
X142084625Y-107888217D01*
X142349848Y-108285152D01*
X142746783Y-108550375D01*
X143096812Y-108620000D01*
X143333188Y-108620000D01*
X143683217Y-108550375D01*
X144080152Y-108285152D01*
X144345375Y-107888217D01*
X144438509Y-107420000D01*
X144391030Y-107181305D01*
X146460000Y-107181305D01*
X146460000Y-107658695D01*
X146642689Y-108099745D01*
X146980255Y-108437311D01*
X147421305Y-108620000D01*
X147898695Y-108620000D01*
X148248755Y-108475000D01*
X164182164Y-108475000D01*
X164182164Y-110175000D01*
X164213209Y-110331072D01*
X164301616Y-110463384D01*
X164433928Y-110551791D01*
X164590000Y-110582836D01*
X166290000Y-110582836D01*
X166446072Y-110551791D01*
X166578384Y-110463384D01*
X166666791Y-110331072D01*
X166697836Y-110175000D01*
X166697836Y-109941348D01*
X166798859Y-110166087D01*
X167210638Y-110554066D01*
X167654941Y-110738095D01*
X167880000Y-110621148D01*
X167880000Y-109425000D01*
X168080000Y-109425000D01*
X168080000Y-110621148D01*
X168305059Y-110738095D01*
X168749362Y-110554066D01*
X169161141Y-110166087D01*
X169393102Y-109650060D01*
X169276555Y-109425000D01*
X168080000Y-109425000D01*
X167880000Y-109425000D01*
X167860000Y-109425000D01*
X167860000Y-109225000D01*
X167880000Y-109225000D01*
X167880000Y-108028852D01*
X168080000Y-108028852D01*
X168080000Y-109225000D01*
X169276555Y-109225000D01*
X169393102Y-108999940D01*
X169161141Y-108483913D01*
X168749362Y-108095934D01*
X168305059Y-107911905D01*
X168080000Y-108028852D01*
X167880000Y-108028852D01*
X167654941Y-107911905D01*
X167210638Y-108095934D01*
X166798859Y-108483913D01*
X166697836Y-108708652D01*
X166697836Y-108475000D01*
X166666791Y-108318928D01*
X166578384Y-108186616D01*
X166446072Y-108098209D01*
X166290000Y-108067164D01*
X164590000Y-108067164D01*
X164433928Y-108098209D01*
X164301616Y-108186616D01*
X164213209Y-108318928D01*
X164182164Y-108475000D01*
X148248755Y-108475000D01*
X148339745Y-108437311D01*
X148677311Y-108099745D01*
X148860000Y-107658695D01*
X148860000Y-107181305D01*
X148677311Y-106740255D01*
X148339745Y-106402689D01*
X147898695Y-106220000D01*
X147421305Y-106220000D01*
X146980255Y-106402689D01*
X146642689Y-106740255D01*
X146460000Y-107181305D01*
X144391030Y-107181305D01*
X144345375Y-106951783D01*
X144080152Y-106554848D01*
X143683217Y-106289625D01*
X143333188Y-106220000D01*
X143096812Y-106220000D01*
X142746783Y-106289625D01*
X142349848Y-106554848D01*
X142084625Y-106951783D01*
X141991491Y-107420000D01*
X138700000Y-107420000D01*
X138700000Y-107141305D01*
X138517311Y-106700255D01*
X138179745Y-106362689D01*
X137738695Y-106180000D01*
X137261305Y-106180000D01*
X136820255Y-106362689D01*
X136482689Y-106700255D01*
X136300000Y-107141305D01*
X129051350Y-107141305D01*
X129240152Y-107015152D01*
X129505375Y-106618217D01*
X129598509Y-106150000D01*
X129505375Y-105681783D01*
X129240152Y-105284848D01*
X128843217Y-105019625D01*
X128493188Y-104950000D01*
X127456812Y-104950000D01*
X127106783Y-105019625D01*
X126709848Y-105284848D01*
X126444625Y-105681783D01*
X126351491Y-106150000D01*
X122206000Y-106150000D01*
X122206000Y-104880000D01*
X122190776Y-104803463D01*
X122147421Y-104738579D01*
X122082537Y-104695224D01*
X122006000Y-104680000D01*
X118704000Y-104680000D01*
X118627463Y-104695224D01*
X118562579Y-104738579D01*
X118519224Y-104803463D01*
X118504000Y-104880000D01*
X113863869Y-104880000D01*
X113605171Y-104782077D01*
X113048481Y-104799252D01*
X112613942Y-104979245D01*
X112540205Y-105218783D01*
X108276136Y-105218783D01*
X107997100Y-105112388D01*
X107420487Y-105128782D01*
X106963906Y-105317904D01*
X106884050Y-105562629D01*
X106200000Y-105562629D01*
X106200000Y-105561033D01*
X106055371Y-105211868D01*
X105823193Y-104979690D01*
X105846774Y-104975000D01*
X105846779Y-104975000D01*
X105985335Y-104947439D01*
X106142455Y-104842455D01*
X106168955Y-104802795D01*
X106330445Y-104641305D01*
X136300000Y-104641305D01*
X136300000Y-105118695D01*
X136482689Y-105559745D01*
X136820255Y-105897311D01*
X137261305Y-106080000D01*
X137330151Y-106080000D01*
X137500000Y-106113785D01*
X137669849Y-106080000D01*
X137738695Y-106080000D01*
X138179745Y-105897311D01*
X138517311Y-105559745D01*
X138700000Y-105118695D01*
X138700000Y-104950906D01*
X152590516Y-104950906D01*
X152914151Y-105403418D01*
X154176405Y-105942360D01*
X155548819Y-105957234D01*
X156822457Y-105445775D01*
X156885849Y-105403418D01*
X157110515Y-105089286D01*
X167177020Y-105089286D01*
X167405924Y-105597028D01*
X167811708Y-105978522D01*
X168246248Y-106158514D01*
X168467767Y-106041275D01*
X168467767Y-104867767D01*
X168667767Y-104867767D01*
X168667767Y-106041275D01*
X168889286Y-106158514D01*
X169397028Y-105929610D01*
X169778522Y-105523826D01*
X169958514Y-105089286D01*
X169841275Y-104867767D01*
X168667767Y-104867767D01*
X168467767Y-104867767D01*
X167294259Y-104867767D01*
X167177020Y-105089286D01*
X157110515Y-105089286D01*
X157209484Y-104950906D01*
X154900000Y-102641421D01*
X152590516Y-104950906D01*
X138700000Y-104950906D01*
X138700000Y-104641305D01*
X138517311Y-104200255D01*
X138179745Y-103862689D01*
X137738695Y-103680000D01*
X137261305Y-103680000D01*
X136820255Y-103862689D01*
X136482689Y-104200255D01*
X136300000Y-104641305D01*
X106330445Y-104641305D01*
X107596751Y-103375000D01*
X109919599Y-103375000D01*
X109932886Y-103379631D01*
X110013587Y-103375000D01*
X110046779Y-103375000D01*
X110060237Y-103372323D01*
X110121542Y-103368805D01*
X110152075Y-103354055D01*
X110185335Y-103347439D01*
X110236399Y-103313319D01*
X110291694Y-103286607D01*
X110314258Y-103261296D01*
X110342455Y-103242455D01*
X110376576Y-103191388D01*
X110385700Y-103181154D01*
X110402514Y-103152570D01*
X110447439Y-103085335D01*
X110450185Y-103071529D01*
X111440956Y-101387219D01*
X115181404Y-101387219D01*
X115406596Y-101884898D01*
X115805100Y-102258516D01*
X116227782Y-102433588D01*
X116445000Y-102315994D01*
X116445000Y-101170000D01*
X116645000Y-101170000D01*
X116645000Y-102315994D01*
X116862218Y-102433588D01*
X117284900Y-102258516D01*
X117683404Y-101884898D01*
X117744443Y-101750000D01*
X119156491Y-101750000D01*
X119249625Y-102218217D01*
X119514848Y-102615152D01*
X119911783Y-102880375D01*
X120261812Y-102950000D01*
X120498188Y-102950000D01*
X120848217Y-102880375D01*
X121245152Y-102615152D01*
X121510375Y-102218217D01*
X121603509Y-101750000D01*
X121556030Y-101511305D01*
X126800000Y-101511305D01*
X126800000Y-101988695D01*
X126982689Y-102429745D01*
X127320255Y-102767311D01*
X127761305Y-102950000D01*
X128238695Y-102950000D01*
X128679745Y-102767311D01*
X129017311Y-102429745D01*
X129037916Y-102380000D01*
X132466491Y-102380000D01*
X132559625Y-102848217D01*
X132824848Y-103245152D01*
X133221783Y-103510375D01*
X133571812Y-103580000D01*
X133808188Y-103580000D01*
X134158217Y-103510375D01*
X134555152Y-103245152D01*
X134820375Y-102848217D01*
X134842635Y-102736305D01*
X142015000Y-102736305D01*
X142015000Y-103213695D01*
X142197689Y-103654745D01*
X142535255Y-103992311D01*
X142976305Y-104175000D01*
X143453695Y-104175000D01*
X143894745Y-103992311D01*
X143940839Y-103946217D01*
X144885205Y-103946217D01*
X144958942Y-104185755D01*
X145479829Y-104382923D01*
X146036519Y-104365748D01*
X146471058Y-104185755D01*
X146544795Y-103946217D01*
X145715000Y-103116421D01*
X144885205Y-103946217D01*
X143940839Y-103946217D01*
X144232311Y-103654745D01*
X144352473Y-103364649D01*
X144504245Y-103731058D01*
X144743783Y-103804795D01*
X145573579Y-102975000D01*
X145856421Y-102975000D01*
X146686217Y-103804795D01*
X146925755Y-103731058D01*
X147122923Y-103210171D01*
X147121031Y-103148819D01*
X151442766Y-103148819D01*
X151954225Y-104422457D01*
X151996582Y-104485849D01*
X152449094Y-104809484D01*
X154758579Y-102500000D01*
X155041421Y-102500000D01*
X157350906Y-104809484D01*
X157803418Y-104485849D01*
X158342360Y-103223595D01*
X158344783Y-103000000D01*
X165260793Y-103000000D01*
X165291838Y-103156072D01*
X165380245Y-103288384D01*
X166511616Y-104419755D01*
X166643928Y-104508162D01*
X166800000Y-104539207D01*
X166956072Y-104508162D01*
X167088384Y-104419755D01*
X167258428Y-104249711D01*
X167177020Y-104446248D01*
X167294259Y-104667767D01*
X168326343Y-104667767D01*
X168412202Y-104753626D01*
X168553626Y-104612202D01*
X168467767Y-104526343D01*
X168467767Y-103494259D01*
X168667767Y-103494259D01*
X168667767Y-104667767D01*
X169841275Y-104667767D01*
X169958514Y-104446248D01*
X169729610Y-103938506D01*
X169323826Y-103557012D01*
X168889286Y-103377020D01*
X168667767Y-103494259D01*
X168467767Y-103494259D01*
X168246248Y-103377020D01*
X168036607Y-103471532D01*
X168219755Y-103288384D01*
X168308162Y-103156072D01*
X168339207Y-103000000D01*
X168308162Y-102843928D01*
X168219755Y-102711616D01*
X167088384Y-101580245D01*
X166956072Y-101491838D01*
X166800000Y-101460793D01*
X166643928Y-101491838D01*
X166511616Y-101580245D01*
X165380245Y-102711616D01*
X165291838Y-102843928D01*
X165260793Y-103000000D01*
X158344783Y-103000000D01*
X158357234Y-101851181D01*
X157845775Y-100577543D01*
X157803418Y-100514151D01*
X157350906Y-100190516D01*
X155041421Y-102500000D01*
X154758579Y-102500000D01*
X152449094Y-100190516D01*
X151996582Y-100514151D01*
X151457640Y-101776405D01*
X151442766Y-103148819D01*
X147121031Y-103148819D01*
X147105748Y-102653481D01*
X146925755Y-102218942D01*
X146686217Y-102145205D01*
X145856421Y-102975000D01*
X145573579Y-102975000D01*
X144743783Y-102145205D01*
X144504245Y-102218942D01*
X144359306Y-102601848D01*
X144232311Y-102295255D01*
X143940839Y-102003783D01*
X144885205Y-102003783D01*
X145715000Y-102833579D01*
X146544795Y-102003783D01*
X146471058Y-101764245D01*
X145950171Y-101567077D01*
X145393481Y-101584252D01*
X144958942Y-101764245D01*
X144885205Y-102003783D01*
X143940839Y-102003783D01*
X143894745Y-101957689D01*
X143453695Y-101775000D01*
X142976305Y-101775000D01*
X142535255Y-101957689D01*
X142197689Y-102295255D01*
X142015000Y-102736305D01*
X134842635Y-102736305D01*
X134913509Y-102380000D01*
X134820375Y-101911783D01*
X134555152Y-101514848D01*
X134158217Y-101249625D01*
X133808188Y-101180000D01*
X133571812Y-101180000D01*
X133221783Y-101249625D01*
X132824848Y-101514848D01*
X132559625Y-101911783D01*
X132466491Y-102380000D01*
X129037916Y-102380000D01*
X129200000Y-101988695D01*
X129200000Y-101511305D01*
X129017311Y-101070255D01*
X128679745Y-100732689D01*
X128238695Y-100550000D01*
X127761305Y-100550000D01*
X127320255Y-100732689D01*
X126982689Y-101070255D01*
X126800000Y-101511305D01*
X121556030Y-101511305D01*
X121510375Y-101281783D01*
X121245152Y-100884848D01*
X120848217Y-100619625D01*
X120498188Y-100550000D01*
X120261812Y-100550000D01*
X119911783Y-100619625D01*
X119514848Y-100884848D01*
X119249625Y-101281783D01*
X119156491Y-101750000D01*
X117744443Y-101750000D01*
X117908596Y-101387219D01*
X117791432Y-101170000D01*
X116645000Y-101170000D01*
X116445000Y-101170000D01*
X115298568Y-101170000D01*
X115181404Y-101387219D01*
X111440956Y-101387219D01*
X112271674Y-99975000D01*
X115705355Y-99975000D01*
X115406596Y-100255102D01*
M02*
