G04 #@! TF.GenerationSoftware,KiCad,Pcbnew,(5.0.0-rc2-dev-691-g31b026c)*
G04 #@! TF.CreationDate,2018-06-05T10:47:32+02:00*
G04 #@! TF.ProjectId,DIY_detector,4449595F6465746563746F722E6B6963,V1.1*
G04 #@! TF.SameCoordinates,Original*
G04 #@! TF.FileFunction,Legend,Top*
G04 #@! TF.FilePolarity,Positive*
%FSLAX46Y46*%
G04 Gerber Fmt 4.6, Leading zero omitted, Abs format (unit mm)*
G04 Created by KiCad (PCBNEW (5.0.0-rc2-dev-691-g31b026c)) date 2018 June 05, Tuesday 10:47:32*
%MOMM*%
%LPD*%
G01*
G04 APERTURE LIST*
%ADD10C,0.300000*%
%ADD11C,0.250000*%
%ADD12C,0.120000*%
%ADD13C,0.010000*%
%ADD14C,0.150000*%
%ADD15R,2.800000X2.000000*%
%ADD16O,2.800000X2.000000*%
%ADD17C,2.000000*%
%ADD18C,0.100000*%
%ADD19O,2.000000X2.000000*%
%ADD20C,6.100000*%
%ADD21C,2.100000*%
%ADD22R,2.100000X2.100000*%
%ADD23O,2.100000X2.100000*%
%ADD24C,1.500000*%
G04 APERTURE END LIST*
D10*
X159571428Y-121678571D02*
X160428571Y-121678571D01*
X160000000Y-123178571D02*
X160000000Y-121678571D01*
X105984071Y-112892857D02*
X104484071Y-112892857D01*
X105984071Y-112035714D02*
X105126928Y-112678571D01*
X104484071Y-112035714D02*
X105341214Y-112892857D01*
D11*
X172428571Y-119764285D02*
X172428571Y-119478571D01*
X172500000Y-119335714D01*
X172642857Y-119192857D01*
X172928571Y-119121428D01*
X173428571Y-119121428D01*
X173714285Y-119192857D01*
X173857142Y-119335714D01*
X173928571Y-119478571D01*
X173928571Y-119764285D01*
X173857142Y-119907142D01*
X173714285Y-120050000D01*
X173428571Y-120121428D01*
X172928571Y-120121428D01*
X172642857Y-120050000D01*
X172500000Y-119907142D01*
X172428571Y-119764285D01*
X173785714Y-118478571D02*
X173857142Y-118407142D01*
X173928571Y-118478571D01*
X173857142Y-118550000D01*
X173785714Y-118478571D01*
X173928571Y-118478571D01*
X173928571Y-116621428D02*
X172428571Y-116621428D01*
X173928571Y-115764285D02*
X173071428Y-116407142D01*
X172428571Y-115764285D02*
X173285714Y-116621428D01*
X173857142Y-114550000D02*
X173928571Y-114692857D01*
X173928571Y-114978571D01*
X173857142Y-115121428D01*
X173714285Y-115192857D01*
X173142857Y-115192857D01*
X173000000Y-115121428D01*
X172928571Y-114978571D01*
X172928571Y-114692857D01*
X173000000Y-114550000D01*
X173142857Y-114478571D01*
X173285714Y-114478571D01*
X173428571Y-115192857D01*
X173928571Y-113621428D02*
X173857142Y-113764285D01*
X173714285Y-113835714D01*
X172428571Y-113835714D01*
X173928571Y-112835714D02*
X173857142Y-112978571D01*
X173714285Y-113050000D01*
X172428571Y-113050000D01*
X173857142Y-111692857D02*
X173928571Y-111835714D01*
X173928571Y-112121428D01*
X173857142Y-112264285D01*
X173714285Y-112335714D01*
X173142857Y-112335714D01*
X173000000Y-112264285D01*
X172928571Y-112121428D01*
X172928571Y-111835714D01*
X173000000Y-111692857D01*
X173142857Y-111621428D01*
X173285714Y-111621428D01*
X173428571Y-112335714D01*
X173928571Y-110978571D02*
X172928571Y-110978571D01*
X173214285Y-110978571D02*
X173071428Y-110907142D01*
X173000000Y-110835714D01*
X172928571Y-110692857D01*
X172928571Y-110550000D01*
X172500000Y-108978571D02*
X172428571Y-108978571D01*
X172285714Y-108907142D01*
X172214285Y-108835714D01*
X173928571Y-107407142D02*
X173928571Y-108264285D01*
X173928571Y-107835714D02*
X172428571Y-107835714D01*
X172642857Y-107978571D01*
X172785714Y-108121428D01*
X172857142Y-108264285D01*
X173071428Y-106550000D02*
X173000000Y-106692857D01*
X172928571Y-106764285D01*
X172785714Y-106835714D01*
X172714285Y-106835714D01*
X172571428Y-106764285D01*
X172500000Y-106692857D01*
X172428571Y-106550000D01*
X172428571Y-106264285D01*
X172500000Y-106121428D01*
X172571428Y-106050000D01*
X172714285Y-105978571D01*
X172785714Y-105978571D01*
X172928571Y-106050000D01*
X173000000Y-106121428D01*
X173071428Y-106264285D01*
X173071428Y-106550000D01*
X173142857Y-106692857D01*
X173214285Y-106764285D01*
X173357142Y-106835714D01*
X173642857Y-106835714D01*
X173785714Y-106764285D01*
X173857142Y-106692857D01*
X173928571Y-106550000D01*
X173928571Y-106264285D01*
X173857142Y-106121428D01*
X173785714Y-106050000D01*
X173642857Y-105978571D01*
X173357142Y-105978571D01*
X173214285Y-106050000D01*
X173142857Y-106121428D01*
X173071428Y-106264285D01*
D10*
X170028571Y-117907142D02*
X171171428Y-117907142D01*
X169928571Y-109357142D02*
X171071428Y-109357142D01*
X156808357Y-118607142D02*
X156951214Y-118678571D01*
X157236928Y-118678571D01*
X157379785Y-118607142D01*
X157451214Y-118464285D01*
X157451214Y-118392857D01*
X157379785Y-118250000D01*
X157236928Y-118178571D01*
X157022642Y-118178571D01*
X156879785Y-118107142D01*
X156808357Y-117964285D01*
X156808357Y-117892857D01*
X156879785Y-117750000D01*
X157022642Y-117678571D01*
X157236928Y-117678571D01*
X157379785Y-117750000D01*
X158094071Y-118678571D02*
X158094071Y-117678571D01*
X158094071Y-117178571D02*
X158022642Y-117250000D01*
X158094071Y-117321428D01*
X158165500Y-117250000D01*
X158094071Y-117178571D01*
X158094071Y-117321428D01*
X159451214Y-117678571D02*
X159451214Y-118892857D01*
X159379785Y-119035714D01*
X159308357Y-119107142D01*
X159165500Y-119178571D01*
X158951214Y-119178571D01*
X158808357Y-119107142D01*
X159451214Y-118607142D02*
X159308357Y-118678571D01*
X159022642Y-118678571D01*
X158879785Y-118607142D01*
X158808357Y-118535714D01*
X158736928Y-118392857D01*
X158736928Y-117964285D01*
X158808357Y-117821428D01*
X158879785Y-117750000D01*
X159022642Y-117678571D01*
X159308357Y-117678571D01*
X159451214Y-117750000D01*
X160165500Y-117678571D02*
X160165500Y-118678571D01*
X160165500Y-117821428D02*
X160236928Y-117750000D01*
X160379785Y-117678571D01*
X160594071Y-117678571D01*
X160736928Y-117750000D01*
X160808357Y-117892857D01*
X160808357Y-118678571D01*
X162165500Y-118678571D02*
X162165500Y-117892857D01*
X162094071Y-117750000D01*
X161951214Y-117678571D01*
X161665500Y-117678571D01*
X161522642Y-117750000D01*
X162165500Y-118607142D02*
X162022642Y-118678571D01*
X161665500Y-118678571D01*
X161522642Y-118607142D01*
X161451214Y-118464285D01*
X161451214Y-118321428D01*
X161522642Y-118178571D01*
X161665500Y-118107142D01*
X162022642Y-118107142D01*
X162165500Y-118035714D01*
X163094071Y-118678571D02*
X162951214Y-118607142D01*
X162879785Y-118464285D01*
X162879785Y-117178571D01*
X159256928Y-109357142D02*
X160399785Y-109357142D01*
X159828357Y-109928571D02*
X159828357Y-108785714D01*
X161185500Y-109928571D02*
X161471214Y-109928571D01*
X161614071Y-109857142D01*
X161685500Y-109785714D01*
X161828357Y-109571428D01*
X161899785Y-109285714D01*
X161899785Y-108714285D01*
X161828357Y-108571428D01*
X161756928Y-108500000D01*
X161614071Y-108428571D01*
X161328357Y-108428571D01*
X161185500Y-108500000D01*
X161114071Y-108571428D01*
X161042642Y-108714285D01*
X161042642Y-109071428D01*
X161114071Y-109214285D01*
X161185500Y-109285714D01*
X161328357Y-109357142D01*
X161614071Y-109357142D01*
X161756928Y-109285714D01*
X161828357Y-109214285D01*
X161899785Y-109071428D01*
X162328357Y-108428571D02*
X162828357Y-109928571D01*
X163328357Y-108428571D01*
D11*
X128240642Y-121326571D02*
X128240642Y-119826571D01*
X128597785Y-119826571D01*
X128812071Y-119898000D01*
X128954928Y-120040857D01*
X129026357Y-120183714D01*
X129097785Y-120469428D01*
X129097785Y-120683714D01*
X129026357Y-120969428D01*
X128954928Y-121112285D01*
X128812071Y-121255142D01*
X128597785Y-121326571D01*
X128240642Y-121326571D01*
X129740642Y-121326571D02*
X129740642Y-119826571D01*
X130740642Y-120612285D02*
X130740642Y-121326571D01*
X130240642Y-119826571D02*
X130740642Y-120612285D01*
X131240642Y-119826571D01*
X133526357Y-121326571D02*
X133526357Y-119826571D01*
X133526357Y-121255142D02*
X133383500Y-121326571D01*
X133097785Y-121326571D01*
X132954928Y-121255142D01*
X132883500Y-121183714D01*
X132812071Y-121040857D01*
X132812071Y-120612285D01*
X132883500Y-120469428D01*
X132954928Y-120398000D01*
X133097785Y-120326571D01*
X133383500Y-120326571D01*
X133526357Y-120398000D01*
X134812071Y-121255142D02*
X134669214Y-121326571D01*
X134383500Y-121326571D01*
X134240642Y-121255142D01*
X134169214Y-121112285D01*
X134169214Y-120540857D01*
X134240642Y-120398000D01*
X134383500Y-120326571D01*
X134669214Y-120326571D01*
X134812071Y-120398000D01*
X134883500Y-120540857D01*
X134883500Y-120683714D01*
X134169214Y-120826571D01*
X135312071Y-120326571D02*
X135883500Y-120326571D01*
X135526357Y-119826571D02*
X135526357Y-121112285D01*
X135597785Y-121255142D01*
X135740642Y-121326571D01*
X135883500Y-121326571D01*
X136954928Y-121255142D02*
X136812071Y-121326571D01*
X136526357Y-121326571D01*
X136383500Y-121255142D01*
X136312071Y-121112285D01*
X136312071Y-120540857D01*
X136383500Y-120398000D01*
X136526357Y-120326571D01*
X136812071Y-120326571D01*
X136954928Y-120398000D01*
X137026357Y-120540857D01*
X137026357Y-120683714D01*
X136312071Y-120826571D01*
X138312071Y-121255142D02*
X138169214Y-121326571D01*
X137883500Y-121326571D01*
X137740642Y-121255142D01*
X137669214Y-121183714D01*
X137597785Y-121040857D01*
X137597785Y-120612285D01*
X137669214Y-120469428D01*
X137740642Y-120398000D01*
X137883500Y-120326571D01*
X138169214Y-120326571D01*
X138312071Y-120398000D01*
X138740642Y-120326571D02*
X139312071Y-120326571D01*
X138954928Y-119826571D02*
X138954928Y-121112285D01*
X139026357Y-121255142D01*
X139169214Y-121326571D01*
X139312071Y-121326571D01*
X140026357Y-121326571D02*
X139883500Y-121255142D01*
X139812071Y-121183714D01*
X139740642Y-121040857D01*
X139740642Y-120612285D01*
X139812071Y-120469428D01*
X139883500Y-120398000D01*
X140026357Y-120326571D01*
X140240642Y-120326571D01*
X140383500Y-120398000D01*
X140454928Y-120469428D01*
X140526357Y-120612285D01*
X140526357Y-121040857D01*
X140454928Y-121183714D01*
X140383500Y-121255142D01*
X140240642Y-121326571D01*
X140026357Y-121326571D01*
X141169214Y-121326571D02*
X141169214Y-120326571D01*
X141169214Y-120612285D02*
X141240642Y-120469428D01*
X141312071Y-120398000D01*
X141454928Y-120326571D01*
X141597785Y-120326571D01*
X143026357Y-119826571D02*
X143526357Y-121326571D01*
X144026357Y-119826571D01*
X145312071Y-121326571D02*
X144454928Y-121326571D01*
X144883500Y-121326571D02*
X144883500Y-119826571D01*
X144740642Y-120040857D01*
X144597785Y-120183714D01*
X144454928Y-120255142D01*
X145954928Y-121183714D02*
X146026357Y-121255142D01*
X145954928Y-121326571D01*
X145883500Y-121255142D01*
X145954928Y-121183714D01*
X145954928Y-121326571D01*
X147454928Y-121326571D02*
X146597785Y-121326571D01*
X147026357Y-121326571D02*
X147026357Y-119826571D01*
X146883500Y-120040857D01*
X146740642Y-120183714D01*
X146597785Y-120255142D01*
X129097785Y-123683714D02*
X129026357Y-123755142D01*
X128812071Y-123826571D01*
X128669214Y-123826571D01*
X128454928Y-123755142D01*
X128312071Y-123612285D01*
X128240642Y-123469428D01*
X128169214Y-123183714D01*
X128169214Y-122969428D01*
X128240642Y-122683714D01*
X128312071Y-122540857D01*
X128454928Y-122398000D01*
X128669214Y-122326571D01*
X128812071Y-122326571D01*
X129026357Y-122398000D01*
X129097785Y-122469428D01*
X129740642Y-123040857D02*
X130240642Y-123040857D01*
X130454928Y-123826571D02*
X129740642Y-123826571D01*
X129740642Y-122326571D01*
X130454928Y-122326571D01*
X131954928Y-123826571D02*
X131454928Y-123112285D01*
X131097785Y-123826571D02*
X131097785Y-122326571D01*
X131669214Y-122326571D01*
X131812071Y-122398000D01*
X131883500Y-122469428D01*
X131954928Y-122612285D01*
X131954928Y-122826571D01*
X131883500Y-122969428D01*
X131812071Y-123040857D01*
X131669214Y-123112285D01*
X131097785Y-123112285D01*
X132597785Y-123826571D02*
X132597785Y-122326571D01*
X133454928Y-123826571D01*
X133454928Y-122326571D01*
X135597785Y-122326571D02*
X135883500Y-122326571D01*
X136026357Y-122398000D01*
X136169214Y-122540857D01*
X136240642Y-122826571D01*
X136240642Y-123326571D01*
X136169214Y-123612285D01*
X136026357Y-123755142D01*
X135883500Y-123826571D01*
X135597785Y-123826571D01*
X135454928Y-123755142D01*
X135312071Y-123612285D01*
X135240642Y-123326571D01*
X135240642Y-122826571D01*
X135312071Y-122540857D01*
X135454928Y-122398000D01*
X135597785Y-122326571D01*
X136883500Y-123826571D02*
X136883500Y-122326571D01*
X136883500Y-123040857D02*
X137740642Y-123040857D01*
X137740642Y-123826571D02*
X137740642Y-122326571D01*
X139169214Y-123826571D02*
X138454928Y-123826571D01*
X138454928Y-122326571D01*
X140669214Y-122826571D02*
X141026357Y-123826571D01*
X141383500Y-122826571D01*
X142740642Y-123826571D02*
X141883500Y-123826571D01*
X142312071Y-123826571D02*
X142312071Y-122326571D01*
X142169214Y-122540857D01*
X142026357Y-122683714D01*
X141883500Y-122755142D01*
X143383500Y-123683714D02*
X143454928Y-123755142D01*
X143383500Y-123826571D01*
X143312071Y-123755142D01*
X143383500Y-123683714D01*
X143383500Y-123826571D01*
X144026357Y-122469428D02*
X144097785Y-122398000D01*
X144240642Y-122326571D01*
X144597785Y-122326571D01*
X144740642Y-122398000D01*
X144812071Y-122469428D01*
X144883500Y-122612285D01*
X144883500Y-122755142D01*
X144812071Y-122969428D01*
X143954928Y-123826571D01*
X144883500Y-123826571D01*
D12*
X170651579Y-105184029D02*
G75*
G03X166384587Y-100915815I-2967696J1300146D01*
G01*
X168984029Y-106851579D02*
G75*
G02X164715815Y-102584587I-1300146J2967696D01*
G01*
X168984029Y-106851579D02*
G75*
G03X170651951Y-105183179I-1300146J2967696D01*
G01*
X169946625Y-101621142D02*
X165421142Y-106146625D01*
X169974909Y-101649426D02*
X165449426Y-106174909D01*
X170003194Y-101677710D02*
X165477710Y-106203194D01*
X170030064Y-101707409D02*
X165507409Y-106230064D01*
X170057641Y-101736400D02*
X165536400Y-106257641D01*
X170083804Y-101766806D02*
X165566806Y-106283804D01*
X170110674Y-101796504D02*
X165596504Y-106310674D01*
X170136130Y-101827617D02*
X168574838Y-103388909D01*
X167188909Y-104774838D02*
X165627617Y-106336130D01*
X170162293Y-101858023D02*
X168603122Y-103417193D01*
X167217193Y-104803122D02*
X165658023Y-106362293D01*
X170187041Y-101889842D02*
X168631407Y-103445477D01*
X167245477Y-104831407D02*
X165689842Y-106387041D01*
X170212497Y-101920955D02*
X168659691Y-103473762D01*
X167273762Y-104859691D02*
X165720955Y-106412497D01*
X170236539Y-101953482D02*
X168687975Y-103502046D01*
X167302046Y-104887975D02*
X165753482Y-106436539D01*
X170261288Y-101985302D02*
X168716259Y-103530330D01*
X167330330Y-104916259D02*
X165785302Y-106461288D01*
X170284622Y-102018536D02*
X168744544Y-103558614D01*
X167358614Y-104944544D02*
X165818536Y-106484622D01*
X170308664Y-102051063D02*
X168772828Y-103586899D01*
X167386899Y-104972828D02*
X165851063Y-106508664D01*
X170331291Y-102085004D02*
X168801112Y-103615183D01*
X167415183Y-105001112D02*
X165885004Y-106531291D01*
X170354626Y-102118238D02*
X168829396Y-103643467D01*
X167443467Y-105029396D02*
X165918238Y-106554626D01*
X170376546Y-102152886D02*
X168857681Y-103671751D01*
X167471751Y-105057681D02*
X165952886Y-106576546D01*
X170399174Y-102188241D02*
X168886672Y-103700743D01*
X167500743Y-105086672D02*
X165988241Y-106599174D01*
X170421094Y-102222890D02*
X168914956Y-103729027D01*
X167529027Y-105114956D02*
X166022890Y-106621094D01*
X170442307Y-102258245D02*
X168943241Y-103757311D01*
X167557311Y-105143241D02*
X166058245Y-106642307D01*
X170463520Y-102293600D02*
X168971525Y-103785596D01*
X167585596Y-105171525D02*
X166093600Y-106663520D01*
X170484026Y-102329663D02*
X168999809Y-103813880D01*
X167613880Y-105199809D02*
X166129663Y-106684026D01*
X170503825Y-102366432D02*
X169028093Y-103842164D01*
X167642164Y-105228093D02*
X166166432Y-106703825D01*
X170523624Y-102403202D02*
X169056378Y-103870448D01*
X167670448Y-105256378D02*
X166203202Y-106723624D01*
X170542716Y-102440679D02*
X169084662Y-103898733D01*
X167698733Y-105284662D02*
X166240679Y-106742716D01*
X170561808Y-102478155D02*
X169112946Y-103927017D01*
X167727017Y-105312946D02*
X166278155Y-106761808D01*
X170580193Y-102516339D02*
X169141231Y-103955301D01*
X167755301Y-105341231D02*
X166316339Y-106780193D01*
X170598578Y-102554523D02*
X169169515Y-103983586D01*
X167783586Y-105369515D02*
X166354523Y-106798578D01*
X170616255Y-102593414D02*
X169197799Y-104011870D01*
X167811870Y-105397799D02*
X166393414Y-106816255D01*
X170633226Y-102633012D02*
X169226083Y-104040154D01*
X167840154Y-105426083D02*
X166433012Y-106833226D01*
X170650196Y-102672610D02*
X169254368Y-104068438D01*
X167868438Y-105454368D02*
X166472610Y-106850196D01*
X170666460Y-102712915D02*
X169282652Y-104096723D01*
X167896723Y-105482652D02*
X166512915Y-106866460D01*
X170682016Y-102753927D02*
X169310936Y-104125007D01*
X167925007Y-105510936D02*
X166553927Y-106882016D01*
X170697573Y-102794939D02*
X169339220Y-104153291D01*
X167953291Y-105539220D02*
X166594939Y-106897573D01*
X170712422Y-102836658D02*
X169367505Y-104181575D01*
X167981575Y-105567505D02*
X166636658Y-106912422D01*
X170727271Y-102878378D02*
X169395789Y-104209860D01*
X168009860Y-105595789D02*
X166678378Y-106927271D01*
X170741413Y-102920804D02*
X169424073Y-104238144D01*
X168038144Y-105624073D02*
X166720804Y-106941413D01*
X170754848Y-102963938D02*
X169452358Y-104266428D01*
X168066428Y-105652358D02*
X166763938Y-106954848D01*
X170767576Y-103007778D02*
X169480642Y-104294713D01*
X168094713Y-105680642D02*
X166807778Y-106967576D01*
X170780304Y-103051619D02*
X169508926Y-104322997D01*
X168122997Y-105708926D02*
X166851619Y-106980304D01*
X170792325Y-103096167D02*
X169537210Y-104351281D01*
X168151281Y-105737210D02*
X166896167Y-106992325D01*
X170803639Y-103141421D02*
X169565495Y-104379565D01*
X168179565Y-105765495D02*
X166941421Y-107003639D01*
X170814245Y-103187383D02*
X169593779Y-104407850D01*
X168207850Y-105793779D02*
X166987383Y-107014245D01*
X170824852Y-103233345D02*
X169622063Y-104436134D01*
X168236134Y-105822063D02*
X167033345Y-107024852D01*
X170834044Y-103280721D02*
X169650347Y-104464418D01*
X168264418Y-105850347D02*
X167080721Y-107034044D01*
X170843237Y-103328098D02*
X169678632Y-104492702D01*
X168292702Y-105878632D02*
X167128098Y-107043237D01*
X170851722Y-103376181D02*
X169706916Y-104520987D01*
X168320987Y-105906916D02*
X167176181Y-107051722D01*
X170859500Y-103424971D02*
X169735200Y-104549271D01*
X168349271Y-105935200D02*
X167224971Y-107059500D01*
X170866571Y-103474469D02*
X169763485Y-104577555D01*
X168377555Y-105963485D02*
X167274469Y-107066571D01*
X170873642Y-103523966D02*
X169791769Y-104605840D01*
X168405840Y-105991769D02*
X167323966Y-107073642D01*
X170879299Y-103574878D02*
X169820053Y-104634124D01*
X168434124Y-106020053D02*
X167374878Y-107079299D01*
X170884249Y-103626497D02*
X169848337Y-104662408D01*
X168462408Y-106048337D02*
X167426497Y-107084249D01*
X170888491Y-103678823D02*
X169876622Y-104690692D01*
X168490692Y-106076622D02*
X167478823Y-107088491D01*
X170891320Y-103732563D02*
X169904906Y-104718977D01*
X168518977Y-106104906D02*
X167532563Y-107091320D01*
X170894148Y-103786303D02*
X169933190Y-104747261D01*
X168547261Y-106133190D02*
X167586303Y-107094148D01*
X170895562Y-103841457D02*
X167641457Y-107095562D01*
X170896270Y-103897319D02*
X167697319Y-107096270D01*
X170896270Y-103953887D02*
X167753887Y-107096270D01*
X170894855Y-104011870D02*
X167811870Y-107094855D01*
X170892734Y-104070560D02*
X167870560Y-107092734D01*
X170889199Y-104130664D02*
X167930664Y-107089199D01*
X170884249Y-104192182D02*
X167992182Y-107084249D01*
X170878592Y-104254407D02*
X168054407Y-107078592D01*
X170870814Y-104318754D02*
X168118754Y-107070814D01*
X170862328Y-104383808D02*
X168183808Y-107062328D01*
X170851722Y-104450983D02*
X168250983Y-107051722D01*
X170838994Y-104520280D02*
X168320280Y-107038994D01*
X170824852Y-104590990D02*
X168390990Y-107024852D01*
X170808588Y-104663822D02*
X168463822Y-107008588D01*
X170789496Y-104739483D02*
X168539483Y-106989496D01*
X170767576Y-104817972D02*
X168617972Y-106967576D01*
X170742827Y-104899289D02*
X168699289Y-106942827D01*
X170713836Y-104984849D02*
X168784849Y-106913836D01*
X170681309Y-105073944D02*
X168873944Y-106881309D01*
X170643125Y-105168696D02*
X168968696Y-106843125D01*
X170598578Y-105269813D02*
X169069813Y-106798578D01*
X170545545Y-105379414D02*
X169179414Y-106745545D01*
X170480491Y-105501037D02*
X169301037Y-106680491D01*
X170397052Y-105641044D02*
X169441044Y-106597052D01*
X170278258Y-105816406D02*
X169616406Y-106478258D01*
X165244365Y-101444365D02*
X166092893Y-102292893D01*
X166128249Y-101409010D02*
X165209010Y-102328249D01*
D13*
G36*
X116234886Y-123847505D02*
X116309539Y-123884727D01*
X116375431Y-123953261D01*
X116393577Y-123978648D01*
X116413345Y-124011866D01*
X116426172Y-124047945D01*
X116433510Y-124096098D01*
X116436813Y-124165536D01*
X116437538Y-124257206D01*
X116434263Y-124382830D01*
X116422877Y-124477154D01*
X116401041Y-124547523D01*
X116366419Y-124601286D01*
X116316670Y-124645788D01*
X116313014Y-124648423D01*
X116263985Y-124675377D01*
X116204945Y-124688712D01*
X116129859Y-124692000D01*
X116007795Y-124692000D01*
X116007744Y-124810497D01*
X116006608Y-124876492D01*
X115999686Y-124915202D01*
X115981598Y-124938419D01*
X115946962Y-124957933D01*
X115938645Y-124961920D01*
X115899720Y-124980603D01*
X115869583Y-124992403D01*
X115847174Y-124993422D01*
X115831433Y-124979761D01*
X115821302Y-124947522D01*
X115815723Y-124892804D01*
X115813635Y-124811711D01*
X115813981Y-124700344D01*
X115815700Y-124554802D01*
X115816237Y-124511269D01*
X115818172Y-124361205D01*
X115819904Y-124263042D01*
X116007692Y-124263042D01*
X116008748Y-124346364D01*
X116013438Y-124400880D01*
X116024051Y-124436837D01*
X116042872Y-124464482D01*
X116055650Y-124477965D01*
X116107890Y-124517417D01*
X116154142Y-124520628D01*
X116201867Y-124488049D01*
X116203077Y-124486846D01*
X116222494Y-124461668D01*
X116234307Y-124427447D01*
X116240265Y-124374748D01*
X116242120Y-124294131D01*
X116242154Y-124276271D01*
X116237670Y-124165175D01*
X116223074Y-124088161D01*
X116196650Y-124041147D01*
X116156683Y-124020050D01*
X116133584Y-124017923D01*
X116078762Y-124027900D01*
X116041158Y-124060752D01*
X116018523Y-124120857D01*
X116008606Y-124212598D01*
X116007692Y-124263042D01*
X115819904Y-124263042D01*
X115820222Y-124245060D01*
X115822873Y-124157679D01*
X115826606Y-124093905D01*
X115831907Y-124048582D01*
X115839258Y-124016555D01*
X115849143Y-123992668D01*
X115862046Y-123971764D01*
X115867579Y-123963898D01*
X115940969Y-123889595D01*
X116033760Y-123847467D01*
X116141096Y-123835722D01*
X116234886Y-123847505D01*
X116234886Y-123847505D01*
G37*
X116234886Y-123847505D02*
X116309539Y-123884727D01*
X116375431Y-123953261D01*
X116393577Y-123978648D01*
X116413345Y-124011866D01*
X116426172Y-124047945D01*
X116433510Y-124096098D01*
X116436813Y-124165536D01*
X116437538Y-124257206D01*
X116434263Y-124382830D01*
X116422877Y-124477154D01*
X116401041Y-124547523D01*
X116366419Y-124601286D01*
X116316670Y-124645788D01*
X116313014Y-124648423D01*
X116263985Y-124675377D01*
X116204945Y-124688712D01*
X116129859Y-124692000D01*
X116007795Y-124692000D01*
X116007744Y-124810497D01*
X116006608Y-124876492D01*
X115999686Y-124915202D01*
X115981598Y-124938419D01*
X115946962Y-124957933D01*
X115938645Y-124961920D01*
X115899720Y-124980603D01*
X115869583Y-124992403D01*
X115847174Y-124993422D01*
X115831433Y-124979761D01*
X115821302Y-124947522D01*
X115815723Y-124892804D01*
X115813635Y-124811711D01*
X115813981Y-124700344D01*
X115815700Y-124554802D01*
X115816237Y-124511269D01*
X115818172Y-124361205D01*
X115819904Y-124263042D01*
X116007692Y-124263042D01*
X116008748Y-124346364D01*
X116013438Y-124400880D01*
X116024051Y-124436837D01*
X116042872Y-124464482D01*
X116055650Y-124477965D01*
X116107890Y-124517417D01*
X116154142Y-124520628D01*
X116201867Y-124488049D01*
X116203077Y-124486846D01*
X116222494Y-124461668D01*
X116234307Y-124427447D01*
X116240265Y-124374748D01*
X116242120Y-124294131D01*
X116242154Y-124276271D01*
X116237670Y-124165175D01*
X116223074Y-124088161D01*
X116196650Y-124041147D01*
X116156683Y-124020050D01*
X116133584Y-124017923D01*
X116078762Y-124027900D01*
X116041158Y-124060752D01*
X116018523Y-124120857D01*
X116008606Y-124212598D01*
X116007692Y-124263042D01*
X115819904Y-124263042D01*
X115820222Y-124245060D01*
X115822873Y-124157679D01*
X115826606Y-124093905D01*
X115831907Y-124048582D01*
X115839258Y-124016555D01*
X115849143Y-123992668D01*
X115862046Y-123971764D01*
X115867579Y-123963898D01*
X115940969Y-123889595D01*
X116033760Y-123847467D01*
X116141096Y-123835722D01*
X116234886Y-123847505D01*
G36*
X117737664Y-123858089D02*
X117800367Y-123894358D01*
X117843961Y-123930358D01*
X117875845Y-123968075D01*
X117897810Y-124014199D01*
X117911649Y-124075421D01*
X117919153Y-124158431D01*
X117922117Y-124269919D01*
X117922461Y-124350062D01*
X117922461Y-124645065D01*
X117756385Y-124719515D01*
X117746615Y-124396402D01*
X117742579Y-124275729D01*
X117738344Y-124188141D01*
X117733097Y-124127650D01*
X117726025Y-124088268D01*
X117716311Y-124064007D01*
X117703144Y-124048880D01*
X117698919Y-124045606D01*
X117634909Y-124020034D01*
X117570208Y-124030153D01*
X117531692Y-124057000D01*
X117516025Y-124076024D01*
X117505180Y-124100988D01*
X117498288Y-124138834D01*
X117494479Y-124196502D01*
X117492883Y-124280935D01*
X117492615Y-124368928D01*
X117492563Y-124479323D01*
X117490672Y-124557463D01*
X117484345Y-124610165D01*
X117470983Y-124644242D01*
X117447985Y-124666511D01*
X117412754Y-124683787D01*
X117365697Y-124701738D01*
X117314303Y-124721278D01*
X117320421Y-124374485D01*
X117322884Y-124249468D01*
X117325767Y-124157082D01*
X117329898Y-124090881D01*
X117336107Y-124044420D01*
X117345226Y-124011256D01*
X117358083Y-123984944D01*
X117373584Y-123961729D01*
X117448371Y-123887569D01*
X117539628Y-123844684D01*
X117638883Y-123834412D01*
X117737664Y-123858089D01*
X117737664Y-123858089D01*
G37*
X117737664Y-123858089D02*
X117800367Y-123894358D01*
X117843961Y-123930358D01*
X117875845Y-123968075D01*
X117897810Y-124014199D01*
X117911649Y-124075421D01*
X117919153Y-124158431D01*
X117922117Y-124269919D01*
X117922461Y-124350062D01*
X117922461Y-124645065D01*
X117756385Y-124719515D01*
X117746615Y-124396402D01*
X117742579Y-124275729D01*
X117738344Y-124188141D01*
X117733097Y-124127650D01*
X117726025Y-124088268D01*
X117716311Y-124064007D01*
X117703144Y-124048880D01*
X117698919Y-124045606D01*
X117634909Y-124020034D01*
X117570208Y-124030153D01*
X117531692Y-124057000D01*
X117516025Y-124076024D01*
X117505180Y-124100988D01*
X117498288Y-124138834D01*
X117494479Y-124196502D01*
X117492883Y-124280935D01*
X117492615Y-124368928D01*
X117492563Y-124479323D01*
X117490672Y-124557463D01*
X117484345Y-124610165D01*
X117470983Y-124644242D01*
X117447985Y-124666511D01*
X117412754Y-124683787D01*
X117365697Y-124701738D01*
X117314303Y-124721278D01*
X117320421Y-124374485D01*
X117322884Y-124249468D01*
X117325767Y-124157082D01*
X117329898Y-124090881D01*
X117336107Y-124044420D01*
X117345226Y-124011256D01*
X117358083Y-123984944D01*
X117373584Y-123961729D01*
X117448371Y-123887569D01*
X117539628Y-123844684D01*
X117638883Y-123834412D01*
X117737664Y-123858089D01*
G36*
X115482886Y-123850256D02*
X115574464Y-123898409D01*
X115642049Y-123975905D01*
X115666057Y-124025727D01*
X115684738Y-124100533D01*
X115694301Y-124195052D01*
X115695208Y-124298210D01*
X115687921Y-124398935D01*
X115672903Y-124486153D01*
X115650615Y-124548791D01*
X115643765Y-124559579D01*
X115562632Y-124640105D01*
X115466266Y-124688336D01*
X115361701Y-124702450D01*
X115255968Y-124680629D01*
X115226543Y-124667547D01*
X115169241Y-124627231D01*
X115118950Y-124573775D01*
X115114197Y-124566995D01*
X115094878Y-124534321D01*
X115082108Y-124499394D01*
X115074564Y-124453414D01*
X115070924Y-124387584D01*
X115069865Y-124293105D01*
X115069846Y-124271923D01*
X115069894Y-124265182D01*
X115265231Y-124265182D01*
X115266368Y-124354349D01*
X115270841Y-124413520D01*
X115280246Y-124451741D01*
X115296176Y-124478053D01*
X115304308Y-124486846D01*
X115351058Y-124520261D01*
X115396447Y-124518737D01*
X115442340Y-124489752D01*
X115469712Y-124458809D01*
X115485923Y-124413643D01*
X115495026Y-124342420D01*
X115495651Y-124334114D01*
X115497204Y-124205037D01*
X115480965Y-124109172D01*
X115447152Y-124047107D01*
X115395984Y-124019432D01*
X115377720Y-124017923D01*
X115329760Y-124025513D01*
X115296953Y-124051808D01*
X115276895Y-124102095D01*
X115267178Y-124181664D01*
X115265231Y-124265182D01*
X115069894Y-124265182D01*
X115070574Y-124171249D01*
X115073629Y-124100906D01*
X115080322Y-124052163D01*
X115091960Y-124016288D01*
X115109853Y-123984548D01*
X115113808Y-123978648D01*
X115180267Y-123899104D01*
X115252685Y-123852929D01*
X115340849Y-123834599D01*
X115370787Y-123833703D01*
X115482886Y-123850256D01*
X115482886Y-123850256D01*
G37*
X115482886Y-123850256D02*
X115574464Y-123898409D01*
X115642049Y-123975905D01*
X115666057Y-124025727D01*
X115684738Y-124100533D01*
X115694301Y-124195052D01*
X115695208Y-124298210D01*
X115687921Y-124398935D01*
X115672903Y-124486153D01*
X115650615Y-124548791D01*
X115643765Y-124559579D01*
X115562632Y-124640105D01*
X115466266Y-124688336D01*
X115361701Y-124702450D01*
X115255968Y-124680629D01*
X115226543Y-124667547D01*
X115169241Y-124627231D01*
X115118950Y-124573775D01*
X115114197Y-124566995D01*
X115094878Y-124534321D01*
X115082108Y-124499394D01*
X115074564Y-124453414D01*
X115070924Y-124387584D01*
X115069865Y-124293105D01*
X115069846Y-124271923D01*
X115069894Y-124265182D01*
X115265231Y-124265182D01*
X115266368Y-124354349D01*
X115270841Y-124413520D01*
X115280246Y-124451741D01*
X115296176Y-124478053D01*
X115304308Y-124486846D01*
X115351058Y-124520261D01*
X115396447Y-124518737D01*
X115442340Y-124489752D01*
X115469712Y-124458809D01*
X115485923Y-124413643D01*
X115495026Y-124342420D01*
X115495651Y-124334114D01*
X115497204Y-124205037D01*
X115480965Y-124109172D01*
X115447152Y-124047107D01*
X115395984Y-124019432D01*
X115377720Y-124017923D01*
X115329760Y-124025513D01*
X115296953Y-124051808D01*
X115276895Y-124102095D01*
X115267178Y-124181664D01*
X115265231Y-124265182D01*
X115069894Y-124265182D01*
X115070574Y-124171249D01*
X115073629Y-124100906D01*
X115080322Y-124052163D01*
X115091960Y-124016288D01*
X115109853Y-123984548D01*
X115113808Y-123978648D01*
X115180267Y-123899104D01*
X115252685Y-123852929D01*
X115340849Y-123834599D01*
X115370787Y-123833703D01*
X115482886Y-123850256D01*
G36*
X117000254Y-123862745D02*
X117077286Y-123914567D01*
X117136816Y-123989412D01*
X117172378Y-124084654D01*
X117179571Y-124154756D01*
X117178754Y-124184009D01*
X117171914Y-124206407D01*
X117153112Y-124226474D01*
X117116408Y-124248733D01*
X117055862Y-124277709D01*
X116965534Y-124317927D01*
X116965077Y-124318129D01*
X116881933Y-124356210D01*
X116813753Y-124390025D01*
X116767505Y-124415933D01*
X116750158Y-124430295D01*
X116750154Y-124430411D01*
X116765443Y-124461685D01*
X116801196Y-124496157D01*
X116842242Y-124520990D01*
X116863037Y-124525923D01*
X116919770Y-124508862D01*
X116968627Y-124466133D01*
X116992465Y-124419155D01*
X117015397Y-124384522D01*
X117060318Y-124345081D01*
X117113123Y-124311009D01*
X117159710Y-124292480D01*
X117169452Y-124291462D01*
X117180418Y-124308215D01*
X117181079Y-124351039D01*
X117173020Y-124408781D01*
X117157827Y-124470289D01*
X117137086Y-124524409D01*
X117136038Y-124526510D01*
X117073621Y-124613660D01*
X116992726Y-124672939D01*
X116900856Y-124702034D01*
X116805513Y-124698634D01*
X116714198Y-124660428D01*
X116710138Y-124657741D01*
X116638306Y-124592642D01*
X116591073Y-124507705D01*
X116564934Y-124396021D01*
X116561426Y-124364643D01*
X116555213Y-124216536D01*
X116562661Y-124147468D01*
X116750154Y-124147468D01*
X116752590Y-124190552D01*
X116765914Y-124203126D01*
X116799132Y-124193719D01*
X116851494Y-124171483D01*
X116910024Y-124143610D01*
X116911479Y-124142872D01*
X116961089Y-124116777D01*
X116981000Y-124099363D01*
X116976090Y-124081107D01*
X116955416Y-124057120D01*
X116902819Y-124022406D01*
X116846177Y-124019856D01*
X116795369Y-124045119D01*
X116760276Y-124093847D01*
X116750154Y-124147468D01*
X116562661Y-124147468D01*
X116567992Y-124098036D01*
X116600778Y-124004055D01*
X116646421Y-123938215D01*
X116728802Y-123871681D01*
X116819546Y-123838676D01*
X116912185Y-123836573D01*
X117000254Y-123862745D01*
X117000254Y-123862745D01*
G37*
X117000254Y-123862745D02*
X117077286Y-123914567D01*
X117136816Y-123989412D01*
X117172378Y-124084654D01*
X117179571Y-124154756D01*
X117178754Y-124184009D01*
X117171914Y-124206407D01*
X117153112Y-124226474D01*
X117116408Y-124248733D01*
X117055862Y-124277709D01*
X116965534Y-124317927D01*
X116965077Y-124318129D01*
X116881933Y-124356210D01*
X116813753Y-124390025D01*
X116767505Y-124415933D01*
X116750158Y-124430295D01*
X116750154Y-124430411D01*
X116765443Y-124461685D01*
X116801196Y-124496157D01*
X116842242Y-124520990D01*
X116863037Y-124525923D01*
X116919770Y-124508862D01*
X116968627Y-124466133D01*
X116992465Y-124419155D01*
X117015397Y-124384522D01*
X117060318Y-124345081D01*
X117113123Y-124311009D01*
X117159710Y-124292480D01*
X117169452Y-124291462D01*
X117180418Y-124308215D01*
X117181079Y-124351039D01*
X117173020Y-124408781D01*
X117157827Y-124470289D01*
X117137086Y-124524409D01*
X117136038Y-124526510D01*
X117073621Y-124613660D01*
X116992726Y-124672939D01*
X116900856Y-124702034D01*
X116805513Y-124698634D01*
X116714198Y-124660428D01*
X116710138Y-124657741D01*
X116638306Y-124592642D01*
X116591073Y-124507705D01*
X116564934Y-124396021D01*
X116561426Y-124364643D01*
X116555213Y-124216536D01*
X116562661Y-124147468D01*
X116750154Y-124147468D01*
X116752590Y-124190552D01*
X116765914Y-124203126D01*
X116799132Y-124193719D01*
X116851494Y-124171483D01*
X116910024Y-124143610D01*
X116911479Y-124142872D01*
X116961089Y-124116777D01*
X116981000Y-124099363D01*
X116976090Y-124081107D01*
X116955416Y-124057120D01*
X116902819Y-124022406D01*
X116846177Y-124019856D01*
X116795369Y-124045119D01*
X116760276Y-124093847D01*
X116750154Y-124147468D01*
X116562661Y-124147468D01*
X116567992Y-124098036D01*
X116600778Y-124004055D01*
X116646421Y-123938215D01*
X116728802Y-123871681D01*
X116819546Y-123838676D01*
X116912185Y-123836573D01*
X117000254Y-123862745D01*
G36*
X118625846Y-123755120D02*
X118631572Y-123834980D01*
X118638149Y-123882039D01*
X118647262Y-123902566D01*
X118660598Y-123902829D01*
X118664923Y-123900378D01*
X118722444Y-123882636D01*
X118797268Y-123883672D01*
X118873339Y-123901910D01*
X118920918Y-123925505D01*
X118969702Y-123963198D01*
X119005364Y-124005855D01*
X119029845Y-124060057D01*
X119045087Y-124132384D01*
X119053030Y-124229419D01*
X119055616Y-124357742D01*
X119055662Y-124382358D01*
X119055692Y-124658870D01*
X118994161Y-124680320D01*
X118950459Y-124694912D01*
X118926482Y-124701706D01*
X118925777Y-124701769D01*
X118923415Y-124683345D01*
X118921406Y-124632526D01*
X118919901Y-124555993D01*
X118919053Y-124460430D01*
X118918923Y-124402329D01*
X118918651Y-124287771D01*
X118917252Y-124205667D01*
X118913849Y-124149393D01*
X118907567Y-124112326D01*
X118897529Y-124087844D01*
X118882861Y-124069325D01*
X118873702Y-124060406D01*
X118810789Y-124024466D01*
X118742136Y-124021775D01*
X118679848Y-124052170D01*
X118668329Y-124063144D01*
X118651433Y-124083779D01*
X118639714Y-124108256D01*
X118632233Y-124143647D01*
X118628054Y-124197026D01*
X118626237Y-124275466D01*
X118625846Y-124383617D01*
X118625846Y-124658870D01*
X118564315Y-124680320D01*
X118520613Y-124694912D01*
X118496636Y-124701706D01*
X118495930Y-124701769D01*
X118494126Y-124683069D01*
X118492500Y-124630322D01*
X118491117Y-124548557D01*
X118490042Y-124442805D01*
X118489340Y-124318094D01*
X118489077Y-124179455D01*
X118489077Y-123644806D01*
X118616077Y-123591236D01*
X118625846Y-123755120D01*
X118625846Y-123755120D01*
G37*
X118625846Y-123755120D02*
X118631572Y-123834980D01*
X118638149Y-123882039D01*
X118647262Y-123902566D01*
X118660598Y-123902829D01*
X118664923Y-123900378D01*
X118722444Y-123882636D01*
X118797268Y-123883672D01*
X118873339Y-123901910D01*
X118920918Y-123925505D01*
X118969702Y-123963198D01*
X119005364Y-124005855D01*
X119029845Y-124060057D01*
X119045087Y-124132384D01*
X119053030Y-124229419D01*
X119055616Y-124357742D01*
X119055662Y-124382358D01*
X119055692Y-124658870D01*
X118994161Y-124680320D01*
X118950459Y-124694912D01*
X118926482Y-124701706D01*
X118925777Y-124701769D01*
X118923415Y-124683345D01*
X118921406Y-124632526D01*
X118919901Y-124555993D01*
X118919053Y-124460430D01*
X118918923Y-124402329D01*
X118918651Y-124287771D01*
X118917252Y-124205667D01*
X118913849Y-124149393D01*
X118907567Y-124112326D01*
X118897529Y-124087844D01*
X118882861Y-124069325D01*
X118873702Y-124060406D01*
X118810789Y-124024466D01*
X118742136Y-124021775D01*
X118679848Y-124052170D01*
X118668329Y-124063144D01*
X118651433Y-124083779D01*
X118639714Y-124108256D01*
X118632233Y-124143647D01*
X118628054Y-124197026D01*
X118626237Y-124275466D01*
X118625846Y-124383617D01*
X118625846Y-124658870D01*
X118564315Y-124680320D01*
X118520613Y-124694912D01*
X118496636Y-124701706D01*
X118495930Y-124701769D01*
X118494126Y-124683069D01*
X118492500Y-124630322D01*
X118491117Y-124548557D01*
X118490042Y-124442805D01*
X118489340Y-124318094D01*
X118489077Y-124179455D01*
X118489077Y-123644806D01*
X118616077Y-123591236D01*
X118625846Y-123755120D01*
G36*
X119519501Y-123889303D02*
X119596060Y-123917733D01*
X119596936Y-123918279D01*
X119644285Y-123953127D01*
X119679241Y-123993852D01*
X119703825Y-124046925D01*
X119720062Y-124118814D01*
X119729975Y-124215992D01*
X119735586Y-124344928D01*
X119736077Y-124363298D01*
X119743141Y-124640287D01*
X119683695Y-124671028D01*
X119640681Y-124691802D01*
X119614710Y-124701646D01*
X119613509Y-124701769D01*
X119609014Y-124683606D01*
X119605444Y-124634612D01*
X119603248Y-124563031D01*
X119602769Y-124505068D01*
X119602758Y-124411170D01*
X119598466Y-124352203D01*
X119583503Y-124324079D01*
X119551482Y-124322706D01*
X119496014Y-124343998D01*
X119412269Y-124383136D01*
X119350689Y-124415643D01*
X119319017Y-124443845D01*
X119309706Y-124474582D01*
X119309692Y-124476104D01*
X119325057Y-124529054D01*
X119370547Y-124557660D01*
X119440166Y-124561803D01*
X119490313Y-124561084D01*
X119516754Y-124575527D01*
X119533243Y-124610218D01*
X119542733Y-124654416D01*
X119529057Y-124679493D01*
X119523907Y-124683082D01*
X119475425Y-124697496D01*
X119407531Y-124699537D01*
X119337612Y-124689983D01*
X119288068Y-124672522D01*
X119219570Y-124614364D01*
X119180634Y-124533408D01*
X119172923Y-124470160D01*
X119178807Y-124413111D01*
X119200101Y-124366542D01*
X119242265Y-124325181D01*
X119310759Y-124283755D01*
X119411044Y-124236993D01*
X119417154Y-124234350D01*
X119507490Y-124192617D01*
X119563235Y-124158391D01*
X119587129Y-124127635D01*
X119581913Y-124096311D01*
X119550328Y-124060383D01*
X119540883Y-124052116D01*
X119477617Y-124020058D01*
X119412064Y-124021407D01*
X119354972Y-124052838D01*
X119317093Y-124111024D01*
X119313574Y-124122446D01*
X119279300Y-124177837D01*
X119235809Y-124204518D01*
X119172923Y-124230960D01*
X119172923Y-124162548D01*
X119192052Y-124063110D01*
X119248831Y-123971902D01*
X119278378Y-123941389D01*
X119345542Y-123902228D01*
X119430956Y-123884500D01*
X119519501Y-123889303D01*
X119519501Y-123889303D01*
G37*
X119519501Y-123889303D02*
X119596060Y-123917733D01*
X119596936Y-123918279D01*
X119644285Y-123953127D01*
X119679241Y-123993852D01*
X119703825Y-124046925D01*
X119720062Y-124118814D01*
X119729975Y-124215992D01*
X119735586Y-124344928D01*
X119736077Y-124363298D01*
X119743141Y-124640287D01*
X119683695Y-124671028D01*
X119640681Y-124691802D01*
X119614710Y-124701646D01*
X119613509Y-124701769D01*
X119609014Y-124683606D01*
X119605444Y-124634612D01*
X119603248Y-124563031D01*
X119602769Y-124505068D01*
X119602758Y-124411170D01*
X119598466Y-124352203D01*
X119583503Y-124324079D01*
X119551482Y-124322706D01*
X119496014Y-124343998D01*
X119412269Y-124383136D01*
X119350689Y-124415643D01*
X119319017Y-124443845D01*
X119309706Y-124474582D01*
X119309692Y-124476104D01*
X119325057Y-124529054D01*
X119370547Y-124557660D01*
X119440166Y-124561803D01*
X119490313Y-124561084D01*
X119516754Y-124575527D01*
X119533243Y-124610218D01*
X119542733Y-124654416D01*
X119529057Y-124679493D01*
X119523907Y-124683082D01*
X119475425Y-124697496D01*
X119407531Y-124699537D01*
X119337612Y-124689983D01*
X119288068Y-124672522D01*
X119219570Y-124614364D01*
X119180634Y-124533408D01*
X119172923Y-124470160D01*
X119178807Y-124413111D01*
X119200101Y-124366542D01*
X119242265Y-124325181D01*
X119310759Y-124283755D01*
X119411044Y-124236993D01*
X119417154Y-124234350D01*
X119507490Y-124192617D01*
X119563235Y-124158391D01*
X119587129Y-124127635D01*
X119581913Y-124096311D01*
X119550328Y-124060383D01*
X119540883Y-124052116D01*
X119477617Y-124020058D01*
X119412064Y-124021407D01*
X119354972Y-124052838D01*
X119317093Y-124111024D01*
X119313574Y-124122446D01*
X119279300Y-124177837D01*
X119235809Y-124204518D01*
X119172923Y-124230960D01*
X119172923Y-124162548D01*
X119192052Y-124063110D01*
X119248831Y-123971902D01*
X119278378Y-123941389D01*
X119345542Y-123902228D01*
X119430956Y-123884500D01*
X119519501Y-123889303D01*
G36*
X120179362Y-123887670D02*
X120268117Y-123920421D01*
X120340022Y-123978350D01*
X120368144Y-124019128D01*
X120398802Y-124093954D01*
X120398165Y-124148058D01*
X120365987Y-124184446D01*
X120354081Y-124190633D01*
X120302675Y-124209925D01*
X120276422Y-124204982D01*
X120267530Y-124172587D01*
X120267077Y-124154692D01*
X120250797Y-124088859D01*
X120208365Y-124042807D01*
X120149388Y-124020564D01*
X120083475Y-124026161D01*
X120029895Y-124055229D01*
X120011798Y-124071810D01*
X119998971Y-124091925D01*
X119990306Y-124122332D01*
X119984696Y-124169788D01*
X119981035Y-124241050D01*
X119978215Y-124342875D01*
X119977484Y-124375115D01*
X119974820Y-124485410D01*
X119971792Y-124563036D01*
X119967250Y-124614396D01*
X119960046Y-124645890D01*
X119949033Y-124663920D01*
X119933060Y-124674888D01*
X119922834Y-124679733D01*
X119879406Y-124696301D01*
X119853842Y-124701769D01*
X119845395Y-124683507D01*
X119840239Y-124628296D01*
X119838346Y-124535499D01*
X119839689Y-124404478D01*
X119840107Y-124384269D01*
X119843058Y-124264733D01*
X119846548Y-124177449D01*
X119851514Y-124115591D01*
X119858893Y-124072336D01*
X119869624Y-124040860D01*
X119884645Y-124014339D01*
X119892502Y-124002975D01*
X119937553Y-123952692D01*
X119987940Y-123913581D01*
X119994108Y-123910167D01*
X120084458Y-123883212D01*
X120179362Y-123887670D01*
X120179362Y-123887670D01*
G37*
X120179362Y-123887670D02*
X120268117Y-123920421D01*
X120340022Y-123978350D01*
X120368144Y-124019128D01*
X120398802Y-124093954D01*
X120398165Y-124148058D01*
X120365987Y-124184446D01*
X120354081Y-124190633D01*
X120302675Y-124209925D01*
X120276422Y-124204982D01*
X120267530Y-124172587D01*
X120267077Y-124154692D01*
X120250797Y-124088859D01*
X120208365Y-124042807D01*
X120149388Y-124020564D01*
X120083475Y-124026161D01*
X120029895Y-124055229D01*
X120011798Y-124071810D01*
X119998971Y-124091925D01*
X119990306Y-124122332D01*
X119984696Y-124169788D01*
X119981035Y-124241050D01*
X119978215Y-124342875D01*
X119977484Y-124375115D01*
X119974820Y-124485410D01*
X119971792Y-124563036D01*
X119967250Y-124614396D01*
X119960046Y-124645890D01*
X119949033Y-124663920D01*
X119933060Y-124674888D01*
X119922834Y-124679733D01*
X119879406Y-124696301D01*
X119853842Y-124701769D01*
X119845395Y-124683507D01*
X119840239Y-124628296D01*
X119838346Y-124535499D01*
X119839689Y-124404478D01*
X119840107Y-124384269D01*
X119843058Y-124264733D01*
X119846548Y-124177449D01*
X119851514Y-124115591D01*
X119858893Y-124072336D01*
X119869624Y-124040860D01*
X119884645Y-124014339D01*
X119892502Y-124002975D01*
X119937553Y-123952692D01*
X119987940Y-123913581D01*
X119994108Y-123910167D01*
X120084458Y-123883212D01*
X120179362Y-123887670D01*
G36*
X121068081Y-124043289D02*
X121067833Y-124189320D01*
X121066872Y-124301655D01*
X121064794Y-124385678D01*
X121061193Y-124446769D01*
X121055665Y-124490309D01*
X121047804Y-124521679D01*
X121037207Y-124546262D01*
X121029182Y-124560294D01*
X120962728Y-124636388D01*
X120878470Y-124684084D01*
X120785249Y-124701199D01*
X120691900Y-124685546D01*
X120636312Y-124657418D01*
X120577957Y-124608760D01*
X120538186Y-124549333D01*
X120514190Y-124471507D01*
X120503161Y-124367652D01*
X120501599Y-124291462D01*
X120501809Y-124285986D01*
X120638308Y-124285986D01*
X120639141Y-124373355D01*
X120642961Y-124431192D01*
X120651746Y-124469029D01*
X120667474Y-124496398D01*
X120686266Y-124517042D01*
X120749375Y-124556890D01*
X120817137Y-124560295D01*
X120881179Y-124527025D01*
X120886164Y-124522517D01*
X120907439Y-124499067D01*
X120920779Y-124471166D01*
X120928001Y-124429641D01*
X120930923Y-124365316D01*
X120931385Y-124294200D01*
X120930383Y-124204858D01*
X120926238Y-124145258D01*
X120917236Y-124106089D01*
X120901667Y-124078040D01*
X120888902Y-124063144D01*
X120829600Y-124025575D01*
X120761301Y-124021057D01*
X120696110Y-124049753D01*
X120683528Y-124060406D01*
X120662111Y-124084063D01*
X120648744Y-124112251D01*
X120641566Y-124154245D01*
X120638719Y-124219319D01*
X120638308Y-124285986D01*
X120501809Y-124285986D01*
X120506322Y-124168765D01*
X120522362Y-124076577D01*
X120552528Y-124007269D01*
X120599629Y-123953211D01*
X120636312Y-123925505D01*
X120702990Y-123895572D01*
X120780272Y-123881678D01*
X120852110Y-123885397D01*
X120892308Y-123900400D01*
X120908082Y-123904670D01*
X120918550Y-123888750D01*
X120925856Y-123846089D01*
X120931385Y-123781106D01*
X120937437Y-123708732D01*
X120945844Y-123665187D01*
X120961141Y-123640287D01*
X120987864Y-123623845D01*
X121004654Y-123616564D01*
X121068154Y-123589963D01*
X121068081Y-124043289D01*
X121068081Y-124043289D01*
G37*
X121068081Y-124043289D02*
X121067833Y-124189320D01*
X121066872Y-124301655D01*
X121064794Y-124385678D01*
X121061193Y-124446769D01*
X121055665Y-124490309D01*
X121047804Y-124521679D01*
X121037207Y-124546262D01*
X121029182Y-124560294D01*
X120962728Y-124636388D01*
X120878470Y-124684084D01*
X120785249Y-124701199D01*
X120691900Y-124685546D01*
X120636312Y-124657418D01*
X120577957Y-124608760D01*
X120538186Y-124549333D01*
X120514190Y-124471507D01*
X120503161Y-124367652D01*
X120501599Y-124291462D01*
X120501809Y-124285986D01*
X120638308Y-124285986D01*
X120639141Y-124373355D01*
X120642961Y-124431192D01*
X120651746Y-124469029D01*
X120667474Y-124496398D01*
X120686266Y-124517042D01*
X120749375Y-124556890D01*
X120817137Y-124560295D01*
X120881179Y-124527025D01*
X120886164Y-124522517D01*
X120907439Y-124499067D01*
X120920779Y-124471166D01*
X120928001Y-124429641D01*
X120930923Y-124365316D01*
X120931385Y-124294200D01*
X120930383Y-124204858D01*
X120926238Y-124145258D01*
X120917236Y-124106089D01*
X120901667Y-124078040D01*
X120888902Y-124063144D01*
X120829600Y-124025575D01*
X120761301Y-124021057D01*
X120696110Y-124049753D01*
X120683528Y-124060406D01*
X120662111Y-124084063D01*
X120648744Y-124112251D01*
X120641566Y-124154245D01*
X120638719Y-124219319D01*
X120638308Y-124285986D01*
X120501809Y-124285986D01*
X120506322Y-124168765D01*
X120522362Y-124076577D01*
X120552528Y-124007269D01*
X120599629Y-123953211D01*
X120636312Y-123925505D01*
X120702990Y-123895572D01*
X120780272Y-123881678D01*
X120852110Y-123885397D01*
X120892308Y-123900400D01*
X120908082Y-123904670D01*
X120918550Y-123888750D01*
X120925856Y-123846089D01*
X120931385Y-123781106D01*
X120937437Y-123708732D01*
X120945844Y-123665187D01*
X120961141Y-123640287D01*
X120987864Y-123623845D01*
X121004654Y-123616564D01*
X121068154Y-123589963D01*
X121068081Y-124043289D01*
G36*
X121861929Y-123899662D02*
X121864911Y-123951068D01*
X121867247Y-124029192D01*
X121868749Y-124127857D01*
X121869231Y-124231343D01*
X121869231Y-124581533D01*
X121807401Y-124643363D01*
X121764793Y-124681462D01*
X121727390Y-124696895D01*
X121676270Y-124695918D01*
X121655978Y-124693433D01*
X121592554Y-124686200D01*
X121540095Y-124682055D01*
X121527308Y-124681672D01*
X121484199Y-124684176D01*
X121422544Y-124690462D01*
X121398638Y-124693433D01*
X121339922Y-124698028D01*
X121300464Y-124688046D01*
X121261338Y-124657228D01*
X121247215Y-124643363D01*
X121185385Y-124581533D01*
X121185385Y-123926503D01*
X121235150Y-123903829D01*
X121278002Y-123887034D01*
X121303073Y-123881154D01*
X121309501Y-123899736D01*
X121315509Y-123951655D01*
X121320697Y-124031172D01*
X121324664Y-124132546D01*
X121326577Y-124218192D01*
X121331923Y-124555231D01*
X121378560Y-124561825D01*
X121420976Y-124557214D01*
X121441760Y-124542287D01*
X121447570Y-124514377D01*
X121452530Y-124454925D01*
X121456246Y-124371466D01*
X121458324Y-124271532D01*
X121458624Y-124220104D01*
X121458923Y-123924054D01*
X121520454Y-123902604D01*
X121564004Y-123888020D01*
X121587694Y-123881219D01*
X121588377Y-123881154D01*
X121590754Y-123899642D01*
X121593366Y-123950906D01*
X121595995Y-124028649D01*
X121598421Y-124126574D01*
X121600115Y-124218192D01*
X121605461Y-124555231D01*
X121722692Y-124555231D01*
X121728072Y-124247746D01*
X121733451Y-123940261D01*
X121790601Y-123910707D01*
X121832797Y-123890413D01*
X121857770Y-123881204D01*
X121858491Y-123881154D01*
X121861929Y-123899662D01*
X121861929Y-123899662D01*
G37*
X121861929Y-123899662D02*
X121864911Y-123951068D01*
X121867247Y-124029192D01*
X121868749Y-124127857D01*
X121869231Y-124231343D01*
X121869231Y-124581533D01*
X121807401Y-124643363D01*
X121764793Y-124681462D01*
X121727390Y-124696895D01*
X121676270Y-124695918D01*
X121655978Y-124693433D01*
X121592554Y-124686200D01*
X121540095Y-124682055D01*
X121527308Y-124681672D01*
X121484199Y-124684176D01*
X121422544Y-124690462D01*
X121398638Y-124693433D01*
X121339922Y-124698028D01*
X121300464Y-124688046D01*
X121261338Y-124657228D01*
X121247215Y-124643363D01*
X121185385Y-124581533D01*
X121185385Y-123926503D01*
X121235150Y-123903829D01*
X121278002Y-123887034D01*
X121303073Y-123881154D01*
X121309501Y-123899736D01*
X121315509Y-123951655D01*
X121320697Y-124031172D01*
X121324664Y-124132546D01*
X121326577Y-124218192D01*
X121331923Y-124555231D01*
X121378560Y-124561825D01*
X121420976Y-124557214D01*
X121441760Y-124542287D01*
X121447570Y-124514377D01*
X121452530Y-124454925D01*
X121456246Y-124371466D01*
X121458324Y-124271532D01*
X121458624Y-124220104D01*
X121458923Y-123924054D01*
X121520454Y-123902604D01*
X121564004Y-123888020D01*
X121587694Y-123881219D01*
X121588377Y-123881154D01*
X121590754Y-123899642D01*
X121593366Y-123950906D01*
X121595995Y-124028649D01*
X121598421Y-124126574D01*
X121600115Y-124218192D01*
X121605461Y-124555231D01*
X121722692Y-124555231D01*
X121728072Y-124247746D01*
X121733451Y-123940261D01*
X121790601Y-123910707D01*
X121832797Y-123890413D01*
X121857770Y-123881204D01*
X121858491Y-123881154D01*
X121861929Y-123899662D01*
G36*
X122353333Y-123896528D02*
X122409590Y-123922117D01*
X122453747Y-123953124D01*
X122486101Y-123987795D01*
X122508438Y-124032520D01*
X122522546Y-124093692D01*
X122530211Y-124177701D01*
X122533220Y-124290940D01*
X122533538Y-124365509D01*
X122533538Y-124656420D01*
X122483773Y-124679095D01*
X122444576Y-124695667D01*
X122425157Y-124701769D01*
X122421442Y-124683610D01*
X122418495Y-124634648D01*
X122416691Y-124563153D01*
X122416308Y-124506385D01*
X122414661Y-124424371D01*
X122410222Y-124359309D01*
X122403740Y-124319467D01*
X122398590Y-124311000D01*
X122363977Y-124319646D01*
X122309640Y-124341823D01*
X122246722Y-124371886D01*
X122186368Y-124404192D01*
X122139721Y-124433098D01*
X122117926Y-124452961D01*
X122117839Y-124453175D01*
X122119714Y-124489935D01*
X122136525Y-124525026D01*
X122166039Y-124553528D01*
X122209116Y-124563061D01*
X122245932Y-124561950D01*
X122298074Y-124561133D01*
X122325444Y-124573349D01*
X122341882Y-124605624D01*
X122343955Y-124611710D01*
X122351081Y-124657739D01*
X122332024Y-124685687D01*
X122282353Y-124699007D01*
X122228697Y-124701470D01*
X122132142Y-124683210D01*
X122082159Y-124657131D01*
X122020429Y-124595868D01*
X121987690Y-124520670D01*
X121984753Y-124441211D01*
X122012424Y-124367167D01*
X122054047Y-124320769D01*
X122095604Y-124294793D01*
X122160922Y-124261907D01*
X122237038Y-124228557D01*
X122249726Y-124223461D01*
X122333333Y-124186565D01*
X122381530Y-124154046D01*
X122397030Y-124121718D01*
X122382550Y-124085394D01*
X122357692Y-124057000D01*
X122298939Y-124022039D01*
X122234293Y-124019417D01*
X122175008Y-124046358D01*
X122132339Y-124100088D01*
X122126739Y-124113950D01*
X122094133Y-124164936D01*
X122046530Y-124202787D01*
X121986461Y-124233850D01*
X121986461Y-124145768D01*
X121989997Y-124091951D01*
X122005156Y-124049534D01*
X122038768Y-124004279D01*
X122071035Y-123969420D01*
X122121209Y-123920062D01*
X122160193Y-123893547D01*
X122202064Y-123882911D01*
X122249460Y-123881154D01*
X122353333Y-123896528D01*
X122353333Y-123896528D01*
G37*
X122353333Y-123896528D02*
X122409590Y-123922117D01*
X122453747Y-123953124D01*
X122486101Y-123987795D01*
X122508438Y-124032520D01*
X122522546Y-124093692D01*
X122530211Y-124177701D01*
X122533220Y-124290940D01*
X122533538Y-124365509D01*
X122533538Y-124656420D01*
X122483773Y-124679095D01*
X122444576Y-124695667D01*
X122425157Y-124701769D01*
X122421442Y-124683610D01*
X122418495Y-124634648D01*
X122416691Y-124563153D01*
X122416308Y-124506385D01*
X122414661Y-124424371D01*
X122410222Y-124359309D01*
X122403740Y-124319467D01*
X122398590Y-124311000D01*
X122363977Y-124319646D01*
X122309640Y-124341823D01*
X122246722Y-124371886D01*
X122186368Y-124404192D01*
X122139721Y-124433098D01*
X122117926Y-124452961D01*
X122117839Y-124453175D01*
X122119714Y-124489935D01*
X122136525Y-124525026D01*
X122166039Y-124553528D01*
X122209116Y-124563061D01*
X122245932Y-124561950D01*
X122298074Y-124561133D01*
X122325444Y-124573349D01*
X122341882Y-124605624D01*
X122343955Y-124611710D01*
X122351081Y-124657739D01*
X122332024Y-124685687D01*
X122282353Y-124699007D01*
X122228697Y-124701470D01*
X122132142Y-124683210D01*
X122082159Y-124657131D01*
X122020429Y-124595868D01*
X121987690Y-124520670D01*
X121984753Y-124441211D01*
X122012424Y-124367167D01*
X122054047Y-124320769D01*
X122095604Y-124294793D01*
X122160922Y-124261907D01*
X122237038Y-124228557D01*
X122249726Y-124223461D01*
X122333333Y-124186565D01*
X122381530Y-124154046D01*
X122397030Y-124121718D01*
X122382550Y-124085394D01*
X122357692Y-124057000D01*
X122298939Y-124022039D01*
X122234293Y-124019417D01*
X122175008Y-124046358D01*
X122132339Y-124100088D01*
X122126739Y-124113950D01*
X122094133Y-124164936D01*
X122046530Y-124202787D01*
X121986461Y-124233850D01*
X121986461Y-124145768D01*
X121989997Y-124091951D01*
X122005156Y-124049534D01*
X122038768Y-124004279D01*
X122071035Y-123969420D01*
X122121209Y-123920062D01*
X122160193Y-123893547D01*
X122202064Y-123882911D01*
X122249460Y-123881154D01*
X122353333Y-123896528D01*
G36*
X123036807Y-123899782D02*
X123060161Y-123909988D01*
X123115902Y-123954134D01*
X123163569Y-124017967D01*
X123193048Y-124086087D01*
X123197846Y-124119670D01*
X123181760Y-124166556D01*
X123146475Y-124191365D01*
X123108644Y-124206387D01*
X123091321Y-124209155D01*
X123082886Y-124189066D01*
X123066230Y-124145351D01*
X123058923Y-124125598D01*
X123017948Y-124057271D01*
X122958622Y-124023191D01*
X122882552Y-124024239D01*
X122876918Y-124025581D01*
X122836305Y-124044836D01*
X122806448Y-124082375D01*
X122786055Y-124142809D01*
X122773836Y-124230751D01*
X122768500Y-124350813D01*
X122768000Y-124414698D01*
X122767752Y-124515403D01*
X122766126Y-124584054D01*
X122761801Y-124627673D01*
X122753454Y-124653282D01*
X122739765Y-124667903D01*
X122719411Y-124678558D01*
X122718234Y-124679095D01*
X122679038Y-124695667D01*
X122659619Y-124701769D01*
X122656635Y-124683319D01*
X122654081Y-124632323D01*
X122652140Y-124555308D01*
X122650997Y-124458805D01*
X122650769Y-124388184D01*
X122651932Y-124251525D01*
X122656479Y-124147851D01*
X122665999Y-124071108D01*
X122682081Y-124015246D01*
X122706313Y-123974212D01*
X122740286Y-123941954D01*
X122773833Y-123919440D01*
X122854499Y-123889476D01*
X122948381Y-123882718D01*
X123036807Y-123899782D01*
X123036807Y-123899782D01*
G37*
X123036807Y-123899782D02*
X123060161Y-123909988D01*
X123115902Y-123954134D01*
X123163569Y-124017967D01*
X123193048Y-124086087D01*
X123197846Y-124119670D01*
X123181760Y-124166556D01*
X123146475Y-124191365D01*
X123108644Y-124206387D01*
X123091321Y-124209155D01*
X123082886Y-124189066D01*
X123066230Y-124145351D01*
X123058923Y-124125598D01*
X123017948Y-124057271D01*
X122958622Y-124023191D01*
X122882552Y-124024239D01*
X122876918Y-124025581D01*
X122836305Y-124044836D01*
X122806448Y-124082375D01*
X122786055Y-124142809D01*
X122773836Y-124230751D01*
X122768500Y-124350813D01*
X122768000Y-124414698D01*
X122767752Y-124515403D01*
X122766126Y-124584054D01*
X122761801Y-124627673D01*
X122753454Y-124653282D01*
X122739765Y-124667903D01*
X122719411Y-124678558D01*
X122718234Y-124679095D01*
X122679038Y-124695667D01*
X122659619Y-124701769D01*
X122656635Y-124683319D01*
X122654081Y-124632323D01*
X122652140Y-124555308D01*
X122650997Y-124458805D01*
X122650769Y-124388184D01*
X122651932Y-124251525D01*
X122656479Y-124147851D01*
X122665999Y-124071108D01*
X122682081Y-124015246D01*
X122706313Y-123974212D01*
X122740286Y-123941954D01*
X122773833Y-123919440D01*
X122854499Y-123889476D01*
X122948381Y-123882718D01*
X123036807Y-123899782D01*
G36*
X123711224Y-123910838D02*
X123788528Y-123961361D01*
X123825814Y-124006590D01*
X123855353Y-124088663D01*
X123857699Y-124153607D01*
X123852385Y-124240445D01*
X123652115Y-124328103D01*
X123554739Y-124372887D01*
X123491113Y-124408913D01*
X123458029Y-124440117D01*
X123452280Y-124470436D01*
X123470658Y-124503805D01*
X123490923Y-124525923D01*
X123549889Y-124561393D01*
X123614024Y-124563879D01*
X123672926Y-124536235D01*
X123716197Y-124481320D01*
X123723936Y-124461928D01*
X123761006Y-124401364D01*
X123803654Y-124375552D01*
X123862154Y-124353471D01*
X123862154Y-124437184D01*
X123856982Y-124494150D01*
X123836723Y-124542189D01*
X123794262Y-124597346D01*
X123787951Y-124604514D01*
X123740720Y-124653585D01*
X123700121Y-124679920D01*
X123649328Y-124692035D01*
X123607220Y-124696003D01*
X123531902Y-124696991D01*
X123478286Y-124684466D01*
X123444838Y-124665869D01*
X123392268Y-124624975D01*
X123355879Y-124580748D01*
X123332850Y-124525126D01*
X123320359Y-124450047D01*
X123315587Y-124347449D01*
X123315206Y-124295376D01*
X123316501Y-124232948D01*
X123434471Y-124232948D01*
X123435839Y-124266438D01*
X123439249Y-124271923D01*
X123461753Y-124264472D01*
X123510182Y-124244753D01*
X123574908Y-124216718D01*
X123588443Y-124210692D01*
X123670244Y-124169096D01*
X123715312Y-124132538D01*
X123725217Y-124098296D01*
X123701526Y-124063648D01*
X123681960Y-124048339D01*
X123611360Y-124017721D01*
X123545280Y-124022780D01*
X123489959Y-124060151D01*
X123451636Y-124126473D01*
X123439349Y-124179116D01*
X123434471Y-124232948D01*
X123316501Y-124232948D01*
X123317730Y-124173720D01*
X123327032Y-124083710D01*
X123345460Y-124018167D01*
X123375360Y-123969912D01*
X123419080Y-123931767D01*
X123438141Y-123919440D01*
X123524726Y-123887336D01*
X123619522Y-123885316D01*
X123711224Y-123910838D01*
X123711224Y-123910838D01*
G37*
X123711224Y-123910838D02*
X123788528Y-123961361D01*
X123825814Y-124006590D01*
X123855353Y-124088663D01*
X123857699Y-124153607D01*
X123852385Y-124240445D01*
X123652115Y-124328103D01*
X123554739Y-124372887D01*
X123491113Y-124408913D01*
X123458029Y-124440117D01*
X123452280Y-124470436D01*
X123470658Y-124503805D01*
X123490923Y-124525923D01*
X123549889Y-124561393D01*
X123614024Y-124563879D01*
X123672926Y-124536235D01*
X123716197Y-124481320D01*
X123723936Y-124461928D01*
X123761006Y-124401364D01*
X123803654Y-124375552D01*
X123862154Y-124353471D01*
X123862154Y-124437184D01*
X123856982Y-124494150D01*
X123836723Y-124542189D01*
X123794262Y-124597346D01*
X123787951Y-124604514D01*
X123740720Y-124653585D01*
X123700121Y-124679920D01*
X123649328Y-124692035D01*
X123607220Y-124696003D01*
X123531902Y-124696991D01*
X123478286Y-124684466D01*
X123444838Y-124665869D01*
X123392268Y-124624975D01*
X123355879Y-124580748D01*
X123332850Y-124525126D01*
X123320359Y-124450047D01*
X123315587Y-124347449D01*
X123315206Y-124295376D01*
X123316501Y-124232948D01*
X123434471Y-124232948D01*
X123435839Y-124266438D01*
X123439249Y-124271923D01*
X123461753Y-124264472D01*
X123510182Y-124244753D01*
X123574908Y-124216718D01*
X123588443Y-124210692D01*
X123670244Y-124169096D01*
X123715312Y-124132538D01*
X123725217Y-124098296D01*
X123701526Y-124063648D01*
X123681960Y-124048339D01*
X123611360Y-124017721D01*
X123545280Y-124022780D01*
X123489959Y-124060151D01*
X123451636Y-124126473D01*
X123439349Y-124179116D01*
X123434471Y-124232948D01*
X123316501Y-124232948D01*
X123317730Y-124173720D01*
X123327032Y-124083710D01*
X123345460Y-124018167D01*
X123375360Y-123969912D01*
X123419080Y-123931767D01*
X123438141Y-123919440D01*
X123524726Y-123887336D01*
X123619522Y-123885316D01*
X123711224Y-123910838D01*
G36*
X119605878Y-117550776D02*
X119711612Y-117551355D01*
X119788132Y-117552922D01*
X119840372Y-117555972D01*
X119873263Y-117560996D01*
X119891737Y-117568489D01*
X119900727Y-117578944D01*
X119905163Y-117592853D01*
X119905594Y-117594654D01*
X119912333Y-117627145D01*
X119924808Y-117691252D01*
X119941719Y-117780151D01*
X119961771Y-117887019D01*
X119983664Y-118005033D01*
X119984429Y-118009178D01*
X120006359Y-118124831D01*
X120026877Y-118227014D01*
X120044659Y-118309598D01*
X120058381Y-118366456D01*
X120066718Y-118391458D01*
X120067116Y-118391901D01*
X120091677Y-118404110D01*
X120142315Y-118424456D01*
X120208095Y-118448545D01*
X120208461Y-118448674D01*
X120291317Y-118479818D01*
X120389000Y-118519491D01*
X120481077Y-118559381D01*
X120485434Y-118561353D01*
X120635407Y-118629420D01*
X120967498Y-118402639D01*
X121069374Y-118333504D01*
X121161657Y-118271697D01*
X121239003Y-118220733D01*
X121296064Y-118184127D01*
X121327495Y-118165394D01*
X121330479Y-118164004D01*
X121353321Y-118170190D01*
X121395982Y-118200035D01*
X121460128Y-118254947D01*
X121547421Y-118336334D01*
X121636535Y-118422922D01*
X121722441Y-118508247D01*
X121799327Y-118586108D01*
X121862564Y-118651697D01*
X121907523Y-118700205D01*
X121929576Y-118726825D01*
X121930396Y-118728195D01*
X121932834Y-118746463D01*
X121923650Y-118776295D01*
X121900574Y-118821721D01*
X121861337Y-118886770D01*
X121803670Y-118975470D01*
X121726795Y-119089657D01*
X121658570Y-119190162D01*
X121597582Y-119280303D01*
X121547356Y-119354849D01*
X121511416Y-119408565D01*
X121493287Y-119436218D01*
X121492146Y-119438095D01*
X121494359Y-119464590D01*
X121511138Y-119516086D01*
X121539142Y-119582851D01*
X121549122Y-119604172D01*
X121592672Y-119699159D01*
X121639134Y-119806937D01*
X121676877Y-119900192D01*
X121704073Y-119969406D01*
X121725675Y-120022006D01*
X121738158Y-120049497D01*
X121739709Y-120051616D01*
X121762668Y-120055124D01*
X121816786Y-120064738D01*
X121894868Y-120079089D01*
X121989719Y-120096807D01*
X122094143Y-120116525D01*
X122200944Y-120136874D01*
X122302926Y-120156486D01*
X122392894Y-120173991D01*
X122463653Y-120188022D01*
X122508006Y-120197209D01*
X122518885Y-120199807D01*
X122530122Y-120206218D01*
X122538605Y-120220697D01*
X122544714Y-120248133D01*
X122548832Y-120293411D01*
X122551341Y-120361420D01*
X122552621Y-120457047D01*
X122553054Y-120585180D01*
X122553077Y-120637701D01*
X122553077Y-121064845D01*
X122450500Y-121085091D01*
X122393431Y-121096070D01*
X122308269Y-121112095D01*
X122205372Y-121131233D01*
X122095096Y-121151551D01*
X122064615Y-121157132D01*
X121962855Y-121176917D01*
X121874205Y-121196373D01*
X121806108Y-121213697D01*
X121766004Y-121227088D01*
X121759323Y-121231079D01*
X121742919Y-121259342D01*
X121719399Y-121314109D01*
X121693316Y-121384588D01*
X121688142Y-121399769D01*
X121653956Y-121493896D01*
X121611523Y-121600101D01*
X121569997Y-121695473D01*
X121569792Y-121695916D01*
X121500640Y-121845525D01*
X121955512Y-122514617D01*
X121663500Y-122807116D01*
X121575180Y-122894170D01*
X121494625Y-122970909D01*
X121426360Y-123033237D01*
X121374908Y-123077056D01*
X121344794Y-123098270D01*
X121340474Y-123099616D01*
X121315111Y-123089016D01*
X121263358Y-123059547D01*
X121190868Y-123014705D01*
X121103294Y-122957984D01*
X121008612Y-122894462D01*
X120912516Y-122829668D01*
X120826837Y-122773287D01*
X120757016Y-122728788D01*
X120708494Y-122699639D01*
X120686782Y-122689308D01*
X120660293Y-122698050D01*
X120610062Y-122721087D01*
X120546451Y-122753631D01*
X120539708Y-122757249D01*
X120454046Y-122800210D01*
X120395306Y-122821279D01*
X120358772Y-122821503D01*
X120339731Y-122801928D01*
X120339620Y-122801654D01*
X120330102Y-122778472D01*
X120307403Y-122723441D01*
X120273282Y-122640822D01*
X120229500Y-122534872D01*
X120177816Y-122409852D01*
X120119992Y-122270020D01*
X120063991Y-122134637D01*
X120002447Y-121985234D01*
X119945939Y-121846832D01*
X119896161Y-121723673D01*
X119854806Y-121620002D01*
X119823568Y-121540059D01*
X119804141Y-121488088D01*
X119798154Y-121468692D01*
X119813168Y-121446443D01*
X119852439Y-121410982D01*
X119904807Y-121371887D01*
X120053941Y-121248245D01*
X120170511Y-121106522D01*
X120253118Y-120949704D01*
X120300366Y-120780775D01*
X120310857Y-120602722D01*
X120303231Y-120520539D01*
X120261682Y-120350031D01*
X120190123Y-120199459D01*
X120092995Y-120070309D01*
X119974734Y-119964064D01*
X119839780Y-119882210D01*
X119692571Y-119826232D01*
X119537544Y-119797615D01*
X119379139Y-119797844D01*
X119221794Y-119828405D01*
X119069946Y-119890782D01*
X118928035Y-119986460D01*
X118868803Y-120040572D01*
X118755203Y-120179520D01*
X118676106Y-120331361D01*
X118630986Y-120491667D01*
X118619316Y-120656012D01*
X118640569Y-120819971D01*
X118694220Y-120979118D01*
X118779740Y-121129025D01*
X118896605Y-121265267D01*
X119027193Y-121371887D01*
X119081588Y-121412642D01*
X119120014Y-121447718D01*
X119133846Y-121468726D01*
X119126603Y-121491635D01*
X119106005Y-121546365D01*
X119073746Y-121628672D01*
X119031521Y-121734315D01*
X118981023Y-121859050D01*
X118923948Y-121998636D01*
X118867854Y-122134670D01*
X118805967Y-122284201D01*
X118748644Y-122422767D01*
X118697644Y-122546107D01*
X118654727Y-122649964D01*
X118621653Y-122730080D01*
X118600181Y-122782195D01*
X118592225Y-122801654D01*
X118573429Y-122821423D01*
X118537074Y-122821365D01*
X118478479Y-122800441D01*
X118392968Y-122757613D01*
X118392292Y-122757249D01*
X118327907Y-122724012D01*
X118275861Y-122699802D01*
X118246512Y-122689404D01*
X118245217Y-122689308D01*
X118223124Y-122699855D01*
X118174348Y-122729184D01*
X118104331Y-122773827D01*
X118018514Y-122830314D01*
X117923388Y-122894462D01*
X117826540Y-122959411D01*
X117739253Y-123015896D01*
X117667181Y-123060421D01*
X117615977Y-123089490D01*
X117591526Y-123099616D01*
X117569010Y-123086307D01*
X117523742Y-123049112D01*
X117460244Y-122992128D01*
X117383039Y-122919449D01*
X117296651Y-122835171D01*
X117268399Y-122807016D01*
X116976287Y-122514416D01*
X117198631Y-122188104D01*
X117266202Y-122087897D01*
X117325507Y-121997963D01*
X117373217Y-121923510D01*
X117406007Y-121869751D01*
X117420548Y-121841894D01*
X117420974Y-121839912D01*
X117413308Y-121813655D01*
X117392689Y-121760837D01*
X117362685Y-121690310D01*
X117341625Y-121643093D01*
X117302248Y-121552694D01*
X117265165Y-121461366D01*
X117236415Y-121384200D01*
X117228605Y-121360692D01*
X117206417Y-121297916D01*
X117184727Y-121249411D01*
X117172813Y-121231079D01*
X117146523Y-121219859D01*
X117089142Y-121203954D01*
X117008118Y-121185167D01*
X116910895Y-121165299D01*
X116867385Y-121157132D01*
X116756896Y-121136829D01*
X116650916Y-121117170D01*
X116559801Y-121100088D01*
X116493908Y-121087518D01*
X116481500Y-121085091D01*
X116378923Y-121064845D01*
X116378923Y-120637701D01*
X116379153Y-120497246D01*
X116380099Y-120390979D01*
X116382141Y-120314013D01*
X116385662Y-120261460D01*
X116391043Y-120228433D01*
X116398666Y-120210045D01*
X116408912Y-120201408D01*
X116413115Y-120199807D01*
X116438470Y-120194127D01*
X116494484Y-120182795D01*
X116573964Y-120167179D01*
X116669712Y-120148647D01*
X116774533Y-120128569D01*
X116881232Y-120108312D01*
X116982613Y-120089246D01*
X117071479Y-120072739D01*
X117140637Y-120060159D01*
X117182889Y-120052875D01*
X117192290Y-120051616D01*
X117200807Y-120034763D01*
X117219660Y-119989870D01*
X117245324Y-119925430D01*
X117255123Y-119900192D01*
X117294648Y-119802686D01*
X117341192Y-119694959D01*
X117382877Y-119604172D01*
X117413550Y-119534753D01*
X117433956Y-119477710D01*
X117440768Y-119442777D01*
X117439682Y-119438095D01*
X117425285Y-119415991D01*
X117392412Y-119366831D01*
X117344590Y-119295848D01*
X117285348Y-119208278D01*
X117218215Y-119109357D01*
X117204941Y-119089830D01*
X117127046Y-118974140D01*
X117069787Y-118886044D01*
X117030881Y-118821486D01*
X117008044Y-118776411D01*
X116998994Y-118746763D01*
X117001448Y-118728485D01*
X117001511Y-118728369D01*
X117020827Y-118704361D01*
X117063551Y-118657947D01*
X117125051Y-118593937D01*
X117200698Y-118517145D01*
X117285861Y-118432382D01*
X117295465Y-118422922D01*
X117402790Y-118318989D01*
X117485615Y-118242675D01*
X117545605Y-118192571D01*
X117584423Y-118167270D01*
X117601520Y-118164004D01*
X117626473Y-118178250D01*
X117678255Y-118211156D01*
X117751520Y-118259208D01*
X117840920Y-118318890D01*
X117941111Y-118386688D01*
X117964501Y-118402639D01*
X118296593Y-118629420D01*
X118446565Y-118561353D01*
X118537770Y-118521685D01*
X118635669Y-118481791D01*
X118719831Y-118449983D01*
X118723538Y-118448674D01*
X118789369Y-118424576D01*
X118840116Y-118404200D01*
X118864842Y-118391936D01*
X118864884Y-118391901D01*
X118872729Y-118369734D01*
X118886066Y-118315217D01*
X118903570Y-118234480D01*
X118923917Y-118133650D01*
X118945782Y-118018856D01*
X118947571Y-118009178D01*
X118969504Y-117890904D01*
X118989640Y-117783542D01*
X119006680Y-117693917D01*
X119019328Y-117628851D01*
X119026284Y-117595168D01*
X119026406Y-117594654D01*
X119030639Y-117580325D01*
X119038871Y-117569507D01*
X119056033Y-117561706D01*
X119087058Y-117556429D01*
X119136878Y-117553182D01*
X119210424Y-117551472D01*
X119312629Y-117550807D01*
X119448425Y-117550693D01*
X119466000Y-117550692D01*
X119605878Y-117550776D01*
X119605878Y-117550776D01*
G37*
X119605878Y-117550776D02*
X119711612Y-117551355D01*
X119788132Y-117552922D01*
X119840372Y-117555972D01*
X119873263Y-117560996D01*
X119891737Y-117568489D01*
X119900727Y-117578944D01*
X119905163Y-117592853D01*
X119905594Y-117594654D01*
X119912333Y-117627145D01*
X119924808Y-117691252D01*
X119941719Y-117780151D01*
X119961771Y-117887019D01*
X119983664Y-118005033D01*
X119984429Y-118009178D01*
X120006359Y-118124831D01*
X120026877Y-118227014D01*
X120044659Y-118309598D01*
X120058381Y-118366456D01*
X120066718Y-118391458D01*
X120067116Y-118391901D01*
X120091677Y-118404110D01*
X120142315Y-118424456D01*
X120208095Y-118448545D01*
X120208461Y-118448674D01*
X120291317Y-118479818D01*
X120389000Y-118519491D01*
X120481077Y-118559381D01*
X120485434Y-118561353D01*
X120635407Y-118629420D01*
X120967498Y-118402639D01*
X121069374Y-118333504D01*
X121161657Y-118271697D01*
X121239003Y-118220733D01*
X121296064Y-118184127D01*
X121327495Y-118165394D01*
X121330479Y-118164004D01*
X121353321Y-118170190D01*
X121395982Y-118200035D01*
X121460128Y-118254947D01*
X121547421Y-118336334D01*
X121636535Y-118422922D01*
X121722441Y-118508247D01*
X121799327Y-118586108D01*
X121862564Y-118651697D01*
X121907523Y-118700205D01*
X121929576Y-118726825D01*
X121930396Y-118728195D01*
X121932834Y-118746463D01*
X121923650Y-118776295D01*
X121900574Y-118821721D01*
X121861337Y-118886770D01*
X121803670Y-118975470D01*
X121726795Y-119089657D01*
X121658570Y-119190162D01*
X121597582Y-119280303D01*
X121547356Y-119354849D01*
X121511416Y-119408565D01*
X121493287Y-119436218D01*
X121492146Y-119438095D01*
X121494359Y-119464590D01*
X121511138Y-119516086D01*
X121539142Y-119582851D01*
X121549122Y-119604172D01*
X121592672Y-119699159D01*
X121639134Y-119806937D01*
X121676877Y-119900192D01*
X121704073Y-119969406D01*
X121725675Y-120022006D01*
X121738158Y-120049497D01*
X121739709Y-120051616D01*
X121762668Y-120055124D01*
X121816786Y-120064738D01*
X121894868Y-120079089D01*
X121989719Y-120096807D01*
X122094143Y-120116525D01*
X122200944Y-120136874D01*
X122302926Y-120156486D01*
X122392894Y-120173991D01*
X122463653Y-120188022D01*
X122508006Y-120197209D01*
X122518885Y-120199807D01*
X122530122Y-120206218D01*
X122538605Y-120220697D01*
X122544714Y-120248133D01*
X122548832Y-120293411D01*
X122551341Y-120361420D01*
X122552621Y-120457047D01*
X122553054Y-120585180D01*
X122553077Y-120637701D01*
X122553077Y-121064845D01*
X122450500Y-121085091D01*
X122393431Y-121096070D01*
X122308269Y-121112095D01*
X122205372Y-121131233D01*
X122095096Y-121151551D01*
X122064615Y-121157132D01*
X121962855Y-121176917D01*
X121874205Y-121196373D01*
X121806108Y-121213697D01*
X121766004Y-121227088D01*
X121759323Y-121231079D01*
X121742919Y-121259342D01*
X121719399Y-121314109D01*
X121693316Y-121384588D01*
X121688142Y-121399769D01*
X121653956Y-121493896D01*
X121611523Y-121600101D01*
X121569997Y-121695473D01*
X121569792Y-121695916D01*
X121500640Y-121845525D01*
X121955512Y-122514617D01*
X121663500Y-122807116D01*
X121575180Y-122894170D01*
X121494625Y-122970909D01*
X121426360Y-123033237D01*
X121374908Y-123077056D01*
X121344794Y-123098270D01*
X121340474Y-123099616D01*
X121315111Y-123089016D01*
X121263358Y-123059547D01*
X121190868Y-123014705D01*
X121103294Y-122957984D01*
X121008612Y-122894462D01*
X120912516Y-122829668D01*
X120826837Y-122773287D01*
X120757016Y-122728788D01*
X120708494Y-122699639D01*
X120686782Y-122689308D01*
X120660293Y-122698050D01*
X120610062Y-122721087D01*
X120546451Y-122753631D01*
X120539708Y-122757249D01*
X120454046Y-122800210D01*
X120395306Y-122821279D01*
X120358772Y-122821503D01*
X120339731Y-122801928D01*
X120339620Y-122801654D01*
X120330102Y-122778472D01*
X120307403Y-122723441D01*
X120273282Y-122640822D01*
X120229500Y-122534872D01*
X120177816Y-122409852D01*
X120119992Y-122270020D01*
X120063991Y-122134637D01*
X120002447Y-121985234D01*
X119945939Y-121846832D01*
X119896161Y-121723673D01*
X119854806Y-121620002D01*
X119823568Y-121540059D01*
X119804141Y-121488088D01*
X119798154Y-121468692D01*
X119813168Y-121446443D01*
X119852439Y-121410982D01*
X119904807Y-121371887D01*
X120053941Y-121248245D01*
X120170511Y-121106522D01*
X120253118Y-120949704D01*
X120300366Y-120780775D01*
X120310857Y-120602722D01*
X120303231Y-120520539D01*
X120261682Y-120350031D01*
X120190123Y-120199459D01*
X120092995Y-120070309D01*
X119974734Y-119964064D01*
X119839780Y-119882210D01*
X119692571Y-119826232D01*
X119537544Y-119797615D01*
X119379139Y-119797844D01*
X119221794Y-119828405D01*
X119069946Y-119890782D01*
X118928035Y-119986460D01*
X118868803Y-120040572D01*
X118755203Y-120179520D01*
X118676106Y-120331361D01*
X118630986Y-120491667D01*
X118619316Y-120656012D01*
X118640569Y-120819971D01*
X118694220Y-120979118D01*
X118779740Y-121129025D01*
X118896605Y-121265267D01*
X119027193Y-121371887D01*
X119081588Y-121412642D01*
X119120014Y-121447718D01*
X119133846Y-121468726D01*
X119126603Y-121491635D01*
X119106005Y-121546365D01*
X119073746Y-121628672D01*
X119031521Y-121734315D01*
X118981023Y-121859050D01*
X118923948Y-121998636D01*
X118867854Y-122134670D01*
X118805967Y-122284201D01*
X118748644Y-122422767D01*
X118697644Y-122546107D01*
X118654727Y-122649964D01*
X118621653Y-122730080D01*
X118600181Y-122782195D01*
X118592225Y-122801654D01*
X118573429Y-122821423D01*
X118537074Y-122821365D01*
X118478479Y-122800441D01*
X118392968Y-122757613D01*
X118392292Y-122757249D01*
X118327907Y-122724012D01*
X118275861Y-122699802D01*
X118246512Y-122689404D01*
X118245217Y-122689308D01*
X118223124Y-122699855D01*
X118174348Y-122729184D01*
X118104331Y-122773827D01*
X118018514Y-122830314D01*
X117923388Y-122894462D01*
X117826540Y-122959411D01*
X117739253Y-123015896D01*
X117667181Y-123060421D01*
X117615977Y-123089490D01*
X117591526Y-123099616D01*
X117569010Y-123086307D01*
X117523742Y-123049112D01*
X117460244Y-122992128D01*
X117383039Y-122919449D01*
X117296651Y-122835171D01*
X117268399Y-122807016D01*
X116976287Y-122514416D01*
X117198631Y-122188104D01*
X117266202Y-122087897D01*
X117325507Y-121997963D01*
X117373217Y-121923510D01*
X117406007Y-121869751D01*
X117420548Y-121841894D01*
X117420974Y-121839912D01*
X117413308Y-121813655D01*
X117392689Y-121760837D01*
X117362685Y-121690310D01*
X117341625Y-121643093D01*
X117302248Y-121552694D01*
X117265165Y-121461366D01*
X117236415Y-121384200D01*
X117228605Y-121360692D01*
X117206417Y-121297916D01*
X117184727Y-121249411D01*
X117172813Y-121231079D01*
X117146523Y-121219859D01*
X117089142Y-121203954D01*
X117008118Y-121185167D01*
X116910895Y-121165299D01*
X116867385Y-121157132D01*
X116756896Y-121136829D01*
X116650916Y-121117170D01*
X116559801Y-121100088D01*
X116493908Y-121087518D01*
X116481500Y-121085091D01*
X116378923Y-121064845D01*
X116378923Y-120637701D01*
X116379153Y-120497246D01*
X116380099Y-120390979D01*
X116382141Y-120314013D01*
X116385662Y-120261460D01*
X116391043Y-120228433D01*
X116398666Y-120210045D01*
X116408912Y-120201408D01*
X116413115Y-120199807D01*
X116438470Y-120194127D01*
X116494484Y-120182795D01*
X116573964Y-120167179D01*
X116669712Y-120148647D01*
X116774533Y-120128569D01*
X116881232Y-120108312D01*
X116982613Y-120089246D01*
X117071479Y-120072739D01*
X117140637Y-120060159D01*
X117182889Y-120052875D01*
X117192290Y-120051616D01*
X117200807Y-120034763D01*
X117219660Y-119989870D01*
X117245324Y-119925430D01*
X117255123Y-119900192D01*
X117294648Y-119802686D01*
X117341192Y-119694959D01*
X117382877Y-119604172D01*
X117413550Y-119534753D01*
X117433956Y-119477710D01*
X117440768Y-119442777D01*
X117439682Y-119438095D01*
X117425285Y-119415991D01*
X117392412Y-119366831D01*
X117344590Y-119295848D01*
X117285348Y-119208278D01*
X117218215Y-119109357D01*
X117204941Y-119089830D01*
X117127046Y-118974140D01*
X117069787Y-118886044D01*
X117030881Y-118821486D01*
X117008044Y-118776411D01*
X116998994Y-118746763D01*
X117001448Y-118728485D01*
X117001511Y-118728369D01*
X117020827Y-118704361D01*
X117063551Y-118657947D01*
X117125051Y-118593937D01*
X117200698Y-118517145D01*
X117285861Y-118432382D01*
X117295465Y-118422922D01*
X117402790Y-118318989D01*
X117485615Y-118242675D01*
X117545605Y-118192571D01*
X117584423Y-118167270D01*
X117601520Y-118164004D01*
X117626473Y-118178250D01*
X117678255Y-118211156D01*
X117751520Y-118259208D01*
X117840920Y-118318890D01*
X117941111Y-118386688D01*
X117964501Y-118402639D01*
X118296593Y-118629420D01*
X118446565Y-118561353D01*
X118537770Y-118521685D01*
X118635669Y-118481791D01*
X118719831Y-118449983D01*
X118723538Y-118448674D01*
X118789369Y-118424576D01*
X118840116Y-118404200D01*
X118864842Y-118391936D01*
X118864884Y-118391901D01*
X118872729Y-118369734D01*
X118886066Y-118315217D01*
X118903570Y-118234480D01*
X118923917Y-118133650D01*
X118945782Y-118018856D01*
X118947571Y-118009178D01*
X118969504Y-117890904D01*
X118989640Y-117783542D01*
X119006680Y-117693917D01*
X119019328Y-117628851D01*
X119026284Y-117595168D01*
X119026406Y-117594654D01*
X119030639Y-117580325D01*
X119038871Y-117569507D01*
X119056033Y-117561706D01*
X119087058Y-117556429D01*
X119136878Y-117553182D01*
X119210424Y-117551472D01*
X119312629Y-117550807D01*
X119448425Y-117550693D01*
X119466000Y-117550692D01*
X119605878Y-117550776D01*
D12*
X124772000Y-110821000D02*
X123598000Y-110821000D01*
X124772000Y-109099000D02*
X123598000Y-109099000D01*
X166301000Y-113163000D02*
X166301000Y-114337000D01*
X164579000Y-113163000D02*
X164579000Y-114337000D01*
X106700000Y-113440000D02*
X105550000Y-113440000D01*
X105550000Y-113390000D02*
X106700000Y-113390000D01*
X106700000Y-113340000D02*
X105550000Y-113340000D01*
X108800000Y-113340000D02*
X109950000Y-113340000D01*
X109950000Y-113440000D02*
X108800000Y-113440000D01*
X109950000Y-113390000D02*
X108800000Y-113390000D01*
X108800000Y-113490000D02*
X109950000Y-113490000D01*
X106750000Y-118240000D02*
X105550000Y-118240000D01*
X105550000Y-118240000D02*
X105550000Y-113490000D01*
X105550000Y-113490000D02*
X106700000Y-113490000D01*
X109950000Y-113490000D02*
X109950000Y-118240000D01*
X109950000Y-118240000D02*
X108750000Y-118240000D01*
X105550000Y-106760000D02*
X106750000Y-106760000D01*
X105550000Y-111510000D02*
X105550000Y-106760000D01*
X109950000Y-111510000D02*
X108800000Y-111510000D01*
X109950000Y-106760000D02*
X109950000Y-111510000D01*
X108750000Y-106760000D02*
X109950000Y-106760000D01*
X106700000Y-111510000D02*
X105550000Y-111510000D01*
X105550000Y-111610000D02*
X106700000Y-111610000D01*
X105550000Y-111560000D02*
X106700000Y-111560000D01*
X106700000Y-111660000D02*
X105550000Y-111660000D01*
X108800000Y-111660000D02*
X109950000Y-111660000D01*
X109950000Y-111610000D02*
X108800000Y-111610000D01*
X108800000Y-111560000D02*
X109950000Y-111560000D01*
X103800000Y-111560000D02*
X104950000Y-111560000D01*
X104950000Y-111610000D02*
X103800000Y-111610000D01*
X103800000Y-111660000D02*
X104950000Y-111660000D01*
X101700000Y-111660000D02*
X100550000Y-111660000D01*
X100550000Y-111560000D02*
X101700000Y-111560000D01*
X100550000Y-111610000D02*
X101700000Y-111610000D01*
X101700000Y-111510000D02*
X100550000Y-111510000D01*
X103750000Y-106760000D02*
X104950000Y-106760000D01*
X104950000Y-106760000D02*
X104950000Y-111510000D01*
X104950000Y-111510000D02*
X103800000Y-111510000D01*
X100550000Y-111510000D02*
X100550000Y-106760000D01*
X100550000Y-106760000D02*
X101750000Y-106760000D01*
X104950000Y-118240000D02*
X103750000Y-118240000D01*
X104950000Y-113490000D02*
X104950000Y-118240000D01*
X100550000Y-113490000D02*
X101700000Y-113490000D01*
X100550000Y-118240000D02*
X100550000Y-113490000D01*
X101750000Y-118240000D02*
X100550000Y-118240000D01*
X103800000Y-113490000D02*
X104950000Y-113490000D01*
X104950000Y-113390000D02*
X103800000Y-113390000D01*
X104950000Y-113440000D02*
X103800000Y-113440000D01*
X103800000Y-113340000D02*
X104950000Y-113340000D01*
X101700000Y-113340000D02*
X100550000Y-113340000D01*
X100550000Y-113390000D02*
X101700000Y-113390000D01*
X101700000Y-113440000D02*
X100550000Y-113440000D01*
X169310000Y-119230000D02*
X169310000Y-116570000D01*
X166710000Y-119230000D02*
X169310000Y-119230000D01*
X166710000Y-116570000D02*
X169310000Y-116570000D01*
X166710000Y-119230000D02*
X166710000Y-116570000D01*
X165440000Y-119230000D02*
X164110000Y-119230000D01*
X164110000Y-119230000D02*
X164110000Y-117900000D01*
X164110000Y-110655000D02*
X164110000Y-109325000D01*
X165440000Y-110655000D02*
X164110000Y-110655000D01*
X166710000Y-110655000D02*
X166710000Y-107995000D01*
X166710000Y-107995000D02*
X169310000Y-107995000D01*
X166710000Y-110655000D02*
X169310000Y-110655000D01*
X169310000Y-110655000D02*
X169310000Y-107995000D01*
D14*
X165183333Y-100657142D02*
X165135714Y-100704761D01*
X164992857Y-100752380D01*
X164897619Y-100752380D01*
X164754761Y-100704761D01*
X164659523Y-100609523D01*
X164611904Y-100514285D01*
X164564285Y-100323809D01*
X164564285Y-100180952D01*
X164611904Y-99990476D01*
X164659523Y-99895238D01*
X164754761Y-99800000D01*
X164897619Y-99752380D01*
X164992857Y-99752380D01*
X165135714Y-99800000D01*
X165183333Y-99847619D01*
X165659523Y-100752380D02*
X165850000Y-100752380D01*
X165945238Y-100704761D01*
X165992857Y-100657142D01*
X166088095Y-100514285D01*
X166135714Y-100323809D01*
X166135714Y-99942857D01*
X166088095Y-99847619D01*
X166040476Y-99800000D01*
X165945238Y-99752380D01*
X165754761Y-99752380D01*
X165659523Y-99800000D01*
X165611904Y-99847619D01*
X165564285Y-99942857D01*
X165564285Y-100180952D01*
X165611904Y-100276190D01*
X165659523Y-100323809D01*
X165754761Y-100371428D01*
X165945238Y-100371428D01*
X166040476Y-100323809D01*
X166088095Y-100276190D01*
X166135714Y-100180952D01*
X124103333Y-108326142D02*
X124055714Y-108373761D01*
X123912857Y-108421380D01*
X123817619Y-108421380D01*
X123674761Y-108373761D01*
X123579523Y-108278523D01*
X123531904Y-108183285D01*
X123484285Y-107992809D01*
X123484285Y-107849952D01*
X123531904Y-107659476D01*
X123579523Y-107564238D01*
X123674761Y-107469000D01*
X123817619Y-107421380D01*
X123912857Y-107421380D01*
X124055714Y-107469000D01*
X124103333Y-107516619D01*
X124960476Y-107421380D02*
X124770000Y-107421380D01*
X124674761Y-107469000D01*
X124627142Y-107516619D01*
X124531904Y-107659476D01*
X124484285Y-107849952D01*
X124484285Y-108230904D01*
X124531904Y-108326142D01*
X124579523Y-108373761D01*
X124674761Y-108421380D01*
X124865238Y-108421380D01*
X124960476Y-108373761D01*
X125008095Y-108326142D01*
X125055714Y-108230904D01*
X125055714Y-107992809D01*
X125008095Y-107897571D01*
X124960476Y-107849952D01*
X124865238Y-107802333D01*
X124674761Y-107802333D01*
X124579523Y-107849952D01*
X124531904Y-107897571D01*
X124484285Y-107992809D01*
X167907142Y-114392857D02*
X167954761Y-114440476D01*
X168002380Y-114583333D01*
X168002380Y-114678571D01*
X167954761Y-114821428D01*
X167859523Y-114916666D01*
X167764285Y-114964285D01*
X167573809Y-115011904D01*
X167430952Y-115011904D01*
X167240476Y-114964285D01*
X167145238Y-114916666D01*
X167050000Y-114821428D01*
X167002380Y-114678571D01*
X167002380Y-114583333D01*
X167050000Y-114440476D01*
X167097619Y-114392857D01*
X168002380Y-113440476D02*
X168002380Y-114011904D01*
X168002380Y-113726190D02*
X167002380Y-113726190D01*
X167145238Y-113821428D01*
X167240476Y-113916666D01*
X167288095Y-114011904D01*
X167002380Y-112821428D02*
X167002380Y-112726190D01*
X167050000Y-112630952D01*
X167097619Y-112583333D01*
X167192857Y-112535714D01*
X167383333Y-112488095D01*
X167621428Y-112488095D01*
X167811904Y-112535714D01*
X167907142Y-112583333D01*
X167954761Y-112630952D01*
X168002380Y-112726190D01*
X168002380Y-112821428D01*
X167954761Y-112916666D01*
X167907142Y-112964285D01*
X167811904Y-113011904D01*
X167621428Y-113059523D01*
X167383333Y-113059523D01*
X167192857Y-113011904D01*
X167097619Y-112964285D01*
X167050000Y-112916666D01*
X167002380Y-112821428D01*
X108252380Y-116428095D02*
X107252380Y-116428095D01*
X107252380Y-116190000D01*
X107300000Y-116047142D01*
X107395238Y-115951904D01*
X107490476Y-115904285D01*
X107680952Y-115856666D01*
X107823809Y-115856666D01*
X108014285Y-115904285D01*
X108109523Y-115951904D01*
X108204761Y-116047142D01*
X108252380Y-116190000D01*
X108252380Y-116428095D01*
X108252380Y-114904285D02*
X108252380Y-115475714D01*
X108252380Y-115190000D02*
X107252380Y-115190000D01*
X107395238Y-115285238D01*
X107490476Y-115380476D01*
X107538095Y-115475714D01*
X108252380Y-110138095D02*
X107252380Y-110138095D01*
X107252380Y-109900000D01*
X107300000Y-109757142D01*
X107395238Y-109661904D01*
X107490476Y-109614285D01*
X107680952Y-109566666D01*
X107823809Y-109566666D01*
X108014285Y-109614285D01*
X108109523Y-109661904D01*
X108204761Y-109757142D01*
X108252380Y-109900000D01*
X108252380Y-110138095D01*
X107347619Y-109185714D02*
X107300000Y-109138095D01*
X107252380Y-109042857D01*
X107252380Y-108804761D01*
X107300000Y-108709523D01*
X107347619Y-108661904D01*
X107442857Y-108614285D01*
X107538095Y-108614285D01*
X107680952Y-108661904D01*
X108252380Y-109233333D01*
X108252380Y-108614285D01*
X103252380Y-109838095D02*
X102252380Y-109838095D01*
X102252380Y-109600000D01*
X102300000Y-109457142D01*
X102395238Y-109361904D01*
X102490476Y-109314285D01*
X102680952Y-109266666D01*
X102823809Y-109266666D01*
X103014285Y-109314285D01*
X103109523Y-109361904D01*
X103204761Y-109457142D01*
X103252380Y-109600000D01*
X103252380Y-109838095D01*
X102252380Y-108933333D02*
X102252380Y-108314285D01*
X102633333Y-108647619D01*
X102633333Y-108504761D01*
X102680952Y-108409523D01*
X102728571Y-108361904D01*
X102823809Y-108314285D01*
X103061904Y-108314285D01*
X103157142Y-108361904D01*
X103204761Y-108409523D01*
X103252380Y-108504761D01*
X103252380Y-108790476D01*
X103204761Y-108885714D01*
X103157142Y-108933333D01*
X103252380Y-116628095D02*
X102252380Y-116628095D01*
X102252380Y-116390000D01*
X102300000Y-116247142D01*
X102395238Y-116151904D01*
X102490476Y-116104285D01*
X102680952Y-116056666D01*
X102823809Y-116056666D01*
X103014285Y-116104285D01*
X103109523Y-116151904D01*
X103204761Y-116247142D01*
X103252380Y-116390000D01*
X103252380Y-116628095D01*
X102585714Y-115199523D02*
X103252380Y-115199523D01*
X102204761Y-115437619D02*
X102919047Y-115675714D01*
X102919047Y-115056666D01*
%LPC*%
D15*
X120355000Y-113770000D03*
D16*
X127975000Y-106150000D03*
X120355000Y-111230000D03*
X127975000Y-108690000D03*
X120355000Y-108690000D03*
X127975000Y-111230000D03*
X120355000Y-106150000D03*
X127975000Y-113770000D03*
D17*
X166800000Y-103000000D03*
D18*
G36*
X165385786Y-103000000D02*
X166800000Y-101585786D01*
X168214214Y-103000000D01*
X166800000Y-104414214D01*
X165385786Y-103000000D01*
X165385786Y-103000000D01*
G37*
D17*
X168567767Y-104767767D03*
X113370000Y-111230000D03*
X113370000Y-113730000D03*
X113370000Y-116945000D03*
X115870000Y-116945000D03*
X113370000Y-108690000D03*
X113370000Y-106190000D03*
X123316000Y-117834000D03*
X125816000Y-117834000D03*
X125435000Y-109960000D03*
X122935000Y-109960000D03*
X137500000Y-104880000D03*
X137500000Y-107380000D03*
X143215000Y-102975000D03*
X145715000Y-102975000D03*
X165440000Y-112500000D03*
X165440000Y-115000000D03*
X116545000Y-108690000D03*
D19*
X116545000Y-101070000D03*
D17*
X130896000Y-108690000D03*
D19*
X130896000Y-116310000D03*
D17*
X133690000Y-110000000D03*
D19*
X133690000Y-102380000D03*
D17*
X116545000Y-113770000D03*
D19*
X116545000Y-111230000D03*
D17*
X128000000Y-101750000D03*
D19*
X120380000Y-101750000D03*
D20*
X137500000Y-112500000D03*
X154900000Y-122500000D03*
D21*
X107750000Y-118430000D03*
D22*
X107750000Y-113350000D03*
X107750000Y-111650000D03*
D21*
X107750000Y-106570000D03*
X102750000Y-106570000D03*
D22*
X102750000Y-111650000D03*
X102750000Y-113350000D03*
D21*
X102750000Y-118430000D03*
D22*
X165440000Y-117900000D03*
D23*
X167980000Y-117900000D03*
D17*
X143215000Y-117580000D03*
D19*
X143215000Y-107420000D03*
X147660000Y-117580000D03*
D17*
X147660000Y-107420000D03*
D23*
X167980000Y-109325000D03*
D22*
X165440000Y-109325000D03*
D24*
X105250000Y-105750000D03*
X109500000Y-112500000D03*
X101000000Y-112500000D03*
X105250000Y-119250000D03*
D20*
X154900000Y-102500000D03*
D14*
G36*
X169525000Y-122025000D02*
X165100000Y-122025000D01*
X165071299Y-122030709D01*
X165046967Y-122046967D01*
X165035355Y-122061973D01*
X163057104Y-125425000D01*
X162575000Y-125425000D01*
X162575000Y-120575000D01*
X169525000Y-120575000D01*
X169525000Y-122025000D01*
X169525000Y-122025000D01*
G37*
X169525000Y-122025000D02*
X165100000Y-122025000D01*
X165071299Y-122030709D01*
X165046967Y-122046967D01*
X165035355Y-122061973D01*
X163057104Y-125425000D01*
X162575000Y-125425000D01*
X162575000Y-120575000D01*
X169525000Y-120575000D01*
X169525000Y-122025000D01*
G36*
X112825000Y-104425000D02*
X105981066Y-104425000D01*
X107431066Y-102975000D01*
X110000000Y-102975000D01*
X110028701Y-102969291D01*
X110053033Y-102953033D01*
X110064645Y-102938027D01*
X112042896Y-99575000D01*
X112825000Y-99575000D01*
X112825000Y-104425000D01*
X112825000Y-104425000D01*
G37*
X112825000Y-104425000D02*
X105981066Y-104425000D01*
X107431066Y-102975000D01*
X110000000Y-102975000D01*
X110028701Y-102969291D01*
X110053033Y-102953033D01*
X110064645Y-102938027D01*
X112042896Y-99575000D01*
X112825000Y-99575000D01*
X112825000Y-104425000D01*
M02*
