G04 #@! TF.GenerationSoftware,KiCad,Pcbnew,(5.0.0-rc2-dev-691-g31b026c)*
G04 #@! TF.CreationDate,2018-06-05T10:47:32+02:00*
G04 #@! TF.ProjectId,DIY_detector,4449595F6465746563746F722E6B6963,V1.1*
G04 #@! TF.SameCoordinates,Original*
G04 #@! TF.FileFunction,Copper,L2,Bot,Plane*
G04 #@! TF.FilePolarity,Positive*
%FSLAX46Y46*%
G04 Gerber Fmt 4.6, Leading zero omitted, Abs format (unit mm)*
G04 Created by KiCad (PCBNEW (5.0.0-rc2-dev-691-g31b026c)) date 2018 June 05, Tuesday 10:47:32*
%MOMM*%
%LPD*%
G01*
G04 APERTURE LIST*
%ADD10R,2.400000X1.600000*%
%ADD11O,2.400000X1.600000*%
%ADD12C,1.600000*%
%ADD13C,0.100000*%
%ADD14O,1.600000X1.600000*%
%ADD15C,5.700000*%
%ADD16C,1.700000*%
%ADD17R,1.700000X1.700000*%
%ADD18O,1.700000X1.700000*%
%ADD19R,2.000000X1.600000*%
%ADD20C,1.100000*%
%ADD21C,0.800000*%
%ADD22C,0.250000*%
%ADD23C,0.400000*%
G04 APERTURE END LIST*
D10*
X120355000Y-113770000D03*
D11*
X127975000Y-106150000D03*
X120355000Y-111230000D03*
X127975000Y-108690000D03*
X120355000Y-108690000D03*
X127975000Y-111230000D03*
X120355000Y-106150000D03*
X127975000Y-113770000D03*
D12*
X166800000Y-103000000D03*
D13*
G36*
X165668629Y-103000000D02*
X166800000Y-101868629D01*
X167931371Y-103000000D01*
X166800000Y-104131371D01*
X165668629Y-103000000D01*
X165668629Y-103000000D01*
G37*
D12*
X168567767Y-104767767D03*
X113370000Y-111230000D03*
X113370000Y-113730000D03*
X113370000Y-116945000D03*
X115870000Y-116945000D03*
X113370000Y-108690000D03*
X113370000Y-106190000D03*
X123316000Y-117834000D03*
X125816000Y-117834000D03*
X125435000Y-109960000D03*
X122935000Y-109960000D03*
X137500000Y-104880000D03*
X137500000Y-107380000D03*
X143215000Y-102975000D03*
X145715000Y-102975000D03*
X165440000Y-112500000D03*
X165440000Y-115000000D03*
X116545000Y-108690000D03*
D14*
X116545000Y-101070000D03*
D12*
X130896000Y-108690000D03*
D14*
X130896000Y-116310000D03*
D12*
X133690000Y-110000000D03*
D14*
X133690000Y-102380000D03*
D12*
X116545000Y-113770000D03*
D14*
X116545000Y-111230000D03*
D12*
X128000000Y-101750000D03*
D14*
X120380000Y-101750000D03*
D15*
X137500000Y-112500000D03*
X154900000Y-122500000D03*
D16*
X107750000Y-118430000D03*
D17*
X107750000Y-113350000D03*
X107750000Y-111650000D03*
D16*
X107750000Y-106570000D03*
X102750000Y-106570000D03*
D17*
X102750000Y-111650000D03*
X102750000Y-113350000D03*
D16*
X102750000Y-118430000D03*
D17*
X165440000Y-117900000D03*
D18*
X167980000Y-117900000D03*
D12*
X143215000Y-117580000D03*
D14*
X143215000Y-107420000D03*
X147660000Y-117580000D03*
D12*
X147660000Y-107420000D03*
D18*
X167980000Y-109325000D03*
D17*
X165440000Y-109325000D03*
D19*
X119376799Y-121215443D03*
X113376799Y-121215443D03*
D20*
X105250000Y-105750000D03*
X109500000Y-112500000D03*
X101000000Y-112500000D03*
X105250000Y-119250000D03*
D15*
X154900000Y-102500000D03*
D21*
X121244000Y-121205743D03*
X119378399Y-119567443D03*
X119416499Y-122831343D03*
X117473399Y-121231143D03*
X107800000Y-103900000D03*
X110000000Y-103900000D03*
X108900000Y-103900000D03*
X111000000Y-103200000D03*
X111500000Y-102300000D03*
X112000000Y-101400000D03*
X169100000Y-121300000D03*
X168000000Y-121300000D03*
X166900000Y-121300000D03*
X165800000Y-121300000D03*
X164100000Y-122200000D03*
X163500000Y-123200000D03*
X162900000Y-124200000D03*
X164700000Y-121300000D03*
X112500000Y-100500000D03*
D22*
X107750000Y-111250000D02*
X107750000Y-112350000D01*
X107730000Y-112520000D02*
X107750000Y-112500000D01*
X102750000Y-112520000D02*
X107730000Y-112520000D01*
X107750000Y-112500000D02*
X107750000Y-113750000D01*
X107750000Y-112350000D02*
X107750000Y-112500000D01*
X102750000Y-111250000D02*
X102750000Y-112520000D01*
X102750000Y-112520000D02*
X102750000Y-113750000D01*
X113370000Y-111230000D02*
X116545000Y-111230000D01*
X116545000Y-111230000D02*
X120355000Y-111230000D01*
X112354000Y-111230000D02*
X113370000Y-111230000D01*
X112334000Y-111250000D02*
X112354000Y-111230000D01*
X107750000Y-111250000D02*
X112334000Y-111250000D01*
X113370000Y-113730000D02*
X113370000Y-116945000D01*
X113370000Y-121222242D02*
X113376799Y-121215443D01*
X113370000Y-121208644D02*
X113376799Y-121215443D01*
X113370000Y-116945000D02*
X113370000Y-121208644D01*
D23*
X123219000Y-117834000D02*
X123316000Y-117834000D01*
X120355000Y-114970000D02*
X123219000Y-117834000D01*
X120355000Y-113770000D02*
X120355000Y-114970000D01*
D22*
X115870000Y-114445000D02*
X116545000Y-113770000D01*
X115870000Y-116945000D02*
X115870000Y-114445000D01*
X117534949Y-113770000D02*
X120355000Y-113770000D01*
X116545000Y-113770000D02*
X117534949Y-113770000D01*
D23*
X119376799Y-119569043D02*
X119378399Y-119567443D01*
X119376799Y-121215443D02*
X119376799Y-119569043D01*
X119376799Y-122791643D02*
X119416499Y-122831343D01*
X119376799Y-121215443D02*
X119376799Y-122791643D01*
X117489099Y-121215443D02*
X117473399Y-121231143D01*
X119376799Y-121215443D02*
X117489099Y-121215443D01*
X121234300Y-121215443D02*
X121244000Y-121205743D01*
X119376799Y-121215443D02*
X121234300Y-121215443D01*
X121350000Y-106150000D02*
X120355000Y-106150000D01*
X122935000Y-108828630D02*
X122935000Y-109960000D01*
X122935000Y-108330000D02*
X122935000Y-108828630D01*
X120755000Y-106150000D02*
X122935000Y-108330000D01*
X120355000Y-106150000D02*
X120755000Y-106150000D01*
D22*
X118364000Y-108690000D02*
X120355000Y-108690000D01*
X116545000Y-108690000D02*
X118110000Y-108690000D01*
X118110000Y-108690000D02*
X118364000Y-108690000D01*
X115000000Y-108690000D02*
X116545000Y-108690000D01*
X113370000Y-108690000D02*
X115000000Y-108690000D01*
X119880000Y-101520000D02*
X119880000Y-101500000D01*
X115000000Y-108690000D02*
X116672000Y-108690000D01*
X116545000Y-105455000D02*
X120250000Y-101750000D01*
X120250000Y-101750000D02*
X120380000Y-101750000D01*
X116545000Y-108690000D02*
X116545000Y-105455000D01*
D23*
X129372000Y-117834000D02*
X130896000Y-116310000D01*
X125816000Y-117834000D02*
X129372000Y-117834000D01*
D22*
X129425000Y-108690000D02*
X130896000Y-108690000D01*
X127975000Y-108690000D02*
X129425000Y-108690000D01*
X136992000Y-104880000D02*
X137500000Y-104880000D01*
X130896000Y-103864000D02*
X132420000Y-102340000D01*
X132420000Y-102340000D02*
X133690000Y-102340000D01*
X130896000Y-108690000D02*
X130896000Y-103864000D01*
X137500000Y-103864000D02*
X137500000Y-104880000D01*
X135976000Y-102340000D02*
X137500000Y-103864000D01*
X133690000Y-102340000D02*
X135976000Y-102340000D01*
X132420000Y-111230000D02*
X133690000Y-109960000D01*
X127975000Y-111230000D02*
X132420000Y-111230000D01*
X136270000Y-107380000D02*
X137500000Y-107380000D01*
X133690000Y-109960000D02*
X136270000Y-107380000D01*
X144400000Y-112500000D02*
X165440000Y-112500000D01*
X139280000Y-107380000D02*
X144400000Y-112500000D01*
X137500000Y-107380000D02*
X139280000Y-107380000D01*
X143215000Y-107420000D02*
X143215000Y-102975000D01*
X143215000Y-107420000D02*
X147660000Y-107420000D01*
X142072000Y-100879500D02*
X143215000Y-102022500D01*
X143215000Y-102022500D02*
X143215000Y-102975000D01*
X131120500Y-100879500D02*
X142072000Y-100879500D01*
X127975000Y-104025000D02*
X131120500Y-100879500D01*
X127975000Y-106150000D02*
X127975000Y-104025000D01*
D23*
X127575000Y-113770000D02*
X127975000Y-113770000D01*
X125435000Y-111630000D02*
X127575000Y-113770000D01*
X125435000Y-109960000D02*
X125435000Y-111630000D01*
X135580000Y-117580000D02*
X143215000Y-117580000D01*
X132278000Y-114278000D02*
X135580000Y-117580000D01*
X130515000Y-114278000D02*
X132278000Y-114278000D01*
X129118000Y-115675000D02*
X130515000Y-114278000D01*
X123952000Y-114554000D02*
X125073000Y-115675000D01*
X123952000Y-111252000D02*
X123952000Y-114554000D01*
X125244000Y-109960000D02*
X123952000Y-111252000D01*
X125073000Y-115675000D02*
X129118000Y-115675000D01*
X125435000Y-109960000D02*
X125244000Y-109960000D01*
X169910000Y-103000000D02*
X166800000Y-103000000D01*
X171800000Y-118700000D02*
X171800000Y-104890000D01*
X171800000Y-104890000D02*
X169910000Y-103000000D01*
X159700000Y-120000000D02*
X170500000Y-120000000D01*
X157300000Y-117600000D02*
X159700000Y-120000000D01*
X170500000Y-120000000D02*
X171800000Y-118700000D01*
X143215000Y-117580000D02*
X145165000Y-119530000D01*
X145165000Y-119530000D02*
X150270000Y-119530000D01*
X152200000Y-117600000D02*
X157300000Y-117600000D01*
X150270000Y-119530000D02*
X152200000Y-117600000D01*
X165440000Y-104360000D02*
X166800000Y-103000000D01*
X165440000Y-109325000D02*
X165440000Y-104360000D01*
D22*
X147342500Y-100117500D02*
X149565000Y-102340000D01*
X128000000Y-101750000D02*
X129632500Y-100117500D01*
X129632500Y-100117500D02*
X147342500Y-100117500D01*
X163400000Y-103000000D02*
X166800000Y-103000000D01*
X149565000Y-104880000D02*
X152105000Y-107420000D01*
X149565000Y-102340000D02*
X149565000Y-104880000D01*
X158980000Y-107420000D02*
X163400000Y-103000000D01*
X152105000Y-107420000D02*
X158980000Y-107420000D01*
D23*
X165440000Y-115536370D02*
X165440000Y-117900000D01*
D13*
G36*
X169550000Y-121775000D02*
X165106631Y-121775000D01*
X165081289Y-121773964D01*
X165058870Y-121777479D01*
X165036289Y-121779703D01*
X165027308Y-121782427D01*
X165018043Y-121783880D01*
X164996744Y-121791699D01*
X164975026Y-121798287D01*
X164966755Y-121802708D01*
X164957945Y-121805942D01*
X164938574Y-121817771D01*
X164918566Y-121828465D01*
X164911314Y-121834416D01*
X164903307Y-121839306D01*
X164886615Y-121854687D01*
X164869079Y-121869079D01*
X164863129Y-121876329D01*
X164856228Y-121882688D01*
X164842862Y-121901023D01*
X164828465Y-121918566D01*
X164816509Y-121940935D01*
X162914118Y-125175000D01*
X162550000Y-125175000D01*
X162550000Y-120550000D01*
X169550000Y-120550000D01*
X169550000Y-121775000D01*
X169550000Y-121775000D01*
G37*
X169550000Y-121775000D02*
X165106631Y-121775000D01*
X165081289Y-121773964D01*
X165058870Y-121777479D01*
X165036289Y-121779703D01*
X165027308Y-121782427D01*
X165018043Y-121783880D01*
X164996744Y-121791699D01*
X164975026Y-121798287D01*
X164966755Y-121802708D01*
X164957945Y-121805942D01*
X164938574Y-121817771D01*
X164918566Y-121828465D01*
X164911314Y-121834416D01*
X164903307Y-121839306D01*
X164886615Y-121854687D01*
X164869079Y-121869079D01*
X164863129Y-121876329D01*
X164856228Y-121882688D01*
X164842862Y-121901023D01*
X164828465Y-121918566D01*
X164816509Y-121940935D01*
X162914118Y-125175000D01*
X162550000Y-125175000D01*
X162550000Y-120550000D01*
X169550000Y-120550000D01*
X169550000Y-121775000D01*
G36*
X112850000Y-104450000D02*
X106309618Y-104450000D01*
X107534619Y-103225000D01*
X109944989Y-103225000D01*
X109954081Y-103228169D01*
X110009306Y-103225000D01*
X110032009Y-103225000D01*
X110041214Y-103223169D01*
X110083160Y-103220762D01*
X110104051Y-103210670D01*
X110126809Y-103206143D01*
X110161750Y-103182796D01*
X110199580Y-103164521D01*
X110215017Y-103147204D01*
X110234312Y-103134312D01*
X110257659Y-103099371D01*
X110263899Y-103092371D01*
X110275400Y-103072819D01*
X110306143Y-103026809D01*
X110308022Y-103017362D01*
X112185883Y-99825000D01*
X112850000Y-99825000D01*
X112850000Y-104450000D01*
X112850000Y-104450000D01*
G37*
X112850000Y-104450000D02*
X106309618Y-104450000D01*
X107534619Y-103225000D01*
X109944989Y-103225000D01*
X109954081Y-103228169D01*
X110009306Y-103225000D01*
X110032009Y-103225000D01*
X110041214Y-103223169D01*
X110083160Y-103220762D01*
X110104051Y-103210670D01*
X110126809Y-103206143D01*
X110161750Y-103182796D01*
X110199580Y-103164521D01*
X110215017Y-103147204D01*
X110234312Y-103134312D01*
X110257659Y-103099371D01*
X110263899Y-103092371D01*
X110275400Y-103072819D01*
X110306143Y-103026809D01*
X110308022Y-103017362D01*
X112185883Y-99825000D01*
X112850000Y-99825000D01*
X112850000Y-104450000D01*
M02*
