M48
; DRILL file {KiCad (5.1.2-1)-1} date 2019 August 07, Wednesday 19:22:56
; FORMAT={-:-/ absolute / inch / decimal}
; #@! TF.CreationDate,2019-08-07T19:22:56+02:00
; #@! TF.GenerationSoftware,Kicad,Pcbnew,(5.1.2-1)-1
; #@! TF.FileFunction,Plated,1,2,PTH
FMAT,2
INCH
T1C0.0157
T2C0.0197
T3C0.0236
T4C0.0276
T5C0.0315
T6C0.0394
T7C0.1260
%
G90
G05
T1
X4.2441Y-4.0906
X4.2874Y-4.0906
X4.3307Y-4.0906
X4.3701Y-4.063
X4.3898Y-4.0276
X4.4094Y-3.9921
X4.4291Y-3.9567
X6.4134Y-4.8898
X6.437Y-4.8504
X6.4606Y-4.811
X6.4843Y-4.7756
X6.5276Y-4.7756
X6.5709Y-4.7756
X6.6142Y-4.7756
X6.6575Y-4.7756
T2
X4.1437Y-4.1634
T3
X4.311Y-4.4291
X3.9764Y-4.4291
X4.1437Y-4.6949
T4
X4.5884Y-4.3791
X4.5884Y-4.4791
T5
X4.0453Y-4.1957
X4.0453Y-4.3957
X5.2634Y-4.0307
X5.2634Y-4.3307
X5.6384Y-4.2291
X5.6384Y-4.6291
X4.4634Y-4.3791
X4.4634Y-4.4776
X6.5134Y-4.4291
X6.5134Y-4.5276
X6.5669Y-4.0551
X6.6365Y-4.1247
X5.4134Y-4.1291
X5.4134Y-4.2276
X5.1534Y-4.2791
X5.1534Y-4.5791
X4.2421Y-4.1957
X4.2421Y-4.3957
X4.855Y-4.6391
X4.9534Y-4.6391
X5.9634Y-4.5291
X6.3634Y-4.5291
X4.4634Y-4.6041
X4.5618Y-4.6041
X4.0453Y-4.4626
X4.0453Y-4.6626
X4.7394Y-4.0059
X5.0394Y-4.0059
X4.2421Y-4.4626
X4.2421Y-4.6626
X5.9634Y-4.3791
X6.3634Y-4.3791
X5.8134Y-4.2291
X5.8134Y-4.6291
X4.5884Y-3.9791
X4.5884Y-4.2791
X5.6384Y-4.0541
X5.7368Y-4.0541
X6.6134Y-4.4291
X6.6134Y-4.5276
X4.84Y-4.3291
X4.9384Y-4.3291
X4.7384Y-4.1791
X4.7384Y-4.2791
X4.7384Y-4.3791
X4.7384Y-4.4791
X5.0384Y-4.1791
X5.0384Y-4.2791
X5.0384Y-4.3791
X5.0384Y-4.4791
X4.4634Y-4.1807
X4.4634Y-4.2791
T6
X6.5134Y-4.3041
X6.6134Y-4.3041
X6.5134Y-4.6541
X6.6134Y-4.6541
T7
X5.4134Y-4.4291
X6.0984Y-4.0354
X6.0984Y-4.8228
T0
M30
