G04 #@! TF.GenerationSoftware,KiCad,Pcbnew,5.1.5-52549c5~84~ubuntu19.10.1*
G04 #@! TF.CreationDate,2019-12-29T22:09:26+01:00*
G04 #@! TF.ProjectId,DIY_detector,4449595f-6465-4746-9563-746f722e6b69,V1.1*
G04 #@! TF.SameCoordinates,Original*
G04 #@! TF.FileFunction,Copper,L2,Bot*
G04 #@! TF.FilePolarity,Positive*
%FSLAX46Y46*%
G04 Gerber Fmt 4.6, Leading zero omitted, Abs format (unit mm)*
G04 Created by KiCad (PCBNEW 5.1.5-52549c5~84~ubuntu19.10.1) date 2019-12-29 22:09:26*
%MOMM*%
%LPD*%
G04 APERTURE LIST*
%ADD10R,1.700000X1.700000*%
%ADD11O,1.700000X1.700000*%
%ADD12C,1.600000*%
%ADD13O,1.600000X1.600000*%
%ADD14C,1.400000*%
%ADD15O,1.400000X1.400000*%
%ADD16R,2.400000X1.600000*%
%ADD17O,2.400000X1.600000*%
%ADD18C,0.100000*%
%ADD19C,5.700000*%
%ADD20C,1.700000*%
%ADD21C,1.100000*%
%ADD22C,0.800000*%
%ADD23C,0.250000*%
%ADD24C,0.400000*%
G04 APERTURE END LIST*
D10*
X165440000Y-118215000D03*
D11*
X167980000Y-118215000D03*
D10*
X165440000Y-109325000D03*
D11*
X167980000Y-109325000D03*
D12*
X151470000Y-111230000D03*
D13*
X161630000Y-111230000D03*
D12*
X161630000Y-115040000D03*
D13*
X151470000Y-115040000D03*
D12*
X167980000Y-112500000D03*
X167980000Y-115000000D03*
D14*
X116545000Y-113770000D03*
D15*
X116545000Y-111230000D03*
D16*
X120355000Y-113770000D03*
D17*
X127975000Y-106150000D03*
X120355000Y-111230000D03*
X127975000Y-108690000D03*
X120355000Y-108690000D03*
X127975000Y-111230000D03*
X120355000Y-106150000D03*
X127975000Y-113770000D03*
G04 #@! TA.AperFunction,ComponentPad*
D18*
G36*
X165668629Y-103000000D02*
G01*
X166800000Y-101868629D01*
X167931371Y-103000000D01*
X166800000Y-104131371D01*
X165668629Y-103000000D01*
G37*
G04 #@! TD.AperFunction*
D12*
X168567767Y-104767767D03*
X113370000Y-111230000D03*
X113370000Y-113730000D03*
X113370000Y-116945000D03*
X115870000Y-116945000D03*
X113370000Y-108690000D03*
X113370000Y-106190000D03*
X123316000Y-117834000D03*
X125816000Y-117834000D03*
X125435000Y-109960000D03*
X122935000Y-109960000D03*
X137500000Y-104880000D03*
X137500000Y-107380000D03*
X143215000Y-102975000D03*
X145715000Y-102975000D03*
X165440000Y-112500000D03*
X165440000Y-115000000D03*
X116545000Y-108690000D03*
D13*
X116545000Y-101070000D03*
D12*
X130896000Y-108690000D03*
D13*
X130896000Y-116310000D03*
D12*
X133690000Y-110000000D03*
D13*
X133690000Y-102380000D03*
D12*
X128000000Y-101750000D03*
D13*
X120380000Y-101750000D03*
D19*
X137500000Y-112500000D03*
X154900000Y-122500000D03*
D20*
X107750000Y-118430000D03*
D10*
X107750000Y-113350000D03*
X107750000Y-111650000D03*
D20*
X107750000Y-106570000D03*
X102750000Y-106570000D03*
D10*
X102750000Y-111650000D03*
X102750000Y-113350000D03*
D20*
X102750000Y-118430000D03*
D12*
X143215000Y-117580000D03*
D13*
X143215000Y-107420000D03*
X147660000Y-117580000D03*
D12*
X147660000Y-107420000D03*
D21*
X105250000Y-105750000D03*
X109500000Y-112500000D03*
X101000000Y-112500000D03*
X105250000Y-119250000D03*
D19*
X154900000Y-102500000D03*
D22*
X107800000Y-103900000D03*
X110000000Y-103900000D03*
X108900000Y-103900000D03*
X111000000Y-103200000D03*
X111500000Y-102300000D03*
X112000000Y-101400000D03*
X169100000Y-121300000D03*
X168000000Y-121300000D03*
X166900000Y-121300000D03*
X165800000Y-121300000D03*
X164100000Y-122200000D03*
X163500000Y-123200000D03*
X162900000Y-124200000D03*
X164700000Y-121300000D03*
X112500000Y-100500000D03*
D23*
X107750000Y-111250000D02*
X107750000Y-112350000D01*
X107730000Y-112520000D02*
X107750000Y-112500000D01*
X102750000Y-112520000D02*
X107730000Y-112520000D01*
X107750000Y-112500000D02*
X107750000Y-113750000D01*
X107750000Y-112350000D02*
X107750000Y-112500000D01*
X102750000Y-111250000D02*
X102750000Y-112520000D01*
X102750000Y-112520000D02*
X102750000Y-113750000D01*
X113370000Y-111230000D02*
X116545000Y-111230000D01*
X116545000Y-111230000D02*
X120355000Y-111230000D01*
X112354000Y-111230000D02*
X113370000Y-111230000D01*
X112334000Y-111250000D02*
X112354000Y-111230000D01*
X107750000Y-111250000D02*
X112334000Y-111250000D01*
X113370000Y-113730000D02*
X113370000Y-116945000D01*
D24*
X123219000Y-117834000D02*
X123316000Y-117834000D01*
X120355000Y-114970000D02*
X123219000Y-117834000D01*
X120355000Y-113770000D02*
X120355000Y-114970000D01*
D23*
X115870000Y-114445000D02*
X116545000Y-113770000D01*
X115870000Y-116945000D02*
X115870000Y-114445000D01*
X117534949Y-113770000D02*
X120355000Y-113770000D01*
X116545000Y-113770000D02*
X117534949Y-113770000D01*
D24*
X121350000Y-106150000D02*
X120355000Y-106150000D01*
X122935000Y-108828630D02*
X122935000Y-109960000D01*
X122935000Y-108330000D02*
X122935000Y-108828630D01*
X120755000Y-106150000D02*
X122935000Y-108330000D01*
X120355000Y-106150000D02*
X120755000Y-106150000D01*
D23*
X118364000Y-108690000D02*
X120355000Y-108690000D01*
X116545000Y-108690000D02*
X118110000Y-108690000D01*
X118110000Y-108690000D02*
X118364000Y-108690000D01*
X115000000Y-108690000D02*
X116545000Y-108690000D01*
X113370000Y-108690000D02*
X115000000Y-108690000D01*
X119880000Y-101520000D02*
X119880000Y-101500000D01*
X115000000Y-108690000D02*
X116672000Y-108690000D01*
X116545000Y-105455000D02*
X120250000Y-101750000D01*
X120250000Y-101750000D02*
X120380000Y-101750000D01*
X116545000Y-108690000D02*
X116545000Y-105455000D01*
D24*
X167980000Y-112500000D02*
X165440000Y-112500000D01*
X161630000Y-111230000D02*
X162900000Y-112500000D01*
X165440000Y-112500000D02*
X162900000Y-112500000D01*
X127575000Y-113770000D02*
X127975000Y-113770000D01*
X125435000Y-111630000D02*
X127575000Y-113770000D01*
X125435000Y-109960000D02*
X125244000Y-109960000D01*
X169910000Y-103000000D02*
X166800000Y-103000000D01*
X171800000Y-118700000D02*
X171800000Y-104890000D01*
X171800000Y-104890000D02*
X169910000Y-103000000D01*
X159700000Y-120000000D02*
X170500000Y-120000000D01*
X157300000Y-117600000D02*
X159700000Y-120000000D01*
X170500000Y-120000000D02*
X171800000Y-118700000D01*
X143215000Y-117580000D02*
X145165000Y-119530000D01*
X145165000Y-119530000D02*
X150270000Y-119530000D01*
X152200000Y-117600000D02*
X157300000Y-117600000D01*
X150270000Y-119530000D02*
X152200000Y-117600000D01*
X165440000Y-104360000D02*
X166800000Y-103000000D01*
D23*
X147342500Y-100117500D02*
X149565000Y-102340000D01*
X128000000Y-101750000D02*
X129632500Y-100117500D01*
X129632500Y-100117500D02*
X147342500Y-100117500D01*
X163400000Y-103000000D02*
X166800000Y-103000000D01*
X149565000Y-104880000D02*
X152105000Y-107420000D01*
X149565000Y-102340000D02*
X149565000Y-104880000D01*
X158980000Y-107420000D02*
X163400000Y-103000000D01*
X152105000Y-107420000D02*
X158980000Y-107420000D01*
D24*
X165440000Y-109325000D02*
X165440000Y-104360000D01*
X125435000Y-111630000D02*
X125435000Y-109960000D01*
X123954365Y-111399126D02*
X125435000Y-109960000D01*
X123952000Y-111865000D02*
X123954365Y-111399126D01*
X123952000Y-114554000D02*
X123952000Y-111865000D01*
X132278000Y-114278000D02*
X130515000Y-114278000D01*
X125073000Y-115675000D02*
X123952000Y-114554000D01*
X135580000Y-117580000D02*
X132278000Y-114278000D01*
X129118000Y-115675000D02*
X125073000Y-115675000D01*
X130515000Y-114278000D02*
X129118000Y-115675000D01*
X143215000Y-117580000D02*
X135580000Y-117580000D01*
X165440000Y-115536370D02*
X165440000Y-117900000D01*
X161670000Y-115000000D02*
X161630000Y-115040000D01*
X165440000Y-115000000D02*
X161670000Y-115000000D01*
X129372000Y-117834000D02*
X130896000Y-116310000D01*
X125816000Y-117834000D02*
X129372000Y-117834000D01*
D23*
X129425000Y-108690000D02*
X130896000Y-108690000D01*
X127975000Y-108690000D02*
X129425000Y-108690000D01*
X136992000Y-104880000D02*
X137500000Y-104880000D01*
X130896000Y-103864000D02*
X132420000Y-102340000D01*
X132420000Y-102340000D02*
X133690000Y-102340000D01*
X130896000Y-108690000D02*
X130896000Y-103864000D01*
X137500000Y-103864000D02*
X137500000Y-104880000D01*
X135976000Y-102340000D02*
X137500000Y-103864000D01*
X133690000Y-102340000D02*
X135976000Y-102340000D01*
X132420000Y-111230000D02*
X133690000Y-109960000D01*
X127975000Y-111230000D02*
X132420000Y-111230000D01*
X136270000Y-107380000D02*
X137500000Y-107380000D01*
X133690000Y-109960000D02*
X136270000Y-107380000D01*
X143850000Y-111230000D02*
X151470000Y-111230000D01*
X140000000Y-107380000D02*
X143850000Y-111230000D01*
X137500000Y-107380000D02*
X140000000Y-107380000D01*
X143215000Y-107420000D02*
X143215000Y-102975000D01*
X143215000Y-107420000D02*
X147660000Y-107420000D01*
X142072000Y-100879500D02*
X143215000Y-102022500D01*
X143215000Y-102022500D02*
X143215000Y-102975000D01*
X131120500Y-100879500D02*
X142072000Y-100879500D01*
X127975000Y-104025000D02*
X131120500Y-100879500D01*
X127975000Y-106150000D02*
X127975000Y-104025000D01*
D18*
G36*
X169550000Y-121775000D02*
G01*
X165106631Y-121775000D01*
X165081289Y-121773964D01*
X165058870Y-121777479D01*
X165036289Y-121779703D01*
X165027308Y-121782427D01*
X165018043Y-121783880D01*
X164996744Y-121791699D01*
X164975026Y-121798287D01*
X164966755Y-121802708D01*
X164957945Y-121805942D01*
X164938574Y-121817771D01*
X164918566Y-121828465D01*
X164911314Y-121834416D01*
X164903307Y-121839306D01*
X164886615Y-121854687D01*
X164869079Y-121869079D01*
X164863129Y-121876329D01*
X164856228Y-121882688D01*
X164842862Y-121901023D01*
X164828465Y-121918566D01*
X164816509Y-121940935D01*
X162914118Y-125175000D01*
X162550000Y-125175000D01*
X162550000Y-120550000D01*
X169550000Y-120550000D01*
X169550000Y-121775000D01*
G37*
X169550000Y-121775000D02*
X165106631Y-121775000D01*
X165081289Y-121773964D01*
X165058870Y-121777479D01*
X165036289Y-121779703D01*
X165027308Y-121782427D01*
X165018043Y-121783880D01*
X164996744Y-121791699D01*
X164975026Y-121798287D01*
X164966755Y-121802708D01*
X164957945Y-121805942D01*
X164938574Y-121817771D01*
X164918566Y-121828465D01*
X164911314Y-121834416D01*
X164903307Y-121839306D01*
X164886615Y-121854687D01*
X164869079Y-121869079D01*
X164863129Y-121876329D01*
X164856228Y-121882688D01*
X164842862Y-121901023D01*
X164828465Y-121918566D01*
X164816509Y-121940935D01*
X162914118Y-125175000D01*
X162550000Y-125175000D01*
X162550000Y-120550000D01*
X169550000Y-120550000D01*
X169550000Y-121775000D01*
G36*
X112850000Y-104450000D02*
G01*
X106309618Y-104450000D01*
X107534620Y-103225000D01*
X109993383Y-103225000D01*
X110018710Y-103226035D01*
X110041117Y-103222522D01*
X110063711Y-103220297D01*
X110072693Y-103217572D01*
X110081957Y-103216120D01*
X110103249Y-103208303D01*
X110124974Y-103201713D01*
X110133252Y-103197288D01*
X110142054Y-103194057D01*
X110161405Y-103182240D01*
X110181434Y-103171535D01*
X110188693Y-103165577D01*
X110196692Y-103160693D01*
X110213369Y-103145326D01*
X110230921Y-103130921D01*
X110236875Y-103123666D01*
X110243772Y-103117311D01*
X110257131Y-103098984D01*
X110271535Y-103081434D01*
X110283497Y-103059054D01*
X112185882Y-99825000D01*
X112850000Y-99825000D01*
X112850000Y-104450000D01*
G37*
X112850000Y-104450000D02*
X106309618Y-104450000D01*
X107534620Y-103225000D01*
X109993383Y-103225000D01*
X110018710Y-103226035D01*
X110041117Y-103222522D01*
X110063711Y-103220297D01*
X110072693Y-103217572D01*
X110081957Y-103216120D01*
X110103249Y-103208303D01*
X110124974Y-103201713D01*
X110133252Y-103197288D01*
X110142054Y-103194057D01*
X110161405Y-103182240D01*
X110181434Y-103171535D01*
X110188693Y-103165577D01*
X110196692Y-103160693D01*
X110213369Y-103145326D01*
X110230921Y-103130921D01*
X110236875Y-103123666D01*
X110243772Y-103117311D01*
X110257131Y-103098984D01*
X110271535Y-103081434D01*
X110283497Y-103059054D01*
X112185882Y-99825000D01*
X112850000Y-99825000D01*
X112850000Y-104450000D01*
M02*
