G04 #@! TF.GenerationSoftware,KiCad,Pcbnew,(5.1.2-1)-1*
G04 #@! TF.CreationDate,2019-08-07T19:22:51+02:00*
G04 #@! TF.ProjectId,DIY_detector,4449595f-6465-4746-9563-746f722e6b69,V1.1*
G04 #@! TF.SameCoordinates,Original*
G04 #@! TF.FileFunction,Copper,L1,Top*
G04 #@! TF.FilePolarity,Positive*
%FSLAX46Y46*%
G04 Gerber Fmt 4.6, Leading zero omitted, Abs format (unit mm)*
G04 Created by KiCad (PCBNEW (5.1.2-1)-1) date 2019-08-07 19:22:51*
%MOMM*%
%LPD*%
G04 APERTURE LIST*
%ADD10C,0.300000*%
%ADD11R,1.700000X1.700000*%
%ADD12O,1.700000X1.700000*%
%ADD13C,1.600000*%
%ADD14O,1.600000X1.600000*%
%ADD15C,1.400000*%
%ADD16O,1.400000X1.400000*%
%ADD17R,2.400000X1.600000*%
%ADD18O,2.400000X1.600000*%
%ADD19C,0.100000*%
%ADD20C,5.700000*%
%ADD21C,1.700000*%
%ADD22C,1.100000*%
%ADD23C,0.800000*%
%ADD24C,0.400000*%
%ADD25C,0.250000*%
G04 APERTURE END LIST*
D10*
X143623652Y-112368914D02*
X144307693Y-114248299D01*
X144876904Y-113027621D02*
X145031546Y-113174036D01*
X145243108Y-113198384D01*
X143981959Y-113353354D02*
X144136600Y-113499770D01*
X144348163Y-113524118D01*
X144706141Y-113393824D01*
X144852557Y-113239183D01*
X144876904Y-113027621D01*
X144518598Y-112043181D01*
X147267765Y-113025632D02*
X147385103Y-113203348D01*
X147419963Y-113333446D01*
X147407203Y-113546022D01*
X147216727Y-113875937D01*
X147039010Y-113993275D01*
X146908913Y-114028134D01*
X146696336Y-114015375D01*
X146448901Y-113872518D01*
X146331562Y-113694801D01*
X146296703Y-113564703D01*
X145703174Y-114211773D02*
X145833272Y-114176913D01*
X146010989Y-114059575D01*
X147058608Y-112245046D01*
X147236324Y-112127707D01*
X147448901Y-112140467D01*
X147696336Y-112283324D01*
X147813675Y-112461041D01*
X147800915Y-112673617D01*
X147658058Y-112921053D01*
X147480341Y-113038391D01*
X147267765Y-113025632D01*
X147102808Y-112930393D01*
X146036222Y-110192443D02*
X145920227Y-111179968D01*
X145859512Y-111384089D01*
X145782259Y-111494418D01*
X145611214Y-111621285D01*
X145423632Y-111654361D01*
X145219511Y-111593645D01*
X145109182Y-111516392D01*
X144965777Y-111251556D01*
X144899626Y-110876392D01*
X144943803Y-110578480D01*
X145021056Y-110468151D01*
X145192101Y-110341284D01*
X145379683Y-110308208D01*
X145583804Y-110368923D01*
X145694133Y-110446177D01*
X145821000Y-110617221D01*
X146030556Y-111257222D01*
X146157424Y-111428266D01*
X146361544Y-111488982D01*
D11*
X165440000Y-118215000D03*
D12*
X167980000Y-118215000D03*
D11*
X165440000Y-109325000D03*
D12*
X167980000Y-109325000D03*
D13*
X151470000Y-111230000D03*
D14*
X161630000Y-111230000D03*
D13*
X161630000Y-115040000D03*
D14*
X151470000Y-115040000D03*
D13*
X167980000Y-112500000D03*
X167980000Y-115000000D03*
D15*
X116545000Y-113770000D03*
D16*
X116545000Y-111230000D03*
D17*
X120355000Y-113770000D03*
D18*
X127975000Y-106150000D03*
X120355000Y-111230000D03*
X127975000Y-108690000D03*
X120355000Y-108690000D03*
X127975000Y-111230000D03*
X120355000Y-106150000D03*
X127975000Y-113770000D03*
D13*
X166800000Y-103000000D03*
D19*
G36*
X165668629Y-103000000D02*
G01*
X166800000Y-101868629D01*
X167931371Y-103000000D01*
X166800000Y-104131371D01*
X165668629Y-103000000D01*
X165668629Y-103000000D01*
G37*
D13*
X168567767Y-104767767D03*
X113370000Y-111230000D03*
X113370000Y-113730000D03*
X113370000Y-116945000D03*
X115870000Y-116945000D03*
X113370000Y-108690000D03*
X113370000Y-106190000D03*
X123316000Y-117834000D03*
X125816000Y-117834000D03*
X125435000Y-109960000D03*
X122935000Y-109960000D03*
X137500000Y-104880000D03*
X137500000Y-107380000D03*
X143215000Y-102975000D03*
X145715000Y-102975000D03*
X165440000Y-112500000D03*
X165440000Y-115000000D03*
X116545000Y-108690000D03*
D14*
X116545000Y-101070000D03*
D13*
X130896000Y-108690000D03*
D14*
X130896000Y-116310000D03*
D13*
X133690000Y-110000000D03*
D14*
X133690000Y-102380000D03*
D13*
X128000000Y-101750000D03*
D14*
X120380000Y-101750000D03*
D20*
X137500000Y-112500000D03*
X154900000Y-122500000D03*
D21*
X107750000Y-118430000D03*
D11*
X107750000Y-113350000D03*
X107750000Y-111650000D03*
D21*
X107750000Y-106570000D03*
X102750000Y-106570000D03*
D11*
X102750000Y-111650000D03*
X102750000Y-113350000D03*
D21*
X102750000Y-118430000D03*
D13*
X143215000Y-117580000D03*
D14*
X143215000Y-107420000D03*
X147660000Y-117580000D03*
D13*
X147660000Y-107420000D03*
D22*
X105250000Y-105750000D03*
X109500000Y-112500000D03*
X101000000Y-112500000D03*
X105250000Y-119250000D03*
D20*
X154900000Y-102500000D03*
D23*
X107800000Y-103900000D03*
X110000000Y-103900000D03*
X108900000Y-103900000D03*
X111000000Y-103200000D03*
X111500000Y-102300000D03*
X112000000Y-101400000D03*
X169100000Y-121300000D03*
X168000000Y-121300000D03*
X166900000Y-121300000D03*
X165800000Y-121300000D03*
X164100000Y-122200000D03*
X163500000Y-123200000D03*
X162900000Y-124200000D03*
X164700000Y-121300000D03*
X112500000Y-100500000D03*
D24*
X165209000Y-111905000D02*
X165440000Y-111905000D01*
X164719000Y-112395000D02*
X165209000Y-111905000D01*
X165440000Y-114405000D02*
X165440000Y-115536370D01*
X131340000Y-116310000D02*
X131445000Y-116310000D01*
D25*
X137436500Y-105515000D02*
X137500000Y-105578500D01*
D24*
G36*
X115587451Y-100048672D02*
G01*
X115406599Y-100255105D01*
X115269495Y-100492854D01*
X115181408Y-100752782D01*
X115298572Y-100970000D01*
X116445000Y-100970000D01*
X116445000Y-100950000D01*
X116645000Y-100950000D01*
X116645000Y-100970000D01*
X117791428Y-100970000D01*
X117908592Y-100752782D01*
X117820505Y-100492854D01*
X117683401Y-100255105D01*
X117502549Y-100048672D01*
X117406638Y-99975000D01*
X152704681Y-99975000D01*
X152626521Y-100085100D01*
X154900000Y-102358579D01*
X157173479Y-100085100D01*
X157095319Y-99975000D01*
X167803250Y-99975000D01*
X174525000Y-106696751D01*
X174525001Y-119303248D01*
X172203250Y-121625000D01*
X165109697Y-121625000D01*
X165072654Y-121623486D01*
X165039890Y-121628622D01*
X165006884Y-121631873D01*
X164993762Y-121635853D01*
X164980216Y-121637977D01*
X164949081Y-121649407D01*
X164917346Y-121659034D01*
X164905255Y-121665497D01*
X164892381Y-121670223D01*
X164864074Y-121687508D01*
X164834827Y-121703141D01*
X164824226Y-121711841D01*
X164812525Y-121718986D01*
X164788139Y-121741457D01*
X164762499Y-121762499D01*
X164753800Y-121773099D01*
X164743717Y-121782390D01*
X164724184Y-121809186D01*
X164703141Y-121834827D01*
X164685661Y-121867530D01*
X162828327Y-125025000D01*
X157095319Y-125025000D01*
X157173479Y-124914900D01*
X154900000Y-122641421D01*
X152626521Y-124914900D01*
X152704681Y-125025000D01*
X112271674Y-125025000D01*
X110765131Y-122463877D01*
X151433495Y-122463877D01*
X151493056Y-123140852D01*
X151683544Y-123793201D01*
X151997638Y-124395852D01*
X152037775Y-124455922D01*
X152485100Y-124773479D01*
X154758579Y-122500000D01*
X155041421Y-122500000D01*
X157314900Y-124773479D01*
X157762225Y-124455922D01*
X158088809Y-123859947D01*
X158292850Y-123211710D01*
X158366505Y-122536123D01*
X158306944Y-121859148D01*
X158116456Y-121206799D01*
X157802362Y-120604148D01*
X157762225Y-120544078D01*
X157314900Y-120226521D01*
X155041421Y-122500000D01*
X154758579Y-122500000D01*
X152485100Y-120226521D01*
X152037775Y-120544078D01*
X151711191Y-121140053D01*
X151507150Y-121788290D01*
X151433495Y-122463877D01*
X110765131Y-122463877D01*
X110414349Y-121867548D01*
X110396859Y-121834827D01*
X110375803Y-121809171D01*
X110356282Y-121782391D01*
X110346206Y-121773107D01*
X110337501Y-121762499D01*
X110311849Y-121741447D01*
X110287474Y-121718986D01*
X110275777Y-121711843D01*
X110265173Y-121703141D01*
X110235918Y-121687504D01*
X110207618Y-121670223D01*
X110194747Y-121665498D01*
X110182654Y-121659034D01*
X110150914Y-121649406D01*
X110119783Y-121637977D01*
X110106239Y-121635854D01*
X110093116Y-121631873D01*
X110060109Y-121628622D01*
X110027346Y-121623486D01*
X109990313Y-121625000D01*
X107596752Y-121625000D01*
X106152384Y-120180634D01*
X106137501Y-120162499D01*
X106065173Y-120103141D01*
X106031421Y-120085100D01*
X152626521Y-120085100D01*
X154900000Y-122358579D01*
X157173479Y-120085100D01*
X156855922Y-119637775D01*
X156259947Y-119311191D01*
X155611710Y-119107150D01*
X154936123Y-119033495D01*
X154259148Y-119093056D01*
X153606799Y-119283544D01*
X153004148Y-119597638D01*
X152944078Y-119637775D01*
X152626521Y-120085100D01*
X106031421Y-120085100D01*
X105982654Y-120059034D01*
X105893116Y-120031873D01*
X105823332Y-120025000D01*
X105803072Y-120023005D01*
X105855590Y-119987913D01*
X105987913Y-119855590D01*
X106091879Y-119699994D01*
X106163492Y-119527105D01*
X106184358Y-119422202D01*
X106899220Y-119422202D01*
X106976509Y-119664750D01*
X107232259Y-119791925D01*
X107507906Y-119866762D01*
X107792856Y-119886386D01*
X108076159Y-119850042D01*
X108346928Y-119759125D01*
X108523491Y-119664750D01*
X108600780Y-119422202D01*
X107750000Y-118571421D01*
X106899220Y-119422202D01*
X106184358Y-119422202D01*
X106200000Y-119343567D01*
X106200000Y-119156433D01*
X106163492Y-118972895D01*
X106091879Y-118800006D01*
X105987913Y-118644410D01*
X105855590Y-118512087D01*
X105796877Y-118472856D01*
X106293614Y-118472856D01*
X106329958Y-118756159D01*
X106420875Y-119026928D01*
X106515250Y-119203491D01*
X106757798Y-119280780D01*
X107608579Y-118430000D01*
X107891421Y-118430000D01*
X108742202Y-119280780D01*
X108984750Y-119203491D01*
X109111925Y-118947741D01*
X109186762Y-118672094D01*
X109206386Y-118387144D01*
X109170042Y-118103841D01*
X109079125Y-117833072D01*
X108984750Y-117656509D01*
X108742202Y-117579220D01*
X107891421Y-118430000D01*
X107608579Y-118430000D01*
X106757798Y-117579220D01*
X106515250Y-117656509D01*
X106388075Y-117912259D01*
X106313238Y-118187906D01*
X106293614Y-118472856D01*
X105796877Y-118472856D01*
X105699994Y-118408121D01*
X105527105Y-118336508D01*
X105343567Y-118300000D01*
X105156433Y-118300000D01*
X104972895Y-118336508D01*
X104800006Y-118408121D01*
X104644410Y-118512087D01*
X104512087Y-118644410D01*
X104408121Y-118800006D01*
X104336508Y-118972895D01*
X104300000Y-119156433D01*
X104300000Y-119343567D01*
X104336508Y-119527105D01*
X104408121Y-119699994D01*
X104512087Y-119855590D01*
X104644410Y-119987913D01*
X104699915Y-120025000D01*
X101696751Y-120025000D01*
X101093953Y-119422202D01*
X101899220Y-119422202D01*
X101976509Y-119664750D01*
X102232259Y-119791925D01*
X102507906Y-119866762D01*
X102792856Y-119886386D01*
X103076159Y-119850042D01*
X103346928Y-119759125D01*
X103523491Y-119664750D01*
X103600780Y-119422202D01*
X102750000Y-118571421D01*
X101899220Y-119422202D01*
X101093953Y-119422202D01*
X100475000Y-118803250D01*
X100475000Y-118472856D01*
X101293614Y-118472856D01*
X101329958Y-118756159D01*
X101420875Y-119026928D01*
X101515250Y-119203491D01*
X101757798Y-119280780D01*
X102608579Y-118430000D01*
X102891421Y-118430000D01*
X103742202Y-119280780D01*
X103984750Y-119203491D01*
X104111925Y-118947741D01*
X104186762Y-118672094D01*
X104206386Y-118387144D01*
X104170042Y-118103841D01*
X104079125Y-117833072D01*
X103984750Y-117656509D01*
X103742202Y-117579220D01*
X102891421Y-118430000D01*
X102608579Y-118430000D01*
X101757798Y-117579220D01*
X101515250Y-117656509D01*
X101388075Y-117912259D01*
X101313238Y-118187906D01*
X101293614Y-118472856D01*
X100475000Y-118472856D01*
X100475000Y-117437798D01*
X101899220Y-117437798D01*
X102750000Y-118288579D01*
X103600780Y-117437798D01*
X106899220Y-117437798D01*
X107750000Y-118288579D01*
X108600780Y-117437798D01*
X108523491Y-117195250D01*
X108267741Y-117068075D01*
X107992094Y-116993238D01*
X107707144Y-116973614D01*
X107423841Y-117009958D01*
X107153072Y-117100875D01*
X106976509Y-117195250D01*
X106899220Y-117437798D01*
X103600780Y-117437798D01*
X103523491Y-117195250D01*
X103267741Y-117068075D01*
X102992094Y-116993238D01*
X102707144Y-116973614D01*
X102423841Y-117009958D01*
X102153072Y-117100875D01*
X101976509Y-117195250D01*
X101899220Y-117437798D01*
X100475000Y-117437798D01*
X100475000Y-116826810D01*
X112170000Y-116826810D01*
X112170000Y-117063190D01*
X112216116Y-117295027D01*
X112306574Y-117513413D01*
X112437899Y-117709955D01*
X112605045Y-117877101D01*
X112801587Y-118008426D01*
X113019973Y-118098884D01*
X113251810Y-118145000D01*
X113488190Y-118145000D01*
X113720027Y-118098884D01*
X113938413Y-118008426D01*
X114134955Y-117877101D01*
X114302101Y-117709955D01*
X114433426Y-117513413D01*
X114523884Y-117295027D01*
X114570000Y-117063190D01*
X114570000Y-116826810D01*
X114670000Y-116826810D01*
X114670000Y-117063190D01*
X114716116Y-117295027D01*
X114806574Y-117513413D01*
X114937899Y-117709955D01*
X115105045Y-117877101D01*
X115301587Y-118008426D01*
X115519973Y-118098884D01*
X115751810Y-118145000D01*
X115988190Y-118145000D01*
X116220027Y-118098884D01*
X116438413Y-118008426D01*
X116634955Y-117877101D01*
X116796246Y-117715810D01*
X122116000Y-117715810D01*
X122116000Y-117952190D01*
X122162116Y-118184027D01*
X122252574Y-118402413D01*
X122383899Y-118598955D01*
X122551045Y-118766101D01*
X122747587Y-118897426D01*
X122965973Y-118987884D01*
X123197810Y-119034000D01*
X123434190Y-119034000D01*
X123666027Y-118987884D01*
X123884413Y-118897426D01*
X124080955Y-118766101D01*
X124248101Y-118598955D01*
X124379426Y-118402413D01*
X124469884Y-118184027D01*
X124516000Y-117952190D01*
X124516000Y-117715810D01*
X124616000Y-117715810D01*
X124616000Y-117952190D01*
X124662116Y-118184027D01*
X124752574Y-118402413D01*
X124883899Y-118598955D01*
X125051045Y-118766101D01*
X125247587Y-118897426D01*
X125465973Y-118987884D01*
X125697810Y-119034000D01*
X125934190Y-119034000D01*
X126166027Y-118987884D01*
X126384413Y-118897426D01*
X126580955Y-118766101D01*
X126748101Y-118598955D01*
X126879426Y-118402413D01*
X126969884Y-118184027D01*
X127016000Y-117952190D01*
X127016000Y-117715810D01*
X126969884Y-117483973D01*
X126879426Y-117265587D01*
X126748101Y-117069045D01*
X126580955Y-116901899D01*
X126384413Y-116770574D01*
X126166027Y-116680116D01*
X125934190Y-116634000D01*
X125697810Y-116634000D01*
X125465973Y-116680116D01*
X125247587Y-116770574D01*
X125051045Y-116901899D01*
X124883899Y-117069045D01*
X124752574Y-117265587D01*
X124662116Y-117483973D01*
X124616000Y-117715810D01*
X124516000Y-117715810D01*
X124469884Y-117483973D01*
X124379426Y-117265587D01*
X124248101Y-117069045D01*
X124080955Y-116901899D01*
X123884413Y-116770574D01*
X123666027Y-116680116D01*
X123434190Y-116634000D01*
X123197810Y-116634000D01*
X122965973Y-116680116D01*
X122747587Y-116770574D01*
X122551045Y-116901899D01*
X122383899Y-117069045D01*
X122252574Y-117265587D01*
X122162116Y-117483973D01*
X122116000Y-117715810D01*
X116796246Y-117715810D01*
X116802101Y-117709955D01*
X116933426Y-117513413D01*
X117023884Y-117295027D01*
X117070000Y-117063190D01*
X117070000Y-116826810D01*
X117023884Y-116594973D01*
X116933426Y-116376587D01*
X116888935Y-116310000D01*
X129690194Y-116310000D01*
X129713363Y-116545241D01*
X129781981Y-116771442D01*
X129893409Y-116979910D01*
X130043366Y-117162634D01*
X130226090Y-117312591D01*
X130434558Y-117424019D01*
X130660759Y-117492637D01*
X130837050Y-117510000D01*
X130954950Y-117510000D01*
X131131241Y-117492637D01*
X131232862Y-117461810D01*
X142015000Y-117461810D01*
X142015000Y-117698190D01*
X142061116Y-117930027D01*
X142151574Y-118148413D01*
X142282899Y-118344955D01*
X142450045Y-118512101D01*
X142646587Y-118643426D01*
X142864973Y-118733884D01*
X143096810Y-118780000D01*
X143333190Y-118780000D01*
X143565027Y-118733884D01*
X143783413Y-118643426D01*
X143979955Y-118512101D01*
X144147101Y-118344955D01*
X144278426Y-118148413D01*
X144368884Y-117930027D01*
X144375410Y-117897218D01*
X146296408Y-117897218D01*
X146384495Y-118157146D01*
X146521599Y-118394895D01*
X146702451Y-118601328D01*
X146920101Y-118768512D01*
X147166185Y-118890022D01*
X147342782Y-118943588D01*
X147560000Y-118825994D01*
X147560000Y-117680000D01*
X147760000Y-117680000D01*
X147760000Y-118825994D01*
X147977218Y-118943588D01*
X148153815Y-118890022D01*
X148399899Y-118768512D01*
X148617549Y-118601328D01*
X148798401Y-118394895D01*
X148935505Y-118157146D01*
X149023592Y-117897218D01*
X148906428Y-117680000D01*
X147760000Y-117680000D01*
X147560000Y-117680000D01*
X146413572Y-117680000D01*
X146296408Y-117897218D01*
X144375410Y-117897218D01*
X144415000Y-117698190D01*
X144415000Y-117461810D01*
X144375411Y-117262782D01*
X146296408Y-117262782D01*
X146413572Y-117480000D01*
X147560000Y-117480000D01*
X147560000Y-116334006D01*
X147760000Y-116334006D01*
X147760000Y-117480000D01*
X148906428Y-117480000D01*
X148968457Y-117365000D01*
X164188065Y-117365000D01*
X164188065Y-119065000D01*
X164195788Y-119143414D01*
X164218660Y-119218814D01*
X164255803Y-119288303D01*
X164305789Y-119349211D01*
X164366697Y-119399197D01*
X164436186Y-119436340D01*
X164511586Y-119459212D01*
X164590000Y-119466935D01*
X166290000Y-119466935D01*
X166368414Y-119459212D01*
X166443814Y-119436340D01*
X166513303Y-119399197D01*
X166574211Y-119349211D01*
X166624197Y-119288303D01*
X166661340Y-119218814D01*
X166684212Y-119143414D01*
X166691935Y-119065000D01*
X166691935Y-118869604D01*
X166798861Y-119056085D01*
X166985644Y-119270353D01*
X167210639Y-119444064D01*
X167465201Y-119570543D01*
X167654941Y-119628095D01*
X167880000Y-119511148D01*
X167880000Y-118315000D01*
X168080000Y-118315000D01*
X168080000Y-119511148D01*
X168305059Y-119628095D01*
X168494799Y-119570543D01*
X168749361Y-119444064D01*
X168974356Y-119270353D01*
X169161139Y-119056085D01*
X169302531Y-118809495D01*
X169393099Y-118540059D01*
X169276552Y-118315000D01*
X168080000Y-118315000D01*
X167880000Y-118315000D01*
X167860000Y-118315000D01*
X167860000Y-118115000D01*
X167880000Y-118115000D01*
X167880000Y-116918852D01*
X168080000Y-116918852D01*
X168080000Y-118115000D01*
X169276552Y-118115000D01*
X169393099Y-117889941D01*
X169302531Y-117620505D01*
X169161139Y-117373915D01*
X168974356Y-117159647D01*
X168749361Y-116985936D01*
X168494799Y-116859457D01*
X168305059Y-116801905D01*
X168080000Y-116918852D01*
X167880000Y-116918852D01*
X167654941Y-116801905D01*
X167465201Y-116859457D01*
X167210639Y-116985936D01*
X166985644Y-117159647D01*
X166798861Y-117373915D01*
X166691935Y-117560396D01*
X166691935Y-117365000D01*
X166684212Y-117286586D01*
X166661340Y-117211186D01*
X166624197Y-117141697D01*
X166574211Y-117080789D01*
X166513303Y-117030803D01*
X166443814Y-116993660D01*
X166368414Y-116970788D01*
X166290000Y-116963065D01*
X164590000Y-116963065D01*
X164511586Y-116970788D01*
X164436186Y-116993660D01*
X164366697Y-117030803D01*
X164305789Y-117080789D01*
X164255803Y-117141697D01*
X164218660Y-117211186D01*
X164195788Y-117286586D01*
X164188065Y-117365000D01*
X148968457Y-117365000D01*
X149023592Y-117262782D01*
X148935505Y-117002854D01*
X148798401Y-116765105D01*
X148617549Y-116558672D01*
X148399899Y-116391488D01*
X148153815Y-116269978D01*
X147977218Y-116216412D01*
X147760000Y-116334006D01*
X147560000Y-116334006D01*
X147342782Y-116216412D01*
X147166185Y-116269978D01*
X146920101Y-116391488D01*
X146702451Y-116558672D01*
X146521599Y-116765105D01*
X146384495Y-117002854D01*
X146296408Y-117262782D01*
X144375411Y-117262782D01*
X144368884Y-117229973D01*
X144278426Y-117011587D01*
X144147101Y-116815045D01*
X143979955Y-116647899D01*
X143783413Y-116516574D01*
X143565027Y-116426116D01*
X143333190Y-116380000D01*
X143096810Y-116380000D01*
X142864973Y-116426116D01*
X142646587Y-116516574D01*
X142450045Y-116647899D01*
X142282899Y-116815045D01*
X142151574Y-117011587D01*
X142061116Y-117229973D01*
X142015000Y-117461810D01*
X131232862Y-117461810D01*
X131357442Y-117424019D01*
X131565910Y-117312591D01*
X131748634Y-117162634D01*
X131898591Y-116979910D01*
X132010019Y-116771442D01*
X132078637Y-116545241D01*
X132101806Y-116310000D01*
X132078637Y-116074759D01*
X132010019Y-115848558D01*
X131898591Y-115640090D01*
X131748634Y-115457366D01*
X131565910Y-115307409D01*
X131357442Y-115195981D01*
X131131241Y-115127363D01*
X130954950Y-115110000D01*
X130837050Y-115110000D01*
X130660759Y-115127363D01*
X130434558Y-115195981D01*
X130226090Y-115307409D01*
X130043366Y-115457366D01*
X129893409Y-115640090D01*
X129781981Y-115848558D01*
X129713363Y-116074759D01*
X129690194Y-116310000D01*
X116888935Y-116310000D01*
X116802101Y-116180045D01*
X116634955Y-116012899D01*
X116438413Y-115881574D01*
X116220027Y-115791116D01*
X115988190Y-115745000D01*
X115751810Y-115745000D01*
X115519973Y-115791116D01*
X115301587Y-115881574D01*
X115105045Y-116012899D01*
X114937899Y-116180045D01*
X114806574Y-116376587D01*
X114716116Y-116594973D01*
X114670000Y-116826810D01*
X114570000Y-116826810D01*
X114523884Y-116594973D01*
X114433426Y-116376587D01*
X114302101Y-116180045D01*
X114134955Y-116012899D01*
X113938413Y-115881574D01*
X113720027Y-115791116D01*
X113488190Y-115745000D01*
X113251810Y-115745000D01*
X113019973Y-115791116D01*
X112801587Y-115881574D01*
X112605045Y-116012899D01*
X112437899Y-116180045D01*
X112306574Y-116376587D01*
X112216116Y-116594973D01*
X112170000Y-116826810D01*
X100475000Y-116826810D01*
X100475000Y-113291762D01*
X100550006Y-113341879D01*
X100722895Y-113413492D01*
X100906433Y-113450000D01*
X101093567Y-113450000D01*
X101277105Y-113413492D01*
X101449994Y-113341879D01*
X101498065Y-113309759D01*
X101498065Y-114200000D01*
X101505788Y-114278414D01*
X101528660Y-114353814D01*
X101565803Y-114423303D01*
X101615789Y-114484211D01*
X101676697Y-114534197D01*
X101746186Y-114571340D01*
X101821586Y-114594212D01*
X101900000Y-114601935D01*
X103600000Y-114601935D01*
X103678414Y-114594212D01*
X103753814Y-114571340D01*
X103823303Y-114534197D01*
X103884211Y-114484211D01*
X103934197Y-114423303D01*
X103971340Y-114353814D01*
X103994212Y-114278414D01*
X104001935Y-114200000D01*
X104001935Y-110800000D01*
X106498065Y-110800000D01*
X106498065Y-114200000D01*
X106505788Y-114278414D01*
X106528660Y-114353814D01*
X106565803Y-114423303D01*
X106615789Y-114484211D01*
X106676697Y-114534197D01*
X106746186Y-114571340D01*
X106821586Y-114594212D01*
X106900000Y-114601935D01*
X108600000Y-114601935D01*
X108678414Y-114594212D01*
X108753814Y-114571340D01*
X108823303Y-114534197D01*
X108884211Y-114484211D01*
X108934197Y-114423303D01*
X108971340Y-114353814D01*
X108994212Y-114278414D01*
X109001935Y-114200000D01*
X109001935Y-113611810D01*
X112170000Y-113611810D01*
X112170000Y-113848190D01*
X112216116Y-114080027D01*
X112306574Y-114298413D01*
X112437899Y-114494955D01*
X112605045Y-114662101D01*
X112801587Y-114793426D01*
X113019973Y-114883884D01*
X113251810Y-114930000D01*
X113488190Y-114930000D01*
X113720027Y-114883884D01*
X113938413Y-114793426D01*
X114134955Y-114662101D01*
X114302101Y-114494955D01*
X114433426Y-114298413D01*
X114523884Y-114080027D01*
X114570000Y-113848190D01*
X114570000Y-113661659D01*
X115445000Y-113661659D01*
X115445000Y-113878341D01*
X115487273Y-114090858D01*
X115570193Y-114291045D01*
X115690575Y-114471209D01*
X115843791Y-114624425D01*
X116023955Y-114744807D01*
X116224142Y-114827727D01*
X116436659Y-114870000D01*
X116653341Y-114870000D01*
X116865858Y-114827727D01*
X117066045Y-114744807D01*
X117246209Y-114624425D01*
X117399425Y-114471209D01*
X117519807Y-114291045D01*
X117602727Y-114090858D01*
X117645000Y-113878341D01*
X117645000Y-113661659D01*
X117602727Y-113449142D01*
X117519807Y-113248955D01*
X117399425Y-113068791D01*
X117300634Y-112970000D01*
X118753065Y-112970000D01*
X118753065Y-114570000D01*
X118760788Y-114648414D01*
X118783660Y-114723814D01*
X118820803Y-114793303D01*
X118870789Y-114854211D01*
X118931697Y-114904197D01*
X119001186Y-114941340D01*
X119076586Y-114964212D01*
X119155000Y-114971935D01*
X121555000Y-114971935D01*
X121633414Y-114964212D01*
X121708814Y-114941340D01*
X121778303Y-114904197D01*
X121839211Y-114854211D01*
X121889197Y-114793303D01*
X121926340Y-114723814D01*
X121949212Y-114648414D01*
X121956935Y-114570000D01*
X121956935Y-113770000D01*
X126369194Y-113770000D01*
X126392363Y-114005241D01*
X126460981Y-114231442D01*
X126572409Y-114439910D01*
X126722366Y-114622634D01*
X126905090Y-114772591D01*
X127113558Y-114884019D01*
X127339759Y-114952637D01*
X127516050Y-114970000D01*
X128433950Y-114970000D01*
X128610241Y-114952637D01*
X128734641Y-114914900D01*
X135226521Y-114914900D01*
X135544078Y-115362225D01*
X136140053Y-115688809D01*
X136788290Y-115892850D01*
X137463877Y-115966505D01*
X138140852Y-115906944D01*
X138793201Y-115716456D01*
X139395852Y-115402362D01*
X139455922Y-115362225D01*
X139773479Y-114914900D01*
X137500000Y-112641421D01*
X135226521Y-114914900D01*
X128734641Y-114914900D01*
X128836442Y-114884019D01*
X129044910Y-114772591D01*
X129227634Y-114622634D01*
X129377591Y-114439910D01*
X129489019Y-114231442D01*
X129557637Y-114005241D01*
X129580806Y-113770000D01*
X129557637Y-113534759D01*
X129489019Y-113308558D01*
X129377591Y-113100090D01*
X129227634Y-112917366D01*
X129044910Y-112767409D01*
X128836442Y-112655981D01*
X128610241Y-112587363D01*
X128433950Y-112570000D01*
X127516050Y-112570000D01*
X127339759Y-112587363D01*
X127113558Y-112655981D01*
X126905090Y-112767409D01*
X126722366Y-112917366D01*
X126572409Y-113100090D01*
X126460981Y-113308558D01*
X126392363Y-113534759D01*
X126369194Y-113770000D01*
X121956935Y-113770000D01*
X121956935Y-112970000D01*
X121949212Y-112891586D01*
X121926340Y-112816186D01*
X121889197Y-112746697D01*
X121839211Y-112685789D01*
X121778303Y-112635803D01*
X121708814Y-112598660D01*
X121633414Y-112575788D01*
X121555000Y-112568065D01*
X119155000Y-112568065D01*
X119076586Y-112575788D01*
X119001186Y-112598660D01*
X118931697Y-112635803D01*
X118870789Y-112685789D01*
X118820803Y-112746697D01*
X118783660Y-112816186D01*
X118760788Y-112891586D01*
X118753065Y-112970000D01*
X117300634Y-112970000D01*
X117246209Y-112915575D01*
X117066045Y-112795193D01*
X116865858Y-112712273D01*
X116653341Y-112670000D01*
X116436659Y-112670000D01*
X116224142Y-112712273D01*
X116023955Y-112795193D01*
X115843791Y-112915575D01*
X115690575Y-113068791D01*
X115570193Y-113248955D01*
X115487273Y-113449142D01*
X115445000Y-113661659D01*
X114570000Y-113661659D01*
X114570000Y-113611810D01*
X114523884Y-113379973D01*
X114433426Y-113161587D01*
X114302101Y-112965045D01*
X114134955Y-112797899D01*
X113938413Y-112666574D01*
X113720027Y-112576116D01*
X113488190Y-112530000D01*
X113251810Y-112530000D01*
X113019973Y-112576116D01*
X112801587Y-112666574D01*
X112605045Y-112797899D01*
X112437899Y-112965045D01*
X112306574Y-113161587D01*
X112216116Y-113379973D01*
X112170000Y-113611810D01*
X109001935Y-113611810D01*
X109001935Y-113309759D01*
X109050006Y-113341879D01*
X109222895Y-113413492D01*
X109406433Y-113450000D01*
X109593567Y-113450000D01*
X109777105Y-113413492D01*
X109949994Y-113341879D01*
X110105590Y-113237913D01*
X110237913Y-113105590D01*
X110341879Y-112949994D01*
X110413492Y-112777105D01*
X110450000Y-112593567D01*
X110450000Y-112406433D01*
X110413492Y-112222895D01*
X110341879Y-112050006D01*
X110237913Y-111894410D01*
X110105590Y-111762087D01*
X109949994Y-111658121D01*
X109777105Y-111586508D01*
X109593567Y-111550000D01*
X109406433Y-111550000D01*
X109222895Y-111586508D01*
X109050006Y-111658121D01*
X109001935Y-111690241D01*
X109001935Y-111111810D01*
X112170000Y-111111810D01*
X112170000Y-111348190D01*
X112216116Y-111580027D01*
X112306574Y-111798413D01*
X112437899Y-111994955D01*
X112605045Y-112162101D01*
X112801587Y-112293426D01*
X113019973Y-112383884D01*
X113251810Y-112430000D01*
X113488190Y-112430000D01*
X113720027Y-112383884D01*
X113938413Y-112293426D01*
X114134955Y-112162101D01*
X114302101Y-111994955D01*
X114433426Y-111798413D01*
X114523884Y-111580027D01*
X114570000Y-111348190D01*
X114570000Y-111230000D01*
X115439678Y-111230000D01*
X115460916Y-111445638D01*
X115523816Y-111652988D01*
X115625958Y-111844084D01*
X115763419Y-112011581D01*
X115930916Y-112149042D01*
X116122012Y-112251184D01*
X116329362Y-112314084D01*
X116490964Y-112330000D01*
X116599036Y-112330000D01*
X116760638Y-112314084D01*
X116967988Y-112251184D01*
X117159084Y-112149042D01*
X117326581Y-112011581D01*
X117464042Y-111844084D01*
X117566184Y-111652988D01*
X117629084Y-111445638D01*
X117650322Y-111230000D01*
X117629084Y-111014362D01*
X117566184Y-110807012D01*
X117464042Y-110615916D01*
X117326581Y-110448419D01*
X117159084Y-110310958D01*
X116967988Y-110208816D01*
X116760638Y-110145916D01*
X116599036Y-110130000D01*
X116490964Y-110130000D01*
X116329362Y-110145916D01*
X116122012Y-110208816D01*
X115930916Y-110310958D01*
X115763419Y-110448419D01*
X115625958Y-110615916D01*
X115523816Y-110807012D01*
X115460916Y-111014362D01*
X115439678Y-111230000D01*
X114570000Y-111230000D01*
X114570000Y-111111810D01*
X114523884Y-110879973D01*
X114433426Y-110661587D01*
X114302101Y-110465045D01*
X114134955Y-110297899D01*
X113938413Y-110166574D01*
X113720027Y-110076116D01*
X113488190Y-110030000D01*
X113251810Y-110030000D01*
X113019973Y-110076116D01*
X112801587Y-110166574D01*
X112605045Y-110297899D01*
X112437899Y-110465045D01*
X112306574Y-110661587D01*
X112216116Y-110879973D01*
X112170000Y-111111810D01*
X109001935Y-111111810D01*
X109001935Y-110800000D01*
X108994212Y-110721586D01*
X108971340Y-110646186D01*
X108934197Y-110576697D01*
X108884211Y-110515789D01*
X108823303Y-110465803D01*
X108753814Y-110428660D01*
X108678414Y-110405788D01*
X108600000Y-110398065D01*
X106900000Y-110398065D01*
X106821586Y-110405788D01*
X106746186Y-110428660D01*
X106676697Y-110465803D01*
X106615789Y-110515789D01*
X106565803Y-110576697D01*
X106528660Y-110646186D01*
X106505788Y-110721586D01*
X106498065Y-110800000D01*
X104001935Y-110800000D01*
X103994212Y-110721586D01*
X103971340Y-110646186D01*
X103934197Y-110576697D01*
X103884211Y-110515789D01*
X103823303Y-110465803D01*
X103753814Y-110428660D01*
X103678414Y-110405788D01*
X103600000Y-110398065D01*
X101900000Y-110398065D01*
X101821586Y-110405788D01*
X101746186Y-110428660D01*
X101676697Y-110465803D01*
X101615789Y-110515789D01*
X101565803Y-110576697D01*
X101528660Y-110646186D01*
X101505788Y-110721586D01*
X101498065Y-110800000D01*
X101498065Y-111690241D01*
X101449994Y-111658121D01*
X101277105Y-111586508D01*
X101093567Y-111550000D01*
X100906433Y-111550000D01*
X100722895Y-111586508D01*
X100550006Y-111658121D01*
X100475000Y-111708238D01*
X100475000Y-108571810D01*
X112170000Y-108571810D01*
X112170000Y-108808190D01*
X112216116Y-109040027D01*
X112306574Y-109258413D01*
X112437899Y-109454955D01*
X112605045Y-109622101D01*
X112801587Y-109753426D01*
X113019973Y-109843884D01*
X113251810Y-109890000D01*
X113488190Y-109890000D01*
X113720027Y-109843884D01*
X113938413Y-109753426D01*
X114134955Y-109622101D01*
X114302101Y-109454955D01*
X114433426Y-109258413D01*
X114523884Y-109040027D01*
X114570000Y-108808190D01*
X114570000Y-108571810D01*
X115345000Y-108571810D01*
X115345000Y-108808190D01*
X115391116Y-109040027D01*
X115481574Y-109258413D01*
X115612899Y-109454955D01*
X115780045Y-109622101D01*
X115976587Y-109753426D01*
X116194973Y-109843884D01*
X116426810Y-109890000D01*
X116663190Y-109890000D01*
X116895027Y-109843884D01*
X117113413Y-109753426D01*
X117309955Y-109622101D01*
X117477101Y-109454955D01*
X117608426Y-109258413D01*
X117698884Y-109040027D01*
X117745000Y-108808190D01*
X117745000Y-108571810D01*
X117698884Y-108339973D01*
X117608426Y-108121587D01*
X117477101Y-107925045D01*
X117309955Y-107757899D01*
X117113413Y-107626574D01*
X116895027Y-107536116D01*
X116663190Y-107490000D01*
X116426810Y-107490000D01*
X116194973Y-107536116D01*
X115976587Y-107626574D01*
X115780045Y-107757899D01*
X115612899Y-107925045D01*
X115481574Y-108121587D01*
X115391116Y-108339973D01*
X115345000Y-108571810D01*
X114570000Y-108571810D01*
X114523884Y-108339973D01*
X114433426Y-108121587D01*
X114302101Y-107925045D01*
X114134955Y-107757899D01*
X113938413Y-107626574D01*
X113737875Y-107543509D01*
X113949496Y-107471874D01*
X114113888Y-107384004D01*
X114185145Y-107146566D01*
X113370000Y-106331421D01*
X112554855Y-107146566D01*
X112626112Y-107384004D01*
X112873344Y-107506187D01*
X113006075Y-107541873D01*
X112801587Y-107626574D01*
X112605045Y-107757899D01*
X112437899Y-107925045D01*
X112306574Y-108121587D01*
X112216116Y-108339973D01*
X112170000Y-108571810D01*
X100475000Y-108571810D01*
X100475000Y-107562202D01*
X101899220Y-107562202D01*
X101976509Y-107804750D01*
X102232259Y-107931925D01*
X102507906Y-108006762D01*
X102792856Y-108026386D01*
X103076159Y-107990042D01*
X103346928Y-107899125D01*
X103523491Y-107804750D01*
X103600780Y-107562202D01*
X106899220Y-107562202D01*
X106976509Y-107804750D01*
X107232259Y-107931925D01*
X107507906Y-108006762D01*
X107792856Y-108026386D01*
X108076159Y-107990042D01*
X108346928Y-107899125D01*
X108523491Y-107804750D01*
X108600780Y-107562202D01*
X107750000Y-106711421D01*
X106899220Y-107562202D01*
X103600780Y-107562202D01*
X102750000Y-106711421D01*
X101899220Y-107562202D01*
X100475000Y-107562202D01*
X100475000Y-106612856D01*
X101293614Y-106612856D01*
X101329958Y-106896159D01*
X101420875Y-107166928D01*
X101515250Y-107343491D01*
X101757798Y-107420780D01*
X102608579Y-106570000D01*
X102891421Y-106570000D01*
X103742202Y-107420780D01*
X103984750Y-107343491D01*
X104111925Y-107087741D01*
X104186762Y-106812094D01*
X104206386Y-106527144D01*
X104170042Y-106243841D01*
X104079125Y-105973072D01*
X103984750Y-105796509D01*
X103742202Y-105719220D01*
X102891421Y-106570000D01*
X102608579Y-106570000D01*
X101757798Y-105719220D01*
X101515250Y-105796509D01*
X101388075Y-106052259D01*
X101313238Y-106327906D01*
X101293614Y-106612856D01*
X100475000Y-106612856D01*
X100475000Y-106196750D01*
X101093952Y-105577798D01*
X101899220Y-105577798D01*
X102750000Y-106428579D01*
X103600780Y-105577798D01*
X103523491Y-105335250D01*
X103267741Y-105208075D01*
X102992094Y-105133238D01*
X102707144Y-105113614D01*
X102423841Y-105149958D01*
X102153072Y-105240875D01*
X101976509Y-105335250D01*
X101899220Y-105577798D01*
X101093952Y-105577798D01*
X101696751Y-104975000D01*
X104699915Y-104975000D01*
X104644410Y-105012087D01*
X104512087Y-105144410D01*
X104408121Y-105300006D01*
X104336508Y-105472895D01*
X104300000Y-105656433D01*
X104300000Y-105843567D01*
X104336508Y-106027105D01*
X104408121Y-106199994D01*
X104512087Y-106355590D01*
X104644410Y-106487913D01*
X104800006Y-106591879D01*
X104972895Y-106663492D01*
X105156433Y-106700000D01*
X105343567Y-106700000D01*
X105527105Y-106663492D01*
X105649351Y-106612856D01*
X106293614Y-106612856D01*
X106329958Y-106896159D01*
X106420875Y-107166928D01*
X106515250Y-107343491D01*
X106757798Y-107420780D01*
X107608579Y-106570000D01*
X107891421Y-106570000D01*
X108742202Y-107420780D01*
X108984750Y-107343491D01*
X109111925Y-107087741D01*
X109186762Y-106812094D01*
X109206386Y-106527144D01*
X109170042Y-106243841D01*
X109167018Y-106234833D01*
X111963940Y-106234833D01*
X111999703Y-106508280D01*
X112088126Y-106769496D01*
X112175996Y-106933888D01*
X112413434Y-107005145D01*
X113228579Y-106190000D01*
X113511421Y-106190000D01*
X114326566Y-107005145D01*
X114564004Y-106933888D01*
X114686187Y-106686656D01*
X114757789Y-106420337D01*
X114776060Y-106145167D01*
X114740297Y-105871720D01*
X114651874Y-105610504D01*
X114564004Y-105446112D01*
X114326566Y-105374855D01*
X113511421Y-106190000D01*
X113228579Y-106190000D01*
X112413434Y-105374855D01*
X112175996Y-105446112D01*
X112053813Y-105693344D01*
X111982211Y-105959663D01*
X111963940Y-106234833D01*
X109167018Y-106234833D01*
X109079125Y-105973072D01*
X108984750Y-105796509D01*
X108742202Y-105719220D01*
X107891421Y-106570000D01*
X107608579Y-106570000D01*
X106757798Y-105719220D01*
X106515250Y-105796509D01*
X106388075Y-106052259D01*
X106313238Y-106327906D01*
X106293614Y-106612856D01*
X105649351Y-106612856D01*
X105699994Y-106591879D01*
X105855590Y-106487913D01*
X105987913Y-106355590D01*
X106091879Y-106199994D01*
X106163492Y-106027105D01*
X106200000Y-105843567D01*
X106200000Y-105656433D01*
X106184359Y-105577798D01*
X106899220Y-105577798D01*
X107750000Y-106428579D01*
X108600780Y-105577798D01*
X108523491Y-105335250D01*
X108318739Y-105233434D01*
X112554855Y-105233434D01*
X113370000Y-106048579D01*
X114185145Y-105233434D01*
X114113888Y-104995996D01*
X113879176Y-104880000D01*
X118504000Y-104880000D01*
X118504000Y-107337305D01*
X118507843Y-107376323D01*
X118519224Y-107413842D01*
X118537706Y-107448419D01*
X118562579Y-107478726D01*
X118592886Y-107503599D01*
X118627463Y-107522081D01*
X118664982Y-107533462D01*
X118704000Y-107537305D01*
X119621054Y-107537305D01*
X119493558Y-107575981D01*
X119285090Y-107687409D01*
X119102366Y-107837366D01*
X118952409Y-108020090D01*
X118840981Y-108228558D01*
X118772363Y-108454759D01*
X118749194Y-108690000D01*
X118772363Y-108925241D01*
X118840981Y-109151442D01*
X118952409Y-109359910D01*
X119102366Y-109542634D01*
X119285090Y-109692591D01*
X119493558Y-109804019D01*
X119719759Y-109872637D01*
X119896050Y-109890000D01*
X120813950Y-109890000D01*
X120990241Y-109872637D01*
X121216442Y-109804019D01*
X121424910Y-109692591D01*
X121594625Y-109553310D01*
X121547211Y-109729663D01*
X121528940Y-110004833D01*
X121564703Y-110278280D01*
X121594632Y-110366696D01*
X121424910Y-110227409D01*
X121216442Y-110115981D01*
X120990241Y-110047363D01*
X120813950Y-110030000D01*
X119896050Y-110030000D01*
X119719759Y-110047363D01*
X119493558Y-110115981D01*
X119285090Y-110227409D01*
X119102366Y-110377366D01*
X118952409Y-110560090D01*
X118840981Y-110768558D01*
X118772363Y-110994759D01*
X118749194Y-111230000D01*
X118772363Y-111465241D01*
X118840981Y-111691442D01*
X118952409Y-111899910D01*
X119102366Y-112082634D01*
X119285090Y-112232591D01*
X119493558Y-112344019D01*
X119719759Y-112412637D01*
X119896050Y-112430000D01*
X120813950Y-112430000D01*
X120990241Y-112412637D01*
X121216442Y-112344019D01*
X121424910Y-112232591D01*
X121607634Y-112082634D01*
X121757591Y-111899910D01*
X121869019Y-111691442D01*
X121937637Y-111465241D01*
X121960806Y-111230000D01*
X121937637Y-110994759D01*
X121913918Y-110916566D01*
X122119855Y-110916566D01*
X122191112Y-111154004D01*
X122438344Y-111276187D01*
X122704663Y-111347789D01*
X122979833Y-111366060D01*
X123253280Y-111330297D01*
X123514496Y-111241874D01*
X123536710Y-111230000D01*
X126369194Y-111230000D01*
X126392363Y-111465241D01*
X126460981Y-111691442D01*
X126572409Y-111899910D01*
X126722366Y-112082634D01*
X126905090Y-112232591D01*
X127113558Y-112344019D01*
X127339759Y-112412637D01*
X127516050Y-112430000D01*
X128433950Y-112430000D01*
X128610241Y-112412637D01*
X128836442Y-112344019D01*
X129044910Y-112232591D01*
X129227634Y-112082634D01*
X129377591Y-111899910D01*
X129489019Y-111691442D01*
X129557637Y-111465241D01*
X129580806Y-111230000D01*
X129557637Y-110994759D01*
X129489019Y-110768558D01*
X129377591Y-110560090D01*
X129227634Y-110377366D01*
X129044910Y-110227409D01*
X128836442Y-110115981D01*
X128610241Y-110047363D01*
X128433950Y-110030000D01*
X127516050Y-110030000D01*
X127339759Y-110047363D01*
X127113558Y-110115981D01*
X126905090Y-110227409D01*
X126722366Y-110377366D01*
X126572409Y-110560090D01*
X126460981Y-110768558D01*
X126392363Y-110994759D01*
X126369194Y-111230000D01*
X123536710Y-111230000D01*
X123678888Y-111154004D01*
X123750145Y-110916566D01*
X122935000Y-110101421D01*
X122119855Y-110916566D01*
X121913918Y-110916566D01*
X121869019Y-110768558D01*
X121852308Y-110737294D01*
X121978434Y-110775145D01*
X122793579Y-109960000D01*
X123076421Y-109960000D01*
X123891566Y-110775145D01*
X124129004Y-110703888D01*
X124251187Y-110456656D01*
X124286873Y-110323925D01*
X124371574Y-110528413D01*
X124502899Y-110724955D01*
X124670045Y-110892101D01*
X124866587Y-111023426D01*
X125084973Y-111113884D01*
X125316810Y-111160000D01*
X125553190Y-111160000D01*
X125785027Y-111113884D01*
X126003413Y-111023426D01*
X126199955Y-110892101D01*
X126367101Y-110724955D01*
X126498426Y-110528413D01*
X126588884Y-110310027D01*
X126635000Y-110078190D01*
X126635000Y-109841810D01*
X126588884Y-109609973D01*
X126498426Y-109391587D01*
X126367101Y-109195045D01*
X126199955Y-109027899D01*
X126003413Y-108896574D01*
X125785027Y-108806116D01*
X125553190Y-108760000D01*
X125316810Y-108760000D01*
X125084973Y-108806116D01*
X124866587Y-108896574D01*
X124670045Y-109027899D01*
X124502899Y-109195045D01*
X124371574Y-109391587D01*
X124288509Y-109592125D01*
X124216874Y-109380504D01*
X124129004Y-109216112D01*
X123891566Y-109144855D01*
X123076421Y-109960000D01*
X122793579Y-109960000D01*
X121978434Y-109144855D01*
X121852308Y-109182706D01*
X121869019Y-109151442D01*
X121913917Y-109003434D01*
X122119855Y-109003434D01*
X122935000Y-109818579D01*
X123750145Y-109003434D01*
X123678888Y-108765996D01*
X123525114Y-108690000D01*
X126369194Y-108690000D01*
X126392363Y-108925241D01*
X126460981Y-109151442D01*
X126572409Y-109359910D01*
X126722366Y-109542634D01*
X126905090Y-109692591D01*
X127113558Y-109804019D01*
X127339759Y-109872637D01*
X127516050Y-109890000D01*
X128433950Y-109890000D01*
X128610241Y-109872637D01*
X128836442Y-109804019D01*
X129044910Y-109692591D01*
X129227634Y-109542634D01*
X129377591Y-109359910D01*
X129489019Y-109151442D01*
X129557637Y-108925241D01*
X129580806Y-108690000D01*
X129569166Y-108571810D01*
X129696000Y-108571810D01*
X129696000Y-108808190D01*
X129742116Y-109040027D01*
X129832574Y-109258413D01*
X129963899Y-109454955D01*
X130131045Y-109622101D01*
X130327587Y-109753426D01*
X130545973Y-109843884D01*
X130777810Y-109890000D01*
X131014190Y-109890000D01*
X131055363Y-109881810D01*
X132490000Y-109881810D01*
X132490000Y-110118190D01*
X132536116Y-110350027D01*
X132626574Y-110568413D01*
X132757899Y-110764955D01*
X132925045Y-110932101D01*
X133121587Y-111063426D01*
X133339973Y-111153884D01*
X133571810Y-111200000D01*
X133808190Y-111200000D01*
X134040027Y-111153884D01*
X134258413Y-111063426D01*
X134407925Y-110963525D01*
X134311191Y-111140053D01*
X134107150Y-111788290D01*
X134033495Y-112463877D01*
X134093056Y-113140852D01*
X134283544Y-113793201D01*
X134597638Y-114395852D01*
X134637775Y-114455922D01*
X135085100Y-114773479D01*
X137358579Y-112500000D01*
X137641421Y-112500000D01*
X139914900Y-114773479D01*
X140362225Y-114455922D01*
X140688809Y-113859947D01*
X140892850Y-113211710D01*
X140966505Y-112536123D01*
X140906944Y-111859148D01*
X140750419Y-111323107D01*
X142150961Y-111323107D01*
X143553243Y-115175846D01*
X145143397Y-114597077D01*
X147192361Y-115780047D01*
X147436481Y-115357218D01*
X150106412Y-115357218D01*
X150159978Y-115533815D01*
X150281488Y-115779899D01*
X150448672Y-115997549D01*
X150655105Y-116178401D01*
X150892854Y-116315505D01*
X151152782Y-116403592D01*
X151370000Y-116286428D01*
X151370000Y-115140000D01*
X151570000Y-115140000D01*
X151570000Y-116286428D01*
X151787218Y-116403592D01*
X152047146Y-116315505D01*
X152284895Y-116178401D01*
X152491328Y-115997549D01*
X152658512Y-115779899D01*
X152780022Y-115533815D01*
X152833588Y-115357218D01*
X152715994Y-115140000D01*
X151570000Y-115140000D01*
X151370000Y-115140000D01*
X150224006Y-115140000D01*
X150106412Y-115357218D01*
X147436481Y-115357218D01*
X147802772Y-114722782D01*
X150106412Y-114722782D01*
X150224006Y-114940000D01*
X151370000Y-114940000D01*
X151370000Y-113793572D01*
X151570000Y-113793572D01*
X151570000Y-114940000D01*
X152715994Y-114940000D01*
X152725841Y-114921810D01*
X160430000Y-114921810D01*
X160430000Y-115158190D01*
X160476116Y-115390027D01*
X160566574Y-115608413D01*
X160697899Y-115804955D01*
X160865045Y-115972101D01*
X161061587Y-116103426D01*
X161279973Y-116193884D01*
X161511810Y-116240000D01*
X161748190Y-116240000D01*
X161980027Y-116193884D01*
X162198413Y-116103426D01*
X162394955Y-115972101D01*
X162562101Y-115804955D01*
X162693426Y-115608413D01*
X162783884Y-115390027D01*
X162830000Y-115158190D01*
X162830000Y-114921810D01*
X162822044Y-114881810D01*
X164240000Y-114881810D01*
X164240000Y-115118190D01*
X164286116Y-115350027D01*
X164376574Y-115568413D01*
X164507899Y-115764955D01*
X164675045Y-115932101D01*
X164871587Y-116063426D01*
X165089973Y-116153884D01*
X165321810Y-116200000D01*
X165558190Y-116200000D01*
X165790027Y-116153884D01*
X166008413Y-116063426D01*
X166168340Y-115956566D01*
X167164855Y-115956566D01*
X167236112Y-116194004D01*
X167483344Y-116316187D01*
X167749663Y-116387789D01*
X168024833Y-116406060D01*
X168298280Y-116370297D01*
X168559496Y-116281874D01*
X168723888Y-116194004D01*
X168795145Y-115956566D01*
X167980000Y-115141421D01*
X167164855Y-115956566D01*
X166168340Y-115956566D01*
X166204955Y-115932101D01*
X166372101Y-115764955D01*
X166503426Y-115568413D01*
X166593884Y-115350027D01*
X166605933Y-115289454D01*
X166609703Y-115318280D01*
X166698126Y-115579496D01*
X166785996Y-115743888D01*
X167023434Y-115815145D01*
X167838579Y-115000000D01*
X168121421Y-115000000D01*
X168936566Y-115815145D01*
X169174004Y-115743888D01*
X169296187Y-115496656D01*
X169367789Y-115230337D01*
X169386060Y-114955167D01*
X169350297Y-114681720D01*
X169261874Y-114420504D01*
X169174004Y-114256112D01*
X168936566Y-114184855D01*
X168121421Y-115000000D01*
X167838579Y-115000000D01*
X167023434Y-114184855D01*
X166785996Y-114256112D01*
X166663813Y-114503344D01*
X166606857Y-114715190D01*
X166593884Y-114649973D01*
X166503426Y-114431587D01*
X166372101Y-114235045D01*
X166204955Y-114067899D01*
X166008413Y-113936574D01*
X165790027Y-113846116D01*
X165558190Y-113800000D01*
X165321810Y-113800000D01*
X165089973Y-113846116D01*
X164871587Y-113936574D01*
X164675045Y-114067899D01*
X164507899Y-114235045D01*
X164376574Y-114431587D01*
X164286116Y-114649973D01*
X164240000Y-114881810D01*
X162822044Y-114881810D01*
X162783884Y-114689973D01*
X162693426Y-114471587D01*
X162562101Y-114275045D01*
X162394955Y-114107899D01*
X162198413Y-113976574D01*
X161980027Y-113886116D01*
X161748190Y-113840000D01*
X161511810Y-113840000D01*
X161279973Y-113886116D01*
X161061587Y-113976574D01*
X160865045Y-114107899D01*
X160697899Y-114275045D01*
X160566574Y-114471587D01*
X160476116Y-114689973D01*
X160430000Y-114921810D01*
X152725841Y-114921810D01*
X152833588Y-114722782D01*
X152780022Y-114546185D01*
X152658512Y-114300101D01*
X152491328Y-114082451D01*
X152284895Y-113901599D01*
X152047146Y-113764495D01*
X151787218Y-113676408D01*
X151570000Y-113793572D01*
X151370000Y-113793572D01*
X151152782Y-113676408D01*
X150892854Y-113764495D01*
X150655105Y-113901599D01*
X150448672Y-114082451D01*
X150281488Y-114300101D01*
X150159978Y-114546185D01*
X150106412Y-114722782D01*
X147802772Y-114722782D01*
X149242361Y-112229342D01*
X147306738Y-111111810D01*
X150270000Y-111111810D01*
X150270000Y-111348190D01*
X150316116Y-111580027D01*
X150406574Y-111798413D01*
X150537899Y-111994955D01*
X150705045Y-112162101D01*
X150901587Y-112293426D01*
X151119973Y-112383884D01*
X151351810Y-112430000D01*
X151588190Y-112430000D01*
X151820027Y-112383884D01*
X152038413Y-112293426D01*
X152234955Y-112162101D01*
X152402101Y-111994955D01*
X152533426Y-111798413D01*
X152623884Y-111580027D01*
X152670000Y-111348190D01*
X152670000Y-111230000D01*
X160424194Y-111230000D01*
X160447363Y-111465241D01*
X160515981Y-111691442D01*
X160627409Y-111899910D01*
X160777366Y-112082634D01*
X160960090Y-112232591D01*
X161168558Y-112344019D01*
X161394759Y-112412637D01*
X161571050Y-112430000D01*
X161688950Y-112430000D01*
X161865241Y-112412637D01*
X161923381Y-112395000D01*
X164116097Y-112395000D01*
X164127682Y-112512620D01*
X164161991Y-112625721D01*
X164217705Y-112729954D01*
X164276477Y-112801567D01*
X164286116Y-112850027D01*
X164376574Y-113068413D01*
X164507899Y-113264955D01*
X164675045Y-113432101D01*
X164871587Y-113563426D01*
X165089973Y-113653884D01*
X165321810Y-113700000D01*
X165558190Y-113700000D01*
X165790027Y-113653884D01*
X166008413Y-113563426D01*
X166204955Y-113432101D01*
X166372101Y-113264955D01*
X166503426Y-113068413D01*
X166593884Y-112850027D01*
X166640000Y-112618190D01*
X166640000Y-112381810D01*
X166780000Y-112381810D01*
X166780000Y-112618190D01*
X166826116Y-112850027D01*
X166916574Y-113068413D01*
X167047899Y-113264955D01*
X167215045Y-113432101D01*
X167411587Y-113563426D01*
X167612125Y-113646491D01*
X167400504Y-113718126D01*
X167236112Y-113805996D01*
X167164855Y-114043434D01*
X167980000Y-114858579D01*
X168795145Y-114043434D01*
X168723888Y-113805996D01*
X168476656Y-113683813D01*
X168343925Y-113648127D01*
X168548413Y-113563426D01*
X168744955Y-113432101D01*
X168912101Y-113264955D01*
X169043426Y-113068413D01*
X169133884Y-112850027D01*
X169180000Y-112618190D01*
X169180000Y-112381810D01*
X169133884Y-112149973D01*
X169043426Y-111931587D01*
X168912101Y-111735045D01*
X168744955Y-111567899D01*
X168548413Y-111436574D01*
X168330027Y-111346116D01*
X168098190Y-111300000D01*
X167861810Y-111300000D01*
X167629973Y-111346116D01*
X167411587Y-111436574D01*
X167215045Y-111567899D01*
X167047899Y-111735045D01*
X166916574Y-111931587D01*
X166826116Y-112149973D01*
X166780000Y-112381810D01*
X166640000Y-112381810D01*
X166593884Y-112149973D01*
X166503426Y-111931587D01*
X166372101Y-111735045D01*
X166204955Y-111567899D01*
X166008413Y-111436574D01*
X165790027Y-111346116D01*
X165558190Y-111300000D01*
X165321810Y-111300000D01*
X165296674Y-111305000D01*
X165238476Y-111305000D01*
X165209000Y-111302097D01*
X165091379Y-111313681D01*
X164984457Y-111346116D01*
X164978279Y-111347990D01*
X164874045Y-111403704D01*
X164782683Y-111478683D01*
X164763891Y-111501581D01*
X164742937Y-111522535D01*
X164675045Y-111567899D01*
X164507899Y-111735045D01*
X164462534Y-111802939D01*
X164273895Y-111991578D01*
X164217705Y-112060046D01*
X164161991Y-112164279D01*
X164127682Y-112277380D01*
X164116097Y-112395000D01*
X161923381Y-112395000D01*
X162091442Y-112344019D01*
X162299910Y-112232591D01*
X162482634Y-112082634D01*
X162632591Y-111899910D01*
X162744019Y-111691442D01*
X162812637Y-111465241D01*
X162835806Y-111230000D01*
X162812637Y-110994759D01*
X162744019Y-110768558D01*
X162632591Y-110560090D01*
X162482634Y-110377366D01*
X162299910Y-110227409D01*
X162091442Y-110115981D01*
X161865241Y-110047363D01*
X161688950Y-110030000D01*
X161571050Y-110030000D01*
X161394759Y-110047363D01*
X161168558Y-110115981D01*
X160960090Y-110227409D01*
X160777366Y-110377366D01*
X160627409Y-110560090D01*
X160515981Y-110768558D01*
X160447363Y-110994759D01*
X160424194Y-111230000D01*
X152670000Y-111230000D01*
X152670000Y-111111810D01*
X152623884Y-110879973D01*
X152533426Y-110661587D01*
X152402101Y-110465045D01*
X152234955Y-110297899D01*
X152038413Y-110166574D01*
X151820027Y-110076116D01*
X151588190Y-110030000D01*
X151351810Y-110030000D01*
X151119973Y-110076116D01*
X150901587Y-110166574D01*
X150705045Y-110297899D01*
X150537899Y-110465045D01*
X150406574Y-110661587D01*
X150316116Y-110879973D01*
X150270000Y-111111810D01*
X147306738Y-111111810D01*
X147125160Y-111006976D01*
X146694916Y-108566938D01*
X143642012Y-109105248D01*
X143919574Y-110679384D01*
X142150961Y-111323107D01*
X140750419Y-111323107D01*
X140716456Y-111206799D01*
X140402362Y-110604148D01*
X140362225Y-110544078D01*
X139914900Y-110226521D01*
X137641421Y-112500000D01*
X137358579Y-112500000D01*
X135085100Y-110226521D01*
X134815877Y-110417643D01*
X134843884Y-110350027D01*
X134890000Y-110118190D01*
X134890000Y-110085100D01*
X135226521Y-110085100D01*
X137500000Y-112358579D01*
X139773479Y-110085100D01*
X139455922Y-109637775D01*
X138859947Y-109311191D01*
X138211710Y-109107150D01*
X137536123Y-109033495D01*
X136859148Y-109093056D01*
X136206799Y-109283544D01*
X135604148Y-109597638D01*
X135544078Y-109637775D01*
X135226521Y-110085100D01*
X134890000Y-110085100D01*
X134890000Y-109881810D01*
X134843884Y-109649973D01*
X134753426Y-109431587D01*
X134622101Y-109235045D01*
X134454955Y-109067899D01*
X134258413Y-108936574D01*
X134040027Y-108846116D01*
X133808190Y-108800000D01*
X133571810Y-108800000D01*
X133339973Y-108846116D01*
X133121587Y-108936574D01*
X132925045Y-109067899D01*
X132757899Y-109235045D01*
X132626574Y-109431587D01*
X132536116Y-109649973D01*
X132490000Y-109881810D01*
X131055363Y-109881810D01*
X131246027Y-109843884D01*
X131464413Y-109753426D01*
X131660955Y-109622101D01*
X131828101Y-109454955D01*
X131959426Y-109258413D01*
X132049884Y-109040027D01*
X132096000Y-108808190D01*
X132096000Y-108571810D01*
X132049884Y-108339973D01*
X131959426Y-108121587D01*
X131828101Y-107925045D01*
X131660955Y-107757899D01*
X131464413Y-107626574D01*
X131246027Y-107536116D01*
X131014190Y-107490000D01*
X130777810Y-107490000D01*
X130545973Y-107536116D01*
X130327587Y-107626574D01*
X130131045Y-107757899D01*
X129963899Y-107925045D01*
X129832574Y-108121587D01*
X129742116Y-108339973D01*
X129696000Y-108571810D01*
X129569166Y-108571810D01*
X129557637Y-108454759D01*
X129489019Y-108228558D01*
X129377591Y-108020090D01*
X129227634Y-107837366D01*
X129044910Y-107687409D01*
X128836442Y-107575981D01*
X128610241Y-107507363D01*
X128433950Y-107490000D01*
X127516050Y-107490000D01*
X127339759Y-107507363D01*
X127113558Y-107575981D01*
X126905090Y-107687409D01*
X126722366Y-107837366D01*
X126572409Y-108020090D01*
X126460981Y-108228558D01*
X126392363Y-108454759D01*
X126369194Y-108690000D01*
X123525114Y-108690000D01*
X123431656Y-108643813D01*
X123165337Y-108572211D01*
X122890167Y-108553940D01*
X122616720Y-108589703D01*
X122355504Y-108678126D01*
X122191112Y-108765996D01*
X122119855Y-109003434D01*
X121913917Y-109003434D01*
X121937637Y-108925241D01*
X121960806Y-108690000D01*
X121937637Y-108454759D01*
X121869019Y-108228558D01*
X121757591Y-108020090D01*
X121607634Y-107837366D01*
X121424910Y-107687409D01*
X121216442Y-107575981D01*
X121088946Y-107537305D01*
X122006000Y-107537305D01*
X122045018Y-107533462D01*
X122082537Y-107522081D01*
X122117114Y-107503599D01*
X122147421Y-107478726D01*
X122172294Y-107448419D01*
X122190776Y-107413842D01*
X122202157Y-107376323D01*
X122206000Y-107337305D01*
X122206000Y-106150000D01*
X126369194Y-106150000D01*
X126392363Y-106385241D01*
X126460981Y-106611442D01*
X126572409Y-106819910D01*
X126722366Y-107002634D01*
X126905090Y-107152591D01*
X127113558Y-107264019D01*
X127339759Y-107332637D01*
X127516050Y-107350000D01*
X128433950Y-107350000D01*
X128610241Y-107332637D01*
X128836442Y-107264019D01*
X128840574Y-107261810D01*
X136300000Y-107261810D01*
X136300000Y-107498190D01*
X136346116Y-107730027D01*
X136436574Y-107948413D01*
X136567899Y-108144955D01*
X136735045Y-108312101D01*
X136931587Y-108443426D01*
X137149973Y-108533884D01*
X137381810Y-108580000D01*
X137618190Y-108580000D01*
X137850027Y-108533884D01*
X138068413Y-108443426D01*
X138264955Y-108312101D01*
X138432101Y-108144955D01*
X138563426Y-107948413D01*
X138653884Y-107730027D01*
X138700000Y-107498190D01*
X138700000Y-107420000D01*
X142009194Y-107420000D01*
X142032363Y-107655241D01*
X142100981Y-107881442D01*
X142212409Y-108089910D01*
X142362366Y-108272634D01*
X142545090Y-108422591D01*
X142753558Y-108534019D01*
X142979759Y-108602637D01*
X143156050Y-108620000D01*
X143273950Y-108620000D01*
X143450241Y-108602637D01*
X143676442Y-108534019D01*
X143884910Y-108422591D01*
X144067634Y-108272634D01*
X144217591Y-108089910D01*
X144329019Y-107881442D01*
X144397637Y-107655241D01*
X144420806Y-107420000D01*
X144409166Y-107301810D01*
X146460000Y-107301810D01*
X146460000Y-107538190D01*
X146506116Y-107770027D01*
X146596574Y-107988413D01*
X146727899Y-108184955D01*
X146895045Y-108352101D01*
X147091587Y-108483426D01*
X147309973Y-108573884D01*
X147541810Y-108620000D01*
X147778190Y-108620000D01*
X148010027Y-108573884D01*
X148228413Y-108483426D01*
X148241023Y-108475000D01*
X164188065Y-108475000D01*
X164188065Y-110175000D01*
X164195788Y-110253414D01*
X164218660Y-110328814D01*
X164255803Y-110398303D01*
X164305789Y-110459211D01*
X164366697Y-110509197D01*
X164436186Y-110546340D01*
X164511586Y-110569212D01*
X164590000Y-110576935D01*
X166290000Y-110576935D01*
X166368414Y-110569212D01*
X166443814Y-110546340D01*
X166513303Y-110509197D01*
X166574211Y-110459211D01*
X166624197Y-110398303D01*
X166661340Y-110328814D01*
X166684212Y-110253414D01*
X166691935Y-110175000D01*
X166691935Y-109979604D01*
X166798861Y-110166085D01*
X166985644Y-110380353D01*
X167210639Y-110554064D01*
X167465201Y-110680543D01*
X167654941Y-110738095D01*
X167880000Y-110621148D01*
X167880000Y-109425000D01*
X168080000Y-109425000D01*
X168080000Y-110621148D01*
X168305059Y-110738095D01*
X168494799Y-110680543D01*
X168749361Y-110554064D01*
X168974356Y-110380353D01*
X169161139Y-110166085D01*
X169302531Y-109919495D01*
X169393099Y-109650059D01*
X169276552Y-109425000D01*
X168080000Y-109425000D01*
X167880000Y-109425000D01*
X167860000Y-109425000D01*
X167860000Y-109225000D01*
X167880000Y-109225000D01*
X167880000Y-108028852D01*
X168080000Y-108028852D01*
X168080000Y-109225000D01*
X169276552Y-109225000D01*
X169393099Y-108999941D01*
X169302531Y-108730505D01*
X169161139Y-108483915D01*
X168974356Y-108269647D01*
X168749361Y-108095936D01*
X168494799Y-107969457D01*
X168305059Y-107911905D01*
X168080000Y-108028852D01*
X167880000Y-108028852D01*
X167654941Y-107911905D01*
X167465201Y-107969457D01*
X167210639Y-108095936D01*
X166985644Y-108269647D01*
X166798861Y-108483915D01*
X166691935Y-108670396D01*
X166691935Y-108475000D01*
X166684212Y-108396586D01*
X166661340Y-108321186D01*
X166624197Y-108251697D01*
X166574211Y-108190789D01*
X166513303Y-108140803D01*
X166443814Y-108103660D01*
X166368414Y-108080788D01*
X166290000Y-108073065D01*
X164590000Y-108073065D01*
X164511586Y-108080788D01*
X164436186Y-108103660D01*
X164366697Y-108140803D01*
X164305789Y-108190789D01*
X164255803Y-108251697D01*
X164218660Y-108321186D01*
X164195788Y-108396586D01*
X164188065Y-108475000D01*
X148241023Y-108475000D01*
X148424955Y-108352101D01*
X148592101Y-108184955D01*
X148723426Y-107988413D01*
X148813884Y-107770027D01*
X148860000Y-107538190D01*
X148860000Y-107301810D01*
X148813884Y-107069973D01*
X148723426Y-106851587D01*
X148592101Y-106655045D01*
X148424955Y-106487899D01*
X148228413Y-106356574D01*
X148010027Y-106266116D01*
X147778190Y-106220000D01*
X147541810Y-106220000D01*
X147309973Y-106266116D01*
X147091587Y-106356574D01*
X146895045Y-106487899D01*
X146727899Y-106655045D01*
X146596574Y-106851587D01*
X146506116Y-107069973D01*
X146460000Y-107301810D01*
X144409166Y-107301810D01*
X144397637Y-107184759D01*
X144329019Y-106958558D01*
X144217591Y-106750090D01*
X144067634Y-106567366D01*
X143884910Y-106417409D01*
X143676442Y-106305981D01*
X143450241Y-106237363D01*
X143273950Y-106220000D01*
X143156050Y-106220000D01*
X142979759Y-106237363D01*
X142753558Y-106305981D01*
X142545090Y-106417409D01*
X142362366Y-106567366D01*
X142212409Y-106750090D01*
X142100981Y-106958558D01*
X142032363Y-107184759D01*
X142009194Y-107420000D01*
X138700000Y-107420000D01*
X138700000Y-107261810D01*
X138653884Y-107029973D01*
X138563426Y-106811587D01*
X138432101Y-106615045D01*
X138264955Y-106447899D01*
X138068413Y-106316574D01*
X137850027Y-106226116D01*
X137618190Y-106180000D01*
X137381810Y-106180000D01*
X137149973Y-106226116D01*
X136931587Y-106316574D01*
X136735045Y-106447899D01*
X136567899Y-106615045D01*
X136436574Y-106811587D01*
X136346116Y-107029973D01*
X136300000Y-107261810D01*
X128840574Y-107261810D01*
X129044910Y-107152591D01*
X129227634Y-107002634D01*
X129377591Y-106819910D01*
X129489019Y-106611442D01*
X129557637Y-106385241D01*
X129580806Y-106150000D01*
X129557637Y-105914759D01*
X129489019Y-105688558D01*
X129377591Y-105480090D01*
X129227634Y-105297366D01*
X129044910Y-105147409D01*
X128836442Y-105035981D01*
X128610241Y-104967363D01*
X128433950Y-104950000D01*
X127516050Y-104950000D01*
X127339759Y-104967363D01*
X127113558Y-105035981D01*
X126905090Y-105147409D01*
X126722366Y-105297366D01*
X126572409Y-105480090D01*
X126460981Y-105688558D01*
X126392363Y-105914759D01*
X126369194Y-106150000D01*
X122206000Y-106150000D01*
X122206000Y-104880000D01*
X122202157Y-104840982D01*
X122190776Y-104803463D01*
X122172294Y-104768886D01*
X122166487Y-104761810D01*
X136300000Y-104761810D01*
X136300000Y-104998190D01*
X136346116Y-105230027D01*
X136436574Y-105448413D01*
X136567899Y-105644955D01*
X136735045Y-105812101D01*
X136931587Y-105943426D01*
X137149973Y-106033884D01*
X137290581Y-106061853D01*
X137298120Y-106065883D01*
X137397084Y-106095903D01*
X137500000Y-106106040D01*
X137602917Y-106095903D01*
X137701880Y-106065883D01*
X137709420Y-106061853D01*
X137850027Y-106033884D01*
X138068413Y-105943426D01*
X138264955Y-105812101D01*
X138432101Y-105644955D01*
X138563426Y-105448413D01*
X138653884Y-105230027D01*
X138700000Y-104998190D01*
X138700000Y-104914900D01*
X152626521Y-104914900D01*
X152944078Y-105362225D01*
X153540053Y-105688809D01*
X154188290Y-105892850D01*
X154863877Y-105966505D01*
X155540852Y-105906944D01*
X156193201Y-105716456D01*
X156795852Y-105402362D01*
X156855922Y-105362225D01*
X157051981Y-105086047D01*
X167197471Y-105086047D01*
X167285894Y-105347263D01*
X167423579Y-105586209D01*
X167605234Y-105793703D01*
X167823879Y-105961771D01*
X168071111Y-106083954D01*
X168249487Y-106138063D01*
X168467767Y-106020556D01*
X168467767Y-104867767D01*
X168667767Y-104867767D01*
X168667767Y-106020556D01*
X168886047Y-106138063D01*
X169147263Y-106049640D01*
X169386209Y-105911955D01*
X169593703Y-105730300D01*
X169761771Y-105511655D01*
X169883954Y-105264423D01*
X169938063Y-105086047D01*
X169820556Y-104867767D01*
X168667767Y-104867767D01*
X168467767Y-104867767D01*
X167314978Y-104867767D01*
X167197471Y-105086047D01*
X157051981Y-105086047D01*
X157173479Y-104914900D01*
X154900000Y-102641421D01*
X152626521Y-104914900D01*
X138700000Y-104914900D01*
X138700000Y-104761810D01*
X138653884Y-104529973D01*
X138563426Y-104311587D01*
X138432101Y-104115045D01*
X138264955Y-103947899D01*
X138068413Y-103816574D01*
X137850027Y-103726116D01*
X137618190Y-103680000D01*
X137381810Y-103680000D01*
X137149973Y-103726116D01*
X136931587Y-103816574D01*
X136735045Y-103947899D01*
X136567899Y-104115045D01*
X136436574Y-104311587D01*
X136346116Y-104529973D01*
X136300000Y-104761810D01*
X122166487Y-104761810D01*
X122147421Y-104738579D01*
X122117114Y-104713706D01*
X122082537Y-104695224D01*
X122045018Y-104683843D01*
X122006000Y-104680000D01*
X118704000Y-104680000D01*
X118664982Y-104683843D01*
X118627463Y-104695224D01*
X118592886Y-104713706D01*
X118562579Y-104738579D01*
X118537706Y-104768886D01*
X118519224Y-104803463D01*
X118507843Y-104840982D01*
X118504000Y-104880000D01*
X113879176Y-104880000D01*
X113866656Y-104873813D01*
X113600337Y-104802211D01*
X113325167Y-104783940D01*
X113051720Y-104819703D01*
X112790504Y-104908126D01*
X112626112Y-104995996D01*
X112554855Y-105233434D01*
X108318739Y-105233434D01*
X108267741Y-105208075D01*
X107992094Y-105133238D01*
X107707144Y-105113614D01*
X107423841Y-105149958D01*
X107153072Y-105240875D01*
X106976509Y-105335250D01*
X106899220Y-105577798D01*
X106184359Y-105577798D01*
X106163492Y-105472895D01*
X106091879Y-105300006D01*
X105987913Y-105144410D01*
X105855590Y-105012087D01*
X105803072Y-104976995D01*
X105823332Y-104975000D01*
X105893116Y-104968127D01*
X105982654Y-104940966D01*
X106065173Y-104896859D01*
X106137501Y-104837501D01*
X106152384Y-104819366D01*
X107596752Y-103375000D01*
X109990313Y-103375000D01*
X110027346Y-103376514D01*
X110060109Y-103371378D01*
X110093116Y-103368127D01*
X110106239Y-103364146D01*
X110119783Y-103362023D01*
X110150914Y-103350594D01*
X110182654Y-103340966D01*
X110194747Y-103334502D01*
X110207618Y-103329777D01*
X110235918Y-103312496D01*
X110265173Y-103296859D01*
X110275777Y-103288157D01*
X110287474Y-103281014D01*
X110311849Y-103258553D01*
X110337501Y-103237501D01*
X110346206Y-103226893D01*
X110356282Y-103217609D01*
X110375803Y-103190829D01*
X110396859Y-103165173D01*
X110414349Y-103132452D01*
X111440957Y-101387218D01*
X115181408Y-101387218D01*
X115269495Y-101647146D01*
X115406599Y-101884895D01*
X115587451Y-102091328D01*
X115805101Y-102258512D01*
X116051185Y-102380022D01*
X116227782Y-102433588D01*
X116445000Y-102315994D01*
X116445000Y-101170000D01*
X116645000Y-101170000D01*
X116645000Y-102315994D01*
X116862218Y-102433588D01*
X117038815Y-102380022D01*
X117284899Y-102258512D01*
X117502549Y-102091328D01*
X117683401Y-101884895D01*
X117761191Y-101750000D01*
X119174194Y-101750000D01*
X119197363Y-101985241D01*
X119265981Y-102211442D01*
X119377409Y-102419910D01*
X119527366Y-102602634D01*
X119710090Y-102752591D01*
X119918558Y-102864019D01*
X120144759Y-102932637D01*
X120321050Y-102950000D01*
X120438950Y-102950000D01*
X120615241Y-102932637D01*
X120841442Y-102864019D01*
X121049910Y-102752591D01*
X121232634Y-102602634D01*
X121382591Y-102419910D01*
X121494019Y-102211442D01*
X121562637Y-101985241D01*
X121585806Y-101750000D01*
X121574166Y-101631810D01*
X126800000Y-101631810D01*
X126800000Y-101868190D01*
X126846116Y-102100027D01*
X126936574Y-102318413D01*
X127067899Y-102514955D01*
X127235045Y-102682101D01*
X127431587Y-102813426D01*
X127649973Y-102903884D01*
X127881810Y-102950000D01*
X128118190Y-102950000D01*
X128350027Y-102903884D01*
X128568413Y-102813426D01*
X128764955Y-102682101D01*
X128932101Y-102514955D01*
X129022274Y-102380000D01*
X132484194Y-102380000D01*
X132507363Y-102615241D01*
X132575981Y-102841442D01*
X132687409Y-103049910D01*
X132837366Y-103232634D01*
X133020090Y-103382591D01*
X133228558Y-103494019D01*
X133454759Y-103562637D01*
X133631050Y-103580000D01*
X133748950Y-103580000D01*
X133925241Y-103562637D01*
X134151442Y-103494019D01*
X134359910Y-103382591D01*
X134542634Y-103232634D01*
X134692591Y-103049910D01*
X134795804Y-102856810D01*
X142015000Y-102856810D01*
X142015000Y-103093190D01*
X142061116Y-103325027D01*
X142151574Y-103543413D01*
X142282899Y-103739955D01*
X142450045Y-103907101D01*
X142646587Y-104038426D01*
X142864973Y-104128884D01*
X143096810Y-104175000D01*
X143333190Y-104175000D01*
X143565027Y-104128884D01*
X143783413Y-104038426D01*
X143943340Y-103931566D01*
X144899855Y-103931566D01*
X144971112Y-104169004D01*
X145218344Y-104291187D01*
X145484663Y-104362789D01*
X145759833Y-104381060D01*
X146033280Y-104345297D01*
X146294496Y-104256874D01*
X146458888Y-104169004D01*
X146530145Y-103931566D01*
X145715000Y-103116421D01*
X144899855Y-103931566D01*
X143943340Y-103931566D01*
X143979955Y-103907101D01*
X144147101Y-103739955D01*
X144278426Y-103543413D01*
X144361491Y-103342875D01*
X144433126Y-103554496D01*
X144520996Y-103718888D01*
X144758434Y-103790145D01*
X145573579Y-102975000D01*
X145856421Y-102975000D01*
X146671566Y-103790145D01*
X146909004Y-103718888D01*
X147031187Y-103471656D01*
X147102789Y-103205337D01*
X147121060Y-102930167D01*
X147085297Y-102656720D01*
X147020019Y-102463877D01*
X151433495Y-102463877D01*
X151493056Y-103140852D01*
X151683544Y-103793201D01*
X151997638Y-104395852D01*
X152037775Y-104455922D01*
X152485100Y-104773479D01*
X154758579Y-102500000D01*
X155041421Y-102500000D01*
X157314900Y-104773479D01*
X157762225Y-104455922D01*
X158088809Y-103859947D01*
X158292850Y-103211710D01*
X158315931Y-103000000D01*
X165266694Y-103000000D01*
X165274417Y-103078414D01*
X165297289Y-103153814D01*
X165334432Y-103223303D01*
X165384418Y-103284211D01*
X166515789Y-104415582D01*
X166576697Y-104465568D01*
X166646186Y-104502711D01*
X166721586Y-104525583D01*
X166800000Y-104533306D01*
X166878414Y-104525583D01*
X166953814Y-104502711D01*
X167023303Y-104465568D01*
X167084211Y-104415582D01*
X167273953Y-104225840D01*
X167251580Y-104271111D01*
X167197471Y-104449487D01*
X167314978Y-104667767D01*
X168326343Y-104667767D01*
X168412202Y-104753626D01*
X168553626Y-104612202D01*
X168467767Y-104526343D01*
X168467767Y-103514978D01*
X168667767Y-103514978D01*
X168667767Y-104667767D01*
X169820556Y-104667767D01*
X169938063Y-104449487D01*
X169849640Y-104188271D01*
X169711955Y-103949325D01*
X169530300Y-103741831D01*
X169311655Y-103573763D01*
X169064423Y-103451580D01*
X168886047Y-103397471D01*
X168667767Y-103514978D01*
X168467767Y-103514978D01*
X168249487Y-103397471D01*
X168027014Y-103472779D01*
X168215582Y-103284211D01*
X168265568Y-103223303D01*
X168302711Y-103153814D01*
X168325583Y-103078414D01*
X168333306Y-103000000D01*
X168325583Y-102921586D01*
X168302711Y-102846186D01*
X168265568Y-102776697D01*
X168215582Y-102715789D01*
X167084211Y-101584418D01*
X167023303Y-101534432D01*
X166953814Y-101497289D01*
X166878414Y-101474417D01*
X166800000Y-101466694D01*
X166721586Y-101474417D01*
X166646186Y-101497289D01*
X166576697Y-101534432D01*
X166515789Y-101584418D01*
X165384418Y-102715789D01*
X165334432Y-102776697D01*
X165297289Y-102846186D01*
X165274417Y-102921586D01*
X165266694Y-103000000D01*
X158315931Y-103000000D01*
X158366505Y-102536123D01*
X158306944Y-101859148D01*
X158116456Y-101206799D01*
X157802362Y-100604148D01*
X157762225Y-100544078D01*
X157314900Y-100226521D01*
X155041421Y-102500000D01*
X154758579Y-102500000D01*
X152485100Y-100226521D01*
X152037775Y-100544078D01*
X151711191Y-101140053D01*
X151507150Y-101788290D01*
X151433495Y-102463877D01*
X147020019Y-102463877D01*
X146996874Y-102395504D01*
X146909004Y-102231112D01*
X146671566Y-102159855D01*
X145856421Y-102975000D01*
X145573579Y-102975000D01*
X144758434Y-102159855D01*
X144520996Y-102231112D01*
X144398813Y-102478344D01*
X144363127Y-102611075D01*
X144278426Y-102406587D01*
X144147101Y-102210045D01*
X143979955Y-102042899D01*
X143943341Y-102018434D01*
X144899855Y-102018434D01*
X145715000Y-102833579D01*
X146530145Y-102018434D01*
X146458888Y-101780996D01*
X146211656Y-101658813D01*
X145945337Y-101587211D01*
X145670167Y-101568940D01*
X145396720Y-101604703D01*
X145135504Y-101693126D01*
X144971112Y-101780996D01*
X144899855Y-102018434D01*
X143943341Y-102018434D01*
X143783413Y-101911574D01*
X143565027Y-101821116D01*
X143333190Y-101775000D01*
X143096810Y-101775000D01*
X142864973Y-101821116D01*
X142646587Y-101911574D01*
X142450045Y-102042899D01*
X142282899Y-102210045D01*
X142151574Y-102406587D01*
X142061116Y-102624973D01*
X142015000Y-102856810D01*
X134795804Y-102856810D01*
X134804019Y-102841442D01*
X134872637Y-102615241D01*
X134895806Y-102380000D01*
X134872637Y-102144759D01*
X134804019Y-101918558D01*
X134692591Y-101710090D01*
X134542634Y-101527366D01*
X134359910Y-101377409D01*
X134151442Y-101265981D01*
X133925241Y-101197363D01*
X133748950Y-101180000D01*
X133631050Y-101180000D01*
X133454759Y-101197363D01*
X133228558Y-101265981D01*
X133020090Y-101377409D01*
X132837366Y-101527366D01*
X132687409Y-101710090D01*
X132575981Y-101918558D01*
X132507363Y-102144759D01*
X132484194Y-102380000D01*
X129022274Y-102380000D01*
X129063426Y-102318413D01*
X129153884Y-102100027D01*
X129200000Y-101868190D01*
X129200000Y-101631810D01*
X129153884Y-101399973D01*
X129063426Y-101181587D01*
X128932101Y-100985045D01*
X128764955Y-100817899D01*
X128568413Y-100686574D01*
X128350027Y-100596116D01*
X128118190Y-100550000D01*
X127881810Y-100550000D01*
X127649973Y-100596116D01*
X127431587Y-100686574D01*
X127235045Y-100817899D01*
X127067899Y-100985045D01*
X126936574Y-101181587D01*
X126846116Y-101399973D01*
X126800000Y-101631810D01*
X121574166Y-101631810D01*
X121562637Y-101514759D01*
X121494019Y-101288558D01*
X121382591Y-101080090D01*
X121232634Y-100897366D01*
X121049910Y-100747409D01*
X120841442Y-100635981D01*
X120615241Y-100567363D01*
X120438950Y-100550000D01*
X120321050Y-100550000D01*
X120144759Y-100567363D01*
X119918558Y-100635981D01*
X119710090Y-100747409D01*
X119527366Y-100897366D01*
X119377409Y-101080090D01*
X119265981Y-101288558D01*
X119197363Y-101514759D01*
X119174194Y-101750000D01*
X117761191Y-101750000D01*
X117820505Y-101647146D01*
X117908592Y-101387218D01*
X117791428Y-101170000D01*
X116645000Y-101170000D01*
X116445000Y-101170000D01*
X115298572Y-101170000D01*
X115181408Y-101387218D01*
X111440957Y-101387218D01*
X112271674Y-99975000D01*
X115683362Y-99975000D01*
X115587451Y-100048672D01*
X115587451Y-100048672D01*
G37*
X115587451Y-100048672D02*
X115406599Y-100255105D01*
X115269495Y-100492854D01*
X115181408Y-100752782D01*
X115298572Y-100970000D01*
X116445000Y-100970000D01*
X116445000Y-100950000D01*
X116645000Y-100950000D01*
X116645000Y-100970000D01*
X117791428Y-100970000D01*
X117908592Y-100752782D01*
X117820505Y-100492854D01*
X117683401Y-100255105D01*
X117502549Y-100048672D01*
X117406638Y-99975000D01*
X152704681Y-99975000D01*
X152626521Y-100085100D01*
X154900000Y-102358579D01*
X157173479Y-100085100D01*
X157095319Y-99975000D01*
X167803250Y-99975000D01*
X174525000Y-106696751D01*
X174525001Y-119303248D01*
X172203250Y-121625000D01*
X165109697Y-121625000D01*
X165072654Y-121623486D01*
X165039890Y-121628622D01*
X165006884Y-121631873D01*
X164993762Y-121635853D01*
X164980216Y-121637977D01*
X164949081Y-121649407D01*
X164917346Y-121659034D01*
X164905255Y-121665497D01*
X164892381Y-121670223D01*
X164864074Y-121687508D01*
X164834827Y-121703141D01*
X164824226Y-121711841D01*
X164812525Y-121718986D01*
X164788139Y-121741457D01*
X164762499Y-121762499D01*
X164753800Y-121773099D01*
X164743717Y-121782390D01*
X164724184Y-121809186D01*
X164703141Y-121834827D01*
X164685661Y-121867530D01*
X162828327Y-125025000D01*
X157095319Y-125025000D01*
X157173479Y-124914900D01*
X154900000Y-122641421D01*
X152626521Y-124914900D01*
X152704681Y-125025000D01*
X112271674Y-125025000D01*
X110765131Y-122463877D01*
X151433495Y-122463877D01*
X151493056Y-123140852D01*
X151683544Y-123793201D01*
X151997638Y-124395852D01*
X152037775Y-124455922D01*
X152485100Y-124773479D01*
X154758579Y-122500000D01*
X155041421Y-122500000D01*
X157314900Y-124773479D01*
X157762225Y-124455922D01*
X158088809Y-123859947D01*
X158292850Y-123211710D01*
X158366505Y-122536123D01*
X158306944Y-121859148D01*
X158116456Y-121206799D01*
X157802362Y-120604148D01*
X157762225Y-120544078D01*
X157314900Y-120226521D01*
X155041421Y-122500000D01*
X154758579Y-122500000D01*
X152485100Y-120226521D01*
X152037775Y-120544078D01*
X151711191Y-121140053D01*
X151507150Y-121788290D01*
X151433495Y-122463877D01*
X110765131Y-122463877D01*
X110414349Y-121867548D01*
X110396859Y-121834827D01*
X110375803Y-121809171D01*
X110356282Y-121782391D01*
X110346206Y-121773107D01*
X110337501Y-121762499D01*
X110311849Y-121741447D01*
X110287474Y-121718986D01*
X110275777Y-121711843D01*
X110265173Y-121703141D01*
X110235918Y-121687504D01*
X110207618Y-121670223D01*
X110194747Y-121665498D01*
X110182654Y-121659034D01*
X110150914Y-121649406D01*
X110119783Y-121637977D01*
X110106239Y-121635854D01*
X110093116Y-121631873D01*
X110060109Y-121628622D01*
X110027346Y-121623486D01*
X109990313Y-121625000D01*
X107596752Y-121625000D01*
X106152384Y-120180634D01*
X106137501Y-120162499D01*
X106065173Y-120103141D01*
X106031421Y-120085100D01*
X152626521Y-120085100D01*
X154900000Y-122358579D01*
X157173479Y-120085100D01*
X156855922Y-119637775D01*
X156259947Y-119311191D01*
X155611710Y-119107150D01*
X154936123Y-119033495D01*
X154259148Y-119093056D01*
X153606799Y-119283544D01*
X153004148Y-119597638D01*
X152944078Y-119637775D01*
X152626521Y-120085100D01*
X106031421Y-120085100D01*
X105982654Y-120059034D01*
X105893116Y-120031873D01*
X105823332Y-120025000D01*
X105803072Y-120023005D01*
X105855590Y-119987913D01*
X105987913Y-119855590D01*
X106091879Y-119699994D01*
X106163492Y-119527105D01*
X106184358Y-119422202D01*
X106899220Y-119422202D01*
X106976509Y-119664750D01*
X107232259Y-119791925D01*
X107507906Y-119866762D01*
X107792856Y-119886386D01*
X108076159Y-119850042D01*
X108346928Y-119759125D01*
X108523491Y-119664750D01*
X108600780Y-119422202D01*
X107750000Y-118571421D01*
X106899220Y-119422202D01*
X106184358Y-119422202D01*
X106200000Y-119343567D01*
X106200000Y-119156433D01*
X106163492Y-118972895D01*
X106091879Y-118800006D01*
X105987913Y-118644410D01*
X105855590Y-118512087D01*
X105796877Y-118472856D01*
X106293614Y-118472856D01*
X106329958Y-118756159D01*
X106420875Y-119026928D01*
X106515250Y-119203491D01*
X106757798Y-119280780D01*
X107608579Y-118430000D01*
X107891421Y-118430000D01*
X108742202Y-119280780D01*
X108984750Y-119203491D01*
X109111925Y-118947741D01*
X109186762Y-118672094D01*
X109206386Y-118387144D01*
X109170042Y-118103841D01*
X109079125Y-117833072D01*
X108984750Y-117656509D01*
X108742202Y-117579220D01*
X107891421Y-118430000D01*
X107608579Y-118430000D01*
X106757798Y-117579220D01*
X106515250Y-117656509D01*
X106388075Y-117912259D01*
X106313238Y-118187906D01*
X106293614Y-118472856D01*
X105796877Y-118472856D01*
X105699994Y-118408121D01*
X105527105Y-118336508D01*
X105343567Y-118300000D01*
X105156433Y-118300000D01*
X104972895Y-118336508D01*
X104800006Y-118408121D01*
X104644410Y-118512087D01*
X104512087Y-118644410D01*
X104408121Y-118800006D01*
X104336508Y-118972895D01*
X104300000Y-119156433D01*
X104300000Y-119343567D01*
X104336508Y-119527105D01*
X104408121Y-119699994D01*
X104512087Y-119855590D01*
X104644410Y-119987913D01*
X104699915Y-120025000D01*
X101696751Y-120025000D01*
X101093953Y-119422202D01*
X101899220Y-119422202D01*
X101976509Y-119664750D01*
X102232259Y-119791925D01*
X102507906Y-119866762D01*
X102792856Y-119886386D01*
X103076159Y-119850042D01*
X103346928Y-119759125D01*
X103523491Y-119664750D01*
X103600780Y-119422202D01*
X102750000Y-118571421D01*
X101899220Y-119422202D01*
X101093953Y-119422202D01*
X100475000Y-118803250D01*
X100475000Y-118472856D01*
X101293614Y-118472856D01*
X101329958Y-118756159D01*
X101420875Y-119026928D01*
X101515250Y-119203491D01*
X101757798Y-119280780D01*
X102608579Y-118430000D01*
X102891421Y-118430000D01*
X103742202Y-119280780D01*
X103984750Y-119203491D01*
X104111925Y-118947741D01*
X104186762Y-118672094D01*
X104206386Y-118387144D01*
X104170042Y-118103841D01*
X104079125Y-117833072D01*
X103984750Y-117656509D01*
X103742202Y-117579220D01*
X102891421Y-118430000D01*
X102608579Y-118430000D01*
X101757798Y-117579220D01*
X101515250Y-117656509D01*
X101388075Y-117912259D01*
X101313238Y-118187906D01*
X101293614Y-118472856D01*
X100475000Y-118472856D01*
X100475000Y-117437798D01*
X101899220Y-117437798D01*
X102750000Y-118288579D01*
X103600780Y-117437798D01*
X106899220Y-117437798D01*
X107750000Y-118288579D01*
X108600780Y-117437798D01*
X108523491Y-117195250D01*
X108267741Y-117068075D01*
X107992094Y-116993238D01*
X107707144Y-116973614D01*
X107423841Y-117009958D01*
X107153072Y-117100875D01*
X106976509Y-117195250D01*
X106899220Y-117437798D01*
X103600780Y-117437798D01*
X103523491Y-117195250D01*
X103267741Y-117068075D01*
X102992094Y-116993238D01*
X102707144Y-116973614D01*
X102423841Y-117009958D01*
X102153072Y-117100875D01*
X101976509Y-117195250D01*
X101899220Y-117437798D01*
X100475000Y-117437798D01*
X100475000Y-116826810D01*
X112170000Y-116826810D01*
X112170000Y-117063190D01*
X112216116Y-117295027D01*
X112306574Y-117513413D01*
X112437899Y-117709955D01*
X112605045Y-117877101D01*
X112801587Y-118008426D01*
X113019973Y-118098884D01*
X113251810Y-118145000D01*
X113488190Y-118145000D01*
X113720027Y-118098884D01*
X113938413Y-118008426D01*
X114134955Y-117877101D01*
X114302101Y-117709955D01*
X114433426Y-117513413D01*
X114523884Y-117295027D01*
X114570000Y-117063190D01*
X114570000Y-116826810D01*
X114670000Y-116826810D01*
X114670000Y-117063190D01*
X114716116Y-117295027D01*
X114806574Y-117513413D01*
X114937899Y-117709955D01*
X115105045Y-117877101D01*
X115301587Y-118008426D01*
X115519973Y-118098884D01*
X115751810Y-118145000D01*
X115988190Y-118145000D01*
X116220027Y-118098884D01*
X116438413Y-118008426D01*
X116634955Y-117877101D01*
X116796246Y-117715810D01*
X122116000Y-117715810D01*
X122116000Y-117952190D01*
X122162116Y-118184027D01*
X122252574Y-118402413D01*
X122383899Y-118598955D01*
X122551045Y-118766101D01*
X122747587Y-118897426D01*
X122965973Y-118987884D01*
X123197810Y-119034000D01*
X123434190Y-119034000D01*
X123666027Y-118987884D01*
X123884413Y-118897426D01*
X124080955Y-118766101D01*
X124248101Y-118598955D01*
X124379426Y-118402413D01*
X124469884Y-118184027D01*
X124516000Y-117952190D01*
X124516000Y-117715810D01*
X124616000Y-117715810D01*
X124616000Y-117952190D01*
X124662116Y-118184027D01*
X124752574Y-118402413D01*
X124883899Y-118598955D01*
X125051045Y-118766101D01*
X125247587Y-118897426D01*
X125465973Y-118987884D01*
X125697810Y-119034000D01*
X125934190Y-119034000D01*
X126166027Y-118987884D01*
X126384413Y-118897426D01*
X126580955Y-118766101D01*
X126748101Y-118598955D01*
X126879426Y-118402413D01*
X126969884Y-118184027D01*
X127016000Y-117952190D01*
X127016000Y-117715810D01*
X126969884Y-117483973D01*
X126879426Y-117265587D01*
X126748101Y-117069045D01*
X126580955Y-116901899D01*
X126384413Y-116770574D01*
X126166027Y-116680116D01*
X125934190Y-116634000D01*
X125697810Y-116634000D01*
X125465973Y-116680116D01*
X125247587Y-116770574D01*
X125051045Y-116901899D01*
X124883899Y-117069045D01*
X124752574Y-117265587D01*
X124662116Y-117483973D01*
X124616000Y-117715810D01*
X124516000Y-117715810D01*
X124469884Y-117483973D01*
X124379426Y-117265587D01*
X124248101Y-117069045D01*
X124080955Y-116901899D01*
X123884413Y-116770574D01*
X123666027Y-116680116D01*
X123434190Y-116634000D01*
X123197810Y-116634000D01*
X122965973Y-116680116D01*
X122747587Y-116770574D01*
X122551045Y-116901899D01*
X122383899Y-117069045D01*
X122252574Y-117265587D01*
X122162116Y-117483973D01*
X122116000Y-117715810D01*
X116796246Y-117715810D01*
X116802101Y-117709955D01*
X116933426Y-117513413D01*
X117023884Y-117295027D01*
X117070000Y-117063190D01*
X117070000Y-116826810D01*
X117023884Y-116594973D01*
X116933426Y-116376587D01*
X116888935Y-116310000D01*
X129690194Y-116310000D01*
X129713363Y-116545241D01*
X129781981Y-116771442D01*
X129893409Y-116979910D01*
X130043366Y-117162634D01*
X130226090Y-117312591D01*
X130434558Y-117424019D01*
X130660759Y-117492637D01*
X130837050Y-117510000D01*
X130954950Y-117510000D01*
X131131241Y-117492637D01*
X131232862Y-117461810D01*
X142015000Y-117461810D01*
X142015000Y-117698190D01*
X142061116Y-117930027D01*
X142151574Y-118148413D01*
X142282899Y-118344955D01*
X142450045Y-118512101D01*
X142646587Y-118643426D01*
X142864973Y-118733884D01*
X143096810Y-118780000D01*
X143333190Y-118780000D01*
X143565027Y-118733884D01*
X143783413Y-118643426D01*
X143979955Y-118512101D01*
X144147101Y-118344955D01*
X144278426Y-118148413D01*
X144368884Y-117930027D01*
X144375410Y-117897218D01*
X146296408Y-117897218D01*
X146384495Y-118157146D01*
X146521599Y-118394895D01*
X146702451Y-118601328D01*
X146920101Y-118768512D01*
X147166185Y-118890022D01*
X147342782Y-118943588D01*
X147560000Y-118825994D01*
X147560000Y-117680000D01*
X147760000Y-117680000D01*
X147760000Y-118825994D01*
X147977218Y-118943588D01*
X148153815Y-118890022D01*
X148399899Y-118768512D01*
X148617549Y-118601328D01*
X148798401Y-118394895D01*
X148935505Y-118157146D01*
X149023592Y-117897218D01*
X148906428Y-117680000D01*
X147760000Y-117680000D01*
X147560000Y-117680000D01*
X146413572Y-117680000D01*
X146296408Y-117897218D01*
X144375410Y-117897218D01*
X144415000Y-117698190D01*
X144415000Y-117461810D01*
X144375411Y-117262782D01*
X146296408Y-117262782D01*
X146413572Y-117480000D01*
X147560000Y-117480000D01*
X147560000Y-116334006D01*
X147760000Y-116334006D01*
X147760000Y-117480000D01*
X148906428Y-117480000D01*
X148968457Y-117365000D01*
X164188065Y-117365000D01*
X164188065Y-119065000D01*
X164195788Y-119143414D01*
X164218660Y-119218814D01*
X164255803Y-119288303D01*
X164305789Y-119349211D01*
X164366697Y-119399197D01*
X164436186Y-119436340D01*
X164511586Y-119459212D01*
X164590000Y-119466935D01*
X166290000Y-119466935D01*
X166368414Y-119459212D01*
X166443814Y-119436340D01*
X166513303Y-119399197D01*
X166574211Y-119349211D01*
X166624197Y-119288303D01*
X166661340Y-119218814D01*
X166684212Y-119143414D01*
X166691935Y-119065000D01*
X166691935Y-118869604D01*
X166798861Y-119056085D01*
X166985644Y-119270353D01*
X167210639Y-119444064D01*
X167465201Y-119570543D01*
X167654941Y-119628095D01*
X167880000Y-119511148D01*
X167880000Y-118315000D01*
X168080000Y-118315000D01*
X168080000Y-119511148D01*
X168305059Y-119628095D01*
X168494799Y-119570543D01*
X168749361Y-119444064D01*
X168974356Y-119270353D01*
X169161139Y-119056085D01*
X169302531Y-118809495D01*
X169393099Y-118540059D01*
X169276552Y-118315000D01*
X168080000Y-118315000D01*
X167880000Y-118315000D01*
X167860000Y-118315000D01*
X167860000Y-118115000D01*
X167880000Y-118115000D01*
X167880000Y-116918852D01*
X168080000Y-116918852D01*
X168080000Y-118115000D01*
X169276552Y-118115000D01*
X169393099Y-117889941D01*
X169302531Y-117620505D01*
X169161139Y-117373915D01*
X168974356Y-117159647D01*
X168749361Y-116985936D01*
X168494799Y-116859457D01*
X168305059Y-116801905D01*
X168080000Y-116918852D01*
X167880000Y-116918852D01*
X167654941Y-116801905D01*
X167465201Y-116859457D01*
X167210639Y-116985936D01*
X166985644Y-117159647D01*
X166798861Y-117373915D01*
X166691935Y-117560396D01*
X166691935Y-117365000D01*
X166684212Y-117286586D01*
X166661340Y-117211186D01*
X166624197Y-117141697D01*
X166574211Y-117080789D01*
X166513303Y-117030803D01*
X166443814Y-116993660D01*
X166368414Y-116970788D01*
X166290000Y-116963065D01*
X164590000Y-116963065D01*
X164511586Y-116970788D01*
X164436186Y-116993660D01*
X164366697Y-117030803D01*
X164305789Y-117080789D01*
X164255803Y-117141697D01*
X164218660Y-117211186D01*
X164195788Y-117286586D01*
X164188065Y-117365000D01*
X148968457Y-117365000D01*
X149023592Y-117262782D01*
X148935505Y-117002854D01*
X148798401Y-116765105D01*
X148617549Y-116558672D01*
X148399899Y-116391488D01*
X148153815Y-116269978D01*
X147977218Y-116216412D01*
X147760000Y-116334006D01*
X147560000Y-116334006D01*
X147342782Y-116216412D01*
X147166185Y-116269978D01*
X146920101Y-116391488D01*
X146702451Y-116558672D01*
X146521599Y-116765105D01*
X146384495Y-117002854D01*
X146296408Y-117262782D01*
X144375411Y-117262782D01*
X144368884Y-117229973D01*
X144278426Y-117011587D01*
X144147101Y-116815045D01*
X143979955Y-116647899D01*
X143783413Y-116516574D01*
X143565027Y-116426116D01*
X143333190Y-116380000D01*
X143096810Y-116380000D01*
X142864973Y-116426116D01*
X142646587Y-116516574D01*
X142450045Y-116647899D01*
X142282899Y-116815045D01*
X142151574Y-117011587D01*
X142061116Y-117229973D01*
X142015000Y-117461810D01*
X131232862Y-117461810D01*
X131357442Y-117424019D01*
X131565910Y-117312591D01*
X131748634Y-117162634D01*
X131898591Y-116979910D01*
X132010019Y-116771442D01*
X132078637Y-116545241D01*
X132101806Y-116310000D01*
X132078637Y-116074759D01*
X132010019Y-115848558D01*
X131898591Y-115640090D01*
X131748634Y-115457366D01*
X131565910Y-115307409D01*
X131357442Y-115195981D01*
X131131241Y-115127363D01*
X130954950Y-115110000D01*
X130837050Y-115110000D01*
X130660759Y-115127363D01*
X130434558Y-115195981D01*
X130226090Y-115307409D01*
X130043366Y-115457366D01*
X129893409Y-115640090D01*
X129781981Y-115848558D01*
X129713363Y-116074759D01*
X129690194Y-116310000D01*
X116888935Y-116310000D01*
X116802101Y-116180045D01*
X116634955Y-116012899D01*
X116438413Y-115881574D01*
X116220027Y-115791116D01*
X115988190Y-115745000D01*
X115751810Y-115745000D01*
X115519973Y-115791116D01*
X115301587Y-115881574D01*
X115105045Y-116012899D01*
X114937899Y-116180045D01*
X114806574Y-116376587D01*
X114716116Y-116594973D01*
X114670000Y-116826810D01*
X114570000Y-116826810D01*
X114523884Y-116594973D01*
X114433426Y-116376587D01*
X114302101Y-116180045D01*
X114134955Y-116012899D01*
X113938413Y-115881574D01*
X113720027Y-115791116D01*
X113488190Y-115745000D01*
X113251810Y-115745000D01*
X113019973Y-115791116D01*
X112801587Y-115881574D01*
X112605045Y-116012899D01*
X112437899Y-116180045D01*
X112306574Y-116376587D01*
X112216116Y-116594973D01*
X112170000Y-116826810D01*
X100475000Y-116826810D01*
X100475000Y-113291762D01*
X100550006Y-113341879D01*
X100722895Y-113413492D01*
X100906433Y-113450000D01*
X101093567Y-113450000D01*
X101277105Y-113413492D01*
X101449994Y-113341879D01*
X101498065Y-113309759D01*
X101498065Y-114200000D01*
X101505788Y-114278414D01*
X101528660Y-114353814D01*
X101565803Y-114423303D01*
X101615789Y-114484211D01*
X101676697Y-114534197D01*
X101746186Y-114571340D01*
X101821586Y-114594212D01*
X101900000Y-114601935D01*
X103600000Y-114601935D01*
X103678414Y-114594212D01*
X103753814Y-114571340D01*
X103823303Y-114534197D01*
X103884211Y-114484211D01*
X103934197Y-114423303D01*
X103971340Y-114353814D01*
X103994212Y-114278414D01*
X104001935Y-114200000D01*
X104001935Y-110800000D01*
X106498065Y-110800000D01*
X106498065Y-114200000D01*
X106505788Y-114278414D01*
X106528660Y-114353814D01*
X106565803Y-114423303D01*
X106615789Y-114484211D01*
X106676697Y-114534197D01*
X106746186Y-114571340D01*
X106821586Y-114594212D01*
X106900000Y-114601935D01*
X108600000Y-114601935D01*
X108678414Y-114594212D01*
X108753814Y-114571340D01*
X108823303Y-114534197D01*
X108884211Y-114484211D01*
X108934197Y-114423303D01*
X108971340Y-114353814D01*
X108994212Y-114278414D01*
X109001935Y-114200000D01*
X109001935Y-113611810D01*
X112170000Y-113611810D01*
X112170000Y-113848190D01*
X112216116Y-114080027D01*
X112306574Y-114298413D01*
X112437899Y-114494955D01*
X112605045Y-114662101D01*
X112801587Y-114793426D01*
X113019973Y-114883884D01*
X113251810Y-114930000D01*
X113488190Y-114930000D01*
X113720027Y-114883884D01*
X113938413Y-114793426D01*
X114134955Y-114662101D01*
X114302101Y-114494955D01*
X114433426Y-114298413D01*
X114523884Y-114080027D01*
X114570000Y-113848190D01*
X114570000Y-113661659D01*
X115445000Y-113661659D01*
X115445000Y-113878341D01*
X115487273Y-114090858D01*
X115570193Y-114291045D01*
X115690575Y-114471209D01*
X115843791Y-114624425D01*
X116023955Y-114744807D01*
X116224142Y-114827727D01*
X116436659Y-114870000D01*
X116653341Y-114870000D01*
X116865858Y-114827727D01*
X117066045Y-114744807D01*
X117246209Y-114624425D01*
X117399425Y-114471209D01*
X117519807Y-114291045D01*
X117602727Y-114090858D01*
X117645000Y-113878341D01*
X117645000Y-113661659D01*
X117602727Y-113449142D01*
X117519807Y-113248955D01*
X117399425Y-113068791D01*
X117300634Y-112970000D01*
X118753065Y-112970000D01*
X118753065Y-114570000D01*
X118760788Y-114648414D01*
X118783660Y-114723814D01*
X118820803Y-114793303D01*
X118870789Y-114854211D01*
X118931697Y-114904197D01*
X119001186Y-114941340D01*
X119076586Y-114964212D01*
X119155000Y-114971935D01*
X121555000Y-114971935D01*
X121633414Y-114964212D01*
X121708814Y-114941340D01*
X121778303Y-114904197D01*
X121839211Y-114854211D01*
X121889197Y-114793303D01*
X121926340Y-114723814D01*
X121949212Y-114648414D01*
X121956935Y-114570000D01*
X121956935Y-113770000D01*
X126369194Y-113770000D01*
X126392363Y-114005241D01*
X126460981Y-114231442D01*
X126572409Y-114439910D01*
X126722366Y-114622634D01*
X126905090Y-114772591D01*
X127113558Y-114884019D01*
X127339759Y-114952637D01*
X127516050Y-114970000D01*
X128433950Y-114970000D01*
X128610241Y-114952637D01*
X128734641Y-114914900D01*
X135226521Y-114914900D01*
X135544078Y-115362225D01*
X136140053Y-115688809D01*
X136788290Y-115892850D01*
X137463877Y-115966505D01*
X138140852Y-115906944D01*
X138793201Y-115716456D01*
X139395852Y-115402362D01*
X139455922Y-115362225D01*
X139773479Y-114914900D01*
X137500000Y-112641421D01*
X135226521Y-114914900D01*
X128734641Y-114914900D01*
X128836442Y-114884019D01*
X129044910Y-114772591D01*
X129227634Y-114622634D01*
X129377591Y-114439910D01*
X129489019Y-114231442D01*
X129557637Y-114005241D01*
X129580806Y-113770000D01*
X129557637Y-113534759D01*
X129489019Y-113308558D01*
X129377591Y-113100090D01*
X129227634Y-112917366D01*
X129044910Y-112767409D01*
X128836442Y-112655981D01*
X128610241Y-112587363D01*
X128433950Y-112570000D01*
X127516050Y-112570000D01*
X127339759Y-112587363D01*
X127113558Y-112655981D01*
X126905090Y-112767409D01*
X126722366Y-112917366D01*
X126572409Y-113100090D01*
X126460981Y-113308558D01*
X126392363Y-113534759D01*
X126369194Y-113770000D01*
X121956935Y-113770000D01*
X121956935Y-112970000D01*
X121949212Y-112891586D01*
X121926340Y-112816186D01*
X121889197Y-112746697D01*
X121839211Y-112685789D01*
X121778303Y-112635803D01*
X121708814Y-112598660D01*
X121633414Y-112575788D01*
X121555000Y-112568065D01*
X119155000Y-112568065D01*
X119076586Y-112575788D01*
X119001186Y-112598660D01*
X118931697Y-112635803D01*
X118870789Y-112685789D01*
X118820803Y-112746697D01*
X118783660Y-112816186D01*
X118760788Y-112891586D01*
X118753065Y-112970000D01*
X117300634Y-112970000D01*
X117246209Y-112915575D01*
X117066045Y-112795193D01*
X116865858Y-112712273D01*
X116653341Y-112670000D01*
X116436659Y-112670000D01*
X116224142Y-112712273D01*
X116023955Y-112795193D01*
X115843791Y-112915575D01*
X115690575Y-113068791D01*
X115570193Y-113248955D01*
X115487273Y-113449142D01*
X115445000Y-113661659D01*
X114570000Y-113661659D01*
X114570000Y-113611810D01*
X114523884Y-113379973D01*
X114433426Y-113161587D01*
X114302101Y-112965045D01*
X114134955Y-112797899D01*
X113938413Y-112666574D01*
X113720027Y-112576116D01*
X113488190Y-112530000D01*
X113251810Y-112530000D01*
X113019973Y-112576116D01*
X112801587Y-112666574D01*
X112605045Y-112797899D01*
X112437899Y-112965045D01*
X112306574Y-113161587D01*
X112216116Y-113379973D01*
X112170000Y-113611810D01*
X109001935Y-113611810D01*
X109001935Y-113309759D01*
X109050006Y-113341879D01*
X109222895Y-113413492D01*
X109406433Y-113450000D01*
X109593567Y-113450000D01*
X109777105Y-113413492D01*
X109949994Y-113341879D01*
X110105590Y-113237913D01*
X110237913Y-113105590D01*
X110341879Y-112949994D01*
X110413492Y-112777105D01*
X110450000Y-112593567D01*
X110450000Y-112406433D01*
X110413492Y-112222895D01*
X110341879Y-112050006D01*
X110237913Y-111894410D01*
X110105590Y-111762087D01*
X109949994Y-111658121D01*
X109777105Y-111586508D01*
X109593567Y-111550000D01*
X109406433Y-111550000D01*
X109222895Y-111586508D01*
X109050006Y-111658121D01*
X109001935Y-111690241D01*
X109001935Y-111111810D01*
X112170000Y-111111810D01*
X112170000Y-111348190D01*
X112216116Y-111580027D01*
X112306574Y-111798413D01*
X112437899Y-111994955D01*
X112605045Y-112162101D01*
X112801587Y-112293426D01*
X113019973Y-112383884D01*
X113251810Y-112430000D01*
X113488190Y-112430000D01*
X113720027Y-112383884D01*
X113938413Y-112293426D01*
X114134955Y-112162101D01*
X114302101Y-111994955D01*
X114433426Y-111798413D01*
X114523884Y-111580027D01*
X114570000Y-111348190D01*
X114570000Y-111230000D01*
X115439678Y-111230000D01*
X115460916Y-111445638D01*
X115523816Y-111652988D01*
X115625958Y-111844084D01*
X115763419Y-112011581D01*
X115930916Y-112149042D01*
X116122012Y-112251184D01*
X116329362Y-112314084D01*
X116490964Y-112330000D01*
X116599036Y-112330000D01*
X116760638Y-112314084D01*
X116967988Y-112251184D01*
X117159084Y-112149042D01*
X117326581Y-112011581D01*
X117464042Y-111844084D01*
X117566184Y-111652988D01*
X117629084Y-111445638D01*
X117650322Y-111230000D01*
X117629084Y-111014362D01*
X117566184Y-110807012D01*
X117464042Y-110615916D01*
X117326581Y-110448419D01*
X117159084Y-110310958D01*
X116967988Y-110208816D01*
X116760638Y-110145916D01*
X116599036Y-110130000D01*
X116490964Y-110130000D01*
X116329362Y-110145916D01*
X116122012Y-110208816D01*
X115930916Y-110310958D01*
X115763419Y-110448419D01*
X115625958Y-110615916D01*
X115523816Y-110807012D01*
X115460916Y-111014362D01*
X115439678Y-111230000D01*
X114570000Y-111230000D01*
X114570000Y-111111810D01*
X114523884Y-110879973D01*
X114433426Y-110661587D01*
X114302101Y-110465045D01*
X114134955Y-110297899D01*
X113938413Y-110166574D01*
X113720027Y-110076116D01*
X113488190Y-110030000D01*
X113251810Y-110030000D01*
X113019973Y-110076116D01*
X112801587Y-110166574D01*
X112605045Y-110297899D01*
X112437899Y-110465045D01*
X112306574Y-110661587D01*
X112216116Y-110879973D01*
X112170000Y-111111810D01*
X109001935Y-111111810D01*
X109001935Y-110800000D01*
X108994212Y-110721586D01*
X108971340Y-110646186D01*
X108934197Y-110576697D01*
X108884211Y-110515789D01*
X108823303Y-110465803D01*
X108753814Y-110428660D01*
X108678414Y-110405788D01*
X108600000Y-110398065D01*
X106900000Y-110398065D01*
X106821586Y-110405788D01*
X106746186Y-110428660D01*
X106676697Y-110465803D01*
X106615789Y-110515789D01*
X106565803Y-110576697D01*
X106528660Y-110646186D01*
X106505788Y-110721586D01*
X106498065Y-110800000D01*
X104001935Y-110800000D01*
X103994212Y-110721586D01*
X103971340Y-110646186D01*
X103934197Y-110576697D01*
X103884211Y-110515789D01*
X103823303Y-110465803D01*
X103753814Y-110428660D01*
X103678414Y-110405788D01*
X103600000Y-110398065D01*
X101900000Y-110398065D01*
X101821586Y-110405788D01*
X101746186Y-110428660D01*
X101676697Y-110465803D01*
X101615789Y-110515789D01*
X101565803Y-110576697D01*
X101528660Y-110646186D01*
X101505788Y-110721586D01*
X101498065Y-110800000D01*
X101498065Y-111690241D01*
X101449994Y-111658121D01*
X101277105Y-111586508D01*
X101093567Y-111550000D01*
X100906433Y-111550000D01*
X100722895Y-111586508D01*
X100550006Y-111658121D01*
X100475000Y-111708238D01*
X100475000Y-108571810D01*
X112170000Y-108571810D01*
X112170000Y-108808190D01*
X112216116Y-109040027D01*
X112306574Y-109258413D01*
X112437899Y-109454955D01*
X112605045Y-109622101D01*
X112801587Y-109753426D01*
X113019973Y-109843884D01*
X113251810Y-109890000D01*
X113488190Y-109890000D01*
X113720027Y-109843884D01*
X113938413Y-109753426D01*
X114134955Y-109622101D01*
X114302101Y-109454955D01*
X114433426Y-109258413D01*
X114523884Y-109040027D01*
X114570000Y-108808190D01*
X114570000Y-108571810D01*
X115345000Y-108571810D01*
X115345000Y-108808190D01*
X115391116Y-109040027D01*
X115481574Y-109258413D01*
X115612899Y-109454955D01*
X115780045Y-109622101D01*
X115976587Y-109753426D01*
X116194973Y-109843884D01*
X116426810Y-109890000D01*
X116663190Y-109890000D01*
X116895027Y-109843884D01*
X117113413Y-109753426D01*
X117309955Y-109622101D01*
X117477101Y-109454955D01*
X117608426Y-109258413D01*
X117698884Y-109040027D01*
X117745000Y-108808190D01*
X117745000Y-108571810D01*
X117698884Y-108339973D01*
X117608426Y-108121587D01*
X117477101Y-107925045D01*
X117309955Y-107757899D01*
X117113413Y-107626574D01*
X116895027Y-107536116D01*
X116663190Y-107490000D01*
X116426810Y-107490000D01*
X116194973Y-107536116D01*
X115976587Y-107626574D01*
X115780045Y-107757899D01*
X115612899Y-107925045D01*
X115481574Y-108121587D01*
X115391116Y-108339973D01*
X115345000Y-108571810D01*
X114570000Y-108571810D01*
X114523884Y-108339973D01*
X114433426Y-108121587D01*
X114302101Y-107925045D01*
X114134955Y-107757899D01*
X113938413Y-107626574D01*
X113737875Y-107543509D01*
X113949496Y-107471874D01*
X114113888Y-107384004D01*
X114185145Y-107146566D01*
X113370000Y-106331421D01*
X112554855Y-107146566D01*
X112626112Y-107384004D01*
X112873344Y-107506187D01*
X113006075Y-107541873D01*
X112801587Y-107626574D01*
X112605045Y-107757899D01*
X112437899Y-107925045D01*
X112306574Y-108121587D01*
X112216116Y-108339973D01*
X112170000Y-108571810D01*
X100475000Y-108571810D01*
X100475000Y-107562202D01*
X101899220Y-107562202D01*
X101976509Y-107804750D01*
X102232259Y-107931925D01*
X102507906Y-108006762D01*
X102792856Y-108026386D01*
X103076159Y-107990042D01*
X103346928Y-107899125D01*
X103523491Y-107804750D01*
X103600780Y-107562202D01*
X106899220Y-107562202D01*
X106976509Y-107804750D01*
X107232259Y-107931925D01*
X107507906Y-108006762D01*
X107792856Y-108026386D01*
X108076159Y-107990042D01*
X108346928Y-107899125D01*
X108523491Y-107804750D01*
X108600780Y-107562202D01*
X107750000Y-106711421D01*
X106899220Y-107562202D01*
X103600780Y-107562202D01*
X102750000Y-106711421D01*
X101899220Y-107562202D01*
X100475000Y-107562202D01*
X100475000Y-106612856D01*
X101293614Y-106612856D01*
X101329958Y-106896159D01*
X101420875Y-107166928D01*
X101515250Y-107343491D01*
X101757798Y-107420780D01*
X102608579Y-106570000D01*
X102891421Y-106570000D01*
X103742202Y-107420780D01*
X103984750Y-107343491D01*
X104111925Y-107087741D01*
X104186762Y-106812094D01*
X104206386Y-106527144D01*
X104170042Y-106243841D01*
X104079125Y-105973072D01*
X103984750Y-105796509D01*
X103742202Y-105719220D01*
X102891421Y-106570000D01*
X102608579Y-106570000D01*
X101757798Y-105719220D01*
X101515250Y-105796509D01*
X101388075Y-106052259D01*
X101313238Y-106327906D01*
X101293614Y-106612856D01*
X100475000Y-106612856D01*
X100475000Y-106196750D01*
X101093952Y-105577798D01*
X101899220Y-105577798D01*
X102750000Y-106428579D01*
X103600780Y-105577798D01*
X103523491Y-105335250D01*
X103267741Y-105208075D01*
X102992094Y-105133238D01*
X102707144Y-105113614D01*
X102423841Y-105149958D01*
X102153072Y-105240875D01*
X101976509Y-105335250D01*
X101899220Y-105577798D01*
X101093952Y-105577798D01*
X101696751Y-104975000D01*
X104699915Y-104975000D01*
X104644410Y-105012087D01*
X104512087Y-105144410D01*
X104408121Y-105300006D01*
X104336508Y-105472895D01*
X104300000Y-105656433D01*
X104300000Y-105843567D01*
X104336508Y-106027105D01*
X104408121Y-106199994D01*
X104512087Y-106355590D01*
X104644410Y-106487913D01*
X104800006Y-106591879D01*
X104972895Y-106663492D01*
X105156433Y-106700000D01*
X105343567Y-106700000D01*
X105527105Y-106663492D01*
X105649351Y-106612856D01*
X106293614Y-106612856D01*
X106329958Y-106896159D01*
X106420875Y-107166928D01*
X106515250Y-107343491D01*
X106757798Y-107420780D01*
X107608579Y-106570000D01*
X107891421Y-106570000D01*
X108742202Y-107420780D01*
X108984750Y-107343491D01*
X109111925Y-107087741D01*
X109186762Y-106812094D01*
X109206386Y-106527144D01*
X109170042Y-106243841D01*
X109167018Y-106234833D01*
X111963940Y-106234833D01*
X111999703Y-106508280D01*
X112088126Y-106769496D01*
X112175996Y-106933888D01*
X112413434Y-107005145D01*
X113228579Y-106190000D01*
X113511421Y-106190000D01*
X114326566Y-107005145D01*
X114564004Y-106933888D01*
X114686187Y-106686656D01*
X114757789Y-106420337D01*
X114776060Y-106145167D01*
X114740297Y-105871720D01*
X114651874Y-105610504D01*
X114564004Y-105446112D01*
X114326566Y-105374855D01*
X113511421Y-106190000D01*
X113228579Y-106190000D01*
X112413434Y-105374855D01*
X112175996Y-105446112D01*
X112053813Y-105693344D01*
X111982211Y-105959663D01*
X111963940Y-106234833D01*
X109167018Y-106234833D01*
X109079125Y-105973072D01*
X108984750Y-105796509D01*
X108742202Y-105719220D01*
X107891421Y-106570000D01*
X107608579Y-106570000D01*
X106757798Y-105719220D01*
X106515250Y-105796509D01*
X106388075Y-106052259D01*
X106313238Y-106327906D01*
X106293614Y-106612856D01*
X105649351Y-106612856D01*
X105699994Y-106591879D01*
X105855590Y-106487913D01*
X105987913Y-106355590D01*
X106091879Y-106199994D01*
X106163492Y-106027105D01*
X106200000Y-105843567D01*
X106200000Y-105656433D01*
X106184359Y-105577798D01*
X106899220Y-105577798D01*
X107750000Y-106428579D01*
X108600780Y-105577798D01*
X108523491Y-105335250D01*
X108318739Y-105233434D01*
X112554855Y-105233434D01*
X113370000Y-106048579D01*
X114185145Y-105233434D01*
X114113888Y-104995996D01*
X113879176Y-104880000D01*
X118504000Y-104880000D01*
X118504000Y-107337305D01*
X118507843Y-107376323D01*
X118519224Y-107413842D01*
X118537706Y-107448419D01*
X118562579Y-107478726D01*
X118592886Y-107503599D01*
X118627463Y-107522081D01*
X118664982Y-107533462D01*
X118704000Y-107537305D01*
X119621054Y-107537305D01*
X119493558Y-107575981D01*
X119285090Y-107687409D01*
X119102366Y-107837366D01*
X118952409Y-108020090D01*
X118840981Y-108228558D01*
X118772363Y-108454759D01*
X118749194Y-108690000D01*
X118772363Y-108925241D01*
X118840981Y-109151442D01*
X118952409Y-109359910D01*
X119102366Y-109542634D01*
X119285090Y-109692591D01*
X119493558Y-109804019D01*
X119719759Y-109872637D01*
X119896050Y-109890000D01*
X120813950Y-109890000D01*
X120990241Y-109872637D01*
X121216442Y-109804019D01*
X121424910Y-109692591D01*
X121594625Y-109553310D01*
X121547211Y-109729663D01*
X121528940Y-110004833D01*
X121564703Y-110278280D01*
X121594632Y-110366696D01*
X121424910Y-110227409D01*
X121216442Y-110115981D01*
X120990241Y-110047363D01*
X120813950Y-110030000D01*
X119896050Y-110030000D01*
X119719759Y-110047363D01*
X119493558Y-110115981D01*
X119285090Y-110227409D01*
X119102366Y-110377366D01*
X118952409Y-110560090D01*
X118840981Y-110768558D01*
X118772363Y-110994759D01*
X118749194Y-111230000D01*
X118772363Y-111465241D01*
X118840981Y-111691442D01*
X118952409Y-111899910D01*
X119102366Y-112082634D01*
X119285090Y-112232591D01*
X119493558Y-112344019D01*
X119719759Y-112412637D01*
X119896050Y-112430000D01*
X120813950Y-112430000D01*
X120990241Y-112412637D01*
X121216442Y-112344019D01*
X121424910Y-112232591D01*
X121607634Y-112082634D01*
X121757591Y-111899910D01*
X121869019Y-111691442D01*
X121937637Y-111465241D01*
X121960806Y-111230000D01*
X121937637Y-110994759D01*
X121913918Y-110916566D01*
X122119855Y-110916566D01*
X122191112Y-111154004D01*
X122438344Y-111276187D01*
X122704663Y-111347789D01*
X122979833Y-111366060D01*
X123253280Y-111330297D01*
X123514496Y-111241874D01*
X123536710Y-111230000D01*
X126369194Y-111230000D01*
X126392363Y-111465241D01*
X126460981Y-111691442D01*
X126572409Y-111899910D01*
X126722366Y-112082634D01*
X126905090Y-112232591D01*
X127113558Y-112344019D01*
X127339759Y-112412637D01*
X127516050Y-112430000D01*
X128433950Y-112430000D01*
X128610241Y-112412637D01*
X128836442Y-112344019D01*
X129044910Y-112232591D01*
X129227634Y-112082634D01*
X129377591Y-111899910D01*
X129489019Y-111691442D01*
X129557637Y-111465241D01*
X129580806Y-111230000D01*
X129557637Y-110994759D01*
X129489019Y-110768558D01*
X129377591Y-110560090D01*
X129227634Y-110377366D01*
X129044910Y-110227409D01*
X128836442Y-110115981D01*
X128610241Y-110047363D01*
X128433950Y-110030000D01*
X127516050Y-110030000D01*
X127339759Y-110047363D01*
X127113558Y-110115981D01*
X126905090Y-110227409D01*
X126722366Y-110377366D01*
X126572409Y-110560090D01*
X126460981Y-110768558D01*
X126392363Y-110994759D01*
X126369194Y-111230000D01*
X123536710Y-111230000D01*
X123678888Y-111154004D01*
X123750145Y-110916566D01*
X122935000Y-110101421D01*
X122119855Y-110916566D01*
X121913918Y-110916566D01*
X121869019Y-110768558D01*
X121852308Y-110737294D01*
X121978434Y-110775145D01*
X122793579Y-109960000D01*
X123076421Y-109960000D01*
X123891566Y-110775145D01*
X124129004Y-110703888D01*
X124251187Y-110456656D01*
X124286873Y-110323925D01*
X124371574Y-110528413D01*
X124502899Y-110724955D01*
X124670045Y-110892101D01*
X124866587Y-111023426D01*
X125084973Y-111113884D01*
X125316810Y-111160000D01*
X125553190Y-111160000D01*
X125785027Y-111113884D01*
X126003413Y-111023426D01*
X126199955Y-110892101D01*
X126367101Y-110724955D01*
X126498426Y-110528413D01*
X126588884Y-110310027D01*
X126635000Y-110078190D01*
X126635000Y-109841810D01*
X126588884Y-109609973D01*
X126498426Y-109391587D01*
X126367101Y-109195045D01*
X126199955Y-109027899D01*
X126003413Y-108896574D01*
X125785027Y-108806116D01*
X125553190Y-108760000D01*
X125316810Y-108760000D01*
X125084973Y-108806116D01*
X124866587Y-108896574D01*
X124670045Y-109027899D01*
X124502899Y-109195045D01*
X124371574Y-109391587D01*
X124288509Y-109592125D01*
X124216874Y-109380504D01*
X124129004Y-109216112D01*
X123891566Y-109144855D01*
X123076421Y-109960000D01*
X122793579Y-109960000D01*
X121978434Y-109144855D01*
X121852308Y-109182706D01*
X121869019Y-109151442D01*
X121913917Y-109003434D01*
X122119855Y-109003434D01*
X122935000Y-109818579D01*
X123750145Y-109003434D01*
X123678888Y-108765996D01*
X123525114Y-108690000D01*
X126369194Y-108690000D01*
X126392363Y-108925241D01*
X126460981Y-109151442D01*
X126572409Y-109359910D01*
X126722366Y-109542634D01*
X126905090Y-109692591D01*
X127113558Y-109804019D01*
X127339759Y-109872637D01*
X127516050Y-109890000D01*
X128433950Y-109890000D01*
X128610241Y-109872637D01*
X128836442Y-109804019D01*
X129044910Y-109692591D01*
X129227634Y-109542634D01*
X129377591Y-109359910D01*
X129489019Y-109151442D01*
X129557637Y-108925241D01*
X129580806Y-108690000D01*
X129569166Y-108571810D01*
X129696000Y-108571810D01*
X129696000Y-108808190D01*
X129742116Y-109040027D01*
X129832574Y-109258413D01*
X129963899Y-109454955D01*
X130131045Y-109622101D01*
X130327587Y-109753426D01*
X130545973Y-109843884D01*
X130777810Y-109890000D01*
X131014190Y-109890000D01*
X131055363Y-109881810D01*
X132490000Y-109881810D01*
X132490000Y-110118190D01*
X132536116Y-110350027D01*
X132626574Y-110568413D01*
X132757899Y-110764955D01*
X132925045Y-110932101D01*
X133121587Y-111063426D01*
X133339973Y-111153884D01*
X133571810Y-111200000D01*
X133808190Y-111200000D01*
X134040027Y-111153884D01*
X134258413Y-111063426D01*
X134407925Y-110963525D01*
X134311191Y-111140053D01*
X134107150Y-111788290D01*
X134033495Y-112463877D01*
X134093056Y-113140852D01*
X134283544Y-113793201D01*
X134597638Y-114395852D01*
X134637775Y-114455922D01*
X135085100Y-114773479D01*
X137358579Y-112500000D01*
X137641421Y-112500000D01*
X139914900Y-114773479D01*
X140362225Y-114455922D01*
X140688809Y-113859947D01*
X140892850Y-113211710D01*
X140966505Y-112536123D01*
X140906944Y-111859148D01*
X140750419Y-111323107D01*
X142150961Y-111323107D01*
X143553243Y-115175846D01*
X145143397Y-114597077D01*
X147192361Y-115780047D01*
X147436481Y-115357218D01*
X150106412Y-115357218D01*
X150159978Y-115533815D01*
X150281488Y-115779899D01*
X150448672Y-115997549D01*
X150655105Y-116178401D01*
X150892854Y-116315505D01*
X151152782Y-116403592D01*
X151370000Y-116286428D01*
X151370000Y-115140000D01*
X151570000Y-115140000D01*
X151570000Y-116286428D01*
X151787218Y-116403592D01*
X152047146Y-116315505D01*
X152284895Y-116178401D01*
X152491328Y-115997549D01*
X152658512Y-115779899D01*
X152780022Y-115533815D01*
X152833588Y-115357218D01*
X152715994Y-115140000D01*
X151570000Y-115140000D01*
X151370000Y-115140000D01*
X150224006Y-115140000D01*
X150106412Y-115357218D01*
X147436481Y-115357218D01*
X147802772Y-114722782D01*
X150106412Y-114722782D01*
X150224006Y-114940000D01*
X151370000Y-114940000D01*
X151370000Y-113793572D01*
X151570000Y-113793572D01*
X151570000Y-114940000D01*
X152715994Y-114940000D01*
X152725841Y-114921810D01*
X160430000Y-114921810D01*
X160430000Y-115158190D01*
X160476116Y-115390027D01*
X160566574Y-115608413D01*
X160697899Y-115804955D01*
X160865045Y-115972101D01*
X161061587Y-116103426D01*
X161279973Y-116193884D01*
X161511810Y-116240000D01*
X161748190Y-116240000D01*
X161980027Y-116193884D01*
X162198413Y-116103426D01*
X162394955Y-115972101D01*
X162562101Y-115804955D01*
X162693426Y-115608413D01*
X162783884Y-115390027D01*
X162830000Y-115158190D01*
X162830000Y-114921810D01*
X162822044Y-114881810D01*
X164240000Y-114881810D01*
X164240000Y-115118190D01*
X164286116Y-115350027D01*
X164376574Y-115568413D01*
X164507899Y-115764955D01*
X164675045Y-115932101D01*
X164871587Y-116063426D01*
X165089973Y-116153884D01*
X165321810Y-116200000D01*
X165558190Y-116200000D01*
X165790027Y-116153884D01*
X166008413Y-116063426D01*
X166168340Y-115956566D01*
X167164855Y-115956566D01*
X167236112Y-116194004D01*
X167483344Y-116316187D01*
X167749663Y-116387789D01*
X168024833Y-116406060D01*
X168298280Y-116370297D01*
X168559496Y-116281874D01*
X168723888Y-116194004D01*
X168795145Y-115956566D01*
X167980000Y-115141421D01*
X167164855Y-115956566D01*
X166168340Y-115956566D01*
X166204955Y-115932101D01*
X166372101Y-115764955D01*
X166503426Y-115568413D01*
X166593884Y-115350027D01*
X166605933Y-115289454D01*
X166609703Y-115318280D01*
X166698126Y-115579496D01*
X166785996Y-115743888D01*
X167023434Y-115815145D01*
X167838579Y-115000000D01*
X168121421Y-115000000D01*
X168936566Y-115815145D01*
X169174004Y-115743888D01*
X169296187Y-115496656D01*
X169367789Y-115230337D01*
X169386060Y-114955167D01*
X169350297Y-114681720D01*
X169261874Y-114420504D01*
X169174004Y-114256112D01*
X168936566Y-114184855D01*
X168121421Y-115000000D01*
X167838579Y-115000000D01*
X167023434Y-114184855D01*
X166785996Y-114256112D01*
X166663813Y-114503344D01*
X166606857Y-114715190D01*
X166593884Y-114649973D01*
X166503426Y-114431587D01*
X166372101Y-114235045D01*
X166204955Y-114067899D01*
X166008413Y-113936574D01*
X165790027Y-113846116D01*
X165558190Y-113800000D01*
X165321810Y-113800000D01*
X165089973Y-113846116D01*
X164871587Y-113936574D01*
X164675045Y-114067899D01*
X164507899Y-114235045D01*
X164376574Y-114431587D01*
X164286116Y-114649973D01*
X164240000Y-114881810D01*
X162822044Y-114881810D01*
X162783884Y-114689973D01*
X162693426Y-114471587D01*
X162562101Y-114275045D01*
X162394955Y-114107899D01*
X162198413Y-113976574D01*
X161980027Y-113886116D01*
X161748190Y-113840000D01*
X161511810Y-113840000D01*
X161279973Y-113886116D01*
X161061587Y-113976574D01*
X160865045Y-114107899D01*
X160697899Y-114275045D01*
X160566574Y-114471587D01*
X160476116Y-114689973D01*
X160430000Y-114921810D01*
X152725841Y-114921810D01*
X152833588Y-114722782D01*
X152780022Y-114546185D01*
X152658512Y-114300101D01*
X152491328Y-114082451D01*
X152284895Y-113901599D01*
X152047146Y-113764495D01*
X151787218Y-113676408D01*
X151570000Y-113793572D01*
X151370000Y-113793572D01*
X151152782Y-113676408D01*
X150892854Y-113764495D01*
X150655105Y-113901599D01*
X150448672Y-114082451D01*
X150281488Y-114300101D01*
X150159978Y-114546185D01*
X150106412Y-114722782D01*
X147802772Y-114722782D01*
X149242361Y-112229342D01*
X147306738Y-111111810D01*
X150270000Y-111111810D01*
X150270000Y-111348190D01*
X150316116Y-111580027D01*
X150406574Y-111798413D01*
X150537899Y-111994955D01*
X150705045Y-112162101D01*
X150901587Y-112293426D01*
X151119973Y-112383884D01*
X151351810Y-112430000D01*
X151588190Y-112430000D01*
X151820027Y-112383884D01*
X152038413Y-112293426D01*
X152234955Y-112162101D01*
X152402101Y-111994955D01*
X152533426Y-111798413D01*
X152623884Y-111580027D01*
X152670000Y-111348190D01*
X152670000Y-111230000D01*
X160424194Y-111230000D01*
X160447363Y-111465241D01*
X160515981Y-111691442D01*
X160627409Y-111899910D01*
X160777366Y-112082634D01*
X160960090Y-112232591D01*
X161168558Y-112344019D01*
X161394759Y-112412637D01*
X161571050Y-112430000D01*
X161688950Y-112430000D01*
X161865241Y-112412637D01*
X161923381Y-112395000D01*
X164116097Y-112395000D01*
X164127682Y-112512620D01*
X164161991Y-112625721D01*
X164217705Y-112729954D01*
X164276477Y-112801567D01*
X164286116Y-112850027D01*
X164376574Y-113068413D01*
X164507899Y-113264955D01*
X164675045Y-113432101D01*
X164871587Y-113563426D01*
X165089973Y-113653884D01*
X165321810Y-113700000D01*
X165558190Y-113700000D01*
X165790027Y-113653884D01*
X166008413Y-113563426D01*
X166204955Y-113432101D01*
X166372101Y-113264955D01*
X166503426Y-113068413D01*
X166593884Y-112850027D01*
X166640000Y-112618190D01*
X166640000Y-112381810D01*
X166780000Y-112381810D01*
X166780000Y-112618190D01*
X166826116Y-112850027D01*
X166916574Y-113068413D01*
X167047899Y-113264955D01*
X167215045Y-113432101D01*
X167411587Y-113563426D01*
X167612125Y-113646491D01*
X167400504Y-113718126D01*
X167236112Y-113805996D01*
X167164855Y-114043434D01*
X167980000Y-114858579D01*
X168795145Y-114043434D01*
X168723888Y-113805996D01*
X168476656Y-113683813D01*
X168343925Y-113648127D01*
X168548413Y-113563426D01*
X168744955Y-113432101D01*
X168912101Y-113264955D01*
X169043426Y-113068413D01*
X169133884Y-112850027D01*
X169180000Y-112618190D01*
X169180000Y-112381810D01*
X169133884Y-112149973D01*
X169043426Y-111931587D01*
X168912101Y-111735045D01*
X168744955Y-111567899D01*
X168548413Y-111436574D01*
X168330027Y-111346116D01*
X168098190Y-111300000D01*
X167861810Y-111300000D01*
X167629973Y-111346116D01*
X167411587Y-111436574D01*
X167215045Y-111567899D01*
X167047899Y-111735045D01*
X166916574Y-111931587D01*
X166826116Y-112149973D01*
X166780000Y-112381810D01*
X166640000Y-112381810D01*
X166593884Y-112149973D01*
X166503426Y-111931587D01*
X166372101Y-111735045D01*
X166204955Y-111567899D01*
X166008413Y-111436574D01*
X165790027Y-111346116D01*
X165558190Y-111300000D01*
X165321810Y-111300000D01*
X165296674Y-111305000D01*
X165238476Y-111305000D01*
X165209000Y-111302097D01*
X165091379Y-111313681D01*
X164984457Y-111346116D01*
X164978279Y-111347990D01*
X164874045Y-111403704D01*
X164782683Y-111478683D01*
X164763891Y-111501581D01*
X164742937Y-111522535D01*
X164675045Y-111567899D01*
X164507899Y-111735045D01*
X164462534Y-111802939D01*
X164273895Y-111991578D01*
X164217705Y-112060046D01*
X164161991Y-112164279D01*
X164127682Y-112277380D01*
X164116097Y-112395000D01*
X161923381Y-112395000D01*
X162091442Y-112344019D01*
X162299910Y-112232591D01*
X162482634Y-112082634D01*
X162632591Y-111899910D01*
X162744019Y-111691442D01*
X162812637Y-111465241D01*
X162835806Y-111230000D01*
X162812637Y-110994759D01*
X162744019Y-110768558D01*
X162632591Y-110560090D01*
X162482634Y-110377366D01*
X162299910Y-110227409D01*
X162091442Y-110115981D01*
X161865241Y-110047363D01*
X161688950Y-110030000D01*
X161571050Y-110030000D01*
X161394759Y-110047363D01*
X161168558Y-110115981D01*
X160960090Y-110227409D01*
X160777366Y-110377366D01*
X160627409Y-110560090D01*
X160515981Y-110768558D01*
X160447363Y-110994759D01*
X160424194Y-111230000D01*
X152670000Y-111230000D01*
X152670000Y-111111810D01*
X152623884Y-110879973D01*
X152533426Y-110661587D01*
X152402101Y-110465045D01*
X152234955Y-110297899D01*
X152038413Y-110166574D01*
X151820027Y-110076116D01*
X151588190Y-110030000D01*
X151351810Y-110030000D01*
X151119973Y-110076116D01*
X150901587Y-110166574D01*
X150705045Y-110297899D01*
X150537899Y-110465045D01*
X150406574Y-110661587D01*
X150316116Y-110879973D01*
X150270000Y-111111810D01*
X147306738Y-111111810D01*
X147125160Y-111006976D01*
X146694916Y-108566938D01*
X143642012Y-109105248D01*
X143919574Y-110679384D01*
X142150961Y-111323107D01*
X140750419Y-111323107D01*
X140716456Y-111206799D01*
X140402362Y-110604148D01*
X140362225Y-110544078D01*
X139914900Y-110226521D01*
X137641421Y-112500000D01*
X137358579Y-112500000D01*
X135085100Y-110226521D01*
X134815877Y-110417643D01*
X134843884Y-110350027D01*
X134890000Y-110118190D01*
X134890000Y-110085100D01*
X135226521Y-110085100D01*
X137500000Y-112358579D01*
X139773479Y-110085100D01*
X139455922Y-109637775D01*
X138859947Y-109311191D01*
X138211710Y-109107150D01*
X137536123Y-109033495D01*
X136859148Y-109093056D01*
X136206799Y-109283544D01*
X135604148Y-109597638D01*
X135544078Y-109637775D01*
X135226521Y-110085100D01*
X134890000Y-110085100D01*
X134890000Y-109881810D01*
X134843884Y-109649973D01*
X134753426Y-109431587D01*
X134622101Y-109235045D01*
X134454955Y-109067899D01*
X134258413Y-108936574D01*
X134040027Y-108846116D01*
X133808190Y-108800000D01*
X133571810Y-108800000D01*
X133339973Y-108846116D01*
X133121587Y-108936574D01*
X132925045Y-109067899D01*
X132757899Y-109235045D01*
X132626574Y-109431587D01*
X132536116Y-109649973D01*
X132490000Y-109881810D01*
X131055363Y-109881810D01*
X131246027Y-109843884D01*
X131464413Y-109753426D01*
X131660955Y-109622101D01*
X131828101Y-109454955D01*
X131959426Y-109258413D01*
X132049884Y-109040027D01*
X132096000Y-108808190D01*
X132096000Y-108571810D01*
X132049884Y-108339973D01*
X131959426Y-108121587D01*
X131828101Y-107925045D01*
X131660955Y-107757899D01*
X131464413Y-107626574D01*
X131246027Y-107536116D01*
X131014190Y-107490000D01*
X130777810Y-107490000D01*
X130545973Y-107536116D01*
X130327587Y-107626574D01*
X130131045Y-107757899D01*
X129963899Y-107925045D01*
X129832574Y-108121587D01*
X129742116Y-108339973D01*
X129696000Y-108571810D01*
X129569166Y-108571810D01*
X129557637Y-108454759D01*
X129489019Y-108228558D01*
X129377591Y-108020090D01*
X129227634Y-107837366D01*
X129044910Y-107687409D01*
X128836442Y-107575981D01*
X128610241Y-107507363D01*
X128433950Y-107490000D01*
X127516050Y-107490000D01*
X127339759Y-107507363D01*
X127113558Y-107575981D01*
X126905090Y-107687409D01*
X126722366Y-107837366D01*
X126572409Y-108020090D01*
X126460981Y-108228558D01*
X126392363Y-108454759D01*
X126369194Y-108690000D01*
X123525114Y-108690000D01*
X123431656Y-108643813D01*
X123165337Y-108572211D01*
X122890167Y-108553940D01*
X122616720Y-108589703D01*
X122355504Y-108678126D01*
X122191112Y-108765996D01*
X122119855Y-109003434D01*
X121913917Y-109003434D01*
X121937637Y-108925241D01*
X121960806Y-108690000D01*
X121937637Y-108454759D01*
X121869019Y-108228558D01*
X121757591Y-108020090D01*
X121607634Y-107837366D01*
X121424910Y-107687409D01*
X121216442Y-107575981D01*
X121088946Y-107537305D01*
X122006000Y-107537305D01*
X122045018Y-107533462D01*
X122082537Y-107522081D01*
X122117114Y-107503599D01*
X122147421Y-107478726D01*
X122172294Y-107448419D01*
X122190776Y-107413842D01*
X122202157Y-107376323D01*
X122206000Y-107337305D01*
X122206000Y-106150000D01*
X126369194Y-106150000D01*
X126392363Y-106385241D01*
X126460981Y-106611442D01*
X126572409Y-106819910D01*
X126722366Y-107002634D01*
X126905090Y-107152591D01*
X127113558Y-107264019D01*
X127339759Y-107332637D01*
X127516050Y-107350000D01*
X128433950Y-107350000D01*
X128610241Y-107332637D01*
X128836442Y-107264019D01*
X128840574Y-107261810D01*
X136300000Y-107261810D01*
X136300000Y-107498190D01*
X136346116Y-107730027D01*
X136436574Y-107948413D01*
X136567899Y-108144955D01*
X136735045Y-108312101D01*
X136931587Y-108443426D01*
X137149973Y-108533884D01*
X137381810Y-108580000D01*
X137618190Y-108580000D01*
X137850027Y-108533884D01*
X138068413Y-108443426D01*
X138264955Y-108312101D01*
X138432101Y-108144955D01*
X138563426Y-107948413D01*
X138653884Y-107730027D01*
X138700000Y-107498190D01*
X138700000Y-107420000D01*
X142009194Y-107420000D01*
X142032363Y-107655241D01*
X142100981Y-107881442D01*
X142212409Y-108089910D01*
X142362366Y-108272634D01*
X142545090Y-108422591D01*
X142753558Y-108534019D01*
X142979759Y-108602637D01*
X143156050Y-108620000D01*
X143273950Y-108620000D01*
X143450241Y-108602637D01*
X143676442Y-108534019D01*
X143884910Y-108422591D01*
X144067634Y-108272634D01*
X144217591Y-108089910D01*
X144329019Y-107881442D01*
X144397637Y-107655241D01*
X144420806Y-107420000D01*
X144409166Y-107301810D01*
X146460000Y-107301810D01*
X146460000Y-107538190D01*
X146506116Y-107770027D01*
X146596574Y-107988413D01*
X146727899Y-108184955D01*
X146895045Y-108352101D01*
X147091587Y-108483426D01*
X147309973Y-108573884D01*
X147541810Y-108620000D01*
X147778190Y-108620000D01*
X148010027Y-108573884D01*
X148228413Y-108483426D01*
X148241023Y-108475000D01*
X164188065Y-108475000D01*
X164188065Y-110175000D01*
X164195788Y-110253414D01*
X164218660Y-110328814D01*
X164255803Y-110398303D01*
X164305789Y-110459211D01*
X164366697Y-110509197D01*
X164436186Y-110546340D01*
X164511586Y-110569212D01*
X164590000Y-110576935D01*
X166290000Y-110576935D01*
X166368414Y-110569212D01*
X166443814Y-110546340D01*
X166513303Y-110509197D01*
X166574211Y-110459211D01*
X166624197Y-110398303D01*
X166661340Y-110328814D01*
X166684212Y-110253414D01*
X166691935Y-110175000D01*
X166691935Y-109979604D01*
X166798861Y-110166085D01*
X166985644Y-110380353D01*
X167210639Y-110554064D01*
X167465201Y-110680543D01*
X167654941Y-110738095D01*
X167880000Y-110621148D01*
X167880000Y-109425000D01*
X168080000Y-109425000D01*
X168080000Y-110621148D01*
X168305059Y-110738095D01*
X168494799Y-110680543D01*
X168749361Y-110554064D01*
X168974356Y-110380353D01*
X169161139Y-110166085D01*
X169302531Y-109919495D01*
X169393099Y-109650059D01*
X169276552Y-109425000D01*
X168080000Y-109425000D01*
X167880000Y-109425000D01*
X167860000Y-109425000D01*
X167860000Y-109225000D01*
X167880000Y-109225000D01*
X167880000Y-108028852D01*
X168080000Y-108028852D01*
X168080000Y-109225000D01*
X169276552Y-109225000D01*
X169393099Y-108999941D01*
X169302531Y-108730505D01*
X169161139Y-108483915D01*
X168974356Y-108269647D01*
X168749361Y-108095936D01*
X168494799Y-107969457D01*
X168305059Y-107911905D01*
X168080000Y-108028852D01*
X167880000Y-108028852D01*
X167654941Y-107911905D01*
X167465201Y-107969457D01*
X167210639Y-108095936D01*
X166985644Y-108269647D01*
X166798861Y-108483915D01*
X166691935Y-108670396D01*
X166691935Y-108475000D01*
X166684212Y-108396586D01*
X166661340Y-108321186D01*
X166624197Y-108251697D01*
X166574211Y-108190789D01*
X166513303Y-108140803D01*
X166443814Y-108103660D01*
X166368414Y-108080788D01*
X166290000Y-108073065D01*
X164590000Y-108073065D01*
X164511586Y-108080788D01*
X164436186Y-108103660D01*
X164366697Y-108140803D01*
X164305789Y-108190789D01*
X164255803Y-108251697D01*
X164218660Y-108321186D01*
X164195788Y-108396586D01*
X164188065Y-108475000D01*
X148241023Y-108475000D01*
X148424955Y-108352101D01*
X148592101Y-108184955D01*
X148723426Y-107988413D01*
X148813884Y-107770027D01*
X148860000Y-107538190D01*
X148860000Y-107301810D01*
X148813884Y-107069973D01*
X148723426Y-106851587D01*
X148592101Y-106655045D01*
X148424955Y-106487899D01*
X148228413Y-106356574D01*
X148010027Y-106266116D01*
X147778190Y-106220000D01*
X147541810Y-106220000D01*
X147309973Y-106266116D01*
X147091587Y-106356574D01*
X146895045Y-106487899D01*
X146727899Y-106655045D01*
X146596574Y-106851587D01*
X146506116Y-107069973D01*
X146460000Y-107301810D01*
X144409166Y-107301810D01*
X144397637Y-107184759D01*
X144329019Y-106958558D01*
X144217591Y-106750090D01*
X144067634Y-106567366D01*
X143884910Y-106417409D01*
X143676442Y-106305981D01*
X143450241Y-106237363D01*
X143273950Y-106220000D01*
X143156050Y-106220000D01*
X142979759Y-106237363D01*
X142753558Y-106305981D01*
X142545090Y-106417409D01*
X142362366Y-106567366D01*
X142212409Y-106750090D01*
X142100981Y-106958558D01*
X142032363Y-107184759D01*
X142009194Y-107420000D01*
X138700000Y-107420000D01*
X138700000Y-107261810D01*
X138653884Y-107029973D01*
X138563426Y-106811587D01*
X138432101Y-106615045D01*
X138264955Y-106447899D01*
X138068413Y-106316574D01*
X137850027Y-106226116D01*
X137618190Y-106180000D01*
X137381810Y-106180000D01*
X137149973Y-106226116D01*
X136931587Y-106316574D01*
X136735045Y-106447899D01*
X136567899Y-106615045D01*
X136436574Y-106811587D01*
X136346116Y-107029973D01*
X136300000Y-107261810D01*
X128840574Y-107261810D01*
X129044910Y-107152591D01*
X129227634Y-107002634D01*
X129377591Y-106819910D01*
X129489019Y-106611442D01*
X129557637Y-106385241D01*
X129580806Y-106150000D01*
X129557637Y-105914759D01*
X129489019Y-105688558D01*
X129377591Y-105480090D01*
X129227634Y-105297366D01*
X129044910Y-105147409D01*
X128836442Y-105035981D01*
X128610241Y-104967363D01*
X128433950Y-104950000D01*
X127516050Y-104950000D01*
X127339759Y-104967363D01*
X127113558Y-105035981D01*
X126905090Y-105147409D01*
X126722366Y-105297366D01*
X126572409Y-105480090D01*
X126460981Y-105688558D01*
X126392363Y-105914759D01*
X126369194Y-106150000D01*
X122206000Y-106150000D01*
X122206000Y-104880000D01*
X122202157Y-104840982D01*
X122190776Y-104803463D01*
X122172294Y-104768886D01*
X122166487Y-104761810D01*
X136300000Y-104761810D01*
X136300000Y-104998190D01*
X136346116Y-105230027D01*
X136436574Y-105448413D01*
X136567899Y-105644955D01*
X136735045Y-105812101D01*
X136931587Y-105943426D01*
X137149973Y-106033884D01*
X137290581Y-106061853D01*
X137298120Y-106065883D01*
X137397084Y-106095903D01*
X137500000Y-106106040D01*
X137602917Y-106095903D01*
X137701880Y-106065883D01*
X137709420Y-106061853D01*
X137850027Y-106033884D01*
X138068413Y-105943426D01*
X138264955Y-105812101D01*
X138432101Y-105644955D01*
X138563426Y-105448413D01*
X138653884Y-105230027D01*
X138700000Y-104998190D01*
X138700000Y-104914900D01*
X152626521Y-104914900D01*
X152944078Y-105362225D01*
X153540053Y-105688809D01*
X154188290Y-105892850D01*
X154863877Y-105966505D01*
X155540852Y-105906944D01*
X156193201Y-105716456D01*
X156795852Y-105402362D01*
X156855922Y-105362225D01*
X157051981Y-105086047D01*
X167197471Y-105086047D01*
X167285894Y-105347263D01*
X167423579Y-105586209D01*
X167605234Y-105793703D01*
X167823879Y-105961771D01*
X168071111Y-106083954D01*
X168249487Y-106138063D01*
X168467767Y-106020556D01*
X168467767Y-104867767D01*
X168667767Y-104867767D01*
X168667767Y-106020556D01*
X168886047Y-106138063D01*
X169147263Y-106049640D01*
X169386209Y-105911955D01*
X169593703Y-105730300D01*
X169761771Y-105511655D01*
X169883954Y-105264423D01*
X169938063Y-105086047D01*
X169820556Y-104867767D01*
X168667767Y-104867767D01*
X168467767Y-104867767D01*
X167314978Y-104867767D01*
X167197471Y-105086047D01*
X157051981Y-105086047D01*
X157173479Y-104914900D01*
X154900000Y-102641421D01*
X152626521Y-104914900D01*
X138700000Y-104914900D01*
X138700000Y-104761810D01*
X138653884Y-104529973D01*
X138563426Y-104311587D01*
X138432101Y-104115045D01*
X138264955Y-103947899D01*
X138068413Y-103816574D01*
X137850027Y-103726116D01*
X137618190Y-103680000D01*
X137381810Y-103680000D01*
X137149973Y-103726116D01*
X136931587Y-103816574D01*
X136735045Y-103947899D01*
X136567899Y-104115045D01*
X136436574Y-104311587D01*
X136346116Y-104529973D01*
X136300000Y-104761810D01*
X122166487Y-104761810D01*
X122147421Y-104738579D01*
X122117114Y-104713706D01*
X122082537Y-104695224D01*
X122045018Y-104683843D01*
X122006000Y-104680000D01*
X118704000Y-104680000D01*
X118664982Y-104683843D01*
X118627463Y-104695224D01*
X118592886Y-104713706D01*
X118562579Y-104738579D01*
X118537706Y-104768886D01*
X118519224Y-104803463D01*
X118507843Y-104840982D01*
X118504000Y-104880000D01*
X113879176Y-104880000D01*
X113866656Y-104873813D01*
X113600337Y-104802211D01*
X113325167Y-104783940D01*
X113051720Y-104819703D01*
X112790504Y-104908126D01*
X112626112Y-104995996D01*
X112554855Y-105233434D01*
X108318739Y-105233434D01*
X108267741Y-105208075D01*
X107992094Y-105133238D01*
X107707144Y-105113614D01*
X107423841Y-105149958D01*
X107153072Y-105240875D01*
X106976509Y-105335250D01*
X106899220Y-105577798D01*
X106184359Y-105577798D01*
X106163492Y-105472895D01*
X106091879Y-105300006D01*
X105987913Y-105144410D01*
X105855590Y-105012087D01*
X105803072Y-104976995D01*
X105823332Y-104975000D01*
X105893116Y-104968127D01*
X105982654Y-104940966D01*
X106065173Y-104896859D01*
X106137501Y-104837501D01*
X106152384Y-104819366D01*
X107596752Y-103375000D01*
X109990313Y-103375000D01*
X110027346Y-103376514D01*
X110060109Y-103371378D01*
X110093116Y-103368127D01*
X110106239Y-103364146D01*
X110119783Y-103362023D01*
X110150914Y-103350594D01*
X110182654Y-103340966D01*
X110194747Y-103334502D01*
X110207618Y-103329777D01*
X110235918Y-103312496D01*
X110265173Y-103296859D01*
X110275777Y-103288157D01*
X110287474Y-103281014D01*
X110311849Y-103258553D01*
X110337501Y-103237501D01*
X110346206Y-103226893D01*
X110356282Y-103217609D01*
X110375803Y-103190829D01*
X110396859Y-103165173D01*
X110414349Y-103132452D01*
X111440957Y-101387218D01*
X115181408Y-101387218D01*
X115269495Y-101647146D01*
X115406599Y-101884895D01*
X115587451Y-102091328D01*
X115805101Y-102258512D01*
X116051185Y-102380022D01*
X116227782Y-102433588D01*
X116445000Y-102315994D01*
X116445000Y-101170000D01*
X116645000Y-101170000D01*
X116645000Y-102315994D01*
X116862218Y-102433588D01*
X117038815Y-102380022D01*
X117284899Y-102258512D01*
X117502549Y-102091328D01*
X117683401Y-101884895D01*
X117761191Y-101750000D01*
X119174194Y-101750000D01*
X119197363Y-101985241D01*
X119265981Y-102211442D01*
X119377409Y-102419910D01*
X119527366Y-102602634D01*
X119710090Y-102752591D01*
X119918558Y-102864019D01*
X120144759Y-102932637D01*
X120321050Y-102950000D01*
X120438950Y-102950000D01*
X120615241Y-102932637D01*
X120841442Y-102864019D01*
X121049910Y-102752591D01*
X121232634Y-102602634D01*
X121382591Y-102419910D01*
X121494019Y-102211442D01*
X121562637Y-101985241D01*
X121585806Y-101750000D01*
X121574166Y-101631810D01*
X126800000Y-101631810D01*
X126800000Y-101868190D01*
X126846116Y-102100027D01*
X126936574Y-102318413D01*
X127067899Y-102514955D01*
X127235045Y-102682101D01*
X127431587Y-102813426D01*
X127649973Y-102903884D01*
X127881810Y-102950000D01*
X128118190Y-102950000D01*
X128350027Y-102903884D01*
X128568413Y-102813426D01*
X128764955Y-102682101D01*
X128932101Y-102514955D01*
X129022274Y-102380000D01*
X132484194Y-102380000D01*
X132507363Y-102615241D01*
X132575981Y-102841442D01*
X132687409Y-103049910D01*
X132837366Y-103232634D01*
X133020090Y-103382591D01*
X133228558Y-103494019D01*
X133454759Y-103562637D01*
X133631050Y-103580000D01*
X133748950Y-103580000D01*
X133925241Y-103562637D01*
X134151442Y-103494019D01*
X134359910Y-103382591D01*
X134542634Y-103232634D01*
X134692591Y-103049910D01*
X134795804Y-102856810D01*
X142015000Y-102856810D01*
X142015000Y-103093190D01*
X142061116Y-103325027D01*
X142151574Y-103543413D01*
X142282899Y-103739955D01*
X142450045Y-103907101D01*
X142646587Y-104038426D01*
X142864973Y-104128884D01*
X143096810Y-104175000D01*
X143333190Y-104175000D01*
X143565027Y-104128884D01*
X143783413Y-104038426D01*
X143943340Y-103931566D01*
X144899855Y-103931566D01*
X144971112Y-104169004D01*
X145218344Y-104291187D01*
X145484663Y-104362789D01*
X145759833Y-104381060D01*
X146033280Y-104345297D01*
X146294496Y-104256874D01*
X146458888Y-104169004D01*
X146530145Y-103931566D01*
X145715000Y-103116421D01*
X144899855Y-103931566D01*
X143943340Y-103931566D01*
X143979955Y-103907101D01*
X144147101Y-103739955D01*
X144278426Y-103543413D01*
X144361491Y-103342875D01*
X144433126Y-103554496D01*
X144520996Y-103718888D01*
X144758434Y-103790145D01*
X145573579Y-102975000D01*
X145856421Y-102975000D01*
X146671566Y-103790145D01*
X146909004Y-103718888D01*
X147031187Y-103471656D01*
X147102789Y-103205337D01*
X147121060Y-102930167D01*
X147085297Y-102656720D01*
X147020019Y-102463877D01*
X151433495Y-102463877D01*
X151493056Y-103140852D01*
X151683544Y-103793201D01*
X151997638Y-104395852D01*
X152037775Y-104455922D01*
X152485100Y-104773479D01*
X154758579Y-102500000D01*
X155041421Y-102500000D01*
X157314900Y-104773479D01*
X157762225Y-104455922D01*
X158088809Y-103859947D01*
X158292850Y-103211710D01*
X158315931Y-103000000D01*
X165266694Y-103000000D01*
X165274417Y-103078414D01*
X165297289Y-103153814D01*
X165334432Y-103223303D01*
X165384418Y-103284211D01*
X166515789Y-104415582D01*
X166576697Y-104465568D01*
X166646186Y-104502711D01*
X166721586Y-104525583D01*
X166800000Y-104533306D01*
X166878414Y-104525583D01*
X166953814Y-104502711D01*
X167023303Y-104465568D01*
X167084211Y-104415582D01*
X167273953Y-104225840D01*
X167251580Y-104271111D01*
X167197471Y-104449487D01*
X167314978Y-104667767D01*
X168326343Y-104667767D01*
X168412202Y-104753626D01*
X168553626Y-104612202D01*
X168467767Y-104526343D01*
X168467767Y-103514978D01*
X168667767Y-103514978D01*
X168667767Y-104667767D01*
X169820556Y-104667767D01*
X169938063Y-104449487D01*
X169849640Y-104188271D01*
X169711955Y-103949325D01*
X169530300Y-103741831D01*
X169311655Y-103573763D01*
X169064423Y-103451580D01*
X168886047Y-103397471D01*
X168667767Y-103514978D01*
X168467767Y-103514978D01*
X168249487Y-103397471D01*
X168027014Y-103472779D01*
X168215582Y-103284211D01*
X168265568Y-103223303D01*
X168302711Y-103153814D01*
X168325583Y-103078414D01*
X168333306Y-103000000D01*
X168325583Y-102921586D01*
X168302711Y-102846186D01*
X168265568Y-102776697D01*
X168215582Y-102715789D01*
X167084211Y-101584418D01*
X167023303Y-101534432D01*
X166953814Y-101497289D01*
X166878414Y-101474417D01*
X166800000Y-101466694D01*
X166721586Y-101474417D01*
X166646186Y-101497289D01*
X166576697Y-101534432D01*
X166515789Y-101584418D01*
X165384418Y-102715789D01*
X165334432Y-102776697D01*
X165297289Y-102846186D01*
X165274417Y-102921586D01*
X165266694Y-103000000D01*
X158315931Y-103000000D01*
X158366505Y-102536123D01*
X158306944Y-101859148D01*
X158116456Y-101206799D01*
X157802362Y-100604148D01*
X157762225Y-100544078D01*
X157314900Y-100226521D01*
X155041421Y-102500000D01*
X154758579Y-102500000D01*
X152485100Y-100226521D01*
X152037775Y-100544078D01*
X151711191Y-101140053D01*
X151507150Y-101788290D01*
X151433495Y-102463877D01*
X147020019Y-102463877D01*
X146996874Y-102395504D01*
X146909004Y-102231112D01*
X146671566Y-102159855D01*
X145856421Y-102975000D01*
X145573579Y-102975000D01*
X144758434Y-102159855D01*
X144520996Y-102231112D01*
X144398813Y-102478344D01*
X144363127Y-102611075D01*
X144278426Y-102406587D01*
X144147101Y-102210045D01*
X143979955Y-102042899D01*
X143943341Y-102018434D01*
X144899855Y-102018434D01*
X145715000Y-102833579D01*
X146530145Y-102018434D01*
X146458888Y-101780996D01*
X146211656Y-101658813D01*
X145945337Y-101587211D01*
X145670167Y-101568940D01*
X145396720Y-101604703D01*
X145135504Y-101693126D01*
X144971112Y-101780996D01*
X144899855Y-102018434D01*
X143943341Y-102018434D01*
X143783413Y-101911574D01*
X143565027Y-101821116D01*
X143333190Y-101775000D01*
X143096810Y-101775000D01*
X142864973Y-101821116D01*
X142646587Y-101911574D01*
X142450045Y-102042899D01*
X142282899Y-102210045D01*
X142151574Y-102406587D01*
X142061116Y-102624973D01*
X142015000Y-102856810D01*
X134795804Y-102856810D01*
X134804019Y-102841442D01*
X134872637Y-102615241D01*
X134895806Y-102380000D01*
X134872637Y-102144759D01*
X134804019Y-101918558D01*
X134692591Y-101710090D01*
X134542634Y-101527366D01*
X134359910Y-101377409D01*
X134151442Y-101265981D01*
X133925241Y-101197363D01*
X133748950Y-101180000D01*
X133631050Y-101180000D01*
X133454759Y-101197363D01*
X133228558Y-101265981D01*
X133020090Y-101377409D01*
X132837366Y-101527366D01*
X132687409Y-101710090D01*
X132575981Y-101918558D01*
X132507363Y-102144759D01*
X132484194Y-102380000D01*
X129022274Y-102380000D01*
X129063426Y-102318413D01*
X129153884Y-102100027D01*
X129200000Y-101868190D01*
X129200000Y-101631810D01*
X129153884Y-101399973D01*
X129063426Y-101181587D01*
X128932101Y-100985045D01*
X128764955Y-100817899D01*
X128568413Y-100686574D01*
X128350027Y-100596116D01*
X128118190Y-100550000D01*
X127881810Y-100550000D01*
X127649973Y-100596116D01*
X127431587Y-100686574D01*
X127235045Y-100817899D01*
X127067899Y-100985045D01*
X126936574Y-101181587D01*
X126846116Y-101399973D01*
X126800000Y-101631810D01*
X121574166Y-101631810D01*
X121562637Y-101514759D01*
X121494019Y-101288558D01*
X121382591Y-101080090D01*
X121232634Y-100897366D01*
X121049910Y-100747409D01*
X120841442Y-100635981D01*
X120615241Y-100567363D01*
X120438950Y-100550000D01*
X120321050Y-100550000D01*
X120144759Y-100567363D01*
X119918558Y-100635981D01*
X119710090Y-100747409D01*
X119527366Y-100897366D01*
X119377409Y-101080090D01*
X119265981Y-101288558D01*
X119197363Y-101514759D01*
X119174194Y-101750000D01*
X117761191Y-101750000D01*
X117820505Y-101647146D01*
X117908592Y-101387218D01*
X117791428Y-101170000D01*
X116645000Y-101170000D01*
X116445000Y-101170000D01*
X115298572Y-101170000D01*
X115181408Y-101387218D01*
X111440957Y-101387218D01*
X112271674Y-99975000D01*
X115683362Y-99975000D01*
X115587451Y-100048672D01*
M02*
